<svg width="36.000000" height="36.000000" viewBox="0 0 36 36" fill="none" xmlns="http://www.w3.org/2000/svg" xmlns:xlink="http://www.w3.org/1999/xlink">
	<desc>
			Created with Pixso.
	</desc>
	<defs>
		<clipPath id="clip14_3781">
			<rect id="Stroke 2/shopping-bag" rx="0.000000" width="35.000000" height="35.000000" transform="translate(0.500000 0.500000)" fill="white" fill-opacity="0"/>
		</clipPath>
	</defs>
	<rect id="Stroke 2/shopping-bag" rx="0.000000" width="35.000000" height="35.000000" transform="translate(0.500000 0.500000)" fill="#FFFFFF" fill-opacity="0"/>
	<g clip-path="url(#clip14_3781)">
		<path id="Vector" d="M5 7L19 7C20.1 7 21 7.89 21 9L21 20C21 21.1 20.1 22 19 22L5 22C3.89 22 3 21.1 3 20L3 9C3 7.89 3.89 7 5 7Z" stroke="#000000" stroke-opacity="1.000000" stroke-width="2.000000" stroke-linejoin="round"/>
		<path id="Vector" d="M8 10L8 6C8 3.79 9.79 2 12 2C14.2 2 16 3.79 16 6L16 9.68" stroke="#000000" stroke-opacity="1.000000" stroke-width="2.000000" stroke-linejoin="round" stroke-linecap="round"/>
	</g>
</svg>
