<svg width="64" height="64" viewBox="0 0 64 64" fill="none" xmlns="http://www.w3.org/2000/svg">
<rect x="-0.5" y="0.5" width="63" height="63" rx="2.5" transform="matrix(-1 0 0 1 63 0)" stroke="#111111"/>
<g clip-path="url(#clip0_474_3807)">
<path fill-rule="evenodd" clip-rule="evenodd" d="M46.4123 33.1698L16.6613 32.8428C16.1091 32.8367 15.6663 32.3841 15.6724 31.8318C15.6785 31.2796 16.1311 30.8368 16.6833 30.8429L46.5797 31.1715L34.9999 18.8193C34.6222 18.4164 34.6426 17.7836 35.0455 17.4058C35.4485 17.0281 36.0813 17.0485 36.459 17.4515L49.6415 31.5133C50.0192 31.9162 49.9988 32.549 49.5959 32.9268L34.8914 46.7117C34.4884 47.0894 33.8556 47.069 33.4779 46.6661C33.1002 46.2632 33.1206 45.6303 33.5235 45.2526L46.4123 33.1698Z" fill="#111111"/>
</g>
<defs>
<clipPath id="clip0_474_3807">
<rect width="30" height="30" fill="white" transform="translate(10.7866 32) rotate(-45)"/>
</clipPath>
</defs>
</svg>
