<svg width="522" height="362" viewBox="0 0 522 362" fill="none" xmlns="http://www.w3.org/2000/svg">
<g filter="url(#filter0_d_474_3688)">
<rect x="41" y="37" width="440" height="280" rx="3" fill="white"/>
<path fill-rule="evenodd" clip-rule="evenodd" d="M236.5 79C235.672 79 235 79.6716 235 80.5V154.5C235 155.328 235.672 156 236.5 156H285.5C286.328 156 287 155.328 287 154.5V136.37V80.5C287 79.6716 286.328 79 285.5 79H261H236.5ZM284 82V134.87H238V82H261H284ZM284 153V137.87H238V153H284ZM254.966 144.86C254.138 144.86 253.466 145.532 253.466 146.36C253.466 147.188 254.138 147.86 254.966 147.86H265.205C266.034 147.86 266.705 147.188 266.705 146.36C266.705 145.532 266.034 144.86 265.205 144.86H254.966ZM249.949 95.9535C250.243 95.6678 250.65 95.5 251.083 95.5H256.245L258.449 100.857L255.723 102.447C255.037 102.847 254.782 103.713 255.141 104.421C256.945 107.976 259.899 110.844 263.539 112.589C264.231 112.921 265.061 112.677 265.464 112.024L267.12 109.34L272.708 111.513V116.483C272.708 116.866 272.552 117.242 272.26 117.527C271.974 117.804 271.582 117.97 271.163 117.98C265.522 117.635 260.211 115.3 256.225 111.425C252.241 107.552 249.855 102.407 249.501 96.9585C249.511 96.5887 249.666 96.2281 249.949 95.9535ZM251.083 92.5C249.881 92.5 248.72 92.9639 247.857 93.8025C246.993 94.6425 246.5 95.791 246.5 96.9977C246.5 97.0289 246.501 97.0601 246.503 97.0913C246.892 103.316 249.61 109.178 254.134 113.576C258.656 117.972 264.669 120.602 271.037 120.978C271.066 120.979 271.095 120.98 271.125 120.98C272.327 120.98 273.488 120.516 274.351 119.678C275.215 118.838 275.708 117.689 275.708 116.483V110.487C275.708 109.869 275.329 109.313 274.752 109.089L267.044 106.092C266.369 105.829 265.604 106.086 265.224 106.702L263.65 109.251C261.554 108.014 259.795 106.313 258.515 104.291L261.089 102.79C261.736 102.413 262.005 101.616 261.721 100.923L258.637 93.4293C258.406 92.867 257.858 92.5 257.25 92.5H251.083Z" fill="#C5358C"/>
<path d="M171.018 243V230.15H180.237V243H179.35V230.968H171.923V243H171.018ZM191.584 238.21C191.584 238.948 191.493 239.622 191.312 240.231C191.13 240.835 190.86 241.356 190.503 241.796C190.146 242.235 189.7 242.575 189.167 242.815C188.64 243.056 188.024 243.176 187.321 243.176C186.653 243.176 186.059 243.059 185.537 242.824C185.016 242.584 184.573 242.244 184.21 241.805C183.853 241.365 183.58 240.844 183.393 240.24C183.205 239.631 183.111 238.954 183.111 238.21C183.111 237.185 183.281 236.303 183.621 235.564C183.967 234.82 184.459 234.252 185.098 233.859C185.742 233.461 186.513 233.262 187.409 233.262C188.335 233.262 189.105 233.473 189.721 233.895C190.342 234.311 190.808 234.891 191.118 235.635C191.429 236.379 191.584 237.237 191.584 238.21ZM184.025 238.21C184.025 239.048 184.146 239.78 184.386 240.407C184.626 241.034 184.989 241.523 185.476 241.875C185.968 242.227 186.589 242.402 187.339 242.402C188.106 242.402 188.736 242.227 189.229 241.875C189.721 241.523 190.084 241.031 190.318 240.398C190.553 239.766 190.67 239.036 190.67 238.21C190.67 237.407 190.559 236.692 190.336 236.065C190.113 235.438 189.762 234.946 189.281 234.589C188.801 234.226 188.174 234.044 187.4 234.044C186.293 234.044 185.452 234.413 184.878 235.151C184.31 235.89 184.025 236.909 184.025 238.21ZM204.987 234.229H201.753V243H200.883V234.229H197.666V233.446H204.987V234.229ZM210.551 233.262C211.365 233.262 212.042 233.452 212.581 233.833C213.126 234.214 213.53 234.735 213.794 235.397C214.063 236.06 214.198 236.818 214.198 237.674V238.315H207.299C207.299 239.628 207.601 240.636 208.204 241.339C208.813 242.042 209.684 242.394 210.814 242.394C211.406 242.394 211.919 242.347 212.353 242.253C212.792 242.153 213.278 241.986 213.812 241.752V242.569C213.343 242.78 212.874 242.933 212.405 243.026C211.937 243.126 211.397 243.176 210.788 243.176C209.821 243.176 209.01 242.977 208.354 242.578C207.703 242.174 207.211 241.605 206.877 240.873C206.549 240.141 206.385 239.285 206.385 238.307C206.385 237.352 206.543 236.493 206.859 235.731C207.182 234.97 207.65 234.369 208.266 233.93C208.887 233.484 209.648 233.262 210.551 233.262ZM210.542 234.026C209.628 234.026 208.887 234.331 208.318 234.94C207.756 235.544 207.425 236.417 207.325 237.56H213.275C213.275 236.862 213.176 236.247 212.977 235.714C212.777 235.181 212.476 234.768 212.071 234.475C211.673 234.176 211.163 234.026 210.542 234.026ZM223.453 243H222.565V234.22H219.226C219.114 235.726 218.982 237.038 218.83 238.157C218.678 239.271 218.481 240.193 218.241 240.926C218.001 241.652 217.702 242.194 217.345 242.552C216.987 242.909 216.545 243.088 216.018 243.088C215.865 243.088 215.73 243.079 215.613 243.062C215.496 243.05 215.402 243.032 215.332 243.009V242.288C215.402 242.306 215.481 242.32 215.569 242.332C215.657 242.338 215.766 242.341 215.895 242.341C216.193 242.341 216.46 242.229 216.694 242.007C216.929 241.778 217.137 241.433 217.318 240.97C217.506 240.507 217.667 239.924 217.802 239.221C217.937 238.512 218.054 237.677 218.153 236.716C218.259 235.755 218.353 234.665 218.435 233.446H223.453V243ZM230.256 233.262C231.07 233.262 231.747 233.452 232.286 233.833C232.831 234.214 233.235 234.735 233.499 235.397C233.769 236.06 233.903 236.818 233.903 237.674V238.315H227.004C227.004 239.628 227.306 240.636 227.909 241.339C228.519 242.042 229.389 242.394 230.52 242.394C231.111 242.394 231.624 242.347 232.058 242.253C232.497 242.153 232.983 241.986 233.517 241.752V242.569C233.048 242.78 232.579 242.933 232.11 243.026C231.642 243.126 231.103 243.176 230.493 243.176C229.526 243.176 228.715 242.977 228.059 242.578C227.408 242.174 226.916 241.605 226.582 240.873C226.254 240.141 226.09 239.285 226.09 238.307C226.09 237.352 226.248 236.493 226.564 235.731C226.887 234.97 227.355 234.369 227.971 233.93C228.592 233.484 229.354 233.262 230.256 233.262ZM230.247 234.026C229.333 234.026 228.592 234.331 228.023 234.94C227.461 235.544 227.13 236.417 227.03 237.56H232.98C232.98 236.862 232.881 236.247 232.682 235.714C232.482 235.181 232.181 234.768 231.776 234.475C231.378 234.176 230.868 234.026 230.247 234.026ZM241.4 229.324V233.297C242.355 233.355 243.173 233.59 243.853 234C244.538 234.404 245.062 234.964 245.426 235.679C245.789 236.388 245.971 237.231 245.971 238.21C245.971 239.142 245.792 239.968 245.435 240.688C245.077 241.403 244.556 241.975 243.87 242.402C243.19 242.83 242.367 243.076 241.4 243.141V247.324H240.539V243.141C239.584 243.094 238.764 242.865 238.078 242.455C237.398 242.045 236.877 241.479 236.514 240.759C236.15 240.038 235.969 239.188 235.969 238.21C235.969 237.237 236.147 236.396 236.505 235.688C236.868 234.973 237.39 234.41 238.069 234C238.755 233.59 239.584 233.355 240.557 233.297V229.324H241.4ZM240.557 234.07C239.748 234.111 239.071 234.305 238.526 234.65C237.981 234.996 237.571 235.471 237.296 236.074C237.026 236.678 236.892 237.39 236.892 238.21C236.892 239.054 237.029 239.78 237.305 240.39C237.58 240.993 237.99 241.465 238.535 241.805C239.08 242.145 239.754 242.335 240.557 242.376V234.07ZM241.4 234.079V242.376C242.197 242.323 242.865 242.118 243.404 241.761C243.949 241.403 244.359 240.923 244.635 240.319C244.916 239.71 245.057 239.007 245.057 238.21C245.057 236.962 244.749 235.98 244.134 235.266C243.524 234.551 242.613 234.155 241.4 234.079ZM256.518 238.21C256.518 238.948 256.427 239.622 256.245 240.231C256.063 240.835 255.794 241.356 255.437 241.796C255.079 242.235 254.634 242.575 254.101 242.815C253.573 243.056 252.958 243.176 252.255 243.176C251.587 243.176 250.992 243.059 250.471 242.824C249.949 242.584 249.507 242.244 249.144 241.805C248.786 241.365 248.514 240.844 248.326 240.24C248.139 239.631 248.045 238.954 248.045 238.21C248.045 237.185 248.215 236.303 248.555 235.564C248.9 234.82 249.393 234.252 250.031 233.859C250.676 233.461 251.446 233.262 252.343 233.262C253.269 233.262 254.039 233.473 254.654 233.895C255.275 234.311 255.741 234.891 256.052 235.635C256.362 236.379 256.518 237.237 256.518 238.21ZM248.959 238.21C248.959 239.048 249.079 239.78 249.319 240.407C249.56 241.034 249.923 241.523 250.409 241.875C250.901 242.227 251.522 242.402 252.272 242.402C253.04 242.402 253.67 242.227 254.162 241.875C254.654 241.523 255.018 241.031 255.252 240.398C255.486 239.766 255.604 239.036 255.604 238.21C255.604 237.407 255.492 236.692 255.27 236.065C255.047 235.438 254.695 234.946 254.215 234.589C253.734 234.226 253.107 234.044 252.334 234.044C251.227 234.044 250.386 234.413 249.812 235.151C249.243 235.89 248.959 236.909 248.959 238.21ZM260.06 233.446V237.63H266.08V233.446H266.968V243H266.08V238.412H260.06V243H259.163V233.446H260.06ZM268.585 233.446H269.525L271.846 239.511C271.986 239.868 272.109 240.199 272.215 240.504C272.326 240.803 272.423 241.078 272.505 241.33C272.587 241.576 272.654 241.802 272.707 242.007H272.76C272.848 241.737 272.965 241.392 273.111 240.97C273.258 240.542 273.425 240.067 273.612 239.546L275.906 233.446H276.855L272.496 244.793C272.285 245.344 272.054 245.81 271.802 246.19C271.55 246.577 271.254 246.867 270.914 247.061C270.574 247.26 270.164 247.359 269.684 247.359C269.467 247.359 269.271 247.342 269.095 247.307C268.919 247.277 268.749 247.236 268.585 247.184V246.419C268.737 246.466 268.893 246.504 269.051 246.533C269.215 246.568 269.394 246.586 269.587 246.586C269.921 246.586 270.208 246.516 270.448 246.375C270.694 246.24 270.914 246.029 271.107 245.742C271.301 245.455 271.482 245.089 271.652 244.644L272.303 242.947L268.585 233.446ZM279.457 240.908L279.536 241.119C279.442 241.559 279.325 242.021 279.185 242.508C279.05 242.994 278.9 243.478 278.736 243.958C278.578 244.444 278.408 244.898 278.227 245.32H277.541C277.693 244.787 277.831 244.266 277.954 243.756C278.077 243.252 278.186 242.763 278.279 242.288C278.373 241.808 278.449 241.348 278.508 240.908H279.457ZM294.891 238.21C294.891 238.948 294.8 239.622 294.618 240.231C294.437 240.835 294.167 241.356 293.81 241.796C293.452 242.235 293.007 242.575 292.474 242.815C291.946 243.056 291.331 243.176 290.628 243.176C289.96 243.176 289.365 243.059 288.844 242.824C288.322 242.584 287.88 242.244 287.517 241.805C287.159 241.365 286.887 240.844 286.699 240.24C286.512 239.631 286.418 238.954 286.418 238.21C286.418 237.185 286.588 236.303 286.928 235.564C287.273 234.82 287.766 234.252 288.404 233.859C289.049 233.461 289.819 233.262 290.716 233.262C291.642 233.262 292.412 233.473 293.027 233.895C293.648 234.311 294.114 234.891 294.425 235.635C294.735 236.379 294.891 237.237 294.891 238.21ZM287.332 238.21C287.332 239.048 287.452 239.78 287.692 240.407C287.933 241.034 288.296 241.523 288.782 241.875C289.274 242.227 289.896 242.402 290.646 242.402C291.413 242.402 292.043 242.227 292.535 241.875C293.027 241.523 293.391 241.031 293.625 240.398C293.859 239.766 293.977 239.036 293.977 238.21C293.977 237.407 293.865 236.692 293.643 236.065C293.42 235.438 293.068 234.946 292.588 234.589C292.107 234.226 291.48 234.044 290.707 234.044C289.6 234.044 288.759 234.413 288.185 235.151C287.616 235.89 287.332 236.909 287.332 238.21ZM298.433 233.446V237.63H304.453V233.446H305.341V243H304.453V238.412H298.433V243H297.536V233.446H298.433ZM315.158 243H314.271V234.22H310.931C310.819 235.726 310.688 237.038 310.535 238.157C310.383 239.271 310.187 240.193 309.946 240.926C309.706 241.652 309.407 242.194 309.05 242.552C308.692 242.909 308.25 243.088 307.723 243.088C307.57 243.088 307.436 243.079 307.318 243.062C307.201 243.05 307.107 243.032 307.037 243.009V242.288C307.107 242.306 307.187 242.32 307.274 242.332C307.362 242.338 307.471 242.341 307.6 242.341C307.898 242.341 308.165 242.229 308.399 242.007C308.634 241.778 308.842 241.433 309.023 240.97C309.211 240.507 309.372 239.924 309.507 239.221C309.642 238.512 309.759 237.677 309.858 236.716C309.964 235.755 310.058 234.665 310.14 233.446H315.158V243ZM321.68 233.279C322.729 233.279 323.514 233.543 324.035 234.07C324.557 234.598 324.817 235.438 324.817 236.593V243H324.132L323.974 241.33H323.921C323.716 241.688 323.467 242.007 323.174 242.288C322.881 242.563 322.521 242.78 322.093 242.938C321.671 243.097 321.155 243.176 320.546 243.176C319.931 243.176 319.403 243.073 318.964 242.868C318.53 242.663 318.193 242.364 317.953 241.972C317.719 241.579 317.602 241.102 317.602 240.539C317.602 239.59 317.994 238.869 318.779 238.377C319.564 237.879 320.692 237.598 322.163 237.533L323.938 237.445V236.751C323.938 235.772 323.745 235.075 323.358 234.659C322.972 234.243 322.4 234.035 321.645 234.035C321.152 234.035 320.678 234.1 320.221 234.229C319.77 234.352 319.31 234.53 318.841 234.765L318.56 234.026C319.017 233.81 319.506 233.631 320.027 233.49C320.555 233.35 321.105 233.279 321.68 233.279ZM323.93 238.14L322.26 238.21C321.047 238.269 320.124 238.485 319.491 238.86C318.858 239.235 318.542 239.798 318.542 240.548C318.542 241.151 318.729 241.614 319.104 241.937C319.485 242.259 320.013 242.42 320.687 242.42C321.735 242.42 322.535 242.121 323.086 241.523C323.643 240.926 323.924 240.111 323.93 239.08V238.14ZM328.755 233.446V240.311C328.755 240.445 328.752 240.583 328.746 240.724C328.746 240.864 328.743 241.008 328.737 241.154C328.737 241.301 328.734 241.444 328.729 241.585C328.723 241.726 328.714 241.863 328.702 241.998L334.406 233.446H335.496V243H334.652V236.074C334.652 235.898 334.652 235.717 334.652 235.529C334.658 235.336 334.664 235.146 334.67 234.958C334.676 234.765 334.682 234.583 334.688 234.413L328.957 243H327.894V233.446H328.755ZM334.591 229.623C334.556 230.186 334.421 230.648 334.187 231.012C333.958 231.375 333.633 231.647 333.211 231.829C332.789 232.005 332.279 232.093 331.682 232.093C331.078 232.093 330.571 232.008 330.161 231.838C329.757 231.662 329.443 231.393 329.221 231.029C329.004 230.66 328.881 230.191 328.852 229.623H329.695C329.754 230.268 329.938 230.73 330.249 231.012C330.565 231.287 331.046 231.425 331.69 231.425C332.317 231.425 332.801 231.287 333.141 231.012C333.486 230.736 333.686 230.273 333.738 229.623H334.591ZM339.601 233.446V237.63H345.621V233.446H346.509V243H345.621V238.412H339.601V243H338.704V233.446H339.601ZM106.576 256.446V263.311C106.576 263.445 106.573 263.583 106.567 263.724C106.567 263.864 106.564 264.008 106.559 264.154C106.559 264.301 106.556 264.444 106.55 264.585C106.544 264.726 106.535 264.863 106.523 264.998L112.228 256.446H113.317V266H112.474V259.074C112.474 258.898 112.474 258.717 112.474 258.529C112.479 258.336 112.485 258.146 112.491 257.958C112.497 257.765 112.503 257.583 112.509 257.413L106.778 266H105.715V256.446H106.576ZM123.144 266H122.256V257.22H118.916C118.805 258.726 118.673 260.038 118.521 261.157C118.368 262.271 118.172 263.193 117.932 263.926C117.691 264.652 117.393 265.194 117.035 265.552C116.678 265.909 116.235 266.088 115.708 266.088C115.556 266.088 115.421 266.079 115.304 266.062C115.187 266.05 115.093 266.032 115.022 266.009V265.288C115.093 265.306 115.172 265.32 115.26 265.332C115.348 265.338 115.456 265.341 115.585 265.341C115.884 265.341 116.15 265.229 116.385 265.007C116.619 264.778 116.827 264.433 117.009 263.97C117.196 263.507 117.357 262.924 117.492 262.221C117.627 261.512 117.744 260.677 117.844 259.716C117.949 258.755 118.043 257.665 118.125 256.446H123.144V266ZM127.195 256.446V263.311C127.195 263.445 127.192 263.583 127.187 263.724C127.187 263.864 127.184 264.008 127.178 264.154C127.178 264.301 127.175 264.444 127.169 264.585C127.163 264.726 127.154 264.863 127.143 264.998L132.847 256.446H133.937V266H133.093V259.074C133.093 258.898 133.093 258.717 133.093 258.529C133.099 258.336 133.104 258.146 133.11 257.958C133.116 257.765 133.122 257.583 133.128 257.413L127.397 266H126.334V256.446H127.195ZM148.975 258.775C148.975 259.379 148.816 259.854 148.5 260.199C148.189 260.545 147.776 260.779 147.261 260.902V260.955C147.888 261.049 148.392 261.286 148.772 261.667C149.159 262.042 149.353 262.581 149.353 263.284C149.353 263.841 149.229 264.321 148.983 264.726C148.737 265.13 148.359 265.443 147.85 265.666C147.346 265.889 146.698 266 145.907 266H141.82V256.446H145.802C146.505 256.446 147.091 256.537 147.56 256.719C148.028 256.895 148.38 257.155 148.614 257.501C148.854 257.841 148.975 258.266 148.975 258.775ZM148.43 263.284C148.43 262.599 148.198 262.106 147.735 261.808C147.272 261.509 146.593 261.359 145.696 261.359H142.717V265.244H145.749C146.646 265.244 147.316 265.086 147.762 264.77C148.207 264.447 148.43 263.952 148.43 263.284ZM148.069 258.846C148.069 258.342 147.891 257.946 147.533 257.659C147.176 257.366 146.569 257.22 145.714 257.22H142.717V260.577H145.626C146.47 260.577 147.088 260.434 147.48 260.146C147.873 259.854 148.069 259.42 148.069 258.846ZM156.164 260.261C156.164 259.06 156.258 258.025 156.445 257.158C156.639 256.291 156.923 255.576 157.298 255.014C157.679 254.445 158.15 254.015 158.713 253.722C159.34 253.317 160.093 253.007 160.972 252.79C161.856 252.573 162.882 252.397 164.048 252.263L164.188 253.054C163.579 253.124 163.014 253.203 162.492 253.291C161.977 253.379 161.505 253.479 161.077 253.59C160.649 253.695 160.266 253.815 159.926 253.95C159.592 254.085 159.302 254.237 159.056 254.407C158.669 254.642 158.338 254.973 158.062 255.4C157.787 255.822 157.567 256.344 157.403 256.965C157.239 257.586 157.137 258.312 157.096 259.145H157.166C157.383 258.752 157.664 258.403 158.01 258.099C158.361 257.794 158.766 257.554 159.223 257.378C159.68 257.196 160.181 257.105 160.726 257.105C161.528 257.105 162.202 257.275 162.747 257.615C163.298 257.949 163.714 258.441 163.995 259.092C164.276 259.736 164.417 260.521 164.417 261.447C164.417 262.396 164.265 263.229 163.96 263.943C163.655 264.652 163.198 265.203 162.589 265.596C161.985 265.982 161.229 266.176 160.321 266.176C159.583 266.176 158.95 266.026 158.423 265.728C157.896 265.423 157.465 265.004 157.131 264.471C156.803 263.932 156.56 263.305 156.401 262.59C156.243 261.869 156.164 261.093 156.164 260.261ZM160.392 265.402C161.095 265.402 161.675 265.247 162.132 264.937C162.589 264.62 162.929 264.172 163.151 263.592C163.374 263.006 163.485 262.312 163.485 261.509C163.485 260.319 163.242 259.42 162.756 258.811C162.27 258.195 161.558 257.888 160.62 257.888C160.075 257.888 159.58 257.987 159.135 258.187C158.689 258.386 158.294 258.661 157.948 259.013C157.608 259.358 157.315 259.757 157.069 260.208C157.069 260.858 157.119 261.494 157.219 262.115C157.318 262.73 157.491 263.287 157.737 263.785C157.983 264.283 158.32 264.679 158.748 264.972C159.182 265.259 159.729 265.402 160.392 265.402ZM173.646 266H172.758V257.22H169.418C169.307 258.726 169.175 260.038 169.022 261.157C168.87 262.271 168.674 263.193 168.434 263.926C168.193 264.652 167.895 265.194 167.537 265.552C167.18 265.909 166.737 266.088 166.21 266.088C166.058 266.088 165.923 266.079 165.806 266.062C165.688 266.05 165.595 266.032 165.524 266.009V265.288C165.595 265.306 165.674 265.32 165.762 265.332C165.85 265.338 165.958 265.341 166.087 265.341C166.386 265.341 166.652 265.229 166.887 265.007C167.121 264.778 167.329 264.433 167.511 263.97C167.698 263.507 167.859 262.924 167.994 262.221C168.129 261.512 168.246 260.677 168.346 259.716C168.451 258.755 168.545 257.665 168.627 256.446H173.646V266ZM177.697 256.446V263.311C177.697 263.445 177.694 263.583 177.688 263.724C177.688 263.864 177.686 264.008 177.68 264.154C177.68 264.301 177.677 264.444 177.671 264.585C177.665 264.726 177.656 264.863 177.645 264.998L183.349 256.446H184.438V266H183.595V259.074C183.595 258.898 183.595 258.717 183.595 258.529C183.601 258.336 183.606 258.146 183.612 257.958C183.618 257.765 183.624 257.583 183.63 257.413L177.899 266H176.836V256.446H177.697ZM197.569 256.446L193.412 261.113L197.895 266H196.822L192.445 261.157V266H191.602V261.157L187.225 266H186.152L190.635 261.113L186.46 256.446H187.497L191.602 261.087V256.446H192.445V261.087L196.55 256.446H197.569ZM202.948 256.279C203.997 256.279 204.782 256.543 205.304 257.07C205.825 257.598 206.086 258.438 206.086 259.593V266H205.4L205.242 264.33H205.189C204.984 264.688 204.735 265.007 204.442 265.288C204.149 265.563 203.789 265.78 203.361 265.938C202.939 266.097 202.424 266.176 201.814 266.176C201.199 266.176 200.672 266.073 200.232 265.868C199.799 265.663 199.462 265.364 199.222 264.972C198.987 264.579 198.87 264.102 198.87 263.539C198.87 262.59 199.263 261.869 200.048 261.377C200.833 260.879 201.961 260.598 203.432 260.533L205.207 260.445V259.751C205.207 258.772 205.014 258.075 204.627 257.659C204.24 257.243 203.669 257.035 202.913 257.035C202.421 257.035 201.946 257.1 201.489 257.229C201.038 257.352 200.578 257.53 200.109 257.765L199.828 257.026C200.285 256.81 200.774 256.631 201.296 256.49C201.823 256.35 202.374 256.279 202.948 256.279ZM205.198 261.14L203.528 261.21C202.315 261.269 201.393 261.485 200.76 261.86C200.127 262.235 199.811 262.798 199.811 263.548C199.811 264.151 199.998 264.614 200.373 264.937C200.754 265.259 201.281 265.42 201.955 265.42C203.004 265.42 203.804 265.121 204.354 264.523C204.911 263.926 205.192 263.111 205.198 262.08V261.14ZM210.023 256.446V263.311C210.023 263.445 210.021 263.583 210.015 263.724C210.015 263.864 210.012 264.008 210.006 264.154C210.006 264.301 210.003 264.444 209.997 264.585C209.991 264.726 209.982 264.863 209.971 264.998L215.675 256.446H216.765V266H215.921V259.074C215.921 258.898 215.921 258.717 215.921 258.529C215.927 258.336 215.933 258.146 215.938 257.958C215.944 257.765 215.95 257.583 215.956 257.413L210.226 266H209.162V256.446H210.023ZM215.859 252.623C215.824 253.186 215.689 253.648 215.455 254.012C215.227 254.375 214.901 254.647 214.479 254.829C214.058 255.005 213.548 255.093 212.95 255.093C212.347 255.093 211.84 255.008 211.43 254.838C211.025 254.662 210.712 254.393 210.489 254.029C210.272 253.66 210.149 253.191 210.12 252.623H210.964C211.022 253.268 211.207 253.73 211.518 254.012C211.834 254.287 212.314 254.425 212.959 254.425C213.586 254.425 214.069 254.287 214.409 254.012C214.755 253.736 214.954 253.273 215.007 252.623H215.859ZM232.11 256.446V266H219.955V256.446H220.843V265.218H225.589V256.446H226.477V265.218H231.223V256.446H232.11ZM238.913 256.262C239.728 256.262 240.404 256.452 240.943 256.833C241.488 257.214 241.893 257.735 242.156 258.397C242.426 259.06 242.561 259.818 242.561 260.674V261.315H235.661C235.661 262.628 235.963 263.636 236.566 264.339C237.176 265.042 238.046 265.394 239.177 265.394C239.769 265.394 240.281 265.347 240.715 265.253C241.154 265.153 241.641 264.986 242.174 264.752V265.569C241.705 265.78 241.236 265.933 240.768 266.026C240.299 266.126 239.76 266.176 239.15 266.176C238.184 266.176 237.372 265.977 236.716 265.578C236.065 265.174 235.573 264.605 235.239 263.873C234.911 263.141 234.747 262.285 234.747 261.307C234.747 260.352 234.905 259.493 235.222 258.731C235.544 257.97 236.013 257.369 236.628 256.93C237.249 256.484 238.011 256.262 238.913 256.262ZM238.904 257.026C237.99 257.026 237.249 257.331 236.681 257.94C236.118 258.544 235.787 259.417 235.688 260.56H241.638C241.638 259.862 241.538 259.247 241.339 258.714C241.14 258.181 240.838 257.768 240.434 257.475C240.035 257.176 239.525 257.026 238.904 257.026ZM254.496 256.446V266H253.67V259.127C253.67 258.869 253.673 258.623 253.679 258.389C253.69 258.154 253.702 257.902 253.714 257.633H253.67L250.207 266H249.434L245.997 257.624H245.953C245.965 257.894 245.974 258.148 245.979 258.389C245.985 258.623 245.988 258.887 245.988 259.18V266H245.153V256.446H246.375L249.829 264.884L253.301 256.446H254.496ZM265.843 266.176C264.894 266.176 264.091 265.979 263.435 265.587C262.784 265.188 262.292 264.623 261.958 263.891C261.63 263.152 261.466 262.279 261.466 261.271C261.466 260.223 261.656 259.326 262.037 258.582C262.418 257.832 262.954 257.258 263.646 256.859C264.337 256.461 265.148 256.262 266.08 256.262C266.537 256.262 266.962 256.303 267.354 256.385C267.747 256.467 268.102 256.581 268.418 256.728L268.181 257.51C267.853 257.363 267.504 257.252 267.135 257.176C266.766 257.1 266.411 257.062 266.071 257.062C265.286 257.062 264.618 257.234 264.067 257.58C263.522 257.92 263.104 258.406 262.811 259.039C262.523 259.666 262.38 260.407 262.38 261.263C262.38 262.065 262.503 262.777 262.749 263.398C262.995 264.014 263.373 264.5 263.883 264.857C264.393 265.209 265.046 265.385 265.843 265.385C266.306 265.385 266.745 265.338 267.161 265.244C267.583 265.15 267.967 265.03 268.312 264.884V265.692C268.002 265.833 267.642 265.947 267.231 266.035C266.827 266.129 266.364 266.176 265.843 266.176ZM274.192 256.262C275.007 256.262 275.684 256.452 276.223 256.833C276.768 257.214 277.172 257.735 277.436 258.397C277.705 259.06 277.84 259.818 277.84 260.674V261.315H270.94C270.94 262.628 271.242 263.636 271.846 264.339C272.455 265.042 273.325 265.394 274.456 265.394C275.048 265.394 275.561 265.347 275.994 265.253C276.434 265.153 276.92 264.986 277.453 264.752V265.569C276.984 265.78 276.516 265.933 276.047 266.026C275.578 266.126 275.039 266.176 274.43 266.176C273.463 266.176 272.651 265.977 271.995 265.578C271.345 265.174 270.853 264.605 270.519 263.873C270.19 263.141 270.026 262.285 270.026 261.307C270.026 260.352 270.185 259.493 270.501 258.731C270.823 257.97 271.292 257.369 271.907 256.93C272.528 256.484 273.29 256.262 274.192 256.262ZM274.184 257.026C273.27 257.026 272.528 257.331 271.96 257.94C271.397 258.544 271.066 259.417 270.967 260.56H276.917C276.917 259.862 276.817 259.247 276.618 258.714C276.419 258.181 276.117 257.768 275.713 257.475C275.314 257.176 274.805 257.026 274.184 257.026ZM284.704 256.262C285.935 256.262 286.887 256.675 287.561 257.501C288.24 258.327 288.58 259.546 288.58 261.157C288.58 262.235 288.419 263.149 288.097 263.899C287.774 264.644 287.314 265.209 286.717 265.596C286.125 265.982 285.413 266.176 284.581 266.176C284.007 266.176 283.506 266.091 283.078 265.921C282.656 265.745 282.305 265.511 282.023 265.218C281.742 264.919 281.525 264.591 281.373 264.233H281.312C281.329 264.567 281.344 264.916 281.355 265.279C281.367 265.643 281.373 265.985 281.373 266.308V270.228H280.477V256.446H281.215L281.32 258.354H281.373C281.531 257.99 281.754 257.647 282.041 257.325C282.328 257.003 282.691 256.745 283.131 256.552C283.57 256.358 284.095 256.262 284.704 256.262ZM284.59 257.044C283.869 257.044 283.269 257.202 282.788 257.519C282.313 257.829 281.959 258.286 281.725 258.89C281.496 259.487 281.379 260.22 281.373 261.087V261.236C281.373 262.168 281.487 262.944 281.716 263.565C281.95 264.181 282.299 264.641 282.762 264.945C283.23 265.25 283.811 265.402 284.502 265.402C285.182 265.402 285.756 265.235 286.225 264.901C286.693 264.567 287.051 264.084 287.297 263.451C287.543 262.818 287.666 262.051 287.666 261.148C287.666 259.807 287.408 258.787 286.893 258.09C286.383 257.393 285.615 257.044 284.59 257.044ZM298.354 258.775C298.354 259.379 298.195 259.854 297.879 260.199C297.568 260.545 297.155 260.779 296.64 260.902V260.955C297.267 261.049 297.771 261.286 298.151 261.667C298.538 262.042 298.731 262.581 298.731 263.284C298.731 263.841 298.608 264.321 298.362 264.726C298.116 265.13 297.738 265.443 297.229 265.666C296.725 265.889 296.077 266 295.286 266H291.199V256.446H295.181C295.884 256.446 296.47 256.537 296.938 256.719C297.407 256.895 297.759 257.155 297.993 257.501C298.233 257.841 298.354 258.266 298.354 258.775ZM297.809 263.284C297.809 262.599 297.577 262.106 297.114 261.808C296.651 261.509 295.972 261.359 295.075 261.359H292.096V265.244H295.128C296.024 265.244 296.695 265.086 297.141 264.77C297.586 264.447 297.809 263.952 297.809 263.284ZM297.448 258.846C297.448 258.342 297.27 257.946 296.912 257.659C296.555 257.366 295.948 257.22 295.093 257.22H292.096V260.577H295.005C295.849 260.577 296.467 260.434 296.859 260.146C297.252 259.854 297.448 259.42 297.448 258.846ZM302.256 256.446V263.311C302.256 263.445 302.253 263.583 302.247 263.724C302.247 263.864 302.244 264.008 302.238 264.154C302.238 264.301 302.235 264.444 302.229 264.585C302.224 264.726 302.215 264.863 302.203 264.998L307.907 256.446H308.997V266H308.153V259.074C308.153 258.898 308.153 258.717 308.153 258.529C308.159 258.336 308.165 258.146 308.171 257.958C308.177 257.765 308.183 257.583 308.188 257.413L302.458 266H301.395V256.446H302.256ZM316.028 266.176C315.079 266.176 314.276 265.979 313.62 265.587C312.97 265.188 312.478 264.623 312.144 263.891C311.815 263.152 311.651 262.279 311.651 261.271C311.651 260.223 311.842 259.326 312.223 258.582C312.604 257.832 313.14 257.258 313.831 256.859C314.522 256.461 315.334 256.262 316.266 256.262C316.723 256.262 317.147 256.303 317.54 256.385C317.933 256.467 318.287 256.581 318.604 256.728L318.366 257.51C318.038 257.363 317.689 257.252 317.32 257.176C316.951 257.1 316.597 257.062 316.257 257.062C315.472 257.062 314.804 257.234 314.253 257.58C313.708 257.92 313.289 258.406 312.996 259.039C312.709 259.666 312.565 260.407 312.565 261.263C312.565 262.065 312.688 262.777 312.935 263.398C313.181 264.014 313.559 264.5 314.068 264.857C314.578 265.209 315.231 265.385 316.028 265.385C316.491 265.385 316.931 265.338 317.347 265.244C317.769 265.15 318.152 265.03 318.498 264.884V265.692C318.188 265.833 317.827 265.947 317.417 266.035C317.013 266.129 316.55 266.176 316.028 266.176ZM321.662 256.446V260.63H327.683V256.446H328.57V266H327.683V261.412H321.662V266H320.766V256.446H321.662ZM339.688 261.21C339.688 261.948 339.598 262.622 339.416 263.231C339.234 263.835 338.965 264.356 338.607 264.796C338.25 265.235 337.805 265.575 337.271 265.815C336.744 266.056 336.129 266.176 335.426 266.176C334.758 266.176 334.163 266.059 333.642 265.824C333.12 265.584 332.678 265.244 332.314 264.805C331.957 264.365 331.685 263.844 331.497 263.24C331.31 262.631 331.216 261.954 331.216 261.21C331.216 260.185 331.386 259.303 331.726 258.564C332.071 257.82 332.563 257.252 333.202 256.859C333.847 256.461 334.617 256.262 335.514 256.262C336.439 256.262 337.21 256.473 337.825 256.895C338.446 257.311 338.912 257.891 339.223 258.635C339.533 259.379 339.688 260.237 339.688 261.21ZM332.13 261.21C332.13 262.048 332.25 262.78 332.49 263.407C332.73 264.034 333.094 264.523 333.58 264.875C334.072 265.227 334.693 265.402 335.443 265.402C336.211 265.402 336.841 265.227 337.333 264.875C337.825 264.523 338.188 264.031 338.423 263.398C338.657 262.766 338.774 262.036 338.774 261.21C338.774 260.407 338.663 259.692 338.44 259.065C338.218 258.438 337.866 257.946 337.386 257.589C336.905 257.226 336.278 257.044 335.505 257.044C334.397 257.044 333.557 257.413 332.982 258.151C332.414 258.89 332.13 259.909 332.13 261.21ZM351.633 256.446V266H350.807V259.127C350.807 258.869 350.81 258.623 350.815 258.389C350.827 258.154 350.839 257.902 350.851 257.633H350.807L347.344 266H346.57L343.134 257.624H343.09C343.102 257.894 343.11 258.148 343.116 258.389C343.122 258.623 343.125 258.887 343.125 259.18V266H342.29V256.446H343.512L346.966 264.884L350.438 256.446H351.633ZM367.875 269.234H367.005V266H359.156V256.446H360.053V265.218H365.713V256.446H366.601V265.227H367.875V269.234ZM373.526 256.262C374.341 256.262 375.018 256.452 375.557 256.833C376.102 257.214 376.506 257.735 376.77 258.397C377.039 259.06 377.174 259.818 377.174 260.674V261.315H370.274C370.274 262.628 370.576 263.636 371.18 264.339C371.789 265.042 372.659 265.394 373.79 265.394C374.382 265.394 374.895 265.347 375.328 265.253C375.768 265.153 376.254 264.986 376.787 264.752V265.569C376.318 265.78 375.85 265.933 375.381 266.026C374.912 266.126 374.373 266.176 373.764 266.176C372.797 266.176 371.985 265.977 371.329 265.578C370.679 265.174 370.187 264.605 369.853 263.873C369.524 263.141 369.36 262.285 369.36 261.307C369.36 260.352 369.519 259.493 369.835 258.731C370.157 257.97 370.626 257.369 371.241 256.93C371.862 256.484 372.624 256.262 373.526 256.262ZM373.518 257.026C372.604 257.026 371.862 257.331 371.294 257.94C370.731 258.544 370.4 259.417 370.301 260.56H376.251C376.251 259.862 376.151 259.247 375.952 258.714C375.753 258.181 375.451 257.768 375.047 257.475C374.648 257.176 374.139 257.026 373.518 257.026ZM380.707 256.446V260.63H386.728V256.446H387.615V266H386.728V261.412H380.707V266H379.811V256.446H380.707ZM396.896 257.229H393.662V266H392.792V257.229H389.575V256.446H396.896V257.229ZM403.075 256.262C404.306 256.262 405.258 256.675 405.932 257.501C406.611 258.327 406.951 259.546 406.951 261.157C406.951 262.235 406.79 263.149 406.468 263.899C406.146 264.644 405.686 265.209 405.088 265.596C404.496 265.982 403.784 266.176 402.952 266.176C402.378 266.176 401.877 266.091 401.449 265.921C401.027 265.745 400.676 265.511 400.395 265.218C400.113 264.919 399.896 264.591 399.744 264.233H399.683C399.7 264.567 399.715 264.916 399.727 265.279C399.738 265.643 399.744 265.985 399.744 266.308V270.228H398.848V256.446H399.586L399.691 258.354H399.744C399.902 257.99 400.125 257.647 400.412 257.325C400.699 257.003 401.062 256.745 401.502 256.552C401.941 256.358 402.466 256.262 403.075 256.262ZM402.961 257.044C402.24 257.044 401.64 257.202 401.159 257.519C400.685 257.829 400.33 258.286 400.096 258.89C399.867 259.487 399.75 260.22 399.744 261.087V261.236C399.744 262.168 399.858 262.944 400.087 263.565C400.321 264.181 400.67 264.641 401.133 264.945C401.602 265.25 402.182 265.402 402.873 265.402C403.553 265.402 404.127 265.235 404.596 264.901C405.064 264.567 405.422 264.084 405.668 263.451C405.914 262.818 406.037 262.051 406.037 261.148C406.037 259.807 405.779 258.787 405.264 258.09C404.754 257.393 403.986 257.044 402.961 257.044ZM413.183 256.262C413.997 256.262 414.674 256.452 415.213 256.833C415.758 257.214 416.162 257.735 416.426 258.397C416.695 259.06 416.83 259.818 416.83 260.674V261.315H409.931C409.931 262.628 410.232 263.636 410.836 264.339C411.445 265.042 412.315 265.394 413.446 265.394C414.038 265.394 414.551 265.347 414.984 265.253C415.424 265.153 415.91 264.986 416.443 264.752V265.569C415.975 265.78 415.506 265.933 415.037 266.026C414.568 266.126 414.029 266.176 413.42 266.176C412.453 266.176 411.642 265.977 410.985 265.578C410.335 265.174 409.843 264.605 409.509 263.873C409.181 263.141 409.017 262.285 409.017 261.307C409.017 260.352 409.175 259.493 409.491 258.731C409.813 257.97 410.282 257.369 410.897 256.93C411.519 256.484 412.28 256.262 413.183 256.262ZM413.174 257.026C412.26 257.026 411.519 257.331 410.95 257.94C410.388 258.544 410.057 259.417 409.957 260.56H415.907C415.907 259.862 415.808 259.247 415.608 258.714C415.409 258.181 415.107 257.768 414.703 257.475C414.305 257.176 413.795 257.026 413.174 257.026Z" fill="black"/>
<path d="M151.558 194.8C152.851 194.8 154.031 195.12 155.098 195.76C156.164 196.387 157.004 197.253 157.618 198.36C158.231 199.453 158.538 200.667 158.538 202C158.538 203.333 158.231 204.553 157.618 205.66C157.004 206.753 156.164 207.62 155.098 208.26C154.031 208.887 152.851 209.2 151.558 209.2C149.931 209.2 148.518 208.767 147.318 207.9C146.118 207.033 145.284 205.867 144.818 204.4H146.958C147.878 206.32 149.411 207.28 151.558 207.28C152.371 207.28 153.118 207.093 153.798 206.72C154.478 206.347 155.044 205.833 155.498 205.18C155.951 204.513 156.238 203.767 156.358 202.94H149.818V201.06H156.358C156.238 200.233 155.951 199.493 155.498 198.84C155.044 198.173 154.478 197.653 153.798 197.28C153.118 196.907 152.371 196.72 151.558 196.72C149.411 196.72 147.878 197.68 146.958 199.6H144.818C145.284 198.133 146.118 196.967 147.318 196.1C148.518 195.233 149.931 194.8 151.558 194.8ZM164.327 204.36L162.907 205.68V209H161.047V199H162.907V203.48L167.607 199H170.127L165.747 203.04L170.547 209H168.007L164.327 204.36ZM170.733 204C170.733 203.04 170.967 202.167 171.433 201.38C171.9 200.58 172.54 199.953 173.353 199.5C174.167 199.033 175.067 198.8 176.053 198.8C177.16 198.8 178.153 199.127 179.033 199.78C179.927 200.42 180.513 201.26 180.793 202.3H178.713C178.487 201.767 178.12 201.347 177.613 201.04C177.12 200.72 176.567 200.56 175.953 200.56C175.327 200.56 174.767 200.713 174.273 201.02C173.78 201.313 173.393 201.727 173.113 202.26C172.833 202.78 172.693 203.36 172.693 204C172.693 204.64 172.833 205.227 173.113 205.76C173.393 206.28 173.78 206.693 174.273 207C174.767 207.293 175.327 207.44 175.953 207.44C176.567 207.44 177.12 207.287 177.613 206.98C178.12 206.66 178.487 206.233 178.713 205.7H180.793C180.513 206.74 179.927 207.587 179.033 208.24C178.153 208.88 177.16 209.2 176.053 209.2C175.067 209.2 174.167 208.973 173.353 208.52C172.54 208.053 171.9 207.427 171.433 206.64C170.967 205.84 170.733 204.96 170.733 204ZM191.903 209H190.003V200.8H184.803V209H182.903V199H191.903V209ZM199.33 198.8C200.356 198.8 201.25 199.02 202.01 199.46C202.783 199.9 203.376 200.527 203.79 201.34C204.203 202.14 204.41 203.08 204.41 204.16C204.41 204.44 204.403 204.647 204.39 204.78H196.19C196.323 205.553 196.683 206.193 197.27 206.7C197.87 207.193 198.563 207.44 199.35 207.44C200.643 207.44 201.563 206.967 202.11 206.02H204.07C203.75 206.953 203.156 207.72 202.29 208.32C201.423 208.907 200.443 209.2 199.35 209.2C198.376 209.2 197.496 208.98 196.71 208.54C195.923 208.087 195.31 207.467 194.87 206.68C194.43 205.88 194.21 204.987 194.21 204C194.21 203.013 194.43 202.127 194.87 201.34C195.31 200.54 195.916 199.92 196.69 199.48C197.476 199.027 198.356 198.8 199.33 198.8ZM199.29 200.48C198.503 200.48 197.823 200.727 197.25 201.22C196.69 201.713 196.343 202.347 196.21 203.12H202.35C202.27 202.32 201.943 201.68 201.37 201.2C200.81 200.72 200.116 200.48 199.29 200.48ZM211.991 198.8C212.871 198.8 213.671 199.027 214.391 199.48C215.111 199.92 215.678 200.533 216.091 201.32C216.505 202.107 216.711 203 216.711 204C216.711 205 216.505 205.893 216.091 206.68C215.678 207.467 215.111 208.087 214.391 208.54C213.671 208.98 212.871 209.2 211.991 209.2C211.325 209.2 210.698 209.053 210.111 208.76C209.525 208.453 209.025 208.033 208.611 207.5V212.4H206.711V199H208.511V200.62C208.938 200.047 209.451 199.6 210.051 199.28C210.651 198.96 211.298 198.8 211.991 198.8ZM211.671 207.44C212.258 207.44 212.785 207.293 213.251 207C213.718 206.707 214.085 206.3 214.351 205.78C214.618 205.247 214.751 204.653 214.751 204C214.751 203.347 214.618 202.76 214.351 202.24C214.085 201.707 213.718 201.293 213.251 201C212.785 200.707 212.258 200.56 211.671 200.56C211.085 200.56 210.551 200.707 210.071 201C209.591 201.293 209.218 201.707 208.951 202.24C208.685 202.76 208.551 203.347 208.551 204C208.551 204.653 208.685 205.247 208.951 205.78C209.218 206.3 209.591 206.707 210.071 207C210.551 207.293 211.085 207.44 211.671 207.44ZM226.225 200.8H222.725V209H220.825V200.8H217.325V199H226.225V200.8ZM237.118 199V209H235.218V204.9H230.018V209H228.118V199H230.018V203.1H235.218V199H237.118ZM249.425 199V209H247.525V207.5C247.111 208.033 246.611 208.453 246.025 208.76C245.438 209.053 244.811 209.2 244.145 209.2C243.265 209.2 242.465 208.98 241.745 208.54C241.025 208.087 240.458 207.467 240.045 206.68C239.631 205.893 239.425 205 239.425 204C239.425 203 239.631 202.107 240.045 201.32C240.458 200.533 241.025 199.92 241.745 199.48C242.465 199.027 243.265 198.8 244.145 198.8C244.838 198.8 245.485 198.96 246.085 199.28C246.685 199.6 247.198 200.047 247.625 200.62V199H249.425ZM244.465 207.44C245.051 207.44 245.585 207.293 246.065 207C246.545 206.707 246.918 206.3 247.185 205.78C247.451 205.247 247.585 204.653 247.585 204C247.585 203.347 247.451 202.76 247.185 202.24C246.918 201.707 246.545 201.293 246.065 201C245.585 200.707 245.051 200.56 244.465 200.56C243.878 200.56 243.351 200.707 242.885 201C242.418 201.293 242.051 201.707 241.785 202.24C241.518 202.76 241.385 203.347 241.385 204C241.385 204.653 241.518 205.247 241.785 205.78C242.051 206.3 242.418 206.707 242.885 207C243.351 207.293 243.878 207.44 244.465 207.44ZM260.349 209H258.449V205.24H256.489L253.409 209H251.129L254.329 205.12C253.609 204.933 253.049 204.573 252.649 204.04C252.249 203.493 252.049 202.853 252.049 202.12C252.049 201.213 252.343 200.467 252.929 199.88C253.529 199.293 254.356 199 255.409 199H260.349V209ZM258.449 203.58V200.7H255.669C255.123 200.7 254.709 200.827 254.429 201.08C254.149 201.32 254.009 201.673 254.009 202.14C254.009 202.607 254.149 202.967 254.429 203.22C254.709 203.46 255.123 203.58 255.669 203.58H258.449ZM278.153 209H276.253V200.8H271.053V209H269.153V199H278.153V209ZM285.78 209.2C284.793 209.2 283.893 208.973 283.08 208.52C282.266 208.053 281.626 207.427 281.16 206.64C280.693 205.84 280.46 204.96 280.46 204C280.46 203.04 280.693 202.167 281.16 201.38C281.626 200.58 282.266 199.953 283.08 199.5C283.893 199.033 284.793 198.8 285.78 198.8C286.753 198.8 287.64 199.033 288.44 199.5C289.253 199.953 289.893 200.58 290.36 201.38C290.826 202.167 291.06 203.04 291.06 204C291.06 204.96 290.826 205.84 290.36 206.64C289.893 207.427 289.253 208.053 288.44 208.52C287.64 208.973 286.753 209.2 285.78 209.2ZM285.78 207.44C286.393 207.44 286.953 207.293 287.46 207C287.966 206.693 288.366 206.28 288.66 205.76C288.953 205.227 289.1 204.64 289.1 204C289.1 203.36 288.953 202.78 288.66 202.26C288.366 201.727 287.966 201.313 287.46 201.02C286.953 200.713 286.393 200.56 285.78 200.56C285.153 200.56 284.58 200.713 284.06 201.02C283.553 201.313 283.153 201.727 282.86 202.26C282.566 202.78 282.42 203.36 282.42 204C282.42 204.64 282.566 205.227 282.86 205.76C283.153 206.28 283.553 206.693 284.06 207C284.58 207.293 285.153 207.44 285.78 207.44ZM303.179 207.2V211.2H301.339V209H293.699V211.2H291.859V207.2H293.139C293.419 206.4 293.559 204.867 293.559 202.6V199H301.779V207.2H303.179ZM299.879 207.24V200.76H295.459V202.54C295.459 204.54 295.306 206.107 294.999 207.24H299.879ZM315.503 207.2V211.2H313.663V209H306.023V211.2H304.183V207.2H305.463C305.743 206.4 305.883 204.867 305.883 202.6V199H314.103V207.2H315.503ZM312.203 207.24V200.76H307.783V202.54C307.783 204.54 307.63 206.107 307.323 207.24H312.203ZM321.537 198.8C322.563 198.8 323.457 199.02 324.217 199.46C324.99 199.9 325.583 200.527 325.997 201.34C326.41 202.14 326.617 203.08 326.617 204.16C326.617 204.44 326.61 204.647 326.597 204.78H318.397C318.53 205.553 318.89 206.193 319.477 206.7C320.077 207.193 320.77 207.44 321.557 207.44C322.85 207.44 323.77 206.967 324.317 206.02H326.277C325.957 206.953 325.363 207.72 324.497 208.32C323.63 208.907 322.65 209.2 321.557 209.2C320.583 209.2 319.703 208.98 318.917 208.54C318.13 208.087 317.517 207.467 317.077 206.68C316.637 205.88 316.417 204.987 316.417 204C316.417 203.013 316.637 202.127 317.077 201.34C317.517 200.54 318.123 199.92 318.897 199.48C319.683 199.027 320.563 198.8 321.537 198.8ZM321.497 200.48C320.71 200.48 320.03 200.727 319.457 201.22C318.897 201.713 318.55 202.347 318.417 203.12H324.557C324.477 202.32 324.15 201.68 323.577 201.2C323.017 200.72 322.323 200.48 321.497 200.48ZM334.198 198.8C335.078 198.8 335.878 199.027 336.598 199.48C337.318 199.92 337.885 200.533 338.298 201.32C338.712 202.107 338.918 203 338.918 204C338.918 205 338.712 205.893 338.298 206.68C337.885 207.467 337.318 208.087 336.598 208.54C335.878 208.98 335.078 209.2 334.198 209.2C333.532 209.2 332.905 209.053 332.318 208.76C331.732 208.453 331.232 208.033 330.818 207.5V212.4H328.918V199H330.718V200.62C331.145 200.047 331.658 199.6 332.258 199.28C332.858 198.96 333.505 198.8 334.198 198.8ZM333.878 207.44C334.465 207.44 334.992 207.293 335.458 207C335.925 206.707 336.292 206.3 336.558 205.78C336.825 205.247 336.958 204.653 336.958 204C336.958 203.347 336.825 202.76 336.558 202.24C336.292 201.707 335.925 201.293 335.458 201C334.992 200.707 334.465 200.56 333.878 200.56C333.292 200.56 332.758 200.707 332.278 201C331.798 201.293 331.425 201.707 331.158 202.24C330.892 202.76 330.758 203.347 330.758 204C330.758 204.653 330.892 205.247 331.158 205.78C331.425 206.3 331.798 206.707 332.278 207C332.758 207.293 333.292 207.44 333.878 207.44ZM349.238 204.4L347.998 205.6V209H346.118V205.6L344.878 204.4L341.478 209H339.118L343.498 203.06L339.318 199H341.698L346.118 203.32V199H347.998V203.34L352.458 199H354.798L350.618 203.06L354.998 209H352.638L349.238 204.4ZM359.972 204.36L358.552 205.68V209H356.692V199H358.552V203.48L363.252 199H365.772L361.392 203.04L366.192 209H363.652L359.972 204.36ZM376.378 199V209H374.478V207.5C374.064 208.033 373.564 208.453 372.978 208.76C372.391 209.053 371.764 209.2 371.098 209.2C370.218 209.2 369.418 208.98 368.698 208.54C367.978 208.087 367.411 207.467 366.998 206.68C366.584 205.893 366.378 205 366.378 204C366.378 203 366.584 202.107 366.998 201.32C367.411 200.533 367.978 199.92 368.698 199.48C369.418 199.027 370.218 198.8 371.098 198.8C371.791 198.8 372.438 198.96 373.038 199.28C373.638 199.6 374.151 200.047 374.578 200.62V199H376.378ZM371.418 207.44C372.004 207.44 372.538 207.293 373.018 207C373.498 206.707 373.871 206.3 374.138 205.78C374.404 205.247 374.538 204.653 374.538 204C374.538 203.347 374.404 202.76 374.138 202.24C373.871 201.707 373.498 201.293 373.018 201C372.538 200.707 372.004 200.56 371.418 200.56C370.831 200.56 370.304 200.707 369.838 201C369.371 201.293 369.004 201.707 368.738 202.24C368.471 202.76 368.338 203.347 368.338 204C368.338 204.653 368.471 205.247 368.738 205.78C369.004 206.3 369.371 206.707 369.838 207C370.304 207.293 370.831 207.44 371.418 207.44Z" fill="black"/>
</g>
<defs>
<filter id="filter0_d_474_3688" x="0" y="0" width="522" height="362" filterUnits="userSpaceOnUse" color-interpolation-filters="sRGB">
<feFlood flood-opacity="0" result="BackgroundImageFix"/>
<feColorMatrix in="SourceAlpha" type="matrix" values="0 0 0 0 0 0 0 0 0 0 0 0 0 0 0 0 0 0 127 0" result="hardAlpha"/>
<feOffset dy="4"/>
<feGaussianBlur stdDeviation="20.5"/>
<feComposite in2="hardAlpha" operator="out"/>
<feColorMatrix type="matrix" values="0 0 0 0 0 0 0 0 0 0 0 0 0 0 0 0 0 0 0.05 0"/>
<feBlend mode="normal" in2="BackgroundImageFix" result="effect1_dropShadow_474_3688"/>
<feBlend mode="normal" in="SourceGraphic" in2="effect1_dropShadow_474_3688" result="shape"/>
</filter>
</defs>
</svg>
