<svg width="522" height="362" viewBox="0 0 522 362" fill="none" xmlns="http://www.w3.org/2000/svg">
<g filter="url(#filter0_d_388_4750)">
<rect width="440" height="280" transform="translate(41 37)" fill="white"/>
<path fill-rule="evenodd" clip-rule="evenodd" d="M236.5 79C235.672 79 235 79.6716 235 80.5V154.5C235 155.328 235.672 156 236.5 156H285.5C286.328 156 287 155.328 287 154.5V136.37V80.5C287 79.6716 286.328 79 285.5 79H261H236.5ZM284 82V134.87H238V82H261H284ZM284 153V137.87H238V153H284ZM254.966 144.86C254.138 144.86 253.466 145.532 253.466 146.36C253.466 147.188 254.138 147.86 254.966 147.86H265.205C266.034 147.86 266.705 147.188 266.705 146.36C266.705 145.532 266.034 144.86 265.205 144.86H254.966ZM249.949 95.9535C250.243 95.6678 250.65 95.5 251.083 95.5H256.245L258.449 100.857L255.723 102.447C255.037 102.847 254.782 103.713 255.141 104.421C256.945 107.976 259.899 110.844 263.539 112.589C264.231 112.921 265.061 112.677 265.464 112.024L267.12 109.34L272.708 111.513V116.483C272.708 116.866 272.552 117.242 272.26 117.527C271.974 117.804 271.582 117.97 271.163 117.98C265.522 117.635 260.211 115.3 256.225 111.425C252.241 107.552 249.855 102.407 249.501 96.9585C249.511 96.5887 249.666 96.2281 249.949 95.9535ZM251.083 92.5C249.881 92.5 248.72 92.9639 247.857 93.8025C246.993 94.6425 246.5 95.791 246.5 96.9977C246.5 97.0289 246.501 97.0601 246.503 97.0913C246.892 103.316 249.61 109.178 254.134 113.576C258.656 117.972 264.669 120.602 271.037 120.978C271.066 120.979 271.095 120.98 271.125 120.98C272.327 120.98 273.488 120.516 274.351 119.678C275.215 118.838 275.708 117.689 275.708 116.483V110.487C275.708 109.869 275.329 109.313 274.752 109.089L267.044 106.092C266.369 105.829 265.604 106.086 265.224 106.702L263.65 109.251C261.554 108.014 259.795 106.313 258.515 104.291L261.089 102.79C261.736 102.413 262.005 101.616 261.721 100.923L258.637 93.4293C258.406 92.867 257.858 92.5 257.25 92.5H251.083Z" fill="#C5358C"/>
<path d="M152.287 230.15H155.812C157.399 230.15 158.56 230.399 159.292 230.897C160.03 231.396 160.399 232.189 160.399 233.279C160.399 233.771 160.303 234.22 160.109 234.624C159.922 235.028 159.641 235.368 159.266 235.644C158.896 235.913 158.439 236.098 157.895 236.197V236.259C158.545 236.358 159.081 236.54 159.503 236.804C159.931 237.062 160.247 237.404 160.452 237.832C160.663 238.254 160.769 238.758 160.769 239.344C160.769 240.188 160.575 240.879 160.188 241.418C159.808 241.957 159.277 242.355 158.598 242.613C157.918 242.871 157.133 243 156.242 243H152.287V230.15ZM153.192 235.863H156.04C157.247 235.863 158.12 235.652 158.659 235.23C159.198 234.809 159.468 234.185 159.468 233.358C159.468 232.503 159.178 231.888 158.598 231.513C158.018 231.138 157.089 230.95 155.812 230.95H153.192V235.863ZM153.192 236.654V242.2H156.216C157.405 242.2 158.302 241.96 158.905 241.479C159.509 240.993 159.811 240.27 159.811 239.309C159.811 238.676 159.67 238.166 159.389 237.779C159.107 237.387 158.686 237.103 158.123 236.927C157.566 236.745 156.872 236.654 156.04 236.654H153.192ZM174.646 243H173.759V234.22H170.419C170.308 235.726 170.176 237.038 170.023 238.157C169.871 239.271 169.675 240.193 169.435 240.926C169.194 241.652 168.896 242.194 168.538 242.552C168.181 242.909 167.738 243.088 167.211 243.088C167.059 243.088 166.924 243.079 166.807 243.062C166.689 243.05 166.596 243.032 166.525 243.009V242.288C166.596 242.306 166.675 242.32 166.763 242.332C166.851 242.338 166.959 242.341 167.088 242.341C167.387 242.341 167.653 242.229 167.888 242.007C168.122 241.778 168.33 241.433 168.512 240.97C168.699 240.507 168.86 239.924 168.995 239.221C169.13 238.512 169.247 237.677 169.347 236.716C169.452 235.755 169.546 234.665 169.628 233.446H174.646V243ZM189.57 238.21C189.57 239.177 189.424 240.035 189.131 240.785C188.844 241.535 188.41 242.121 187.83 242.543C187.25 242.965 186.521 243.176 185.642 243.176C184.815 243.176 184.118 242.979 183.55 242.587C182.987 242.188 182.557 241.632 182.258 240.917C181.959 240.202 181.798 239.364 181.774 238.403H178.707V243H177.819V233.446H178.707V237.621H181.783C181.836 236.812 182.009 236.08 182.302 235.424C182.601 234.762 183.031 234.237 183.594 233.851C184.156 233.458 184.856 233.262 185.694 233.262C186.585 233.262 187.314 233.479 187.883 233.912C188.457 234.346 188.882 234.938 189.157 235.688C189.433 236.432 189.57 237.272 189.57 238.21ZM182.688 238.21C182.688 239.007 182.788 239.725 182.987 240.363C183.187 240.996 183.503 241.494 183.937 241.857C184.376 242.221 184.95 242.402 185.659 242.402C186.356 242.402 186.925 242.227 187.364 241.875C187.81 241.523 188.135 241.031 188.34 240.398C188.551 239.766 188.656 239.036 188.656 238.21C188.656 237.401 188.554 236.684 188.349 236.057C188.144 235.43 187.821 234.938 187.382 234.58C186.948 234.223 186.38 234.044 185.677 234.044C184.974 234.044 184.402 234.223 183.963 234.58C183.523 234.938 183.201 235.433 182.996 236.065C182.791 236.692 182.688 237.407 182.688 238.21ZM191.671 237.261C191.671 236.06 191.765 235.025 191.952 234.158C192.146 233.291 192.43 232.576 192.805 232.014C193.186 231.445 193.657 231.015 194.22 230.722C194.847 230.317 195.6 230.007 196.479 229.79C197.363 229.573 198.389 229.397 199.555 229.263L199.695 230.054C199.086 230.124 198.521 230.203 197.999 230.291C197.483 230.379 197.012 230.479 196.584 230.59C196.156 230.695 195.772 230.815 195.433 230.95C195.099 231.085 194.809 231.237 194.562 231.407C194.176 231.642 193.845 231.973 193.569 232.4C193.294 232.822 193.074 233.344 192.91 233.965C192.746 234.586 192.644 235.312 192.603 236.145H192.673C192.89 235.752 193.171 235.403 193.517 235.099C193.868 234.794 194.272 234.554 194.729 234.378C195.187 234.196 195.688 234.105 196.232 234.105C197.035 234.105 197.709 234.275 198.254 234.615C198.805 234.949 199.221 235.441 199.502 236.092C199.783 236.736 199.924 237.521 199.924 238.447C199.924 239.396 199.771 240.229 199.467 240.943C199.162 241.652 198.705 242.203 198.096 242.596C197.492 242.982 196.736 243.176 195.828 243.176C195.09 243.176 194.457 243.026 193.93 242.728C193.402 242.423 192.972 242.004 192.638 241.471C192.31 240.932 192.066 240.305 191.908 239.59C191.75 238.869 191.671 238.093 191.671 237.261ZM195.898 242.402C196.602 242.402 197.182 242.247 197.639 241.937C198.096 241.62 198.436 241.172 198.658 240.592C198.881 240.006 198.992 239.312 198.992 238.509C198.992 237.319 198.749 236.42 198.263 235.811C197.776 235.195 197.064 234.888 196.127 234.888C195.582 234.888 195.087 234.987 194.642 235.187C194.196 235.386 193.801 235.661 193.455 236.013C193.115 236.358 192.822 236.757 192.576 237.208C192.576 237.858 192.626 238.494 192.726 239.115C192.825 239.73 192.998 240.287 193.244 240.785C193.49 241.283 193.827 241.679 194.255 241.972C194.688 242.259 195.236 242.402 195.898 242.402ZM210.453 238.21C210.453 238.948 210.362 239.622 210.181 240.231C209.999 240.835 209.729 241.356 209.372 241.796C209.015 242.235 208.569 242.575 208.036 242.815C207.509 243.056 206.894 243.176 206.19 243.176C205.522 243.176 204.928 243.059 204.406 242.824C203.885 242.584 203.442 242.244 203.079 241.805C202.722 241.365 202.449 240.844 202.262 240.24C202.074 239.631 201.98 238.954 201.98 238.21C201.98 237.185 202.15 236.303 202.49 235.564C202.836 234.82 203.328 234.252 203.967 233.859C204.611 233.461 205.382 233.262 206.278 233.262C207.204 233.262 207.975 233.473 208.59 233.895C209.211 234.311 209.677 234.891 209.987 235.635C210.298 236.379 210.453 237.237 210.453 238.21ZM202.895 238.21C202.895 239.048 203.015 239.78 203.255 240.407C203.495 241.034 203.858 241.523 204.345 241.875C204.837 242.227 205.458 242.402 206.208 242.402C206.976 242.402 207.605 242.227 208.098 241.875C208.59 241.523 208.953 241.031 209.188 240.398C209.422 239.766 209.539 239.036 209.539 238.21C209.539 237.407 209.428 236.692 209.205 236.065C208.982 235.438 208.631 234.946 208.15 234.589C207.67 234.226 207.043 234.044 206.27 234.044C205.162 234.044 204.321 234.413 203.747 235.151C203.179 235.89 202.895 236.909 202.895 238.21ZM222.397 233.446V243H221.571V236.127C221.571 235.869 221.574 235.623 221.58 235.389C221.592 235.154 221.604 234.902 221.615 234.633H221.571L218.108 243H217.335L213.898 234.624H213.854C213.866 234.894 213.875 235.148 213.881 235.389C213.887 235.623 213.89 235.887 213.89 236.18V243H213.055V233.446H214.276L217.73 241.884L221.202 233.446H222.397ZM228.339 233.446H229.279L231.6 239.511C231.74 239.868 231.863 240.199 231.969 240.504C232.08 240.803 232.177 241.078 232.259 241.33C232.341 241.576 232.408 241.802 232.461 242.007H232.514C232.602 241.737 232.719 241.392 232.865 240.97C233.012 240.542 233.179 240.067 233.366 239.546L235.66 233.446H236.609L232.25 244.793C232.039 245.344 231.808 245.81 231.556 246.19C231.304 246.577 231.008 246.867 230.668 247.061C230.328 247.26 229.918 247.359 229.438 247.359C229.221 247.359 229.024 247.342 228.849 247.307C228.673 247.277 228.503 247.236 228.339 247.184V246.419C228.491 246.466 228.646 246.504 228.805 246.533C228.969 246.568 229.147 246.586 229.341 246.586C229.675 246.586 229.962 246.516 230.202 246.375C230.448 246.24 230.668 246.029 230.861 245.742C231.055 245.455 231.236 245.089 231.406 244.644L232.057 242.947L228.339 233.446ZM244.713 233.446V242.218H245.996V246.234H245.126V243H237.813V246.234H236.952V242.218H237.594C238.133 241.474 238.584 240.645 238.947 239.73C239.311 238.816 239.586 237.832 239.773 236.777C239.967 235.717 240.069 234.606 240.081 233.446H244.713ZM243.843 234.193H240.89C240.843 235.242 240.726 236.247 240.538 237.208C240.351 238.163 240.093 239.062 239.765 239.906C239.437 240.744 239.038 241.515 238.569 242.218H243.843V234.193ZM255.928 238.21C255.928 238.948 255.837 239.622 255.655 240.231C255.474 240.835 255.204 241.356 254.847 241.796C254.489 242.235 254.044 242.575 253.511 242.815C252.983 243.056 252.368 243.176 251.665 243.176C250.997 243.176 250.402 243.059 249.881 242.824C249.359 242.584 248.917 242.244 248.554 241.805C248.196 241.365 247.924 240.844 247.736 240.24C247.549 239.631 247.455 238.954 247.455 238.21C247.455 237.185 247.625 236.303 247.965 235.564C248.311 234.82 248.803 234.252 249.441 233.859C250.086 233.461 250.856 233.262 251.753 233.262C252.679 233.262 253.449 233.473 254.064 233.895C254.686 234.311 255.151 234.891 255.462 235.635C255.772 236.379 255.928 237.237 255.928 238.21ZM248.369 238.21C248.369 239.048 248.489 239.78 248.729 240.407C248.97 241.034 249.333 241.523 249.819 241.875C250.312 242.227 250.933 242.402 251.683 242.402C252.45 242.402 253.08 242.227 253.572 241.875C254.064 241.523 254.428 241.031 254.662 240.398C254.896 239.766 255.014 239.036 255.014 238.21C255.014 237.407 254.902 236.692 254.68 236.065C254.457 235.438 254.105 234.946 253.625 234.589C253.145 234.226 252.518 234.044 251.744 234.044C250.637 234.044 249.796 234.413 249.222 235.151C248.653 235.89 248.369 236.909 248.369 238.21ZM258.046 237.261C258.046 236.06 258.14 235.025 258.327 234.158C258.521 233.291 258.805 232.576 259.18 232.014C259.561 231.445 260.032 231.015 260.595 230.722C261.222 230.317 261.975 230.007 262.854 229.79C263.738 229.573 264.764 229.397 265.93 229.263L266.07 230.054C265.461 230.124 264.896 230.203 264.374 230.291C263.858 230.379 263.387 230.479 262.959 230.59C262.531 230.695 262.147 230.815 261.808 230.95C261.474 231.085 261.184 231.237 260.938 231.407C260.551 231.642 260.22 231.973 259.944 232.4C259.669 232.822 259.449 233.344 259.285 233.965C259.121 234.586 259.019 235.312 258.978 236.145H259.048C259.265 235.752 259.546 235.403 259.892 235.099C260.243 234.794 260.647 234.554 261.104 234.378C261.562 234.196 262.062 234.105 262.607 234.105C263.41 234.105 264.084 234.275 264.629 234.615C265.18 234.949 265.596 235.441 265.877 236.092C266.158 236.736 266.299 237.521 266.299 238.447C266.299 239.396 266.146 240.229 265.842 240.943C265.537 241.652 265.08 242.203 264.471 242.596C263.867 242.982 263.111 243.176 262.203 243.176C261.465 243.176 260.832 243.026 260.305 242.728C259.777 242.423 259.347 242.004 259.013 241.471C258.685 240.932 258.441 240.305 258.283 239.59C258.125 238.869 258.046 238.093 258.046 237.261ZM262.273 242.402C262.977 242.402 263.557 242.247 264.014 241.937C264.471 241.62 264.811 241.172 265.033 240.592C265.256 240.006 265.367 239.312 265.367 238.509C265.367 237.319 265.124 236.42 264.638 235.811C264.151 235.195 263.439 234.888 262.502 234.888C261.957 234.888 261.462 234.987 261.017 235.187C260.571 235.386 260.176 235.661 259.83 236.013C259.49 236.358 259.197 236.757 258.951 237.208C258.951 237.858 259.001 238.494 259.101 239.115C259.2 239.73 259.373 240.287 259.619 240.785C259.865 241.283 260.202 241.679 260.63 241.972C261.063 242.259 261.611 242.402 262.273 242.402ZM269.806 233.446V237.63H275.826V233.446H276.714V243H275.826V238.412H269.806V243H268.909V233.446H269.806ZM287.832 238.21C287.832 238.948 287.741 239.622 287.56 240.231C287.378 240.835 287.108 241.356 286.751 241.796C286.394 242.235 285.948 242.575 285.415 242.815C284.888 243.056 284.272 243.176 283.569 243.176C282.901 243.176 282.307 243.059 281.785 242.824C281.264 242.584 280.821 242.244 280.458 241.805C280.101 241.365 279.828 240.844 279.641 240.24C279.453 239.631 279.359 238.954 279.359 238.21C279.359 237.185 279.529 236.303 279.869 235.564C280.215 234.82 280.707 234.252 281.346 233.859C281.99 233.461 282.761 233.262 283.657 233.262C284.583 233.262 285.354 233.473 285.969 233.895C286.59 234.311 287.056 234.891 287.366 235.635C287.677 236.379 287.832 237.237 287.832 238.21ZM280.273 238.21C280.273 239.048 280.394 239.78 280.634 240.407C280.874 241.034 281.237 241.523 281.724 241.875C282.216 242.227 282.837 242.402 283.587 242.402C284.354 242.402 284.984 242.227 285.477 241.875C285.969 241.523 286.332 241.031 286.566 240.398C286.801 239.766 286.918 239.036 286.918 238.21C286.918 237.407 286.807 236.692 286.584 236.065C286.361 235.438 286.01 234.946 285.529 234.589C285.049 234.226 284.422 234.044 283.648 234.044C282.541 234.044 281.7 234.413 281.126 235.151C280.558 235.89 280.273 236.909 280.273 238.21ZM299.776 233.446V243H298.95V236.127C298.95 235.869 298.953 235.623 298.959 235.389C298.971 235.154 298.982 234.902 298.994 234.633H298.95L295.487 243H294.714L291.277 234.624H291.233C291.245 234.894 291.254 235.148 291.26 235.389C291.266 235.623 291.269 235.887 291.269 236.18V243H290.434V233.446H291.655L295.109 241.884L298.581 233.446H299.776ZM313.83 233.446V242.218H315.113V246.234H314.243V243H306.931V246.234H306.069V242.218H306.711C307.25 241.474 307.701 240.645 308.064 239.73C308.428 238.816 308.703 237.832 308.891 236.777C309.084 235.717 309.187 234.606 309.198 233.446H313.83ZM312.96 234.193H310.007C309.96 235.242 309.843 236.247 309.655 237.208C309.468 238.163 309.21 239.062 308.882 239.906C308.554 240.744 308.155 241.515 307.687 242.218H312.96V234.193ZM323.744 243H322.856V234.22H319.517C319.405 235.726 319.273 237.038 319.121 238.157C318.969 239.271 318.772 240.193 318.532 240.926C318.292 241.652 317.993 242.194 317.636 242.552C317.278 242.909 316.836 243.088 316.309 243.088C316.156 243.088 316.021 243.079 315.904 243.062C315.787 243.05 315.693 243.032 315.623 243.009V242.288C315.693 242.306 315.772 242.32 315.86 242.332C315.948 242.338 316.057 242.341 316.186 242.341C316.484 242.341 316.751 242.229 316.985 242.007C317.22 241.778 317.428 241.433 317.609 240.97C317.797 240.507 317.958 239.924 318.093 239.221C318.228 238.512 318.345 237.677 318.444 236.716C318.55 235.755 318.644 234.665 318.726 233.446H323.744V243ZM326.759 243H325.695L328.578 238.887C328.057 238.822 327.611 238.682 327.242 238.465C326.873 238.248 326.592 237.955 326.398 237.586C326.211 237.217 326.117 236.769 326.117 236.241C326.117 235.304 326.413 234.604 327.005 234.141C327.603 233.678 328.373 233.446 329.316 233.446H333.263V243H332.375V238.975H329.51L326.759 243ZM326.987 236.224C326.987 236.886 327.192 237.381 327.603 237.709C328.013 238.037 328.631 238.201 329.457 238.201H332.375V234.22H329.413C328.616 234.22 328.013 234.398 327.603 234.756C327.192 235.107 326.987 235.597 326.987 236.224ZM348.292 235.775C348.292 236.379 348.134 236.854 347.817 237.199C347.507 237.545 347.094 237.779 346.578 237.902V237.955C347.205 238.049 347.709 238.286 348.09 238.667C348.477 239.042 348.67 239.581 348.67 240.284C348.67 240.841 348.547 241.321 348.301 241.726C348.055 242.13 347.677 242.443 347.167 242.666C346.663 242.889 346.016 243 345.225 243H341.138V233.446H345.119C345.822 233.446 346.408 233.537 346.877 233.719C347.346 233.895 347.697 234.155 347.932 234.501C348.172 234.841 348.292 235.266 348.292 235.775ZM347.747 240.284C347.747 239.599 347.516 239.106 347.053 238.808C346.59 238.509 345.91 238.359 345.014 238.359H342.034V242.244H345.066C345.963 242.244 346.634 242.086 347.079 241.77C347.524 241.447 347.747 240.952 347.747 240.284ZM347.387 235.846C347.387 235.342 347.208 234.946 346.851 234.659C346.493 234.366 345.887 234.22 345.031 234.22H342.034V237.577H344.943C345.787 237.577 346.405 237.434 346.798 237.146C347.19 236.854 347.387 236.42 347.387 235.846ZM354.664 233.279C355.713 233.279 356.498 233.543 357.02 234.07C357.541 234.598 357.802 235.438 357.802 236.593V243H357.116L356.958 241.33H356.905C356.7 241.688 356.451 242.007 356.158 242.288C355.865 242.563 355.505 242.78 355.077 242.938C354.655 243.097 354.14 243.176 353.53 243.176C352.915 243.176 352.388 243.073 351.948 242.868C351.515 242.663 351.178 242.364 350.938 241.972C350.703 241.579 350.586 241.102 350.586 240.539C350.586 239.59 350.979 238.869 351.764 238.377C352.549 237.879 353.677 237.598 355.147 237.533L356.923 237.445V236.751C356.923 235.772 356.729 235.075 356.343 234.659C355.956 234.243 355.385 234.035 354.629 234.035C354.137 234.035 353.662 234.1 353.205 234.229C352.754 234.352 352.294 234.53 351.825 234.765L351.544 234.026C352.001 233.81 352.49 233.631 353.012 233.49C353.539 233.35 354.09 233.279 354.664 233.279ZM356.914 238.14L355.244 238.21C354.031 238.269 353.108 238.485 352.476 238.86C351.843 239.235 351.526 239.798 351.526 240.548C351.526 241.151 351.714 241.614 352.089 241.937C352.47 242.259 352.997 242.42 353.671 242.42C354.72 242.42 355.52 242.121 356.07 241.523C356.627 240.926 356.908 240.111 356.914 239.08V238.14ZM364.701 243.176C363.752 243.176 362.949 242.979 362.293 242.587C361.643 242.188 361.15 241.623 360.816 240.891C360.488 240.152 360.324 239.279 360.324 238.271C360.324 237.223 360.515 236.326 360.896 235.582C361.276 234.832 361.812 234.258 362.504 233.859C363.195 233.461 364.007 233.262 364.938 233.262C365.396 233.262 365.82 233.303 366.213 233.385C366.605 233.467 366.96 233.581 367.276 233.728L367.039 234.51C366.711 234.363 366.362 234.252 365.993 234.176C365.624 234.1 365.27 234.062 364.93 234.062C364.145 234.062 363.477 234.234 362.926 234.58C362.381 234.92 361.962 235.406 361.669 236.039C361.382 236.666 361.238 237.407 361.238 238.263C361.238 239.065 361.361 239.777 361.607 240.398C361.854 241.014 362.231 241.5 362.741 241.857C363.251 242.209 363.904 242.385 364.701 242.385C365.164 242.385 365.604 242.338 366.02 242.244C366.441 242.15 366.825 242.03 367.171 241.884V242.692C366.86 242.833 366.5 242.947 366.09 243.035C365.686 243.129 365.223 243.176 364.701 243.176ZM156.778 252.324V256.297C157.733 256.355 158.551 256.59 159.23 257C159.916 257.404 160.44 257.964 160.804 258.679C161.167 259.388 161.349 260.231 161.349 261.21C161.349 262.142 161.17 262.968 160.812 263.688C160.455 264.403 159.934 264.975 159.248 265.402C158.568 265.83 157.745 266.076 156.778 266.141V270.324H155.917V266.141C154.962 266.094 154.142 265.865 153.456 265.455C152.776 265.045 152.255 264.479 151.892 263.759C151.528 263.038 151.347 262.188 151.347 261.21C151.347 260.237 151.525 259.396 151.883 258.688C152.246 257.973 152.768 257.41 153.447 257C154.133 256.59 154.962 256.355 155.935 256.297V252.324H156.778ZM155.935 257.07C155.126 257.111 154.449 257.305 153.904 257.65C153.359 257.996 152.949 258.471 152.674 259.074C152.404 259.678 152.27 260.39 152.27 261.21C152.27 262.054 152.407 262.78 152.683 263.39C152.958 263.993 153.368 264.465 153.913 264.805C154.458 265.145 155.132 265.335 155.935 265.376V257.07ZM156.778 257.079V265.376C157.575 265.323 158.243 265.118 158.782 264.761C159.327 264.403 159.737 263.923 160.013 263.319C160.294 262.71 160.435 262.007 160.435 261.21C160.435 259.962 160.127 258.98 159.512 258.266C158.902 257.551 157.991 257.155 156.778 257.079ZM171.896 261.21C171.896 261.948 171.805 262.622 171.623 263.231C171.441 263.835 171.172 264.356 170.814 264.796C170.457 265.235 170.012 265.575 169.479 265.815C168.951 266.056 168.336 266.176 167.633 266.176C166.965 266.176 166.37 266.059 165.849 265.824C165.327 265.584 164.885 265.244 164.521 264.805C164.164 264.365 163.892 263.844 163.704 263.24C163.517 262.631 163.423 261.954 163.423 261.21C163.423 260.185 163.593 259.303 163.933 258.564C164.278 257.82 164.771 257.252 165.409 256.859C166.054 256.461 166.824 256.262 167.721 256.262C168.646 256.262 169.417 256.473 170.032 256.895C170.653 257.311 171.119 257.891 171.43 258.635C171.74 259.379 171.896 260.237 171.896 261.21ZM164.337 261.21C164.337 262.048 164.457 262.78 164.697 263.407C164.938 264.034 165.301 264.523 165.787 264.875C166.279 265.227 166.9 265.402 167.65 265.402C168.418 265.402 169.048 265.227 169.54 264.875C170.032 264.523 170.396 264.031 170.63 263.398C170.864 262.766 170.981 262.036 170.981 261.21C170.981 260.407 170.87 259.692 170.647 259.065C170.425 258.438 170.073 257.946 169.593 257.589C169.112 257.226 168.485 257.044 167.712 257.044C166.604 257.044 165.764 257.413 165.189 258.151C164.621 258.89 164.337 259.909 164.337 261.21ZM178.769 256.262C179.999 256.262 180.951 256.675 181.625 257.501C182.305 258.327 182.645 259.546 182.645 261.157C182.645 262.235 182.483 263.149 182.161 263.899C181.839 264.644 181.379 265.209 180.781 265.596C180.189 265.982 179.478 266.176 178.646 266.176C178.071 266.176 177.57 266.091 177.143 265.921C176.721 265.745 176.369 265.511 176.088 265.218C175.807 264.919 175.59 264.591 175.438 264.233H175.376C175.394 264.567 175.408 264.916 175.42 265.279C175.432 265.643 175.438 265.985 175.438 266.308V270.228H174.541V256.446H175.279L175.385 258.354H175.438C175.596 257.99 175.818 257.647 176.105 257.325C176.393 257.003 176.756 256.745 177.195 256.552C177.635 256.358 178.159 256.262 178.769 256.262ZM178.654 257.044C177.934 257.044 177.333 257.202 176.853 257.519C176.378 257.829 176.023 258.286 175.789 258.89C175.561 259.487 175.443 260.22 175.438 261.087V261.236C175.438 262.168 175.552 262.944 175.78 263.565C176.015 264.181 176.363 264.641 176.826 264.945C177.295 265.25 177.875 265.402 178.566 265.402C179.246 265.402 179.82 265.235 180.289 264.901C180.758 264.567 181.115 264.084 181.361 263.451C181.607 262.818 181.73 262.051 181.73 261.148C181.73 259.807 181.473 258.787 180.957 258.09C180.447 257.393 179.68 257.044 178.654 257.044ZM194.562 256.446V266H193.736V259.127C193.736 258.869 193.739 258.623 193.745 258.389C193.757 258.154 193.769 257.902 193.78 257.633H193.736L190.273 266H189.5L186.063 257.624H186.02C186.031 257.894 186.04 258.148 186.046 258.389C186.052 258.623 186.055 258.887 186.055 259.18V266H185.22V256.446H186.441L189.896 264.884L193.367 256.446H194.562ZM200.741 256.279C201.79 256.279 202.575 256.543 203.097 257.07C203.618 257.598 203.879 258.438 203.879 259.593V266H203.193L203.035 264.33H202.982C202.777 264.688 202.528 265.007 202.235 265.288C201.942 265.563 201.582 265.78 201.154 265.938C200.732 266.097 200.217 266.176 199.607 266.176C198.992 266.176 198.465 266.073 198.025 265.868C197.592 265.663 197.255 265.364 197.015 264.972C196.78 264.579 196.663 264.102 196.663 263.539C196.663 262.59 197.056 261.869 197.841 261.377C198.626 260.879 199.754 260.598 201.225 260.533L203 260.445V259.751C203 258.772 202.807 258.075 202.42 257.659C202.033 257.243 201.462 257.035 200.706 257.035C200.214 257.035 199.739 257.1 199.282 257.229C198.831 257.352 198.371 257.53 197.902 257.765L197.621 257.026C198.078 256.81 198.567 256.631 199.089 256.49C199.616 256.35 200.167 256.279 200.741 256.279ZM202.991 261.14L201.321 261.21C200.108 261.269 199.186 261.485 198.553 261.86C197.92 262.235 197.604 262.798 197.604 263.548C197.604 264.151 197.791 264.614 198.166 264.937C198.547 265.259 199.074 265.42 199.748 265.42C200.797 265.42 201.597 265.121 202.147 264.523C202.704 263.926 202.985 263.111 202.991 262.08V261.14ZM213.037 257.229H209.803V266H208.933V257.229H205.716V256.446H213.037V257.229ZM218.601 256.262C219.415 256.262 220.092 256.452 220.631 256.833C221.176 257.214 221.58 257.735 221.844 258.397C222.113 259.06 222.248 259.818 222.248 260.674V261.315H215.349C215.349 262.628 215.65 263.636 216.254 264.339C216.863 265.042 217.733 265.394 218.864 265.394C219.456 265.394 219.969 265.347 220.402 265.253C220.842 265.153 221.328 264.986 221.861 264.752V265.569C221.393 265.78 220.924 265.933 220.455 266.026C219.986 266.126 219.447 266.176 218.838 266.176C217.871 266.176 217.06 265.977 216.403 265.578C215.753 265.174 215.261 264.605 214.927 263.873C214.599 263.141 214.435 262.285 214.435 261.307C214.435 260.352 214.593 259.493 214.909 258.731C215.231 257.97 215.7 257.369 216.315 256.93C216.937 256.484 217.698 256.262 218.601 256.262ZM218.592 257.026C217.678 257.026 216.937 257.331 216.368 257.94C215.806 258.544 215.475 259.417 215.375 260.56H221.325C221.325 259.862 221.226 259.247 221.026 258.714C220.827 258.181 220.525 257.768 220.121 257.475C219.723 257.176 219.213 257.026 218.592 257.026ZM225.913 263.908L225.992 264.119C225.898 264.559 225.781 265.021 225.641 265.508C225.506 265.994 225.356 266.478 225.192 266.958C225.034 267.444 224.864 267.898 224.683 268.32H223.997C224.149 267.787 224.287 267.266 224.41 266.756C224.533 266.252 224.642 265.763 224.735 265.288C224.829 264.808 224.905 264.348 224.964 263.908H225.913ZM234.816 266L240.134 253.977H232.786V253.15H241.101V253.801L235.792 266H234.816ZM254.917 256.446V265.218H256.2V269.234H255.33V266H248.018V269.234H247.156V265.218H247.798C248.337 264.474 248.788 263.645 249.151 262.73C249.515 261.816 249.79 260.832 249.978 259.777C250.171 258.717 250.273 257.606 250.285 256.446H254.917ZM254.047 257.193H251.094C251.047 258.242 250.93 259.247 250.742 260.208C250.555 261.163 250.297 262.062 249.969 262.906C249.641 263.744 249.242 264.515 248.773 265.218H254.047V257.193ZM259.109 256.446V260.63H265.13V256.446H266.018V266H265.13V261.412H259.109V266H258.213V256.446H259.109ZM272.829 256.262C273.644 256.262 274.32 256.452 274.859 256.833C275.404 257.214 275.809 257.735 276.072 258.397C276.342 259.06 276.477 259.818 276.477 260.674V261.315H269.577C269.577 262.628 269.879 263.636 270.482 264.339C271.092 265.042 271.962 265.394 273.093 265.394C273.685 265.394 274.197 265.347 274.631 265.253C275.07 265.153 275.557 264.986 276.09 264.752V265.569C275.621 265.78 275.152 265.933 274.684 266.026C274.215 266.126 273.676 266.176 273.066 266.176C272.1 266.176 271.288 265.977 270.632 265.578C269.981 265.174 269.489 264.605 269.155 263.873C268.827 263.141 268.663 262.285 268.663 261.307C268.663 260.352 268.821 259.493 269.138 258.731C269.46 257.97 269.929 257.369 270.544 256.93C271.165 256.484 271.927 256.262 272.829 256.262ZM272.82 257.026C271.906 257.026 271.165 257.331 270.597 257.94C270.034 258.544 269.703 259.417 269.604 260.56H275.554C275.554 259.862 275.454 259.247 275.255 258.714C275.056 258.181 274.754 257.768 274.35 257.475C273.951 257.176 273.441 257.026 272.82 257.026ZM279.975 256.446V263.311C279.975 263.445 279.972 263.583 279.966 263.724C279.966 263.864 279.963 264.008 279.957 264.154C279.957 264.301 279.954 264.444 279.948 264.585C279.942 264.726 279.934 264.863 279.922 264.998L285.626 256.446H286.716V266H285.872V259.074C285.872 258.898 285.872 258.717 285.872 258.529C285.878 258.336 285.884 258.146 285.89 257.958C285.896 257.765 285.901 257.583 285.907 257.413L280.177 266H279.113V256.446H279.975ZM285.811 252.623C285.775 253.186 285.641 253.648 285.406 254.012C285.178 254.375 284.853 254.647 284.431 254.829C284.009 255.005 283.499 255.093 282.901 255.093C282.298 255.093 281.791 255.008 281.381 254.838C280.977 254.662 280.663 254.393 280.44 254.029C280.224 253.66 280.101 253.191 280.071 252.623H280.915C280.974 253.268 281.158 253.73 281.469 254.012C281.785 254.287 282.266 254.425 282.91 254.425C283.537 254.425 284.021 254.287 284.36 254.012C284.706 253.736 284.905 253.273 284.958 252.623H285.811ZM301.754 258.775C301.754 259.379 301.596 259.854 301.279 260.199C300.969 260.545 300.556 260.779 300.04 260.902V260.955C300.667 261.049 301.171 261.286 301.552 261.667C301.938 262.042 302.132 262.581 302.132 263.284C302.132 263.841 302.009 264.321 301.763 264.726C301.517 265.13 301.139 265.443 300.629 265.666C300.125 265.889 299.478 266 298.687 266H294.6V256.446H298.581C299.284 256.446 299.87 256.537 300.339 256.719C300.808 256.895 301.159 257.155 301.394 257.501C301.634 257.841 301.754 258.266 301.754 258.775ZM301.209 263.284C301.209 262.599 300.978 262.106 300.515 261.808C300.052 261.509 299.372 261.359 298.476 261.359H295.496V265.244H298.528C299.425 265.244 300.096 265.086 300.541 264.77C300.986 264.447 301.209 263.952 301.209 263.284ZM300.849 258.846C300.849 258.342 300.67 257.946 300.312 257.659C299.955 257.366 299.349 257.22 298.493 257.22H295.496V260.577H298.405C299.249 260.577 299.867 260.434 300.26 260.146C300.652 259.854 300.849 259.42 300.849 258.846ZM310.367 256.446V260.63H316.388V256.446H317.275V266H316.388V261.412H310.367V266H309.471V256.446H310.367ZM324.087 256.262C324.901 256.262 325.578 256.452 326.117 256.833C326.662 257.214 327.066 257.735 327.33 258.397C327.6 259.06 327.734 259.818 327.734 260.674V261.315H320.835C320.835 262.628 321.137 263.636 321.74 264.339C322.35 265.042 323.22 265.394 324.351 265.394C324.942 265.394 325.455 265.347 325.889 265.253C326.328 265.153 326.814 264.986 327.348 264.752V265.569C326.879 265.78 326.41 265.933 325.941 266.026C325.473 266.126 324.934 266.176 324.324 266.176C323.357 266.176 322.546 265.977 321.89 265.578C321.239 265.174 320.747 264.605 320.413 263.873C320.085 263.141 319.921 262.285 319.921 261.307C319.921 260.352 320.079 259.493 320.396 258.731C320.718 257.97 321.187 257.369 321.802 256.93C322.423 256.484 323.185 256.262 324.087 256.262ZM324.078 257.026C323.164 257.026 322.423 257.331 321.854 257.94C321.292 258.544 320.961 259.417 320.861 260.56H326.812C326.812 259.862 326.712 259.247 326.513 258.714C326.313 258.181 326.012 257.768 325.607 257.475C325.209 257.176 324.699 257.026 324.078 257.026ZM336.901 256.446V265.218H338.185V269.234H337.314V266H330.002V269.234H329.141V265.218H329.782C330.321 264.474 330.772 263.645 331.136 262.73C331.499 261.816 331.774 260.832 331.962 259.777C332.155 258.717 332.258 257.606 332.27 256.446H336.901ZM336.031 257.193H333.078C333.031 258.242 332.914 259.247 332.727 260.208C332.539 261.163 332.281 262.062 331.953 262.906C331.625 263.744 331.227 264.515 330.758 265.218H336.031V257.193ZM343.81 256.262C344.624 256.262 345.301 256.452 345.84 256.833C346.385 257.214 346.789 257.735 347.053 258.397C347.322 259.06 347.457 259.818 347.457 260.674V261.315H340.558C340.558 262.628 340.859 263.636 341.463 264.339C342.072 265.042 342.942 265.394 344.073 265.394C344.665 265.394 345.178 265.347 345.611 265.253C346.051 265.153 346.537 264.986 347.07 264.752V265.569C346.602 265.78 346.133 265.933 345.664 266.026C345.195 266.126 344.656 266.176 344.047 266.176C343.08 266.176 342.269 265.977 341.612 265.578C340.962 265.174 340.47 264.605 340.136 263.873C339.808 263.141 339.644 262.285 339.644 261.307C339.644 260.352 339.802 259.493 340.118 258.731C340.44 257.97 340.909 257.369 341.524 256.93C342.146 256.484 342.907 256.262 343.81 256.262ZM343.801 257.026C342.887 257.026 342.146 257.331 341.577 257.94C341.015 258.544 340.684 259.417 340.584 260.56H346.534C346.534 259.862 346.435 259.247 346.235 258.714C346.036 258.181 345.734 257.768 345.33 257.475C344.932 257.176 344.422 257.026 343.801 257.026ZM356.712 266H355.824V257.22H352.484C352.373 258.726 352.241 260.038 352.089 261.157C351.937 262.271 351.74 263.193 351.5 263.926C351.26 264.652 350.961 265.194 350.604 265.552C350.246 265.909 349.804 266.088 349.276 266.088C349.124 266.088 348.989 266.079 348.872 266.062C348.755 266.05 348.661 266.032 348.591 266.009V265.288C348.661 265.306 348.74 265.32 348.828 265.332C348.916 265.338 349.024 265.341 349.153 265.341C349.452 265.341 349.719 265.229 349.953 265.007C350.188 264.778 350.396 264.433 350.577 263.97C350.765 263.507 350.926 262.924 351.061 262.221C351.195 261.512 351.312 260.677 351.412 259.716C351.518 258.755 351.611 257.665 351.693 256.446H356.712V266ZM371.636 261.21C371.636 262.177 371.489 263.035 371.196 263.785C370.909 264.535 370.476 265.121 369.896 265.543C369.315 265.965 368.586 266.176 367.707 266.176C366.881 266.176 366.184 265.979 365.615 265.587C365.053 265.188 364.622 264.632 364.323 263.917C364.024 263.202 363.863 262.364 363.84 261.403H360.772V266H359.885V256.446H360.772V260.621H363.849C363.901 259.812 364.074 259.08 364.367 258.424C364.666 257.762 365.097 257.237 365.659 256.851C366.222 256.458 366.922 256.262 367.76 256.262C368.65 256.262 369.38 256.479 369.948 256.912C370.522 257.346 370.947 257.938 371.223 258.688C371.498 259.432 371.636 260.272 371.636 261.21ZM364.754 261.21C364.754 262.007 364.854 262.725 365.053 263.363C365.252 263.996 365.568 264.494 366.002 264.857C366.441 265.221 367.016 265.402 367.725 265.402C368.422 265.402 368.99 265.227 369.43 264.875C369.875 264.523 370.2 264.031 370.405 263.398C370.616 262.766 370.722 262.036 370.722 261.21C370.722 260.401 370.619 259.684 370.414 259.057C370.209 258.43 369.887 257.938 369.447 257.58C369.014 257.223 368.445 257.044 367.742 257.044C367.039 257.044 366.468 257.223 366.028 257.58C365.589 257.938 365.267 258.433 365.062 259.065C364.856 259.692 364.754 260.407 364.754 261.21Z" fill="black"/>
<path d="M140.133 200.8C141.066 200.8 141.866 200.98 142.533 201.34C143.213 201.687 143.726 202.173 144.073 202.8C144.433 203.413 144.613 204.113 144.613 204.9C144.613 205.687 144.433 206.393 144.073 207.02C143.726 207.633 143.213 208.12 142.533 208.48C141.866 208.827 141.066 209 140.133 209H134.013V195H143.813V196.88H136.013V200.8H140.133ZM140.073 207.12C140.873 207.12 141.48 206.933 141.893 206.56C142.306 206.173 142.513 205.613 142.513 204.88C142.513 204.147 142.306 203.593 141.893 203.22C141.48 202.847 140.873 202.66 140.073 202.66H136.013V207.12H140.073ZM151.431 198.8C152.458 198.8 153.351 199.02 154.111 199.46C154.885 199.9 155.478 200.527 155.891 201.34C156.305 202.14 156.511 203.08 156.511 204.16C156.511 204.44 156.505 204.647 156.491 204.78H148.291C148.425 205.553 148.785 206.193 149.371 206.7C149.971 207.193 150.665 207.44 151.451 207.44C152.745 207.44 153.665 206.967 154.211 206.02H156.171C155.851 206.953 155.258 207.72 154.391 208.32C153.525 208.907 152.545 209.2 151.451 209.2C150.478 209.2 149.598 208.98 148.811 208.54C148.025 208.087 147.411 207.467 146.971 206.68C146.531 205.88 146.311 204.987 146.311 204C146.311 203.013 146.531 202.127 146.971 201.34C147.411 200.54 148.018 199.92 148.791 199.48C149.578 199.027 150.458 198.8 151.431 198.8ZM151.391 200.48C150.605 200.48 149.925 200.727 149.351 201.22C148.791 201.713 148.445 202.347 148.311 203.12H154.451C154.371 202.32 154.045 201.68 153.471 201.2C152.911 200.72 152.218 200.48 151.391 200.48ZM158.011 204C158.011 203.04 158.244 202.167 158.711 201.38C159.177 200.58 159.817 199.953 160.631 199.5C161.444 199.033 162.344 198.8 163.331 198.8C164.437 198.8 165.431 199.127 166.311 199.78C167.204 200.42 167.791 201.26 168.071 202.3H165.991C165.764 201.767 165.397 201.347 164.891 201.04C164.397 200.72 163.844 200.56 163.231 200.56C162.604 200.56 162.044 200.713 161.551 201.02C161.057 201.313 160.671 201.727 160.391 202.26C160.111 202.78 159.971 203.36 159.971 204C159.971 204.64 160.111 205.227 160.391 205.76C160.671 206.28 161.057 206.693 161.551 207C162.044 207.293 162.604 207.44 163.231 207.44C163.844 207.44 164.397 207.287 164.891 206.98C165.397 206.66 165.764 206.233 165.991 205.7H168.071C167.791 206.74 167.204 207.587 166.311 208.24C165.431 208.88 164.437 209.2 163.331 209.2C162.344 209.2 161.444 208.973 160.631 208.52C159.817 208.053 159.177 207.427 158.711 206.64C158.244 205.84 158.011 204.96 158.011 204ZM179.18 209H177.28V200.8H172.08V209H170.18V199H179.18V209ZM191.307 209.02H189.407V200.8H185.127V202.62C185.127 204.047 185.047 205.213 184.887 206.12C184.74 207.027 184.427 207.753 183.947 208.3C183.467 208.833 182.754 209.1 181.807 209.1C181.554 209.1 181.28 209.067 180.987 209V207.24C181.227 207.28 181.44 207.3 181.627 207.3C182.054 207.3 182.374 207.167 182.587 206.9C182.814 206.633 182.974 206.16 183.067 205.48C183.16 204.787 183.207 203.773 183.207 202.44V199H191.307V209.02ZM203.616 199V209H201.716V207.5C201.303 208.033 200.803 208.453 200.216 208.76C199.629 209.053 199.003 209.2 198.336 209.2C197.456 209.2 196.656 208.98 195.936 208.54C195.216 208.087 194.649 207.467 194.236 206.68C193.823 205.893 193.616 205 193.616 204C193.616 203 193.823 202.107 194.236 201.32C194.649 200.533 195.216 199.92 195.936 199.48C196.656 199.027 197.456 198.8 198.336 198.8C199.029 198.8 199.676 198.96 200.276 199.28C200.876 199.6 201.389 200.047 201.816 200.62V199H203.616ZM198.656 207.44C199.243 207.44 199.776 207.293 200.256 207C200.736 206.707 201.109 206.3 201.376 205.78C201.643 205.247 201.776 204.653 201.776 204C201.776 203.347 201.643 202.76 201.376 202.24C201.109 201.707 200.736 201.293 200.256 201C199.776 200.707 199.243 200.56 198.656 200.56C198.069 200.56 197.543 200.707 197.076 201C196.609 201.293 196.243 201.707 195.976 202.24C195.709 202.76 195.576 203.347 195.576 204C195.576 204.653 195.709 205.247 195.976 205.78C196.243 206.3 196.609 206.707 197.076 207C197.543 207.293 198.069 207.44 198.656 207.44ZM214.421 200.8H210.921V209H209.021V200.8H205.521V199H214.421V200.8ZM225.313 199V209H223.413V204.9H218.213V209H216.313V199H218.213V203.1H223.413V199H225.313ZM237.62 199V209H235.72V207.5C235.307 208.033 234.807 208.453 234.22 208.76C233.633 209.053 233.007 209.2 232.34 209.2C231.46 209.2 230.66 208.98 229.94 208.54C229.22 208.087 228.653 207.467 228.24 206.68C227.827 205.893 227.62 205 227.62 204C227.62 203 227.827 202.107 228.24 201.32C228.653 200.533 229.22 199.92 229.94 199.48C230.66 199.027 231.46 198.8 232.34 198.8C233.033 198.8 233.68 198.96 234.28 199.28C234.88 199.6 235.393 200.047 235.82 200.62V199H237.62ZM232.66 207.44C233.247 207.44 233.78 207.293 234.26 207C234.74 206.707 235.113 206.3 235.38 205.78C235.647 205.247 235.78 204.653 235.78 204C235.78 203.347 235.647 202.76 235.38 202.24C235.113 201.707 234.74 201.293 234.26 201C233.78 200.707 233.247 200.56 232.66 200.56C232.073 200.56 231.547 200.707 231.08 201C230.613 201.293 230.247 201.707 229.98 202.24C229.713 202.76 229.58 203.347 229.58 204C229.58 204.653 229.713 205.247 229.98 205.78C230.247 206.3 230.613 206.707 231.08 207C231.547 207.293 232.073 207.44 232.66 207.44ZM248.545 209H246.645V205.24H244.685L241.605 209H239.325L242.525 205.12C241.805 204.933 241.245 204.573 240.845 204.04C240.445 203.493 240.245 202.853 240.245 202.12C240.245 201.213 240.538 200.467 241.125 199.88C241.725 199.293 242.551 199 243.605 199H248.545V209ZM246.645 203.58V200.7H243.865C243.318 200.7 242.905 200.827 242.625 201.08C242.345 201.32 242.205 201.673 242.205 202.14C242.205 202.607 242.345 202.967 242.625 203.22C242.905 203.46 243.318 203.58 243.865 203.58H246.645ZM260.628 204.36L259.208 205.68V209H257.348V199H259.208V203.48L263.908 199H266.428L262.048 203.04L266.848 209H264.308L260.628 204.36ZM272.354 209.2C271.367 209.2 270.467 208.973 269.654 208.52C268.841 208.053 268.201 207.427 267.734 206.64C267.267 205.84 267.034 204.96 267.034 204C267.034 203.04 267.267 202.167 267.734 201.38C268.201 200.58 268.841 199.953 269.654 199.5C270.467 199.033 271.367 198.8 272.354 198.8C273.327 198.8 274.214 199.033 275.014 199.5C275.827 199.953 276.467 200.58 276.934 201.38C277.401 202.167 277.634 203.04 277.634 204C277.634 204.96 277.401 205.84 276.934 206.64C276.467 207.427 275.827 208.053 275.014 208.52C274.214 208.973 273.327 209.2 272.354 209.2ZM272.354 207.44C272.967 207.44 273.527 207.293 274.034 207C274.541 206.693 274.941 206.28 275.234 205.76C275.527 205.227 275.674 204.64 275.674 204C275.674 203.36 275.527 202.78 275.234 202.26C274.941 201.727 274.541 201.313 274.034 201.02C273.527 200.713 272.967 200.56 272.354 200.56C271.727 200.56 271.154 200.713 270.634 201.02C270.127 201.313 269.727 201.727 269.434 202.26C269.141 202.78 268.994 203.36 268.994 204C268.994 204.64 269.141 205.227 269.434 205.76C269.727 206.28 270.127 206.693 270.634 207C271.154 207.293 271.727 207.44 272.354 207.44ZM288.926 199V209H287.026V204.9H281.826V209H279.926V199H281.826V203.1H287.026V199H288.926ZM291.233 204C291.233 203.04 291.467 202.167 291.933 201.38C292.4 200.58 293.04 199.953 293.853 199.5C294.667 199.033 295.567 198.8 296.553 198.8C297.66 198.8 298.653 199.127 299.533 199.78C300.427 200.42 301.013 201.26 301.293 202.3H299.213C298.987 201.767 298.62 201.347 298.113 201.04C297.62 200.72 297.067 200.56 296.453 200.56C295.827 200.56 295.267 200.713 294.773 201.02C294.28 201.313 293.893 201.727 293.613 202.26C293.333 202.78 293.193 203.36 293.193 204C293.193 204.64 293.333 205.227 293.613 205.76C293.893 206.28 294.28 206.693 294.773 207C295.267 207.293 295.827 207.44 296.453 207.44C297.067 207.44 297.62 207.287 298.113 206.98C298.62 206.66 298.987 206.233 299.213 205.7H301.293C301.013 206.74 300.427 207.587 299.533 208.24C298.653 208.88 297.66 209.2 296.553 209.2C295.567 209.2 294.667 208.973 293.853 208.52C293.04 208.053 292.4 207.427 291.933 206.64C291.467 205.84 291.233 204.96 291.233 204ZM312.832 199L306.972 212.4H304.912L306.492 208.82L301.612 199H303.872L307.492 206.8L310.732 199H312.832ZM322.948 209.02H321.048V200.8H316.768V202.62C316.768 204.047 316.688 205.213 316.528 206.12C316.381 207.027 316.068 207.753 315.588 208.3C315.108 208.833 314.394 209.1 313.448 209.1C313.194 209.1 312.921 209.067 312.628 209V207.24C312.868 207.28 313.081 207.3 313.268 207.3C313.694 207.3 314.014 207.167 314.228 206.9C314.454 206.633 314.614 206.16 314.708 205.48C314.801 204.787 314.848 203.773 314.848 202.44V199H322.948V209.02ZM331.097 202.96C332.15 202.96 332.97 203.247 333.557 203.82C334.157 204.38 334.457 205.1 334.457 205.98C334.457 206.86 334.157 207.587 333.557 208.16C332.97 208.72 332.15 209 331.097 209H326.157V199H328.057V202.96H331.097ZM330.837 207.34C331.383 207.34 331.797 207.227 332.077 207C332.357 206.773 332.497 206.433 332.497 205.98C332.497 205.527 332.357 205.187 332.077 204.96C331.797 204.733 331.383 204.62 330.837 204.62H328.057V207.34H330.837ZM342.858 200.8H339.358V209H337.458V200.8H333.958V199H342.858V200.8ZM353.46 199V209H351.56V207.5C351.146 208.033 350.646 208.453 350.06 208.76C349.473 209.053 348.846 209.2 348.18 209.2C347.3 209.2 346.5 208.98 345.78 208.54C345.06 208.087 344.493 207.467 344.08 206.68C343.666 205.893 343.46 205 343.46 204C343.46 203 343.666 202.107 344.08 201.32C344.493 200.533 345.06 199.92 345.78 199.48C346.5 199.027 347.3 198.8 348.18 198.8C348.873 198.8 349.52 198.96 350.12 199.28C350.72 199.6 351.233 200.047 351.66 200.62V199H353.46ZM348.5 207.44C349.086 207.44 349.62 207.293 350.1 207C350.58 206.707 350.953 206.3 351.22 205.78C351.486 205.247 351.62 204.653 351.62 204C351.62 203.347 351.486 202.76 351.22 202.24C350.953 201.707 350.58 201.293 350.1 201C349.62 200.707 349.086 200.56 348.5 200.56C347.913 200.56 347.386 200.707 346.92 201C346.453 201.293 346.086 201.707 345.82 202.24C345.553 202.76 345.42 203.347 345.42 204C345.42 204.653 345.553 205.247 345.82 205.78C346.086 206.3 346.453 206.707 346.92 207C347.386 207.293 347.913 207.44 348.5 207.44ZM367.064 207.2V211.2H365.224V209H356.664V199H358.564V207.2H363.764V199H365.664V207.2H367.064ZM369.067 199H370.967V206.44L376.167 199H378.267V209H376.367V201.56L371.167 209H369.067V199ZM389.189 209H387.289V205.24H385.329L382.249 209H379.969L383.169 205.12C382.449 204.933 381.889 204.573 381.489 204.04C381.089 203.493 380.889 202.853 380.889 202.12C380.889 201.213 381.182 200.467 381.769 199.88C382.369 199.293 383.196 199 384.249 199H389.189V209ZM387.289 203.58V200.7H384.509C383.962 200.7 383.549 200.827 383.269 201.08C382.989 201.32 382.849 201.673 382.849 202.14C382.849 202.607 382.989 202.967 383.269 203.22C383.549 203.46 383.962 203.58 384.509 203.58H387.289Z" fill="black"/>
</g>
<defs>
<filter id="filter0_d_388_4750" x="0" y="0" width="522" height="362" filterUnits="userSpaceOnUse" color-interpolation-filters="sRGB">
<feFlood flood-opacity="0" result="BackgroundImageFix"/>
<feColorMatrix in="SourceAlpha" type="matrix" values="0 0 0 0 0 0 0 0 0 0 0 0 0 0 0 0 0 0 127 0" result="hardAlpha"/>
<feOffset dy="4"/>
<feGaussianBlur stdDeviation="20.5"/>
<feComposite in2="hardAlpha" operator="out"/>
<feColorMatrix type="matrix" values="0 0 0 0 0 0 0 0 0 0 0 0 0 0 0 0 0 0 0.05 0"/>
<feBlend mode="normal" in2="BackgroundImageFix" result="effect1_dropShadow_388_4750"/>
<feBlend mode="normal" in="SourceGraphic" in2="effect1_dropShadow_388_4750" result="shape"/>
</filter>
</defs>
</svg>
