<svg width="522" height="362" viewBox="0 0 522 362" fill="none" xmlns="http://www.w3.org/2000/svg">
<g filter="url(#filter0_d_388_4742)">
<rect width="440" height="280" transform="translate(41 37)" fill="white"/>
<path d="M281.576 117.341V149H224V107.41H264.045H265.337M281.576 117.341L298 108.809V80.3669C298 80.3669 295.63 78.6929 294.354 77.1047C293.122 75.5718 291.91 73 291.91 73H271.288C271.288 73 270.662 75.5659 269.463 77.1047C268.21 78.7124 265.337 80.3669 265.337 80.3669V107.41M281.576 117.341L265.337 107.41M276.963 94.0748L280.284 97.0589L287.481 90.9975M232.397 115.429H243.653V126.62H232.397V115.429ZM231.289 135.572H237.195V140.048H231.289V135.572ZM268.382 135.572H274.287V140.048H268.382V135.572ZM256.017 135.572H261.923V140.048H256.017V135.572ZM243.653 135.572H249.559V140.048H243.653V135.572Z" stroke="#C5358C" stroke-width="3" stroke-linecap="round" stroke-linejoin="round"/>
<path d="M136.643 236.558C136.643 237.536 136.522 238.43 136.282 239.238C136.042 240.047 135.682 240.744 135.201 241.33C134.721 241.916 134.12 242.37 133.399 242.692C132.685 243.015 131.85 243.176 130.895 243.176C129.934 243.176 129.093 243.015 128.372 242.692C127.651 242.37 127.051 241.916 126.57 241.33C126.096 240.738 125.738 240.038 125.498 239.229C125.258 238.415 125.138 237.519 125.138 236.54C125.138 235.239 125.357 234.094 125.797 233.104C126.242 232.113 126.896 231.34 127.757 230.783C128.624 230.227 129.693 229.948 130.965 229.948C132.184 229.948 133.215 230.215 134.059 230.748C134.908 231.275 135.55 232.034 135.983 233.024C136.423 234.009 136.643 235.187 136.643 236.558ZM126.087 236.549C126.087 237.697 126.26 238.711 126.605 239.59C126.951 240.463 127.481 241.146 128.196 241.638C128.911 242.13 129.813 242.376 130.903 242.376C132.005 242.376 132.91 242.133 133.619 241.646C134.328 241.16 134.853 240.48 135.192 239.607C135.532 238.734 135.702 237.718 135.702 236.558C135.702 234.724 135.301 233.3 134.498 232.286C133.701 231.272 132.523 230.766 130.965 230.766C129.869 230.766 128.958 231.009 128.231 231.495C127.511 231.981 126.972 232.658 126.614 233.525C126.263 234.393 126.087 235.4 126.087 236.549ZM146.996 233.446V243H146.108V234.229H140.272V243H139.376V233.446H146.996ZM156.822 243H155.935V234.22H152.595C152.483 235.726 152.352 237.038 152.199 238.157C152.047 239.271 151.851 240.193 151.61 240.926C151.37 241.652 151.071 242.194 150.714 242.552C150.356 242.909 149.914 243.088 149.387 243.088C149.234 243.088 149.1 243.079 148.982 243.062C148.865 243.05 148.771 243.032 148.701 243.009V242.288C148.771 242.306 148.851 242.32 148.938 242.332C149.026 242.338 149.135 242.341 149.264 242.341C149.562 242.341 149.829 242.229 150.063 242.007C150.298 241.778 150.506 241.433 150.688 240.97C150.875 240.507 151.036 239.924 151.171 239.221C151.306 238.512 151.423 237.677 151.522 236.716C151.628 235.755 151.722 234.665 151.804 233.446H156.822V243ZM163.344 233.279C164.393 233.279 165.178 233.543 165.699 234.07C166.221 234.598 166.481 235.438 166.481 236.593V243H165.796L165.638 241.33H165.585C165.38 241.688 165.131 242.007 164.838 242.288C164.545 242.563 164.185 242.78 163.757 242.938C163.335 243.097 162.819 243.176 162.21 243.176C161.595 243.176 161.067 243.073 160.628 242.868C160.194 242.663 159.857 242.364 159.617 241.972C159.383 241.579 159.266 241.102 159.266 240.539C159.266 239.59 159.658 238.869 160.443 238.377C161.229 237.879 162.356 237.598 163.827 237.533L165.603 237.445V236.751C165.603 235.772 165.409 235.075 165.022 234.659C164.636 234.243 164.064 234.035 163.309 234.035C162.816 234.035 162.342 234.1 161.885 234.229C161.434 234.352 160.974 234.53 160.505 234.765L160.224 234.026C160.681 233.81 161.17 233.631 161.691 233.49C162.219 233.35 162.77 233.279 163.344 233.279ZM165.594 238.14L163.924 238.21C162.711 238.269 161.788 238.485 161.155 238.86C160.522 239.235 160.206 239.798 160.206 240.548C160.206 241.151 160.394 241.614 160.769 241.937C161.149 242.259 161.677 242.42 162.351 242.42C163.399 242.42 164.199 242.121 164.75 241.523C165.307 240.926 165.588 240.111 165.594 239.08V238.14ZM175.64 234.229H172.405V243H171.535V234.229H168.318V233.446H175.64V234.229ZM180.922 233.279C181.971 233.279 182.756 233.543 183.277 234.07C183.799 234.598 184.06 235.438 184.06 236.593V243H183.374L183.216 241.33H183.163C182.958 241.688 182.709 242.007 182.416 242.288C182.123 242.563 181.763 242.78 181.335 242.938C180.913 243.097 180.397 243.176 179.788 243.176C179.173 243.176 178.646 243.073 178.206 242.868C177.772 242.663 177.436 242.364 177.195 241.972C176.961 241.579 176.844 241.102 176.844 240.539C176.844 239.59 177.236 238.869 178.021 238.377C178.807 237.879 179.935 237.598 181.405 237.533L183.181 237.445V236.751C183.181 235.772 182.987 235.075 182.601 234.659C182.214 234.243 181.643 234.035 180.887 234.035C180.395 234.035 179.92 234.1 179.463 234.229C179.012 234.352 178.552 234.53 178.083 234.765L177.802 234.026C178.259 233.81 178.748 233.631 179.27 233.49C179.797 233.35 180.348 233.279 180.922 233.279ZM183.172 238.14L181.502 238.21C180.289 238.269 179.366 238.485 178.733 238.86C178.101 239.235 177.784 239.798 177.784 240.548C177.784 241.151 177.972 241.614 178.347 241.937C178.728 242.259 179.255 242.42 179.929 242.42C180.978 242.42 181.777 242.121 182.328 241.523C182.885 240.926 183.166 240.111 183.172 239.08V238.14ZM199.432 233.446V243H198.544V234.229H192.708V243H191.812V233.446H199.432ZM210.559 238.21C210.559 238.948 210.468 239.622 210.286 240.231C210.104 240.835 209.835 241.356 209.478 241.796C209.12 242.235 208.675 242.575 208.142 242.815C207.614 243.056 206.999 243.176 206.296 243.176C205.628 243.176 205.033 243.059 204.512 242.824C203.99 242.584 203.548 242.244 203.185 241.805C202.827 241.365 202.555 240.844 202.367 240.24C202.18 239.631 202.086 238.954 202.086 238.21C202.086 237.185 202.256 236.303 202.596 235.564C202.941 234.82 203.434 234.252 204.072 233.859C204.717 233.461 205.487 233.262 206.384 233.262C207.31 233.262 208.08 233.473 208.695 233.895C209.316 234.311 209.782 234.891 210.093 235.635C210.403 236.379 210.559 237.237 210.559 238.21ZM203 238.21C203 239.048 203.12 239.78 203.36 240.407C203.601 241.034 203.964 241.523 204.45 241.875C204.942 242.227 205.563 242.402 206.313 242.402C207.081 242.402 207.711 242.227 208.203 241.875C208.695 241.523 209.059 241.031 209.293 240.398C209.527 239.766 209.645 239.036 209.645 238.21C209.645 237.407 209.533 236.692 209.311 236.065C209.088 235.438 208.736 234.946 208.256 234.589C207.775 234.226 207.148 234.044 206.375 234.044C205.268 234.044 204.427 234.413 203.853 235.151C203.284 235.89 203 236.909 203 238.21ZM217.027 243.176C216.078 243.176 215.275 242.979 214.619 242.587C213.969 242.188 213.477 241.623 213.143 240.891C212.814 240.152 212.65 239.279 212.65 238.271C212.65 237.223 212.841 236.326 213.222 235.582C213.603 234.832 214.139 234.258 214.83 233.859C215.521 233.461 216.333 233.262 217.265 233.262C217.722 233.262 218.146 233.303 218.539 233.385C218.932 233.467 219.286 233.581 219.603 233.728L219.365 234.51C219.037 234.363 218.688 234.252 218.319 234.176C217.95 234.1 217.596 234.062 217.256 234.062C216.471 234.062 215.803 234.234 215.252 234.58C214.707 234.92 214.288 235.406 213.995 236.039C213.708 236.666 213.564 237.407 213.564 238.263C213.564 239.065 213.688 239.777 213.934 240.398C214.18 241.014 214.558 241.5 215.067 241.857C215.577 242.209 216.23 242.385 217.027 242.385C217.49 242.385 217.93 242.338 218.346 242.244C218.768 242.15 219.151 242.03 219.497 241.884V242.692C219.187 242.833 218.826 242.947 218.416 243.035C218.012 243.129 217.549 243.176 217.027 243.176ZM228.383 243H227.495V234.22H224.155C224.044 235.726 223.912 237.038 223.76 238.157C223.607 239.271 223.411 240.193 223.171 240.926C222.931 241.652 222.632 242.194 222.274 242.552C221.917 242.909 221.475 243.088 220.947 243.088C220.795 243.088 220.66 243.079 220.543 243.062C220.426 243.05 220.332 243.032 220.262 243.009V242.288C220.332 242.306 220.411 242.32 220.499 242.332C220.587 242.338 220.695 242.341 220.824 242.341C221.123 242.341 221.39 242.229 221.624 242.007C221.858 241.778 222.066 241.433 222.248 240.97C222.436 240.507 222.597 239.924 222.731 239.221C222.866 238.512 222.983 237.677 223.083 236.716C223.188 235.755 223.282 234.665 223.364 233.446H228.383V243ZM235.186 233.262C236 233.262 236.677 233.452 237.216 233.833C237.761 234.214 238.165 234.735 238.429 235.397C238.698 236.06 238.833 236.818 238.833 237.674V238.315H231.934C231.934 239.628 232.235 240.636 232.839 241.339C233.448 242.042 234.318 242.394 235.449 242.394C236.041 242.394 236.554 242.347 236.987 242.253C237.427 242.153 237.913 241.986 238.446 241.752V242.569C237.978 242.78 237.509 242.933 237.04 243.026C236.571 243.126 236.032 243.176 235.423 243.176C234.456 243.176 233.645 242.977 232.988 242.578C232.338 242.174 231.846 241.605 231.512 240.873C231.184 240.141 231.02 239.285 231.02 238.307C231.02 237.352 231.178 236.493 231.494 235.731C231.816 234.97 232.285 234.369 232.9 233.93C233.521 233.484 234.283 233.262 235.186 233.262ZM235.177 234.026C234.263 234.026 233.521 234.331 232.953 234.94C232.391 235.544 232.06 236.417 231.96 237.56H237.91C237.91 236.862 237.811 236.247 237.611 235.714C237.412 235.181 237.11 234.768 236.706 234.475C236.308 234.176 235.798 234.026 235.177 234.026ZM253.766 233.446V243H252.878V234.229H247.042V243H246.146V233.446H253.766ZM264.893 238.21C264.893 238.948 264.802 239.622 264.62 240.231C264.438 240.835 264.169 241.356 263.812 241.796C263.454 242.235 263.009 242.575 262.476 242.815C261.948 243.056 261.333 243.176 260.63 243.176C259.962 243.176 259.367 243.059 258.846 242.824C258.324 242.584 257.882 242.244 257.519 241.805C257.161 241.365 256.889 240.844 256.701 240.24C256.514 239.631 256.42 238.954 256.42 238.21C256.42 237.185 256.59 236.303 256.93 235.564C257.275 234.82 257.768 234.252 258.406 233.859C259.051 233.461 259.821 233.262 260.718 233.262C261.644 233.262 262.414 233.473 263.029 233.895C263.65 234.311 264.116 234.891 264.427 235.635C264.737 236.379 264.893 237.237 264.893 238.21ZM257.334 238.21C257.334 239.048 257.454 239.78 257.694 240.407C257.935 241.034 258.298 241.523 258.784 241.875C259.276 242.227 259.897 242.402 260.647 242.402C261.415 242.402 262.045 242.227 262.537 241.875C263.029 241.523 263.393 241.031 263.627 240.398C263.861 239.766 263.979 239.036 263.979 238.21C263.979 237.407 263.867 236.692 263.645 236.065C263.422 235.438 263.07 234.946 262.59 234.589C262.109 234.226 261.482 234.044 260.709 234.044C259.602 234.044 258.761 234.413 258.187 235.151C257.618 235.89 257.334 236.909 257.334 238.21ZM274.156 243H273.269V234.22H269.929C269.817 235.726 269.686 237.038 269.533 238.157C269.381 239.271 269.185 240.193 268.944 240.926C268.704 241.652 268.405 242.194 268.048 242.552C267.69 242.909 267.248 243.088 266.721 243.088C266.568 243.088 266.434 243.079 266.316 243.062C266.199 243.05 266.105 243.032 266.035 243.009V242.288C266.105 242.306 266.185 242.32 266.272 242.332C266.36 242.338 266.469 242.341 266.598 242.341C266.896 242.341 267.163 242.229 267.397 242.007C267.632 241.778 267.84 241.433 268.021 240.97C268.209 240.507 268.37 239.924 268.505 239.221C268.64 238.512 268.757 237.677 268.856 236.716C268.962 235.755 269.056 234.665 269.138 233.446H274.156V243ZM275.765 233.446H276.705L279.025 239.511C279.166 239.868 279.289 240.199 279.395 240.504C279.506 240.803 279.603 241.078 279.685 241.33C279.767 241.576 279.834 241.802 279.887 242.007H279.939C280.027 241.737 280.145 241.392 280.291 240.97C280.438 240.542 280.604 240.067 280.792 239.546L283.086 233.446H284.035L279.676 244.793C279.465 245.344 279.233 245.81 278.981 246.19C278.729 246.577 278.434 246.867 278.094 247.061C277.754 247.26 277.344 247.359 276.863 247.359C276.646 247.359 276.45 247.342 276.274 247.307C276.099 247.277 275.929 247.236 275.765 247.184V246.419C275.917 246.466 276.072 246.504 276.23 246.533C276.395 246.568 276.573 246.586 276.767 246.586C277.101 246.586 277.388 246.516 277.628 246.375C277.874 246.24 278.094 246.029 278.287 245.742C278.48 245.455 278.662 245.089 278.832 244.644L279.482 242.947L275.765 233.446ZM286.347 233.446V236.654C286.347 237.457 286.546 238.043 286.944 238.412C287.343 238.775 287.926 238.957 288.693 238.957C289.35 238.957 289.938 238.854 290.46 238.649C290.987 238.444 291.491 238.169 291.972 237.823V233.446H292.859V243H291.972V238.597C291.45 238.948 290.926 239.224 290.398 239.423C289.877 239.622 289.262 239.722 288.553 239.722C287.539 239.722 286.769 239.464 286.241 238.948C285.72 238.427 285.459 237.697 285.459 236.76V233.446H286.347ZM299.662 233.262C300.477 233.262 301.153 233.452 301.692 233.833C302.237 234.214 302.642 234.735 302.905 235.397C303.175 236.06 303.31 236.818 303.31 237.674V238.315H296.41C296.41 239.628 296.712 240.636 297.315 241.339C297.925 242.042 298.795 242.394 299.926 242.394C300.518 242.394 301.03 242.347 301.464 242.253C301.903 242.153 302.39 241.986 302.923 241.752V242.569C302.454 242.78 301.985 242.933 301.517 243.026C301.048 243.126 300.509 243.176 299.899 243.176C298.933 243.176 298.121 242.977 297.465 242.578C296.814 242.174 296.322 241.605 295.988 240.873C295.66 240.141 295.496 239.285 295.496 238.307C295.496 237.352 295.654 236.493 295.971 235.731C296.293 234.97 296.762 234.369 297.377 233.93C297.998 233.484 298.76 233.262 299.662 233.262ZM299.653 234.026C298.739 234.026 297.998 234.331 297.43 234.94C296.867 235.544 296.536 236.417 296.437 237.56H302.387C302.387 236.862 302.287 236.247 302.088 235.714C301.889 235.181 301.587 234.768 301.183 234.475C300.784 234.176 300.274 234.026 299.653 234.026ZM306.843 233.446V237.63H312.863V233.446H313.751V243H312.863V238.412H306.843V243H305.946V233.446H306.843ZM317.812 233.446V240.311C317.812 240.445 317.809 240.583 317.803 240.724C317.803 240.864 317.8 241.008 317.794 241.154C317.794 241.301 317.791 241.444 317.785 241.585C317.779 241.726 317.771 241.863 317.759 241.998L323.463 233.446H324.553V243H323.709V236.074C323.709 235.898 323.709 235.717 323.709 235.529C323.715 235.336 323.721 235.146 323.727 234.958C323.732 234.765 323.738 234.583 323.744 234.413L318.014 243H316.95V233.446H317.812ZM327.585 243H326.521L329.404 238.887C328.883 238.822 328.438 238.682 328.068 238.465C327.699 238.248 327.418 237.955 327.225 237.586C327.037 237.217 326.943 236.769 326.943 236.241C326.943 235.304 327.239 234.604 327.831 234.141C328.429 233.678 329.199 233.446 330.143 233.446H334.089V243H333.201V238.975H330.336L327.585 243ZM327.813 236.224C327.813 236.886 328.019 237.381 328.429 237.709C328.839 238.037 329.457 238.201 330.283 238.201H333.201V234.22H330.239C329.442 234.22 328.839 234.398 328.429 234.756C328.019 235.107 327.813 235.597 327.813 236.224ZM348.046 234.229H344.812V243H343.941V234.229H340.725V233.446H348.046V234.229ZM357.916 238.21C357.916 238.948 357.825 239.622 357.644 240.231C357.462 240.835 357.192 241.356 356.835 241.796C356.478 242.235 356.032 242.575 355.499 242.815C354.972 243.056 354.356 243.176 353.653 243.176C352.985 243.176 352.391 243.059 351.869 242.824C351.348 242.584 350.905 242.244 350.542 241.805C350.185 241.365 349.912 240.844 349.725 240.24C349.537 239.631 349.443 238.954 349.443 238.21C349.443 237.185 349.613 236.303 349.953 235.564C350.299 234.82 350.791 234.252 351.43 233.859C352.074 233.461 352.845 233.262 353.741 233.262C354.667 233.262 355.438 233.473 356.053 233.895C356.674 234.311 357.14 234.891 357.45 235.635C357.761 236.379 357.916 237.237 357.916 238.21ZM350.357 238.21C350.357 239.048 350.478 239.78 350.718 240.407C350.958 241.034 351.321 241.523 351.808 241.875C352.3 242.227 352.921 242.402 353.671 242.402C354.438 242.402 355.068 242.227 355.561 241.875C356.053 241.523 356.416 241.031 356.65 240.398C356.885 239.766 357.002 239.036 357.002 238.21C357.002 237.407 356.891 236.692 356.668 236.065C356.445 235.438 356.094 234.946 355.613 234.589C355.133 234.226 354.506 234.044 353.732 234.044C352.625 234.044 351.784 234.413 351.21 235.151C350.642 235.89 350.357 236.909 350.357 238.21ZM367.716 235.775C367.716 236.379 367.558 236.854 367.241 237.199C366.931 237.545 366.518 237.779 366.002 237.902V237.955C366.629 238.049 367.133 238.286 367.514 238.667C367.9 239.042 368.094 239.581 368.094 240.284C368.094 240.841 367.971 241.321 367.725 241.726C367.479 242.13 367.101 242.443 366.591 242.666C366.087 242.889 365.439 243 364.648 243H360.562V233.446H364.543C365.246 233.446 365.832 233.537 366.301 233.719C366.77 233.895 367.121 234.155 367.355 234.501C367.596 234.841 367.716 235.266 367.716 235.775ZM367.171 240.284C367.171 239.599 366.939 239.106 366.477 238.808C366.014 238.509 365.334 238.359 364.438 238.359H361.458V242.244H364.49C365.387 242.244 366.058 242.086 366.503 241.77C366.948 241.447 367.171 240.952 367.171 240.284ZM366.811 235.846C366.811 235.342 366.632 234.946 366.274 234.659C365.917 234.366 365.311 234.22 364.455 234.22H361.458V237.577H364.367C365.211 237.577 365.829 237.434 366.222 237.146C366.614 236.854 366.811 236.42 366.811 235.846ZM374.088 233.279C375.137 233.279 375.922 233.543 376.443 234.07C376.965 234.598 377.226 235.438 377.226 236.593V243H376.54L376.382 241.33H376.329C376.124 241.688 375.875 242.007 375.582 242.288C375.289 242.563 374.929 242.78 374.501 242.938C374.079 243.097 373.563 243.176 372.954 243.176C372.339 243.176 371.812 243.073 371.372 242.868C370.938 242.663 370.602 242.364 370.361 241.972C370.127 241.579 370.01 241.102 370.01 240.539C370.01 239.59 370.402 238.869 371.188 238.377C371.973 237.879 373.101 237.598 374.571 237.533L376.347 237.445V236.751C376.347 235.772 376.153 235.075 375.767 234.659C375.38 234.243 374.809 234.035 374.053 234.035C373.561 234.035 373.086 234.1 372.629 234.229C372.178 234.352 371.718 234.53 371.249 234.765L370.968 234.026C371.425 233.81 371.914 233.631 372.436 233.49C372.963 233.35 373.514 233.279 374.088 233.279ZM376.338 238.14L374.668 238.21C373.455 238.269 372.532 238.485 371.899 238.86C371.267 239.235 370.95 239.798 370.95 240.548C370.95 241.151 371.138 241.614 371.513 241.937C371.894 242.259 372.421 242.42 373.095 242.42C374.144 242.42 374.943 242.121 375.494 241.523C376.051 240.926 376.332 240.111 376.338 239.08V238.14ZM384.529 233.262C385.76 233.262 386.712 233.675 387.386 234.501C388.065 235.327 388.405 236.546 388.405 238.157C388.405 239.235 388.244 240.149 387.922 240.899C387.6 241.644 387.14 242.209 386.542 242.596C385.95 242.982 385.238 243.176 384.406 243.176C383.832 243.176 383.331 243.091 382.903 242.921C382.481 242.745 382.13 242.511 381.849 242.218C381.567 241.919 381.351 241.591 381.198 241.233H381.137C381.154 241.567 381.169 241.916 381.181 242.279C381.192 242.643 381.198 242.985 381.198 243.308V247.228H380.302V233.446H381.04L381.146 235.354H381.198C381.356 234.99 381.579 234.647 381.866 234.325C382.153 234.003 382.517 233.745 382.956 233.552C383.396 233.358 383.92 233.262 384.529 233.262ZM384.415 234.044C383.694 234.044 383.094 234.202 382.613 234.519C382.139 234.829 381.784 235.286 381.55 235.89C381.321 236.487 381.204 237.22 381.198 238.087V238.236C381.198 239.168 381.312 239.944 381.541 240.565C381.775 241.181 382.124 241.641 382.587 241.945C383.056 242.25 383.636 242.402 384.327 242.402C385.007 242.402 385.581 242.235 386.05 241.901C386.519 241.567 386.876 241.084 387.122 240.451C387.368 239.818 387.491 239.051 387.491 238.148C387.491 236.807 387.233 235.787 386.718 235.09C386.208 234.393 385.44 234.044 384.415 234.044ZM394.355 233.279C395.404 233.279 396.189 233.543 396.711 234.07C397.232 234.598 397.493 235.438 397.493 236.593V243H396.808L396.649 241.33H396.597C396.392 241.688 396.143 242.007 395.85 242.288C395.557 242.563 395.196 242.78 394.769 242.938C394.347 243.097 393.831 243.176 393.222 243.176C392.606 243.176 392.079 243.073 391.64 242.868C391.206 242.663 390.869 242.364 390.629 241.972C390.395 241.579 390.277 241.102 390.277 240.539C390.277 239.59 390.67 238.869 391.455 238.377C392.24 237.879 393.368 237.598 394.839 237.533L396.614 237.445V236.751C396.614 235.772 396.421 235.075 396.034 234.659C395.647 234.243 395.076 234.035 394.32 234.035C393.828 234.035 393.354 234.1 392.896 234.229C392.445 234.352 391.985 234.53 391.517 234.765L391.235 234.026C391.692 233.81 392.182 233.631 392.703 233.49C393.23 233.35 393.781 233.279 394.355 233.279ZM396.605 238.14L394.936 238.21C393.723 238.269 392.8 238.485 392.167 238.86C391.534 239.235 391.218 239.798 391.218 240.548C391.218 241.151 391.405 241.614 391.78 241.937C392.161 242.259 392.688 242.42 393.362 242.42C394.411 242.42 395.211 242.121 395.762 241.523C396.318 240.926 396.6 240.111 396.605 239.08V238.14Z" fill="black"/>
<path d="M172.359 200.8C173.293 200.8 174.093 200.98 174.759 201.34C175.439 201.687 175.953 202.173 176.299 202.8C176.659 203.413 176.839 204.113 176.839 204.9C176.839 205.687 176.659 206.393 176.299 207.02C175.953 207.633 175.439 208.12 174.759 208.48C174.093 208.827 173.293 209 172.359 209H166.239V195H176.039V196.88H168.239V200.8H172.359ZM172.299 207.12C173.099 207.12 173.706 206.933 174.119 206.56C174.533 206.173 174.739 205.613 174.739 204.88C174.739 204.147 174.533 203.593 174.119 203.22C173.706 202.847 173.099 202.66 172.299 202.66H168.239V207.12H172.299ZM183.658 198.8C184.685 198.8 185.578 199.02 186.338 199.46C187.111 199.9 187.705 200.527 188.118 201.34C188.531 202.14 188.738 203.08 188.738 204.16C188.738 204.44 188.731 204.647 188.718 204.78H180.518C180.651 205.553 181.011 206.193 181.598 206.7C182.198 207.193 182.891 207.44 183.678 207.44C184.971 207.44 185.891 206.967 186.438 206.02H188.398C188.078 206.953 187.485 207.72 186.618 208.32C185.751 208.907 184.771 209.2 183.678 209.2C182.705 209.2 181.825 208.98 181.038 208.54C180.251 208.087 179.638 207.467 179.198 206.68C178.758 205.88 178.538 204.987 178.538 204C178.538 203.013 178.758 202.127 179.198 201.34C179.638 200.54 180.245 199.92 181.018 199.48C181.805 199.027 182.685 198.8 183.658 198.8ZM183.618 200.48C182.831 200.48 182.151 200.727 181.578 201.22C181.018 201.713 180.671 202.347 180.538 203.12H186.678C186.598 202.32 186.271 201.68 185.698 201.2C185.138 200.72 184.445 200.48 183.618 200.48ZM191.937 205.84C192.11 206.427 192.43 206.86 192.897 207.14C193.377 207.42 194.004 207.56 194.777 207.56C195.497 207.56 196.077 207.433 196.517 207.18C196.957 206.913 197.177 206.573 197.177 206.16C197.177 205.8 197.017 205.493 196.697 205.24C196.377 204.973 195.83 204.84 195.057 204.84H193.317V203.2H194.977C195.67 203.2 196.164 203.073 196.457 202.82C196.764 202.567 196.917 202.26 196.917 201.9C196.917 201.447 196.71 201.087 196.297 200.82C195.897 200.553 195.344 200.42 194.637 200.42C193.957 200.42 193.39 200.547 192.937 200.8C192.497 201.053 192.21 201.453 192.077 202H190.197C190.37 201 190.87 200.22 191.697 199.66C192.524 199.087 193.504 198.8 194.637 198.8C195.89 198.8 196.904 199.073 197.677 199.62C198.45 200.153 198.837 200.86 198.837 201.74C198.837 202.18 198.717 202.593 198.477 202.98C198.237 203.353 197.877 203.653 197.397 203.88C198.504 204.32 199.057 205.073 199.057 206.14C199.057 207.06 198.657 207.8 197.857 208.36C197.07 208.92 195.997 209.2 194.637 209.2C193.41 209.2 192.37 208.9 191.517 208.3C190.664 207.7 190.17 206.88 190.037 205.84H191.937ZM205.733 209.2C204.746 209.2 203.846 208.973 203.033 208.52C202.22 208.053 201.58 207.427 201.113 206.64C200.646 205.84 200.413 204.96 200.413 204C200.413 203.04 200.646 202.167 201.113 201.38C201.58 200.58 202.22 199.953 203.033 199.5C203.846 199.033 204.746 198.8 205.733 198.8C206.706 198.8 207.593 199.033 208.393 199.5C209.206 199.953 209.846 200.58 210.313 201.38C210.78 202.167 211.013 203.04 211.013 204C211.013 204.96 210.78 205.84 210.313 206.64C209.846 207.427 209.206 208.053 208.393 208.52C207.593 208.973 206.706 209.2 205.733 209.2ZM205.733 207.44C206.346 207.44 206.906 207.293 207.413 207C207.92 206.693 208.32 206.28 208.613 205.76C208.906 205.227 209.053 204.64 209.053 204C209.053 203.36 208.906 202.78 208.613 202.26C208.32 201.727 207.92 201.313 207.413 201.02C206.906 200.713 206.346 200.56 205.733 200.56C205.106 200.56 204.533 200.713 204.013 201.02C203.506 201.313 203.106 201.727 202.813 202.26C202.52 202.78 202.373 203.36 202.373 204C202.373 204.64 202.52 205.227 202.813 205.76C203.106 206.28 203.506 206.693 204.013 207C204.533 207.293 205.106 207.44 205.733 207.44ZM222.305 209H220.405V200.8H215.205V209H213.305V199H222.305V209ZM234.612 199V209H232.712V207.5C232.299 208.033 231.799 208.453 231.212 208.76C230.625 209.053 229.999 209.2 229.332 209.2C228.452 209.2 227.652 208.98 226.932 208.54C226.212 208.087 225.645 207.467 225.232 206.68C224.819 205.893 224.612 205 224.612 204C224.612 203 224.819 202.107 225.232 201.32C225.645 200.533 226.212 199.92 226.932 199.48C227.652 199.027 228.452 198.8 229.332 198.8C230.025 198.8 230.672 198.96 231.272 199.28C231.872 199.6 232.385 200.047 232.812 200.62V199H234.612ZM229.652 207.44C230.239 207.44 230.772 207.293 231.252 207C231.732 206.707 232.105 206.3 232.372 205.78C232.639 205.247 232.772 204.653 232.772 204C232.772 203.347 232.639 202.76 232.372 202.24C232.105 201.707 231.732 201.293 231.252 201C230.772 200.707 230.239 200.56 229.652 200.56C229.065 200.56 228.539 200.707 228.072 201C227.605 201.293 227.239 201.707 226.972 202.24C226.705 202.76 226.572 203.347 226.572 204C226.572 204.653 226.705 205.247 226.972 205.78C227.239 206.3 227.605 206.707 228.072 207C228.539 207.293 229.065 207.44 229.652 207.44ZM236.917 204C236.917 203.04 237.15 202.167 237.617 201.38C238.083 200.58 238.723 199.953 239.537 199.5C240.35 199.033 241.25 198.8 242.237 198.8C243.343 198.8 244.337 199.127 245.217 199.78C246.11 200.42 246.697 201.26 246.977 202.3H244.897C244.67 201.767 244.303 201.347 243.797 201.04C243.303 200.72 242.75 200.56 242.137 200.56C241.51 200.56 240.95 200.713 240.457 201.02C239.963 201.313 239.577 201.727 239.297 202.26C239.017 202.78 238.877 203.36 238.877 204C238.877 204.64 239.017 205.227 239.297 205.76C239.577 206.28 239.963 206.693 240.457 207C240.95 207.293 241.51 207.44 242.137 207.44C242.75 207.44 243.303 207.287 243.797 206.98C244.303 206.66 244.67 206.233 244.897 205.7H246.977C246.697 206.74 246.11 207.587 245.217 208.24C244.337 208.88 243.343 209.2 242.237 209.2C241.25 209.2 240.35 208.973 239.537 208.52C238.723 208.053 238.083 207.427 237.617 206.64C237.15 205.84 236.917 204.96 236.917 204ZM258.086 199V209H256.186V204.9H250.986V209H249.086V199H250.986V203.1H256.186V199H258.086ZM270.393 199V209H268.493V207.5C268.08 208.033 267.58 208.453 266.993 208.76C266.407 209.053 265.78 209.2 265.113 209.2C264.233 209.2 263.433 208.98 262.713 208.54C261.993 208.087 261.427 207.467 261.013 206.68C260.6 205.893 260.393 205 260.393 204C260.393 203 260.6 202.107 261.013 201.32C261.427 200.533 261.993 199.92 262.713 199.48C263.433 199.027 264.233 198.8 265.113 198.8C265.807 198.8 266.453 198.96 267.053 199.28C267.653 199.6 268.167 200.047 268.593 200.62V199H270.393ZM265.433 207.44C266.02 207.44 266.553 207.293 267.033 207C267.513 206.707 267.887 206.3 268.153 205.78C268.42 205.247 268.553 204.653 268.553 204C268.553 203.347 268.42 202.76 268.153 202.24C267.887 201.707 267.513 201.293 267.033 201C266.553 200.707 266.02 200.56 265.433 200.56C264.847 200.56 264.32 200.707 263.853 201C263.387 201.293 263.02 201.707 262.753 202.24C262.487 202.76 262.353 203.347 262.353 204C262.353 204.653 262.487 205.247 262.753 205.78C263.02 206.3 263.387 206.707 263.853 207C264.32 207.293 264.847 207.44 265.433 207.44ZM281.318 209H279.418V205.24H277.458L274.378 209H272.098L275.298 205.12C274.578 204.933 274.018 204.573 273.618 204.04C273.218 203.493 273.018 202.853 273.018 202.12C273.018 201.213 273.311 200.467 273.898 199.88C274.498 199.293 275.325 199 276.378 199H281.318V209ZM279.418 203.58V200.7H276.638C276.091 200.7 275.678 200.827 275.398 201.08C275.118 201.32 274.978 201.673 274.978 202.14C274.978 202.607 275.118 202.967 275.398 203.22C275.678 203.46 276.091 203.58 276.638 203.58H279.418ZM294.541 209.2C293.555 209.2 292.655 208.973 291.841 208.52C291.028 208.053 290.388 207.427 289.921 206.64C289.455 205.84 289.221 204.96 289.221 204C289.221 203.04 289.455 202.167 289.921 201.38C290.388 200.58 291.028 199.953 291.841 199.5C292.655 199.033 293.555 198.8 294.541 198.8C295.515 198.8 296.401 199.033 297.201 199.5C298.015 199.953 298.655 200.58 299.121 201.38C299.588 202.167 299.821 203.04 299.821 204C299.821 204.96 299.588 205.84 299.121 206.64C298.655 207.427 298.015 208.053 297.201 208.52C296.401 208.973 295.515 209.2 294.541 209.2ZM294.541 207.44C295.155 207.44 295.715 207.293 296.221 207C296.728 206.693 297.128 206.28 297.421 205.76C297.715 205.227 297.861 204.64 297.861 204C297.861 203.36 297.715 202.78 297.421 202.26C297.128 201.727 296.728 201.313 296.221 201.02C295.715 200.713 295.155 200.56 294.541 200.56C293.915 200.56 293.341 200.713 292.821 201.02C292.315 201.313 291.915 201.727 291.621 202.26C291.328 202.78 291.181 203.36 291.181 204C291.181 204.64 291.328 205.227 291.621 205.76C291.915 206.28 292.315 206.693 292.821 207C293.341 207.293 293.915 207.44 294.541 207.44ZM311.114 209H309.214V200.8H304.014V209H302.114V199H311.114V209ZM323.241 209.02H321.341V200.8H317.061V202.62C317.061 204.047 316.981 205.213 316.821 206.12C316.674 207.027 316.361 207.753 315.881 208.3C315.401 208.833 314.687 209.1 313.741 209.1C313.487 209.1 313.214 209.067 312.921 209V207.24C313.161 207.28 313.374 207.3 313.561 207.3C313.987 207.3 314.307 207.167 314.521 206.9C314.747 206.633 314.907 206.16 315.001 205.48C315.094 204.787 315.141 203.773 315.141 202.44V199H323.241V209.02ZM335.55 199V209H333.65V207.5C333.236 208.033 332.736 208.453 332.15 208.76C331.563 209.053 330.936 209.2 330.27 209.2C329.39 209.2 328.59 208.98 327.87 208.54C327.15 208.087 326.583 207.467 326.17 206.68C325.756 205.893 325.55 205 325.55 204C325.55 203 325.756 202.107 326.17 201.32C326.583 200.533 327.15 199.92 327.87 199.48C328.59 199.027 329.39 198.8 330.27 198.8C330.963 198.8 331.61 198.96 332.21 199.28C332.81 199.6 333.323 200.047 333.75 200.62V199H335.55ZM330.59 207.44C331.176 207.44 331.71 207.293 332.19 207C332.67 206.707 333.043 206.3 333.31 205.78C333.576 205.247 333.71 204.653 333.71 204C333.71 203.347 333.576 202.76 333.31 202.24C333.043 201.707 332.67 201.293 332.19 201C331.71 200.707 331.176 200.56 330.59 200.56C330.003 200.56 329.476 200.707 329.01 201C328.543 201.293 328.176 201.707 327.91 202.24C327.643 202.76 327.51 203.347 327.51 204C327.51 204.653 327.643 205.247 327.91 205.78C328.176 206.3 328.543 206.707 329.01 207C329.476 207.293 330.003 207.44 330.59 207.44ZM346.354 200.8H342.854V209H340.954V200.8H337.454V199H346.354V200.8ZM356.956 199V209H355.056V207.5C354.643 208.033 354.143 208.453 353.556 208.76C352.969 209.053 352.343 209.2 351.676 209.2C350.796 209.2 349.996 208.98 349.276 208.54C348.556 208.087 347.989 207.467 347.576 206.68C347.163 205.893 346.956 205 346.956 204C346.956 203 347.163 202.107 347.576 201.32C347.989 200.533 348.556 199.92 349.276 199.48C349.996 199.027 350.796 198.8 351.676 198.8C352.369 198.8 353.016 198.96 353.616 199.28C354.216 199.6 354.729 200.047 355.156 200.62V199H356.956ZM351.996 207.44C352.583 207.44 353.116 207.293 353.596 207C354.076 206.707 354.449 206.3 354.716 205.78C354.983 205.247 355.116 204.653 355.116 204C355.116 203.347 354.983 202.76 354.716 202.24C354.449 201.707 354.076 201.293 353.596 201C353.116 200.707 352.583 200.56 351.996 200.56C351.409 200.56 350.883 200.707 350.416 201C349.949 201.293 349.583 201.707 349.316 202.24C349.049 202.76 348.916 203.347 348.916 204C348.916 204.653 349.049 205.247 349.316 205.78C349.583 206.3 349.949 206.707 350.416 207C350.883 207.293 351.409 207.44 351.996 207.44Z" fill="black"/>
</g>
<defs>
<filter id="filter0_d_388_4742" x="0" y="0" width="522" height="362" filterUnits="userSpaceOnUse" color-interpolation-filters="sRGB">
<feFlood flood-opacity="0" result="BackgroundImageFix"/>
<feColorMatrix in="SourceAlpha" type="matrix" values="0 0 0 0 0 0 0 0 0 0 0 0 0 0 0 0 0 0 127 0" result="hardAlpha"/>
<feOffset dy="4"/>
<feGaussianBlur stdDeviation="20.5"/>
<feComposite in2="hardAlpha" operator="out"/>
<feColorMatrix type="matrix" values="0 0 0 0 0 0 0 0 0 0 0 0 0 0 0 0 0 0 0.05 0"/>
<feBlend mode="normal" in2="BackgroundImageFix" result="effect1_dropShadow_388_4742"/>
<feBlend mode="normal" in="SourceGraphic" in2="effect1_dropShadow_388_4742" result="shape"/>
</filter>
</defs>
</svg>
