<svg width="522" height="362" viewBox="0 0 522 362" fill="none" xmlns="http://www.w3.org/2000/svg">
<g filter="url(#filter0_d_474_3676)">
<rect x="41" y="37" width="440" height="280" rx="3" fill="white"/>
<path fill-rule="evenodd" clip-rule="evenodd" d="M221 94.4865C221 93.6655 221.666 93 222.486 93H238.725H257.916H273.417C274.238 93 274.903 93.6655 274.903 94.4865V101.84H287.441C288.081 101.84 288.649 102.249 288.851 102.856L293.679 117.31H298.513C299.334 117.31 299.999 117.976 299.999 118.797V138.687C299.999 139.508 299.334 140.173 298.513 140.173H296.192C295.47 145.165 291.166 149 285.965 149C280.51 149 276.043 144.783 275.658 139.437H273.431L273.417 139.437H251.984C251.599 144.783 247.132 149 241.677 149C236.223 149 231.755 144.783 231.37 139.437H222.486C221.666 139.437 221 138.771 221 137.95V94.4865ZM275.872 136.464C276.891 131.836 281.023 128.374 285.965 128.374C291.166 128.374 295.47 132.209 296.192 137.2H297.027V120.283H292.608H274.903V136.464H275.872ZM271.93 136.464H251.77C250.752 131.836 246.62 128.374 241.677 128.374C236.735 128.374 232.603 131.836 231.584 136.464H223.973V95.973H237.238V109.22C237.238 109.743 237.513 110.227 237.962 110.496C238.411 110.764 238.968 110.777 239.428 110.529L248.32 105.751L257.212 110.529C257.673 110.777 258.23 110.764 258.679 110.496C259.127 110.227 259.402 109.743 259.402 109.22V95.973H271.93V136.464ZM274.903 117.31H290.544L286.37 104.813H274.903V117.31ZM240.211 95.973H256.429V106.734L249.024 102.754C248.585 102.518 248.056 102.518 247.617 102.754L240.211 106.734V95.973ZM252.001 119.533C252.001 118.712 252.667 118.047 253.488 118.047H263.821C264.642 118.047 265.308 118.712 265.308 119.533C265.308 120.354 264.642 121.02 263.821 121.02H253.488C252.667 121.02 252.001 120.354 252.001 119.533ZM256.44 126.887C255.619 126.887 254.954 127.553 254.954 128.374C254.954 129.194 255.619 129.86 256.44 129.86H263.821C264.642 129.86 265.307 129.194 265.307 128.374C265.307 127.553 264.642 126.887 263.821 126.887H256.44ZM241.677 146.027C245.748 146.027 249.038 142.735 249.038 138.687C249.038 134.638 245.748 131.346 241.677 131.346C237.607 131.346 234.317 134.638 234.317 138.687C234.317 142.735 237.607 146.027 241.677 146.027ZM293.326 138.687C293.326 142.735 290.036 146.027 285.965 146.027C281.894 146.027 278.604 142.735 278.604 138.687C278.604 134.638 281.894 131.346 285.965 131.346C290.036 131.346 293.326 134.638 293.326 138.687Z" fill="#C5358C"/>
<path d="M169.573 243H168.668V236.672H161.162V243H160.257V230.15H161.162V235.846H168.668V230.15H169.573V243ZM176.323 233.279C177.372 233.279 178.157 233.543 178.679 234.07C179.2 234.598 179.461 235.438 179.461 236.593V243H178.775L178.617 241.33H178.564C178.359 241.688 178.11 242.007 177.817 242.288C177.524 242.563 177.164 242.78 176.736 242.938C176.314 243.097 175.799 243.176 175.189 243.176C174.574 243.176 174.047 243.073 173.607 242.868C173.174 242.663 172.837 242.364 172.597 241.972C172.362 241.579 172.245 241.102 172.245 240.539C172.245 239.59 172.638 238.869 173.423 238.377C174.208 237.879 175.336 237.598 176.807 237.533L178.582 237.445V236.751C178.582 235.772 178.389 235.075 178.002 234.659C177.615 234.243 177.044 234.035 176.288 234.035C175.796 234.035 175.321 234.1 174.864 234.229C174.413 234.352 173.953 234.53 173.484 234.765L173.203 234.026C173.66 233.81 174.149 233.631 174.671 233.49C175.198 233.35 175.749 233.279 176.323 233.279ZM178.573 238.14L176.903 238.21C175.69 238.269 174.768 238.485 174.135 238.86C173.502 239.235 173.186 239.798 173.186 240.548C173.186 241.151 173.373 241.614 173.748 241.937C174.129 242.259 174.656 242.42 175.33 242.42C176.379 242.42 177.179 242.121 177.729 241.523C178.286 240.926 178.567 240.111 178.573 239.08V238.14ZM193.295 234.229H190.061V243H189.19V234.229H185.974V233.446H193.295V234.229ZM198.858 233.262C199.673 233.262 200.35 233.452 200.889 233.833C201.434 234.214 201.838 234.735 202.102 235.397C202.371 236.06 202.506 236.818 202.506 237.674V238.315H195.606C195.606 239.628 195.908 240.636 196.512 241.339C197.121 242.042 197.991 242.394 199.122 242.394C199.714 242.394 200.227 242.347 200.66 242.253C201.1 242.153 201.586 241.986 202.119 241.752V242.569C201.65 242.78 201.182 242.933 200.713 243.026C200.244 243.126 199.705 243.176 199.096 243.176C198.129 243.176 197.317 242.977 196.661 242.578C196.011 242.174 195.519 241.605 195.185 240.873C194.856 240.141 194.692 239.285 194.692 238.307C194.692 237.352 194.851 236.493 195.167 235.731C195.489 234.97 195.958 234.369 196.573 233.93C197.194 233.484 197.956 233.262 198.858 233.262ZM198.85 234.026C197.936 234.026 197.194 234.331 196.626 234.94C196.063 235.544 195.732 236.417 195.633 237.56H201.583C201.583 236.862 201.483 236.247 201.284 235.714C201.085 235.181 200.783 234.768 200.379 234.475C199.98 234.176 199.471 234.026 198.85 234.026ZM209.37 233.262C210.601 233.262 211.553 233.675 212.227 234.501C212.906 235.327 213.246 236.546 213.246 238.157C213.246 239.235 213.085 240.149 212.763 240.899C212.44 241.644 211.98 242.209 211.383 242.596C210.791 242.982 210.079 243.176 209.247 243.176C208.673 243.176 208.172 243.091 207.744 242.921C207.322 242.745 206.971 242.511 206.689 242.218C206.408 241.919 206.191 241.591 206.039 241.233H205.978C205.995 241.567 206.01 241.916 206.021 242.279C206.033 242.643 206.039 242.985 206.039 243.308V247.228H205.143V233.446H205.881L205.986 235.354H206.039C206.197 234.99 206.42 234.647 206.707 234.325C206.994 234.003 207.357 233.745 207.797 233.552C208.236 233.358 208.761 233.262 209.37 233.262ZM209.256 234.044C208.535 234.044 207.935 234.202 207.454 234.519C206.979 234.829 206.625 235.286 206.391 235.89C206.162 236.487 206.045 237.22 206.039 238.087V238.236C206.039 239.168 206.153 239.944 206.382 240.565C206.616 241.181 206.965 241.641 207.428 241.945C207.896 242.25 208.477 242.402 209.168 242.402C209.848 242.402 210.422 242.235 210.891 241.901C211.359 241.567 211.717 241.084 211.963 240.451C212.209 239.818 212.332 239.051 212.332 238.148C212.332 236.807 212.074 235.787 211.559 235.09C211.049 234.393 210.281 234.044 209.256 234.044ZM220.093 233.262C221.323 233.262 222.275 233.675 222.949 234.501C223.629 235.327 223.969 236.546 223.969 238.157C223.969 239.235 223.808 240.149 223.485 240.899C223.163 241.644 222.703 242.209 222.105 242.596C221.514 242.982 220.802 243.176 219.97 243.176C219.396 243.176 218.895 243.091 218.467 242.921C218.045 242.745 217.693 242.511 217.412 242.218C217.131 241.919 216.914 241.591 216.762 241.233H216.7C216.718 241.567 216.732 241.916 216.744 242.279C216.756 242.643 216.762 242.985 216.762 243.308V247.228H215.865V233.446H216.604L216.709 235.354H216.762C216.92 234.99 217.143 234.647 217.43 234.325C217.717 234.003 218.08 233.745 218.52 233.552C218.959 233.358 219.483 233.262 220.093 233.262ZM219.979 234.044C219.258 234.044 218.657 234.202 218.177 234.519C217.702 234.829 217.348 235.286 217.113 235.89C216.885 236.487 216.768 237.22 216.762 238.087V238.236C216.762 239.168 216.876 239.944 217.104 240.565C217.339 241.181 217.688 241.641 218.15 241.945C218.619 242.25 219.199 242.402 219.891 242.402C220.57 242.402 221.145 242.235 221.613 241.901C222.082 241.567 222.439 241.084 222.686 240.451C222.932 239.818 223.055 239.051 223.055 238.148C223.055 236.807 222.797 235.787 222.281 235.09C221.771 234.393 221.004 234.044 219.979 234.044ZM227.449 233.446V240.311C227.449 240.445 227.446 240.583 227.44 240.724C227.44 240.864 227.438 241.008 227.432 241.154C227.432 241.301 227.429 241.444 227.423 241.585C227.417 241.726 227.408 241.863 227.396 241.998L233.101 233.446H234.19V243H233.347V236.074C233.347 235.898 233.347 235.717 233.347 235.529C233.353 235.336 233.358 235.146 233.364 234.958C233.37 234.765 233.376 234.583 233.382 234.413L227.651 243H226.588V233.446H227.449ZM243.48 234.229H240.246V243H239.376V234.229H236.159V233.446H243.48V234.229ZM253.351 238.21C253.351 238.948 253.26 239.622 253.078 240.231C252.896 240.835 252.627 241.356 252.27 241.796C251.912 242.235 251.467 242.575 250.934 242.815C250.406 243.056 249.791 243.176 249.088 243.176C248.42 243.176 247.825 243.059 247.304 242.824C246.782 242.584 246.34 242.244 245.977 241.805C245.619 241.365 245.347 240.844 245.159 240.24C244.972 239.631 244.878 238.954 244.878 238.21C244.878 237.185 245.048 236.303 245.388 235.564C245.733 234.82 246.226 234.252 246.864 233.859C247.509 233.461 248.279 233.262 249.176 233.262C250.102 233.262 250.872 233.473 251.487 233.895C252.108 234.311 252.574 234.891 252.885 235.635C253.195 236.379 253.351 237.237 253.351 238.21ZM245.792 238.21C245.792 239.048 245.912 239.78 246.152 240.407C246.393 241.034 246.756 241.523 247.242 241.875C247.734 242.227 248.355 242.402 249.105 242.402C249.873 242.402 250.503 242.227 250.995 241.875C251.487 241.523 251.851 241.031 252.085 240.398C252.319 239.766 252.437 239.036 252.437 238.21C252.437 237.407 252.325 236.692 252.103 236.065C251.88 235.438 251.528 234.946 251.048 234.589C250.567 234.226 249.94 234.044 249.167 234.044C248.06 234.044 247.219 234.413 246.645 235.151C246.076 235.89 245.792 236.909 245.792 238.21ZM260.224 233.262C261.454 233.262 262.406 233.675 263.08 234.501C263.76 235.327 264.1 236.546 264.1 238.157C264.1 239.235 263.938 240.149 263.616 240.899C263.294 241.644 262.834 242.209 262.236 242.596C261.645 242.982 260.933 243.176 260.101 243.176C259.526 243.176 259.025 243.091 258.598 242.921C258.176 242.745 257.824 242.511 257.543 242.218C257.262 241.919 257.045 241.591 256.893 241.233H256.831C256.849 241.567 256.863 241.916 256.875 242.279C256.887 242.643 256.893 242.985 256.893 243.308V247.228H255.996V233.446H256.734L256.84 235.354H256.893C257.051 234.99 257.273 234.647 257.561 234.325C257.848 234.003 258.211 233.745 258.65 233.552C259.09 233.358 259.614 233.262 260.224 233.262ZM260.109 234.044C259.389 234.044 258.788 234.202 258.308 234.519C257.833 234.829 257.479 235.286 257.244 235.89C257.016 236.487 256.898 237.22 256.893 238.087V238.236C256.893 239.168 257.007 239.944 257.235 240.565C257.47 241.181 257.818 241.641 258.281 241.945C258.75 242.25 259.33 242.402 260.021 242.402C260.701 242.402 261.275 242.235 261.744 241.901C262.213 241.567 262.57 241.084 262.816 240.451C263.062 239.818 263.186 239.051 263.186 238.148C263.186 236.807 262.928 235.787 262.412 235.09C261.902 234.393 261.135 234.044 260.109 234.044ZM267.58 233.446V240.311C267.58 240.445 267.577 240.583 267.571 240.724C267.571 240.864 267.568 241.008 267.562 241.154C267.562 241.301 267.56 241.444 267.554 241.585C267.548 241.726 267.539 241.863 267.527 241.998L273.231 233.446H274.321V243H273.478V236.074C273.478 235.898 273.478 235.717 273.478 235.529C273.483 235.336 273.489 235.146 273.495 234.958C273.501 234.765 273.507 234.583 273.513 234.413L267.782 243H266.719V233.446H267.58ZM278.391 233.446V240.311C278.391 240.445 278.388 240.583 278.382 240.724C278.382 240.864 278.379 241.008 278.373 241.154C278.373 241.301 278.37 241.444 278.364 241.585C278.358 241.726 278.35 241.863 278.338 241.998L284.042 233.446H285.132V243H284.288V236.074C284.288 235.898 284.288 235.717 284.288 235.529C284.294 235.336 284.3 235.146 284.306 234.958C284.312 234.765 284.317 234.583 284.323 234.413L278.593 243H277.529V233.446H278.391ZM298.799 243L294.079 231.135H294.035C294.047 231.352 294.056 231.58 294.062 231.82C294.073 232.055 294.082 232.301 294.088 232.559C294.094 232.816 294.097 233.086 294.097 233.367V243H293.235V230.15H294.606L299.159 241.594H299.212L303.8 230.15H305.136V243H304.248V233.262C304.248 233.033 304.251 232.799 304.257 232.559C304.263 232.318 304.269 232.081 304.274 231.847C304.286 231.606 304.298 231.375 304.31 231.152H304.257L299.52 243H298.799ZM316.474 238.21C316.474 238.948 316.383 239.622 316.201 240.231C316.02 240.835 315.75 241.356 315.393 241.796C315.035 242.235 314.59 242.575 314.057 242.815C313.529 243.056 312.914 243.176 312.211 243.176C311.543 243.176 310.948 243.059 310.427 242.824C309.905 242.584 309.463 242.244 309.1 241.805C308.742 241.365 308.47 240.844 308.282 240.24C308.095 239.631 308.001 238.954 308.001 238.21C308.001 237.185 308.171 236.303 308.511 235.564C308.856 234.82 309.349 234.252 309.987 233.859C310.632 233.461 311.402 233.262 312.299 233.262C313.225 233.262 313.995 233.473 314.61 233.895C315.231 234.311 315.697 234.891 316.008 235.635C316.318 236.379 316.474 237.237 316.474 238.21ZM308.915 238.21C308.915 239.048 309.035 239.78 309.275 240.407C309.516 241.034 309.879 241.523 310.365 241.875C310.857 242.227 311.479 242.402 312.229 242.402C312.996 242.402 313.626 242.227 314.118 241.875C314.61 241.523 314.974 241.031 315.208 240.398C315.442 239.766 315.56 239.036 315.56 238.21C315.56 237.407 315.448 236.692 315.226 236.065C315.003 235.438 314.651 234.946 314.171 234.589C313.69 234.226 313.063 234.044 312.29 234.044C311.183 234.044 310.342 234.413 309.768 235.151C309.199 235.89 308.915 236.909 308.915 238.21ZM322.942 243.176C321.993 243.176 321.19 242.979 320.534 242.587C319.884 242.188 319.392 241.623 319.058 240.891C318.729 240.152 318.565 239.279 318.565 238.271C318.565 237.223 318.756 236.326 319.137 235.582C319.518 234.832 320.054 234.258 320.745 233.859C321.437 233.461 322.248 233.262 323.18 233.262C323.637 233.262 324.062 233.303 324.454 233.385C324.847 233.467 325.201 233.581 325.518 233.728L325.28 234.51C324.952 234.363 324.604 234.252 324.234 234.176C323.865 234.1 323.511 234.062 323.171 234.062C322.386 234.062 321.718 234.234 321.167 234.58C320.622 234.92 320.203 235.406 319.91 236.039C319.623 236.666 319.479 237.407 319.479 238.263C319.479 239.065 319.603 239.777 319.849 240.398C320.095 241.014 320.473 241.5 320.982 241.857C321.492 242.209 322.146 242.385 322.942 242.385C323.405 242.385 323.845 242.338 324.261 242.244C324.683 242.15 325.066 242.03 325.412 241.884V242.692C325.102 242.833 324.741 242.947 324.331 243.035C323.927 243.129 323.464 243.176 322.942 243.176ZM332.883 233.446H333.911L329.587 238.087L334.175 243H333.076L328.576 238.157V243H327.68V233.446H328.576V238.087L332.883 233.446ZM343.096 235.775C343.096 236.379 342.938 236.854 342.621 237.199C342.311 237.545 341.897 237.779 341.382 237.902V237.955C342.009 238.049 342.513 238.286 342.894 238.667C343.28 239.042 343.474 239.581 343.474 240.284C343.474 240.841 343.351 241.321 343.104 241.726C342.858 242.13 342.48 242.443 341.971 242.666C341.467 242.889 340.819 243 340.028 243H335.941V233.446H339.923C340.626 233.446 341.212 233.537 341.681 233.719C342.149 233.895 342.501 234.155 342.735 234.501C342.976 234.841 343.096 235.266 343.096 235.775ZM342.551 240.284C342.551 239.599 342.319 239.106 341.856 238.808C341.394 238.509 340.714 238.359 339.817 238.359H336.838V242.244H339.87C340.767 242.244 341.438 242.086 341.883 241.77C342.328 241.447 342.551 240.952 342.551 240.284ZM342.19 235.846C342.19 235.342 342.012 234.946 341.654 234.659C341.297 234.366 340.69 234.22 339.835 234.22H336.838V237.577H339.747C340.591 237.577 341.209 237.434 341.602 237.146C341.994 236.854 342.19 236.42 342.19 235.846ZM346.137 243V233.446H347.033V237.472H350.303C351.053 237.472 351.665 237.577 352.14 237.788C352.62 237.999 352.975 238.304 353.203 238.702C353.438 239.101 353.555 239.581 353.555 240.144C353.555 240.741 353.432 241.254 353.186 241.682C352.939 242.104 352.562 242.429 352.052 242.657C351.542 242.886 350.895 243 350.109 243H346.137ZM347.033 242.244H350.013C350.921 242.244 351.589 242.071 352.017 241.726C352.444 241.38 352.658 240.855 352.658 240.152C352.658 239.514 352.45 239.036 352.034 238.72C351.624 238.403 351.003 238.245 350.171 238.245H347.033V242.244ZM355.075 243V233.446H355.963V243H355.075Z" fill="black"/>
<path d="M162.152 200.8C163.086 200.8 163.886 200.98 164.552 201.34C165.232 201.687 165.746 202.173 166.092 202.8C166.452 203.413 166.632 204.113 166.632 204.9C166.632 205.687 166.452 206.393 166.092 207.02C165.746 207.633 165.232 208.12 164.552 208.48C163.886 208.827 163.086 209 162.152 209H156.032V195H165.832V196.88H158.032V200.8H162.152ZM162.092 207.12C162.892 207.12 163.499 206.933 163.912 206.56C164.326 206.173 164.532 205.613 164.532 204.88C164.532 204.147 164.326 203.593 163.912 203.22C163.499 202.847 162.892 202.66 162.092 202.66H158.032V207.12H162.092ZM173.451 198.8C174.478 198.8 175.371 199.02 176.131 199.46C176.904 199.9 177.498 200.527 177.911 201.34C178.324 202.14 178.531 203.08 178.531 204.16C178.531 204.44 178.524 204.647 178.511 204.78H170.311C170.444 205.553 170.804 206.193 171.391 206.7C171.991 207.193 172.684 207.44 173.471 207.44C174.764 207.44 175.684 206.967 176.231 206.02H178.191C177.871 206.953 177.278 207.72 176.411 208.32C175.544 208.907 174.564 209.2 173.471 209.2C172.498 209.2 171.618 208.98 170.831 208.54C170.044 208.087 169.431 207.467 168.991 206.68C168.551 205.88 168.331 204.987 168.331 204C168.331 203.013 168.551 202.127 168.991 201.34C169.431 200.54 170.038 199.92 170.811 199.48C171.598 199.027 172.478 198.8 173.451 198.8ZM173.411 200.48C172.624 200.48 171.944 200.727 171.371 201.22C170.811 201.713 170.464 202.347 170.331 203.12H176.471C176.391 202.32 176.064 201.68 175.491 201.2C174.931 200.72 174.238 200.48 173.411 200.48ZM180.03 204C180.03 203.04 180.263 202.167 180.73 201.38C181.197 200.58 181.837 199.953 182.65 199.5C183.463 199.033 184.363 198.8 185.35 198.8C186.457 198.8 187.45 199.127 188.33 199.78C189.223 200.42 189.81 201.26 190.09 202.3H188.01C187.783 201.767 187.417 201.347 186.91 201.04C186.417 200.72 185.863 200.56 185.25 200.56C184.623 200.56 184.063 200.713 183.57 201.02C183.077 201.313 182.69 201.727 182.41 202.26C182.13 202.78 181.99 203.36 181.99 204C181.99 204.64 182.13 205.227 182.41 205.76C182.69 206.28 183.077 206.693 183.57 207C184.063 207.293 184.623 207.44 185.25 207.44C185.863 207.44 186.417 207.287 186.91 206.98C187.417 206.66 187.783 206.233 188.01 205.7H190.09C189.81 206.74 189.223 207.587 188.33 208.24C187.45 208.88 186.457 209.2 185.35 209.2C184.363 209.2 183.463 208.973 182.65 208.52C181.837 208.053 181.197 207.427 180.73 206.64C180.263 205.84 180.03 204.96 180.03 204ZM201.2 209H199.3V200.8H194.1V209H192.2V199H201.2V209ZM213.327 209.02H211.427V200.8H207.147V202.62C207.147 204.047 207.067 205.213 206.907 206.12C206.76 207.027 206.447 207.753 205.967 208.3C205.487 208.833 204.773 209.1 203.827 209.1C203.573 209.1 203.3 209.067 203.007 209V207.24C203.247 207.28 203.46 207.3 203.647 207.3C204.073 207.3 204.393 207.167 204.607 206.9C204.833 206.633 204.993 206.16 205.087 205.48C205.18 204.787 205.227 203.773 205.227 202.44V199H213.327V209.02ZM225.636 199V209H223.736V207.5C223.322 208.033 222.822 208.453 222.236 208.76C221.649 209.053 221.022 209.2 220.356 209.2C219.476 209.2 218.676 208.98 217.956 208.54C217.236 208.087 216.669 207.467 216.256 206.68C215.842 205.893 215.636 205 215.636 204C215.636 203 215.842 202.107 216.256 201.32C216.669 200.533 217.236 199.92 217.956 199.48C218.676 199.027 219.476 198.8 220.356 198.8C221.049 198.8 221.696 198.96 222.296 199.28C222.896 199.6 223.409 200.047 223.836 200.62V199H225.636ZM220.676 207.44C221.262 207.44 221.796 207.293 222.276 207C222.756 206.707 223.129 206.3 223.396 205.78C223.662 205.247 223.796 204.653 223.796 204C223.796 203.347 223.662 202.76 223.396 202.24C223.129 201.707 222.756 201.293 222.276 201C221.796 200.707 221.262 200.56 220.676 200.56C220.089 200.56 219.562 200.707 219.096 201C218.629 201.293 218.262 201.707 217.996 202.24C217.729 202.76 217.596 203.347 217.596 204C217.596 204.653 217.729 205.247 217.996 205.78C218.262 206.3 218.629 206.707 219.096 207C219.562 207.293 220.089 207.44 220.676 207.44ZM236.44 200.8H232.94V209H231.04V200.8H227.54V199H236.44V200.8ZM247.332 199V209H245.432V204.9H240.232V209H238.332V199H240.232V203.1H245.432V199H247.332ZM259.639 199V209H257.739V207.5C257.326 208.033 256.826 208.453 256.239 208.76C255.653 209.053 255.026 209.2 254.359 209.2C253.479 209.2 252.679 208.98 251.959 208.54C251.239 208.087 250.673 207.467 250.259 206.68C249.846 205.893 249.639 205 249.639 204C249.639 203 249.846 202.107 250.259 201.32C250.673 200.533 251.239 199.92 251.959 199.48C252.679 199.027 253.479 198.8 254.359 198.8C255.053 198.8 255.699 198.96 256.299 199.28C256.899 199.6 257.413 200.047 257.839 200.62V199H259.639ZM254.679 207.44C255.266 207.44 255.799 207.293 256.279 207C256.759 206.707 257.133 206.3 257.399 205.78C257.666 205.247 257.799 204.653 257.799 204C257.799 203.347 257.666 202.76 257.399 202.24C257.133 201.707 256.759 201.293 256.279 201C255.799 200.707 255.266 200.56 254.679 200.56C254.093 200.56 253.566 200.707 253.099 201C252.633 201.293 252.266 201.707 251.999 202.24C251.733 202.76 251.599 203.347 251.599 204C251.599 204.653 251.733 205.247 251.999 205.78C252.266 206.3 252.633 206.707 253.099 207C253.566 207.293 254.093 207.44 254.679 207.44ZM270.564 209H268.664V205.24H266.704L263.624 209H261.344L264.544 205.12C263.824 204.933 263.264 204.573 262.864 204.04C262.464 203.493 262.264 202.853 262.264 202.12C262.264 201.213 262.557 200.467 263.144 199.88C263.744 199.293 264.571 199 265.624 199H270.564V209ZM268.664 203.58V200.7H265.884C265.337 200.7 264.924 200.827 264.644 201.08C264.364 201.32 264.224 201.673 264.224 202.14C264.224 202.607 264.364 202.967 264.644 203.22C264.924 203.46 265.337 203.58 265.884 203.58H268.664ZM289.488 207.2V211.2H287.648V209H280.008V211.2H278.168V207.2H279.448C279.728 206.4 279.868 204.867 279.868 202.6V199H288.088V207.2H289.488ZM286.188 207.24V200.76H281.768V202.54C281.768 204.54 281.614 206.107 281.308 207.24H286.188ZM295.721 209.2C294.735 209.2 293.835 208.973 293.021 208.52C292.208 208.053 291.568 207.427 291.101 206.64C290.635 205.84 290.401 204.96 290.401 204C290.401 203.04 290.635 202.167 291.101 201.38C291.568 200.58 292.208 199.953 293.021 199.5C293.835 199.033 294.735 198.8 295.721 198.8C296.695 198.8 297.581 199.033 298.381 199.5C299.195 199.953 299.835 200.58 300.301 201.38C300.768 202.167 301.001 203.04 301.001 204C301.001 204.96 300.768 205.84 300.301 206.64C299.835 207.427 299.195 208.053 298.381 208.52C297.581 208.973 296.695 209.2 295.721 209.2ZM295.721 207.44C296.335 207.44 296.895 207.293 297.401 207C297.908 206.693 298.308 206.28 298.601 205.76C298.895 205.227 299.041 204.64 299.041 204C299.041 203.36 298.895 202.78 298.601 202.26C298.308 201.727 297.908 201.313 297.401 201.02C296.895 200.713 296.335 200.56 295.721 200.56C295.095 200.56 294.521 200.713 294.001 201.02C293.495 201.313 293.095 201.727 292.801 202.26C292.508 202.78 292.361 203.36 292.361 204C292.361 204.64 292.508 205.227 292.801 205.76C293.095 206.28 293.495 206.693 294.001 207C294.521 207.293 295.095 207.44 295.721 207.44ZM302.491 204C302.491 203.04 302.724 202.167 303.191 201.38C303.658 200.58 304.298 199.953 305.111 199.5C305.924 199.033 306.824 198.8 307.811 198.8C308.918 198.8 309.911 199.127 310.791 199.78C311.684 200.42 312.271 201.26 312.551 202.3H310.471C310.244 201.767 309.878 201.347 309.371 201.04C308.878 200.72 308.324 200.56 307.711 200.56C307.084 200.56 306.524 200.713 306.031 201.02C305.538 201.313 305.151 201.727 304.871 202.26C304.591 202.78 304.451 203.36 304.451 204C304.451 204.64 304.591 205.227 304.871 205.76C305.151 206.28 305.538 206.693 306.031 207C306.524 207.293 307.084 207.44 307.711 207.44C308.324 207.44 308.878 207.287 309.371 206.98C309.878 206.66 310.244 206.233 310.471 205.7H312.551C312.271 206.74 311.684 207.587 310.791 208.24C309.911 208.88 308.918 209.2 307.811 209.2C306.824 209.2 305.924 208.973 305.111 208.52C304.298 208.053 303.658 207.427 303.191 206.64C302.724 205.84 302.491 204.96 302.491 204ZM321.87 200.8H318.37V209H316.47V200.8H312.97V199H321.87V200.8ZM332.471 199V209H330.571V207.5C330.158 208.033 329.658 208.453 329.071 208.76C328.485 209.053 327.858 209.2 327.191 209.2C326.311 209.2 325.511 208.98 324.791 208.54C324.071 208.087 323.505 207.467 323.091 206.68C322.678 205.893 322.471 205 322.471 204C322.471 203 322.678 202.107 323.091 201.32C323.505 200.533 324.071 199.92 324.791 199.48C325.511 199.027 326.311 198.8 327.191 198.8C327.885 198.8 328.531 198.96 329.131 199.28C329.731 199.6 330.245 200.047 330.671 200.62V199H332.471ZM327.511 207.44C328.098 207.44 328.631 207.293 329.111 207C329.591 206.707 329.965 206.3 330.231 205.78C330.498 205.247 330.631 204.653 330.631 204C330.631 203.347 330.498 202.76 330.231 202.24C329.965 201.707 329.591 201.293 329.111 201C328.631 200.707 328.098 200.56 327.511 200.56C326.925 200.56 326.398 200.707 325.931 201C325.465 201.293 325.098 201.707 324.831 202.24C324.565 202.76 324.431 203.347 324.431 204C324.431 204.653 324.565 205.247 324.831 205.78C325.098 206.3 325.465 206.707 325.931 207C326.398 207.293 326.925 207.44 327.511 207.44ZM342.596 203.9C343.583 204.393 344.076 205.153 344.076 206.18C344.076 207.007 343.776 207.687 343.176 208.22C342.576 208.74 341.75 209 340.696 209H335.676V199H340.696C341.696 199 342.483 199.26 343.056 199.78C343.643 200.287 343.936 200.933 343.936 201.72C343.936 202.187 343.823 202.613 343.596 203C343.383 203.373 343.05 203.673 342.596 203.9ZM340.476 203.16C340.97 203.16 341.343 203.047 341.596 202.82C341.85 202.593 341.976 202.26 341.976 201.82C341.976 201.007 341.476 200.6 340.476 200.6H337.536V203.16H340.476ZM340.496 207.4C341.03 207.4 341.43 207.287 341.696 207.06C341.976 206.82 342.116 206.48 342.116 206.04C342.116 205.627 341.976 205.313 341.696 205.1C341.43 204.873 341.03 204.76 340.496 204.76H337.536V207.4H340.496ZM349.757 204.36L348.337 205.68V209H346.477V199H348.337V203.48L353.037 199H355.557L351.177 203.04L355.977 209H353.437L349.757 204.36ZM366.163 199V209H364.263V207.5C363.85 208.033 363.35 208.453 362.763 208.76C362.176 209.053 361.55 209.2 360.883 209.2C360.003 209.2 359.203 208.98 358.483 208.54C357.763 208.087 357.196 207.467 356.783 206.68C356.37 205.893 356.163 205 356.163 204C356.163 203 356.37 202.107 356.783 201.32C357.196 200.533 357.763 199.92 358.483 199.48C359.203 199.027 360.003 198.8 360.883 198.8C361.576 198.8 362.223 198.96 362.823 199.28C363.423 199.6 363.936 200.047 364.363 200.62V199H366.163ZM361.203 207.44C361.79 207.44 362.323 207.293 362.803 207C363.283 206.707 363.656 206.3 363.923 205.78C364.19 205.247 364.323 204.653 364.323 204C364.323 203.347 364.19 202.76 363.923 202.24C363.656 201.707 363.283 201.293 362.803 201C362.323 200.707 361.79 200.56 361.203 200.56C360.616 200.56 360.09 200.707 359.623 201C359.156 201.293 358.79 201.707 358.523 202.24C358.256 202.76 358.123 203.347 358.123 204C358.123 204.653 358.256 205.247 358.523 205.78C358.79 206.3 359.156 206.707 359.623 207C360.09 207.293 360.616 207.44 361.203 207.44Z" fill="black"/>
</g>
<defs>
<filter id="filter0_d_474_3676" x="0" y="0" width="522" height="362" filterUnits="userSpaceOnUse" color-interpolation-filters="sRGB">
<feFlood flood-opacity="0" result="BackgroundImageFix"/>
<feColorMatrix in="SourceAlpha" type="matrix" values="0 0 0 0 0 0 0 0 0 0 0 0 0 0 0 0 0 0 127 0" result="hardAlpha"/>
<feOffset dy="4"/>
<feGaussianBlur stdDeviation="20.5"/>
<feComposite in2="hardAlpha" operator="out"/>
<feColorMatrix type="matrix" values="0 0 0 0 0 0 0 0 0 0 0 0 0 0 0 0 0 0 0.05 0"/>
<feBlend mode="normal" in2="BackgroundImageFix" result="effect1_dropShadow_474_3676"/>
<feBlend mode="normal" in="SourceGraphic" in2="effect1_dropShadow_474_3676" result="shape"/>
</filter>
</defs>
</svg>
