<svg width="135.000000" height="23.000000" viewBox="0 0 135 23" fill="none" xmlns="http://www.w3.org/2000/svg" xmlns:xlink="http://www.w3.org/1999/xlink">
	<desc>
			Created with Pixso.
	</desc>
	<defs/>
	<path id="В наличии" d="M38.39 6.15L34.75 6.15L34.75 19L39.17 19Q40.54 19 41.55 18.58Q42.33 18.25 42.84 17.67Q42.98 17.52 43.1 17.34L43.1 17.34Q43.65 16.53 43.65 15.34Q43.65 14.36 43.28 13.73Q43.11 13.43 42.87 13.2Q42.6 12.93 42.26 12.75Q41.61 12.39 40.76 12.26L40.76 12.17Q41.56 12.03 42.11 11.64Q42.41 11.42 42.64 11.14Q42.81 10.92 42.94 10.66Q43.23 10.07 43.23 9.32Q43.23 8.1 42.63 7.39Q42.37 7.08 42.01 6.87Q40.8 6.15 38.39 6.15ZM38.71 11.66L36.25 11.66L36.25 7.42L38.46 7.42Q40.14 7.42 40.91 7.9Q41.14 8.05 41.31 8.25Q41.68 8.72 41.68 9.49Q41.68 10.34 41.26 10.86Q41.16 10.99 41.03 11.1Q40.39 11.66 38.71 11.66ZM68.39 9.98Q67.55 9.2 65.83 9.2Q64.9 9.2 64.06 9.44Q63.21 9.68 62.56 10.01L63.01 11.12Q63.62 10.82 64.31 10.6L64.31 10.6Q65 10.38 65.75 10.38Q66.69 10.38 67.23 10.85Q67.25 10.87 67.26 10.88Q67.8 11.38 67.8 12.63L67.8 13.22L66.14 13.29Q63.8 13.36 62.66 14.13Q62.14 14.48 61.86 14.97Q61.52 15.56 61.52 16.35Q61.52 17.31 61.91 17.93Q62.09 18.22 62.32 18.43Q62.61 18.7 62.98 18.86Q63.66 19.17 64.54 19.17Q65.37 19.17 65.95 18.99Q66.49 18.82 66.92 18.49Q66.94 18.47 66.96 18.45Q67.4 18.1 67.81 17.57L67.88 17.57L68.16 19L69.22 19L69.22 12.45Q69.22 10.75 68.39 9.98ZM52.3 13.41L52.3 9.36L50.84 9.36L50.84 19L52.3 19L52.3 14.64L57.67 14.64L57.67 19L59.13 19L59.13 9.36L57.67 9.36L57.67 13.41L52.3 13.41ZM77.97 19L79.45 19L79.45 9.36L73.78 9.36Q73.65 11.13 73.49 12.52Q73.33 13.91 73.12 14.94Q72.91 15.96 72.64 16.63Q72.37 17.3 72.04 17.63Q71.79 17.88 71.49 17.94Q71.41 17.96 71.32 17.96Q71.17 17.96 71.05 17.94Q70.92 17.92 70.81 17.89L70.81 19Q70.96 19.06 71.17 19.08Q71.38 19.11 71.61 19.11Q72.09 19.11 72.49 18.93Q72.74 18.82 72.96 18.63Q73.53 18.15 73.93 17.13Q74.33 16.1 74.6 14.48Q74.87 12.86 75.04 10.58L77.97 10.58L77.97 19ZM83.92 15.42L83.92 9.36L82.53 9.36L82.53 19L84.33 19L89.57 10.84Q89.56 11.08 89.54 11.5Q89.53 11.93 89.52 12.37Q89.51 12.81 89.51 13.09L89.51 19L90.87 19L90.87 9.36L89.08 9.36L83.82 17.53Q83.84 17.34 83.85 17.06Q83.87 16.77 83.88 16.46Q83.9 16.15 83.91 15.87Q83.92 15.59 83.92 15.42ZM95.25 12.83L95.25 9.36L93.79 9.36L93.79 12.93Q93.79 13.92 94.25 14.6Q94.4 14.83 94.6 15.02Q94.64 15.06 94.68 15.1Q95.49 15.8 96.9 15.8Q97.99 15.8 98.77 15.5Q99.55 15.2 100.36 14.68L100.36 19L101.82 19L101.82 9.36L100.36 9.36L100.36 13.55Q99.6 14.03 98.85 14.31Q98.1 14.59 97.19 14.59Q96.24 14.59 95.74 14.16Q95.7 14.12 95.66 14.08Q95.25 13.65 95.25 12.83ZM106.29 15.42L106.29 9.36L104.9 9.36L104.9 19L106.7 19L111.94 10.84Q111.93 11.08 111.91 11.5Q111.89 11.93 111.89 12.37Q111.88 12.81 111.88 13.09L111.88 19L113.24 19L113.24 9.36L111.45 9.36L106.19 17.53Q106.21 17.34 106.22 17.06Q106.23 16.77 106.25 16.46Q106.27 16.15 106.28 15.87Q106.29 15.59 106.29 15.42ZM117.73 15.42L117.73 9.36L116.34 9.36L116.34 19L118.14 19L123.38 10.84Q123.37 11.08 123.36 11.5Q123.34 11.93 123.33 12.37Q123.32 12.81 123.32 13.09L123.32 19L124.68 19L124.68 9.36L122.89 9.36L117.63 17.53Q117.65 17.34 117.66 17.06Q117.68 16.77 117.7 16.46Q117.71 16.15 117.72 15.87Q117.73 15.59 117.73 15.42ZM36.25 17.72L36.25 12.91L38.79 12.91Q39.98 12.91 40.7 13.19Q41.41 13.47 41.74 13.99Q42.06 14.5 42.06 15.23Q42.06 16.08 41.67 16.66Q41.53 16.87 41.34 17.05Q40.63 17.72 38.92 17.72L36.25 17.72ZM66.31 14.31L67.78 14.25L67.78 15.14Q67.78 16.37 67.17 17.06Q67.08 17.17 66.96 17.27Q66.82 17.4 66.67 17.5Q65.92 17.98 64.86 17.98Q64.04 17.98 63.54 17.59Q63.44 17.52 63.37 17.43Q63.04 17.04 63.04 16.37Q63.04 15.84 63.27 15.44Q63.45 15.13 63.77 14.9Q64.51 14.38 66.31 14.31Z" fill="#68AE5C" fill-opacity="1.000000" fill-rule="evenodd"/>
	<circle id="в наличии" cx="6.500000" cy="12.500000" r="6.500000" fill="#68AE5C" fill-opacity="1.000000"/>
</svg>
