<svg width="522" height="362" viewBox="0 0 522 362" fill="none" xmlns="http://www.w3.org/2000/svg">
<g filter="url(#filter0_d_388_4734)">
<rect width="440" height="280" transform="translate(41 37)" fill="white"/>
<path fill-rule="evenodd" clip-rule="evenodd" d="M226.486 81C225.666 81 225 81.6655 225 82.4865V138.779C225 139.6 225.666 140.266 226.486 140.266H260.974V138.987C261.085 151.163 270.898 161 282.987 161C295.144 161 305 151.051 305 138.779C305 126.53 295.182 116.596 283.056 116.558H285.208V82.4865C285.208 81.6655 284.542 81 283.721 81H226.486ZM282.918 116.558H282.235V83.973H265.395V97.3004C265.395 97.8337 265.11 98.3262 264.647 98.5909C264.184 98.8556 263.614 98.8519 263.155 98.5813L255.074 93.8233L246.274 98.6064C245.814 98.8567 245.255 98.846 244.805 98.578C244.354 98.3101 244.078 97.8246 244.078 97.3004V83.973H227.973V137.293H260.974V138.571C261.084 126.418 270.86 116.596 282.918 116.558ZM247.051 94.8005V83.973H262.422V94.7L255.858 90.8346C255.408 90.5697 254.852 90.5602 254.394 90.8095L247.051 94.8005ZM235.291 112.109C234.47 112.109 233.805 112.775 233.805 113.596C233.805 114.417 234.47 115.082 235.291 115.082H251.435C252.256 115.082 252.922 114.417 252.922 113.596C252.922 112.775 252.256 112.109 251.435 112.109H235.291ZM292.032 135.459C292.653 134.922 292.721 133.983 292.184 133.362C291.647 132.742 290.708 132.674 290.087 133.211L281.024 141.052L277.576 136.411C277.087 135.752 276.156 135.615 275.497 136.105C274.838 136.594 274.7 137.526 275.19 138.185L279.593 144.11C279.839 144.442 280.213 144.656 280.624 144.702C281.035 144.747 281.446 144.619 281.759 144.348L292.032 135.459ZM233.805 125.447C233.805 124.626 234.47 123.96 235.291 123.96H247.033C247.854 123.96 248.519 124.626 248.519 125.447C248.519 126.268 247.854 126.933 247.033 126.933H235.291C234.47 126.933 233.805 126.268 233.805 125.447ZM302.065 138.779C302.065 149.415 293.523 158.037 282.987 158.037C272.45 158.037 263.908 149.415 263.908 138.779C263.908 128.143 272.45 119.521 282.987 119.521C293.523 119.521 302.065 128.143 302.065 138.779Z" fill="#C5358C"/>
<path d="M199.157 230.15V230.977H193.022V243H192.117V230.15H199.157ZM204.264 233.279C205.312 233.279 206.098 233.543 206.619 234.07C207.141 234.598 207.401 235.438 207.401 236.593V243H206.716L206.558 241.33H206.505C206.3 241.688 206.051 242.007 205.758 242.288C205.465 242.563 205.104 242.78 204.677 242.938C204.255 243.097 203.739 243.176 203.13 243.176C202.515 243.176 201.987 243.073 201.548 242.868C201.114 242.663 200.777 242.364 200.537 241.972C200.303 241.579 200.186 241.102 200.186 240.539C200.186 239.59 200.578 238.869 201.363 238.377C202.148 237.879 203.276 237.598 204.747 237.533L206.522 237.445V236.751C206.522 235.772 206.329 235.075 205.942 234.659C205.556 234.243 204.984 234.035 204.229 234.035C203.736 234.035 203.262 234.1 202.805 234.229C202.354 234.352 201.894 234.53 201.425 234.765L201.144 234.026C201.601 233.81 202.09 233.631 202.611 233.49C203.139 233.35 203.689 233.279 204.264 233.279ZM206.514 238.14L204.844 238.21C203.631 238.269 202.708 238.485 202.075 238.86C201.442 239.235 201.126 239.798 201.126 240.548C201.126 241.151 201.313 241.614 201.688 241.937C202.069 242.259 202.597 242.42 203.271 242.42C204.319 242.42 205.119 242.121 205.67 241.523C206.227 240.926 206.508 240.111 206.514 239.08V238.14ZM214.705 233.262C215.936 233.262 216.888 233.675 217.562 234.501C218.241 235.327 218.581 236.546 218.581 238.157C218.581 239.235 218.42 240.149 218.098 240.899C217.775 241.644 217.315 242.209 216.718 242.596C216.126 242.982 215.414 243.176 214.582 243.176C214.008 243.176 213.507 243.091 213.079 242.921C212.657 242.745 212.306 242.511 212.024 242.218C211.743 241.919 211.526 241.591 211.374 241.233H211.312C211.33 241.567 211.345 241.916 211.356 242.279C211.368 242.643 211.374 242.985 211.374 243.308V247.228H210.478V233.446H211.216L211.321 235.354H211.374C211.532 234.99 211.755 234.647 212.042 234.325C212.329 234.003 212.692 233.745 213.132 233.552C213.571 233.358 214.096 233.262 214.705 233.262ZM214.591 234.044C213.87 234.044 213.27 234.202 212.789 234.519C212.314 234.829 211.96 235.286 211.726 235.89C211.497 236.487 211.38 237.22 211.374 238.087V238.236C211.374 239.168 211.488 239.944 211.717 240.565C211.951 241.181 212.3 241.641 212.763 241.945C213.231 242.25 213.812 242.402 214.503 242.402C215.183 242.402 215.757 242.235 216.226 241.901C216.694 241.567 217.052 241.084 217.298 240.451C217.544 239.818 217.667 239.051 217.667 238.148C217.667 236.807 217.409 235.787 216.894 235.09C216.384 234.393 215.616 234.044 214.591 234.044ZM224.531 233.279C225.58 233.279 226.365 233.543 226.887 234.07C227.408 234.598 227.669 235.438 227.669 236.593V243H226.983L226.825 241.33H226.772C226.567 241.688 226.318 242.007 226.025 242.288C225.732 242.563 225.372 242.78 224.944 242.938C224.522 243.097 224.007 243.176 223.397 243.176C222.782 243.176 222.255 243.073 221.815 242.868C221.382 242.663 221.045 242.364 220.805 241.972C220.57 241.579 220.453 241.102 220.453 240.539C220.453 239.59 220.846 238.869 221.631 238.377C222.416 237.879 223.544 237.598 225.015 237.533L226.79 237.445V236.751C226.79 235.772 226.597 235.075 226.21 234.659C225.823 234.243 225.252 234.035 224.496 234.035C224.004 234.035 223.529 234.1 223.072 234.229C222.621 234.352 222.161 234.53 221.692 234.765L221.411 234.026C221.868 233.81 222.357 233.631 222.879 233.49C223.406 233.35 223.957 233.279 224.531 233.279ZM226.781 238.14L225.111 238.21C223.898 238.269 222.976 238.485 222.343 238.86C221.71 239.235 221.394 239.798 221.394 240.548C221.394 241.151 221.581 241.614 221.956 241.937C222.337 242.259 222.864 242.42 223.538 242.42C224.587 242.42 225.387 242.121 225.938 241.523C226.494 240.926 226.775 240.111 226.781 239.08V238.14ZM231.642 233.446V237.63H237.662V233.446H238.55V243H237.662V238.412H231.642V243H230.745V233.446H231.642ZM247.831 234.229H244.597V243H243.727V234.229H240.51V233.446H247.831V234.229ZM250.644 233.446V240.311C250.644 240.445 250.641 240.583 250.635 240.724C250.635 240.864 250.632 241.008 250.626 241.154C250.626 241.301 250.623 241.444 250.617 241.585C250.611 241.726 250.603 241.863 250.591 241.998L256.295 233.446H257.385V243H256.541V236.074C256.541 235.898 256.541 235.717 256.541 235.529C256.547 235.336 256.553 235.146 256.559 234.958C256.564 234.765 256.57 234.583 256.576 234.413L250.846 243H249.782V233.446H250.644ZM260.417 243H259.354L262.236 238.887C261.715 238.822 261.27 238.682 260.9 238.465C260.531 238.248 260.25 237.955 260.057 237.586C259.869 237.217 259.775 236.769 259.775 236.241C259.775 235.304 260.071 234.604 260.663 234.141C261.261 233.678 262.031 233.446 262.975 233.446H266.921V243H266.033V238.975H263.168L260.417 243ZM260.646 236.224C260.646 236.886 260.851 237.381 261.261 237.709C261.671 238.037 262.289 238.201 263.115 238.201H266.033V234.22H263.071C262.274 234.22 261.671 234.398 261.261 234.756C260.851 235.107 260.646 235.597 260.646 236.224ZM282.24 243H274.198V242.244L277.978 238.307C278.581 237.68 279.088 237.114 279.498 236.61C279.914 236.101 280.228 235.591 280.438 235.081C280.655 234.571 280.764 234 280.764 233.367C280.764 232.541 280.521 231.899 280.034 231.442C279.554 230.985 278.9 230.757 278.074 230.757C277.518 230.757 276.981 230.856 276.466 231.056C275.956 231.255 275.458 231.548 274.972 231.935L274.479 231.311C274.837 231.018 275.212 230.771 275.604 230.572C276.003 230.373 276.41 230.224 276.826 230.124C277.242 230.019 277.658 229.966 278.074 229.966C278.807 229.966 279.439 230.106 279.973 230.388C280.512 230.663 280.931 231.053 281.229 231.557C281.528 232.061 281.678 232.652 281.678 233.332C281.678 234.035 281.555 234.674 281.309 235.248C281.068 235.816 280.726 236.373 280.28 236.918C279.835 237.463 279.308 238.049 278.698 238.676L275.35 242.139V242.174H282.24V243ZM295.38 233.446V234.229H290.651V243H289.755V233.446H295.38ZM305.268 238.21C305.268 238.948 305.177 239.622 304.995 240.231C304.813 240.835 304.544 241.356 304.187 241.796C303.829 242.235 303.384 242.575 302.851 242.815C302.323 243.056 301.708 243.176 301.005 243.176C300.337 243.176 299.742 243.059 299.221 242.824C298.699 242.584 298.257 242.244 297.894 241.805C297.536 241.365 297.264 240.844 297.076 240.24C296.889 239.631 296.795 238.954 296.795 238.21C296.795 237.185 296.965 236.303 297.305 235.564C297.65 234.82 298.143 234.252 298.781 233.859C299.426 233.461 300.196 233.262 301.093 233.262C302.019 233.262 302.789 233.473 303.404 233.895C304.025 234.311 304.491 234.891 304.802 235.635C305.112 236.379 305.268 237.237 305.268 238.21ZM297.709 238.21C297.709 239.048 297.829 239.78 298.069 240.407C298.31 241.034 298.673 241.523 299.159 241.875C299.651 242.227 300.272 242.402 301.022 242.402C301.79 242.402 302.42 242.227 302.912 241.875C303.404 241.523 303.768 241.031 304.002 240.398C304.236 239.766 304.354 239.036 304.354 238.21C304.354 237.407 304.242 236.692 304.02 236.065C303.797 235.438 303.445 234.946 302.965 234.589C302.484 234.226 301.857 234.044 301.084 234.044C299.977 234.044 299.136 234.413 298.562 235.151C297.993 235.89 297.709 236.909 297.709 238.21ZM314.443 233.446V242.218H315.727V246.234H314.856V243H307.544V246.234H306.683V242.218H307.324C307.863 241.474 308.314 240.645 308.678 239.73C309.041 238.816 309.316 237.832 309.504 236.777C309.697 235.717 309.8 234.606 309.812 233.446H314.443ZM313.573 234.193H310.62C310.573 235.242 310.456 236.247 310.269 237.208C310.081 238.163 309.823 239.062 309.495 239.906C309.167 240.744 308.769 241.515 308.3 242.218H313.573V234.193ZM321.07 233.279C322.119 233.279 322.904 233.543 323.426 234.07C323.947 234.598 324.208 235.438 324.208 236.593V243H323.522L323.364 241.33H323.312C323.106 241.688 322.857 242.007 322.564 242.288C322.271 242.563 321.911 242.78 321.483 242.938C321.062 243.097 320.546 243.176 319.937 243.176C319.321 243.176 318.794 243.073 318.354 242.868C317.921 242.663 317.584 242.364 317.344 241.972C317.109 241.579 316.992 241.102 316.992 240.539C316.992 239.59 317.385 238.869 318.17 238.377C318.955 237.879 320.083 237.598 321.554 237.533L323.329 237.445V236.751C323.329 235.772 323.136 235.075 322.749 234.659C322.362 234.243 321.791 234.035 321.035 234.035C320.543 234.035 320.068 234.1 319.611 234.229C319.16 234.352 318.7 234.53 318.231 234.765L317.95 234.026C318.407 233.81 318.896 233.631 319.418 233.49C319.945 233.35 320.496 233.279 321.07 233.279ZM323.32 238.14L321.65 238.21C320.438 238.269 319.515 238.485 318.882 238.86C318.249 239.235 317.933 239.798 317.933 240.548C317.933 241.151 318.12 241.614 318.495 241.937C318.876 242.259 319.403 242.42 320.077 242.42C321.126 242.42 321.926 242.121 322.477 241.523C323.033 240.926 323.314 240.111 323.32 239.08V238.14ZM143.689 256.446V260.63H149.71V256.446H150.598V266H149.71V261.412H143.689V266H142.793V256.446H143.689ZM157.128 256.279C158.177 256.279 158.962 256.543 159.483 257.07C160.005 257.598 160.266 258.438 160.266 259.593V266H159.58L159.422 264.33H159.369C159.164 264.688 158.915 265.007 158.622 265.288C158.329 265.563 157.969 265.78 157.541 265.938C157.119 266.097 156.604 266.176 155.994 266.176C155.379 266.176 154.852 266.073 154.412 265.868C153.979 265.663 153.642 265.364 153.401 264.972C153.167 264.579 153.05 264.102 153.05 263.539C153.05 262.59 153.442 261.869 154.228 261.377C155.013 260.879 156.141 260.598 157.611 260.533L159.387 260.445V259.751C159.387 258.772 159.193 258.075 158.807 257.659C158.42 257.243 157.849 257.035 157.093 257.035C156.601 257.035 156.126 257.1 155.669 257.229C155.218 257.352 154.758 257.53 154.289 257.765L154.008 257.026C154.465 256.81 154.954 256.631 155.476 256.49C156.003 256.35 156.554 256.279 157.128 256.279ZM159.378 261.14L157.708 261.21C156.495 261.269 155.572 261.485 154.939 261.86C154.307 262.235 153.99 262.798 153.99 263.548C153.99 264.151 154.178 264.614 154.553 264.937C154.934 265.259 155.461 265.42 156.135 265.42C157.184 265.42 157.983 265.121 158.534 264.523C159.091 263.926 159.372 263.111 159.378 262.08V261.14ZM166.436 256.446H167.376L169.696 262.511C169.837 262.868 169.96 263.199 170.065 263.504C170.177 263.803 170.273 264.078 170.355 264.33C170.438 264.576 170.505 264.802 170.558 265.007H170.61C170.698 264.737 170.815 264.392 170.962 263.97C171.108 263.542 171.275 263.067 171.463 262.546L173.757 256.446H174.706L170.347 267.793C170.136 268.344 169.904 268.81 169.652 269.19C169.4 269.577 169.104 269.867 168.765 270.061C168.425 270.26 168.015 270.359 167.534 270.359C167.317 270.359 167.121 270.342 166.945 270.307C166.77 270.277 166.6 270.236 166.436 270.184V269.419C166.588 269.466 166.743 269.504 166.901 269.533C167.065 269.568 167.244 269.586 167.438 269.586C167.771 269.586 168.059 269.516 168.299 269.375C168.545 269.24 168.765 269.029 168.958 268.742C169.151 268.455 169.333 268.089 169.503 267.644L170.153 265.947L166.436 256.446ZM180.103 266.176C179.153 266.176 178.351 265.979 177.694 265.587C177.044 265.188 176.552 264.623 176.218 263.891C175.89 263.152 175.726 262.279 175.726 261.271C175.726 260.223 175.916 259.326 176.297 258.582C176.678 257.832 177.214 257.258 177.905 256.859C178.597 256.461 179.408 256.262 180.34 256.262C180.797 256.262 181.222 256.303 181.614 256.385C182.007 256.467 182.361 256.581 182.678 256.728L182.44 257.51C182.112 257.363 181.764 257.252 181.395 257.176C181.025 257.1 180.671 257.062 180.331 257.062C179.546 257.062 178.878 257.234 178.327 257.58C177.782 257.92 177.363 258.406 177.07 259.039C176.783 259.666 176.64 260.407 176.64 261.263C176.64 262.065 176.763 262.777 177.009 263.398C177.255 264.014 177.633 264.5 178.143 264.857C178.652 265.209 179.306 265.385 180.103 265.385C180.565 265.385 181.005 265.338 181.421 265.244C181.843 265.15 182.227 265.03 182.572 264.884V265.692C182.262 265.833 181.901 265.947 181.491 266.035C181.087 266.129 180.624 266.176 180.103 266.176ZM190.922 257.229H187.688V266H186.817V257.229H183.601V256.446H190.922V257.229ZM197.101 256.262C198.331 256.262 199.283 256.675 199.957 257.501C200.637 258.327 200.977 259.546 200.977 261.157C200.977 262.235 200.815 263.149 200.493 263.899C200.171 264.644 199.711 265.209 199.113 265.596C198.521 265.982 197.81 266.176 196.978 266.176C196.403 266.176 195.902 266.091 195.475 265.921C195.053 265.745 194.701 265.511 194.42 265.218C194.139 264.919 193.922 264.591 193.77 264.233H193.708C193.726 264.567 193.74 264.916 193.752 265.279C193.764 265.643 193.77 265.985 193.77 266.308V270.228H192.873V256.446H193.611L193.717 258.354H193.77C193.928 257.99 194.15 257.647 194.438 257.325C194.725 257.003 195.088 256.745 195.527 256.552C195.967 256.358 196.491 256.262 197.101 256.262ZM196.986 257.044C196.266 257.044 195.665 257.202 195.185 257.519C194.71 257.829 194.355 258.286 194.121 258.89C193.893 259.487 193.775 260.22 193.77 261.087V261.236C193.77 262.168 193.884 262.944 194.112 263.565C194.347 264.181 194.695 264.641 195.158 264.945C195.627 265.25 196.207 265.402 196.898 265.402C197.578 265.402 198.152 265.235 198.621 264.901C199.09 264.567 199.447 264.084 199.693 263.451C199.939 262.818 200.062 262.051 200.062 261.148C200.062 259.807 199.805 258.787 199.289 258.09C198.779 257.393 198.012 257.044 196.986 257.044ZM211.515 261.21C211.515 261.948 211.424 262.622 211.242 263.231C211.061 263.835 210.791 264.356 210.434 264.796C210.076 265.235 209.631 265.575 209.098 265.815C208.57 266.056 207.955 266.176 207.252 266.176C206.584 266.176 205.989 266.059 205.468 265.824C204.946 265.584 204.504 265.244 204.141 264.805C203.783 264.365 203.511 263.844 203.323 263.24C203.136 262.631 203.042 261.954 203.042 261.21C203.042 260.185 203.212 259.303 203.552 258.564C203.897 257.82 204.39 257.252 205.028 256.859C205.673 256.461 206.443 256.262 207.34 256.262C208.266 256.262 209.036 256.473 209.651 256.895C210.272 257.311 210.738 257.891 211.049 258.635C211.359 259.379 211.515 260.237 211.515 261.21ZM203.956 261.21C203.956 262.048 204.076 262.78 204.316 263.407C204.557 264.034 204.92 264.523 205.406 264.875C205.898 265.227 206.52 265.402 207.27 265.402C208.037 265.402 208.667 265.227 209.159 264.875C209.651 264.523 210.015 264.031 210.249 263.398C210.483 262.766 210.601 262.036 210.601 261.21C210.601 260.407 210.489 259.692 210.267 259.065C210.044 258.438 209.692 257.946 209.212 257.589C208.731 257.226 208.104 257.044 207.331 257.044C206.224 257.044 205.383 257.413 204.809 258.151C204.24 258.89 203.956 259.909 203.956 261.21ZM215.021 256.446V263.311C215.021 263.445 215.019 263.583 215.013 263.724C215.013 263.864 215.01 264.008 215.004 264.154C215.004 264.301 215.001 264.444 214.995 264.585C214.989 264.726 214.98 264.863 214.969 264.998L220.673 256.446H221.763V266H220.919V259.074C220.919 258.898 220.919 258.717 220.919 258.529C220.925 258.336 220.931 258.146 220.937 257.958C220.942 257.765 220.948 257.583 220.954 257.413L215.224 266H214.16V256.446H215.021ZM220.857 252.623C220.822 253.186 220.688 253.648 220.453 254.012C220.225 254.375 219.899 254.647 219.478 254.829C219.056 255.005 218.546 255.093 217.948 255.093C217.345 255.093 216.838 255.008 216.428 254.838C216.023 254.662 215.71 254.393 215.487 254.029C215.271 253.66 215.147 253.191 215.118 252.623H215.962C216.021 253.268 216.205 253.73 216.516 254.012C216.832 254.287 217.312 254.425 217.957 254.425C218.584 254.425 219.067 254.287 219.407 254.012C219.753 253.736 219.952 253.273 220.005 252.623H220.857ZM228.794 266.176C227.845 266.176 227.042 265.979 226.386 265.587C225.735 265.188 225.243 264.623 224.909 263.891C224.581 263.152 224.417 262.279 224.417 261.271C224.417 260.223 224.607 259.326 224.988 258.582C225.369 257.832 225.905 257.258 226.597 256.859C227.288 256.461 228.1 256.262 229.031 256.262C229.488 256.262 229.913 256.303 230.306 256.385C230.698 256.467 231.053 256.581 231.369 256.728L231.132 257.51C230.804 257.363 230.455 257.252 230.086 257.176C229.717 257.1 229.362 257.062 229.022 257.062C228.237 257.062 227.569 257.234 227.019 257.58C226.474 257.92 226.055 258.406 225.762 259.039C225.475 259.666 225.331 260.407 225.331 261.263C225.331 262.065 225.454 262.777 225.7 263.398C225.946 264.014 226.324 264.5 226.834 264.857C227.344 265.209 227.997 265.385 228.794 265.385C229.257 265.385 229.696 265.338 230.112 265.244C230.534 265.15 230.918 265.03 231.264 264.884V265.692C230.953 265.833 230.593 265.947 230.183 266.035C229.778 266.129 229.315 266.176 228.794 266.176ZM239.613 257.229H236.379V266H235.509V257.229H232.292V256.446H239.613V257.229ZM248.719 258.775C248.719 259.379 248.561 259.854 248.244 260.199C247.934 260.545 247.521 260.779 247.005 260.902V260.955C247.632 261.049 248.136 261.286 248.517 261.667C248.903 262.042 249.097 262.581 249.097 263.284C249.097 263.841 248.974 264.321 248.728 264.726C248.481 265.13 248.104 265.443 247.594 265.666C247.09 265.889 246.442 266 245.651 266H241.564V256.446H245.546C246.249 256.446 246.835 256.537 247.304 256.719C247.772 256.895 248.124 257.155 248.358 257.501C248.599 257.841 248.719 258.266 248.719 258.775ZM248.174 263.284C248.174 262.599 247.942 262.106 247.479 261.808C247.017 261.509 246.337 261.359 245.44 261.359H242.461V265.244H245.493C246.39 265.244 247.061 265.086 247.506 264.77C247.951 264.447 248.174 263.952 248.174 263.284ZM247.813 258.846C247.813 258.342 247.635 257.946 247.277 257.659C246.92 257.366 246.313 257.22 245.458 257.22H242.461V260.577H245.37C246.214 260.577 246.832 260.434 247.225 260.146C247.617 259.854 247.813 259.42 247.813 258.846ZM255.091 256.279C256.14 256.279 256.925 256.543 257.446 257.07C257.968 257.598 258.229 258.438 258.229 259.593V266H257.543L257.385 264.33H257.332C257.127 264.688 256.878 265.007 256.585 265.288C256.292 265.563 255.932 265.78 255.504 265.938C255.082 266.097 254.566 266.176 253.957 266.176C253.342 266.176 252.814 266.073 252.375 265.868C251.941 265.663 251.604 265.364 251.364 264.972C251.13 264.579 251.013 264.102 251.013 263.539C251.013 262.59 251.405 261.869 252.19 261.377C252.976 260.879 254.104 260.598 255.574 260.533L257.35 260.445V259.751C257.35 258.772 257.156 258.075 256.77 257.659C256.383 257.243 255.812 257.035 255.056 257.035C254.563 257.035 254.089 257.1 253.632 257.229C253.181 257.352 252.721 257.53 252.252 257.765L251.971 257.026C252.428 256.81 252.917 256.631 253.438 256.49C253.966 256.35 254.517 256.279 255.091 256.279ZM257.341 261.14L255.671 261.21C254.458 261.269 253.535 261.485 252.902 261.86C252.27 262.235 251.953 262.798 251.953 263.548C251.953 264.151 252.141 264.614 252.516 264.937C252.896 265.259 253.424 265.42 254.098 265.42C255.146 265.42 255.946 265.121 256.497 264.523C257.054 263.926 257.335 263.111 257.341 262.08V261.14ZM266.842 256.446V263.311C266.842 263.445 266.839 263.583 266.833 263.724C266.833 263.864 266.83 264.008 266.824 264.154C266.824 264.301 266.821 264.444 266.815 264.585C266.81 264.726 266.801 264.863 266.789 264.998L272.493 256.446H273.583V266H272.739V259.074C272.739 258.898 272.739 258.717 272.739 258.529C272.745 258.336 272.751 258.146 272.757 257.958C272.763 257.765 272.769 257.583 272.774 257.413L267.044 266H265.98V256.446H266.842ZM284.798 256.279C285.847 256.279 286.632 256.543 287.153 257.07C287.675 257.598 287.936 258.438 287.936 259.593V266H287.25L287.092 264.33H287.039C286.834 264.688 286.585 265.007 286.292 265.288C285.999 265.563 285.639 265.78 285.211 265.938C284.789 266.097 284.273 266.176 283.664 266.176C283.049 266.176 282.521 266.073 282.082 265.868C281.648 265.663 281.312 265.364 281.071 264.972C280.837 264.579 280.72 264.102 280.72 263.539C280.72 262.59 281.112 261.869 281.897 261.377C282.683 260.879 283.811 260.598 285.281 260.533L287.057 260.445V259.751C287.057 258.772 286.863 258.075 286.477 257.659C286.09 257.243 285.519 257.035 284.763 257.035C284.271 257.035 283.796 257.1 283.339 257.229C282.888 257.352 282.428 257.53 281.959 257.765L281.678 257.026C282.135 256.81 282.624 256.631 283.146 256.49C283.673 256.35 284.224 256.279 284.798 256.279ZM287.048 261.14L285.378 261.21C284.165 261.269 283.242 261.485 282.609 261.86C281.977 262.235 281.66 262.798 281.66 263.548C281.66 264.151 281.848 264.614 282.223 264.937C282.604 265.259 283.131 265.42 283.805 265.42C284.854 265.42 285.653 265.121 286.204 264.523C286.761 263.926 287.042 263.111 287.048 262.08V261.14ZM296.215 256.446H297.243L292.919 261.087L297.507 266H296.408L291.908 261.157V266H291.012V256.446H291.908V261.087L296.215 256.446ZM303.097 266.176C302.147 266.176 301.345 265.979 300.688 265.587C300.038 265.188 299.546 264.623 299.212 263.891C298.884 263.152 298.72 262.279 298.72 261.271C298.72 260.223 298.91 259.326 299.291 258.582C299.672 257.832 300.208 257.258 300.899 256.859C301.591 256.461 302.402 256.262 303.334 256.262C303.791 256.262 304.216 256.303 304.608 256.385C305.001 256.467 305.355 256.581 305.672 256.728L305.435 257.51C305.106 257.363 304.758 257.252 304.389 257.176C304.02 257.1 303.665 257.062 303.325 257.062C302.54 257.062 301.872 257.234 301.321 257.58C300.776 257.92 300.357 258.406 300.064 259.039C299.777 259.666 299.634 260.407 299.634 261.263C299.634 262.065 299.757 262.777 300.003 263.398C300.249 264.014 300.627 264.5 301.137 264.857C301.646 265.209 302.3 265.385 303.097 265.385C303.56 265.385 303.999 265.338 304.415 265.244C304.837 265.15 305.221 265.03 305.566 264.884V265.692C305.256 265.833 304.896 265.947 304.485 266.035C304.081 266.129 303.618 266.176 303.097 266.176ZM311.446 256.262C312.261 256.262 312.938 256.452 313.477 256.833C314.021 257.214 314.426 257.735 314.689 258.397C314.959 259.06 315.094 259.818 315.094 260.674V261.315H308.194C308.194 262.628 308.496 263.636 309.1 264.339C309.709 265.042 310.579 265.394 311.71 265.394C312.302 265.394 312.814 265.347 313.248 265.253C313.688 265.153 314.174 264.986 314.707 264.752V265.569C314.238 265.78 313.77 265.933 313.301 266.026C312.832 266.126 312.293 266.176 311.684 266.176C310.717 266.176 309.905 265.977 309.249 265.578C308.599 265.174 308.106 264.605 307.772 263.873C307.444 263.141 307.28 262.285 307.28 261.307C307.28 260.352 307.438 259.493 307.755 258.731C308.077 257.97 308.546 257.369 309.161 256.93C309.782 256.484 310.544 256.262 311.446 256.262ZM311.438 257.026C310.523 257.026 309.782 257.331 309.214 257.94C308.651 258.544 308.32 259.417 308.221 260.56H314.171C314.171 259.862 314.071 259.247 313.872 258.714C313.673 258.181 313.371 257.768 312.967 257.475C312.568 257.176 312.059 257.026 311.438 257.026ZM321.554 266.176C320.604 266.176 319.802 265.979 319.146 265.587C318.495 265.188 318.003 264.623 317.669 263.891C317.341 263.152 317.177 262.279 317.177 261.271C317.177 260.223 317.367 259.326 317.748 258.582C318.129 257.832 318.665 257.258 319.356 256.859C320.048 256.461 320.859 256.262 321.791 256.262C322.248 256.262 322.673 256.303 323.065 256.385C323.458 256.467 323.812 256.581 324.129 256.728L323.892 257.51C323.563 257.363 323.215 257.252 322.846 257.176C322.477 257.1 322.122 257.062 321.782 257.062C320.997 257.062 320.329 257.234 319.778 257.58C319.233 257.92 318.814 258.406 318.521 259.039C318.234 259.666 318.091 260.407 318.091 261.263C318.091 262.065 318.214 262.777 318.46 263.398C318.706 264.014 319.084 264.5 319.594 264.857C320.104 265.209 320.757 265.385 321.554 265.385C322.017 265.385 322.456 265.338 322.872 265.244C323.294 265.15 323.678 265.03 324.023 264.884V265.692C323.713 265.833 323.353 265.947 322.942 266.035C322.538 266.129 322.075 266.176 321.554 266.176ZM330.114 266.176C329.165 266.176 328.362 265.979 327.706 265.587C327.056 265.188 326.563 264.623 326.229 263.891C325.901 263.152 325.737 262.279 325.737 261.271C325.737 260.223 325.928 259.326 326.309 258.582C326.689 257.832 327.226 257.258 327.917 256.859C328.608 256.461 329.42 256.262 330.352 256.262C330.809 256.262 331.233 256.303 331.626 256.385C332.019 256.467 332.373 256.581 332.689 256.728L332.452 257.51C332.124 257.363 331.775 257.252 331.406 257.176C331.037 257.1 330.683 257.062 330.343 257.062C329.558 257.062 328.89 257.234 328.339 257.58C327.794 257.92 327.375 258.406 327.082 259.039C326.795 259.666 326.651 260.407 326.651 261.263C326.651 262.065 326.774 262.777 327.021 263.398C327.267 264.014 327.645 264.5 328.154 264.857C328.664 265.209 329.317 265.385 330.114 265.385C330.577 265.385 331.017 265.338 331.433 265.244C331.854 265.15 332.238 265.03 332.584 264.884V265.692C332.273 265.833 331.913 265.947 331.503 266.035C331.099 266.129 330.636 266.176 330.114 266.176ZM333.27 256.446H334.21L336.53 262.511C336.671 262.868 336.794 263.199 336.899 263.504C337.011 263.803 337.107 264.078 337.189 264.33C337.271 264.576 337.339 264.802 337.392 265.007H337.444C337.532 264.737 337.649 264.392 337.796 263.97C337.942 263.542 338.109 263.067 338.297 262.546L340.591 256.446H341.54L337.181 267.793C336.97 268.344 336.738 268.81 336.486 269.19C336.234 269.577 335.938 269.867 335.599 270.061C335.259 270.26 334.849 270.359 334.368 270.359C334.151 270.359 333.955 270.342 333.779 270.307C333.604 270.277 333.434 270.236 333.27 270.184V269.419C333.422 269.466 333.577 269.504 333.735 269.533C333.899 269.568 334.078 269.586 334.271 269.586C334.605 269.586 334.893 269.516 335.133 269.375C335.379 269.24 335.599 269.029 335.792 268.742C335.985 268.455 336.167 268.089 336.337 267.644L336.987 265.947L333.27 256.446ZM346.444 256.279C347.493 256.279 348.278 256.543 348.8 257.07C349.321 257.598 349.582 258.438 349.582 259.593V266H348.896L348.738 264.33H348.686C348.48 264.688 348.231 265.007 347.938 265.288C347.646 265.563 347.285 265.78 346.857 265.938C346.436 266.097 345.92 266.176 345.311 266.176C344.695 266.176 344.168 266.073 343.729 265.868C343.295 265.663 342.958 265.364 342.718 264.972C342.483 264.579 342.366 264.102 342.366 263.539C342.366 262.59 342.759 261.869 343.544 261.377C344.329 260.879 345.457 260.598 346.928 260.533L348.703 260.445V259.751C348.703 258.772 348.51 258.075 348.123 257.659C347.736 257.243 347.165 257.035 346.409 257.035C345.917 257.035 345.442 257.1 344.985 257.229C344.534 257.352 344.074 257.53 343.605 257.765L343.324 257.026C343.781 256.81 344.271 256.631 344.792 256.49C345.319 256.35 345.87 256.279 346.444 256.279ZM348.694 261.14L347.024 261.21C345.812 261.269 344.889 261.485 344.256 261.86C343.623 262.235 343.307 262.798 343.307 263.548C343.307 264.151 343.494 264.614 343.869 264.937C344.25 265.259 344.777 265.42 345.451 265.42C346.5 265.42 347.3 265.121 347.851 264.523C348.407 263.926 348.688 263.111 348.694 262.08V261.14ZM356.886 256.262C358.116 256.262 359.068 256.675 359.742 257.501C360.422 258.327 360.762 259.546 360.762 261.157C360.762 262.235 360.601 263.149 360.278 263.899C359.956 264.644 359.496 265.209 358.898 265.596C358.307 265.982 357.595 266.176 356.763 266.176C356.188 266.176 355.688 266.091 355.26 265.921C354.838 265.745 354.486 265.511 354.205 265.218C353.924 264.919 353.707 264.591 353.555 264.233H353.493C353.511 264.567 353.525 264.916 353.537 265.279C353.549 265.643 353.555 265.985 353.555 266.308V270.228H352.658V256.446H353.396L353.502 258.354H353.555C353.713 257.99 353.936 257.647 354.223 257.325C354.51 257.003 354.873 256.745 355.312 256.552C355.752 256.358 356.276 256.262 356.886 256.262ZM356.771 257.044C356.051 257.044 355.45 257.202 354.97 257.519C354.495 257.829 354.141 258.286 353.906 258.89C353.678 259.487 353.561 260.22 353.555 261.087V261.236C353.555 262.168 353.669 262.944 353.897 263.565C354.132 264.181 354.48 264.641 354.943 264.945C355.412 265.25 355.992 265.402 356.684 265.402C357.363 265.402 357.938 265.235 358.406 264.901C358.875 264.567 359.232 264.084 359.479 263.451C359.725 262.818 359.848 262.051 359.848 261.148C359.848 259.807 359.59 258.787 359.074 258.09C358.564 257.393 357.797 257.044 356.771 257.044ZM363.381 266V256.446H364.277V260.472H367.547C368.297 260.472 368.909 260.577 369.384 260.788C369.864 260.999 370.219 261.304 370.447 261.702C370.682 262.101 370.799 262.581 370.799 263.144C370.799 263.741 370.676 264.254 370.43 264.682C370.184 265.104 369.806 265.429 369.296 265.657C368.786 265.886 368.139 266 367.354 266H363.381ZM364.277 265.244H367.257C368.165 265.244 368.833 265.071 369.261 264.726C369.688 264.38 369.902 263.855 369.902 263.152C369.902 262.514 369.694 262.036 369.278 261.72C368.868 261.403 368.247 261.245 367.415 261.245H364.277V265.244ZM372.319 266V256.446H373.207V266H372.319Z" fill="black"/>
<path d="M150.249 196.92H142.849V209H140.849V195H150.249V196.92ZM157.249 199V209H155.349V207.5C154.935 208.033 154.435 208.453 153.849 208.76C153.262 209.053 152.635 209.2 151.969 209.2C151.089 209.2 150.289 208.98 149.569 208.54C148.849 208.087 148.282 207.467 147.869 206.68C147.455 205.893 147.249 205 147.249 204C147.249 203 147.455 202.107 147.869 201.32C148.282 200.533 148.849 199.92 149.569 199.48C150.289 199.027 151.089 198.8 151.969 198.8C152.662 198.8 153.309 198.96 153.909 199.28C154.509 199.6 155.022 200.047 155.449 200.62V199H157.249ZM152.289 207.44C152.875 207.44 153.409 207.293 153.889 207C154.369 206.707 154.742 206.3 155.009 205.78C155.275 205.247 155.409 204.653 155.409 204C155.409 203.347 155.275 202.76 155.009 202.24C154.742 201.707 154.369 201.293 153.889 201C153.409 200.707 152.875 200.56 152.289 200.56C151.702 200.56 151.175 200.707 150.709 201C150.242 201.293 149.875 201.707 149.609 202.24C149.342 202.76 149.209 203.347 149.209 204C149.209 204.653 149.342 205.247 149.609 205.78C149.875 206.3 150.242 206.707 150.709 207C151.175 207.293 151.702 207.44 152.289 207.44ZM165.734 198.8C166.614 198.8 167.414 199.027 168.134 199.48C168.854 199.92 169.42 200.533 169.834 201.32C170.247 202.107 170.454 203 170.454 204C170.454 205 170.247 205.893 169.834 206.68C169.42 207.467 168.854 208.087 168.134 208.54C167.414 208.98 166.614 209.2 165.734 209.2C165.067 209.2 164.44 209.053 163.854 208.76C163.267 208.453 162.767 208.033 162.354 207.5V212.4H160.454V199H162.254V200.62C162.68 200.047 163.194 199.6 163.794 199.28C164.394 198.96 165.04 198.8 165.734 198.8ZM165.414 207.44C166 207.44 166.527 207.293 166.994 207C167.46 206.707 167.827 206.3 168.094 205.78C168.36 205.247 168.494 204.653 168.494 204C168.494 203.347 168.36 202.76 168.094 202.24C167.827 201.707 167.46 201.293 166.994 201C166.527 200.707 166 200.56 165.414 200.56C164.827 200.56 164.294 200.707 163.814 201C163.334 201.293 162.96 201.707 162.694 202.24C162.427 202.76 162.294 203.347 162.294 204C162.294 204.653 162.427 205.247 162.694 205.78C162.96 206.3 163.334 206.707 163.814 207C164.294 207.293 164.827 207.44 165.414 207.44ZM181.956 199V209H180.056V207.5C179.643 208.033 179.143 208.453 178.556 208.76C177.969 209.053 177.343 209.2 176.676 209.2C175.796 209.2 174.996 208.98 174.276 208.54C173.556 208.087 172.989 207.467 172.576 206.68C172.163 205.893 171.956 205 171.956 204C171.956 203 172.163 202.107 172.576 201.32C172.989 200.533 173.556 199.92 174.276 199.48C174.996 199.027 175.796 198.8 176.676 198.8C177.369 198.8 178.016 198.96 178.616 199.28C179.216 199.6 179.729 200.047 180.156 200.62V199H181.956ZM176.996 207.44C177.583 207.44 178.116 207.293 178.596 207C179.076 206.707 179.449 206.3 179.716 205.78C179.983 205.247 180.116 204.653 180.116 204C180.116 203.347 179.983 202.76 179.716 202.24C179.449 201.707 179.076 201.293 178.596 201C178.116 200.707 177.583 200.56 176.996 200.56C176.409 200.56 175.883 200.707 175.416 201C174.949 201.293 174.583 201.707 174.316 202.24C174.049 202.76 173.916 203.347 173.916 204C173.916 204.653 174.049 205.247 174.316 205.78C174.583 206.3 174.949 206.707 175.416 207C175.883 207.293 176.409 207.44 176.996 207.44ZM194.161 199V209H192.261V204.9H187.061V209H185.161V199H187.061V203.1H192.261V199H194.161ZM204.968 200.8H201.468V209H199.568V200.8H196.068V199H204.968V200.8ZM206.86 199H208.76V206.44L213.96 199H216.06V209H214.16V201.56L208.96 209H206.86V199ZM226.982 209H225.082V205.24H223.122L220.042 209H217.762L220.962 205.12C220.242 204.933 219.682 204.573 219.282 204.04C218.882 203.493 218.682 202.853 218.682 202.12C218.682 201.213 218.975 200.467 219.562 199.88C220.162 199.293 220.989 199 222.042 199H226.982V209ZM225.082 203.58V200.7H222.302C221.755 200.7 221.342 200.827 221.062 201.08C220.782 201.32 220.642 201.673 220.642 202.14C220.642 202.607 220.782 202.967 221.062 203.22C221.342 203.46 221.755 203.58 222.302 203.58H225.082ZM244.786 209H242.886V200.8H237.686V209H235.786V199H244.786V209ZM253.273 198.8C254.153 198.8 254.953 199.027 255.673 199.48C256.393 199.92 256.959 200.533 257.373 201.32C257.786 202.107 257.993 203 257.993 204C257.993 205 257.786 205.893 257.373 206.68C256.959 207.467 256.393 208.087 255.673 208.54C254.953 208.98 254.153 209.2 253.273 209.2C252.606 209.2 251.979 209.053 251.393 208.76C250.806 208.453 250.306 208.033 249.893 207.5V212.4H247.993V199H249.793V200.62C250.219 200.047 250.733 199.6 251.333 199.28C251.933 198.96 252.579 198.8 253.273 198.8ZM252.953 207.44C253.539 207.44 254.066 207.293 254.533 207C254.999 206.707 255.366 206.3 255.633 205.78C255.899 205.247 256.033 204.653 256.033 204C256.033 203.347 255.899 202.76 255.633 202.24C255.366 201.707 254.999 201.293 254.533 201C254.066 200.707 253.539 200.56 252.953 200.56C252.366 200.56 251.833 200.707 251.353 201C250.873 201.293 250.499 201.707 250.233 202.24C249.966 202.76 249.833 203.347 249.833 204C249.833 204.653 249.966 205.247 250.233 205.78C250.499 206.3 250.873 206.707 251.353 207C251.833 207.293 252.366 207.44 252.953 207.44ZM264.815 209.2C263.828 209.2 262.928 208.973 262.115 208.52C261.302 208.053 260.662 207.427 260.195 206.64C259.728 205.84 259.495 204.96 259.495 204C259.495 203.04 259.728 202.167 260.195 201.38C260.662 200.58 261.302 199.953 262.115 199.5C262.928 199.033 263.828 198.8 264.815 198.8C265.788 198.8 266.675 199.033 267.475 199.5C268.288 199.953 268.928 200.58 269.395 201.38C269.862 202.167 270.095 203.04 270.095 204C270.095 204.96 269.862 205.84 269.395 206.64C268.928 207.427 268.288 208.053 267.475 208.52C266.675 208.973 265.788 209.2 264.815 209.2ZM264.815 207.44C265.428 207.44 265.988 207.293 266.495 207C267.002 206.693 267.402 206.28 267.695 205.76C267.988 205.227 268.135 204.64 268.135 204C268.135 203.36 267.988 202.78 267.695 202.26C267.402 201.727 267.002 201.313 266.495 201.02C265.988 200.713 265.428 200.56 264.815 200.56C264.188 200.56 263.615 200.713 263.095 201.02C262.588 201.313 262.188 201.727 261.895 202.26C261.602 202.78 261.455 203.36 261.455 204C261.455 204.64 261.602 205.227 261.895 205.76C262.188 206.28 262.588 206.693 263.095 207C263.615 207.293 264.188 207.44 264.815 207.44ZM272.387 199H274.287V206.44L279.487 199H281.587V209H279.687V201.56L274.487 209H272.387V199ZM285.589 205.84C285.763 206.427 286.083 206.86 286.549 207.14C287.029 207.42 287.656 207.56 288.429 207.56C289.149 207.56 289.729 207.433 290.169 207.18C290.609 206.913 290.829 206.573 290.829 206.16C290.829 205.8 290.669 205.493 290.349 205.24C290.029 204.973 289.483 204.84 288.709 204.84H286.969V203.2H288.629C289.323 203.2 289.816 203.073 290.109 202.82C290.416 202.567 290.569 202.26 290.569 201.9C290.569 201.447 290.363 201.087 289.949 200.82C289.549 200.553 288.996 200.42 288.289 200.42C287.609 200.42 287.043 200.547 286.589 200.8C286.149 201.053 285.863 201.453 285.729 202H283.849C284.023 201 284.523 200.22 285.349 199.66C286.176 199.087 287.156 198.8 288.289 198.8C289.543 198.8 290.556 199.073 291.329 199.62C292.103 200.153 292.489 200.86 292.489 201.74C292.489 202.18 292.369 202.593 292.129 202.98C291.889 203.353 291.529 203.653 291.049 203.88C292.156 204.32 292.709 205.073 292.709 206.14C292.709 207.06 292.309 207.8 291.509 208.36C290.723 208.92 289.649 209.2 288.289 209.2C287.063 209.2 286.023 208.9 285.169 208.3C284.316 207.7 283.823 206.88 283.689 205.84H285.589ZM301.885 203.9C302.872 204.393 303.365 205.153 303.365 206.18C303.365 207.007 303.065 207.687 302.465 208.22C301.865 208.74 301.039 209 299.985 209H294.965V199H299.985C300.985 199 301.772 199.26 302.345 199.78C302.932 200.287 303.225 200.933 303.225 201.72C303.225 202.187 303.112 202.613 302.885 203C302.672 203.373 302.339 203.673 301.885 203.9ZM299.765 203.16C300.259 203.16 300.632 203.047 300.885 202.82C301.139 202.593 301.265 202.26 301.265 201.82C301.265 201.007 300.765 200.6 299.765 200.6H296.825V203.16H299.765ZM299.785 207.4C300.319 207.4 300.719 207.287 300.985 207.06C301.265 206.82 301.405 206.48 301.405 206.04C301.405 205.627 301.265 205.313 300.985 205.1C300.719 204.873 300.319 204.76 299.785 204.76H296.825V207.4H299.785ZM310.186 209.2C309.199 209.2 308.299 208.973 307.486 208.52C306.673 208.053 306.033 207.427 305.566 206.64C305.099 205.84 304.866 204.96 304.866 204C304.866 203.04 305.099 202.167 305.566 201.38C306.033 200.58 306.673 199.953 307.486 199.5C308.299 199.033 309.199 198.8 310.186 198.8C311.159 198.8 312.046 199.033 312.846 199.5C313.659 199.953 314.299 200.58 314.766 201.38C315.233 202.167 315.466 203.04 315.466 204C315.466 204.96 315.233 205.84 314.766 206.64C314.299 207.427 313.659 208.053 312.846 208.52C312.046 208.973 311.159 209.2 310.186 209.2ZM310.186 207.44C310.799 207.44 311.359 207.293 311.866 207C312.373 206.693 312.773 206.28 313.066 205.76C313.359 205.227 313.506 204.64 313.506 204C313.506 203.36 313.359 202.78 313.066 202.26C312.773 201.727 312.373 201.313 311.866 201.02C311.359 200.713 310.799 200.56 310.186 200.56C309.559 200.56 308.986 200.713 308.466 201.02C307.959 201.313 307.559 201.727 307.266 202.26C306.973 202.78 306.826 203.36 306.826 204C306.826 204.64 306.973 205.227 307.266 205.76C307.559 206.28 307.959 206.693 308.466 207C308.986 207.293 309.559 207.44 310.186 207.44ZM327.585 207.2V211.2H325.745V209H318.105V211.2H316.265V207.2H317.545C317.825 206.4 317.965 204.867 317.965 202.6V199H326.185V207.2H327.585ZM324.285 207.24V200.76H319.865V202.54C319.865 204.54 319.712 206.107 319.405 207.24H324.285ZM329.594 199H331.494V206.44L336.694 199H338.794V209H336.894V201.56L331.694 209H329.594V199ZM349.596 200.8H346.096V209H344.196V200.8H340.696V199H349.596V200.8ZM355.318 198.8C356.345 198.8 357.238 199.02 357.998 199.46C358.771 199.9 359.365 200.527 359.778 201.34C360.191 202.14 360.398 203.08 360.398 204.16C360.398 204.44 360.391 204.647 360.378 204.78H352.178C352.311 205.553 352.671 206.193 353.258 206.7C353.858 207.193 354.551 207.44 355.338 207.44C356.631 207.44 357.551 206.967 358.098 206.02H360.058C359.738 206.953 359.145 207.72 358.278 208.32C357.411 208.907 356.431 209.2 355.338 209.2C354.365 209.2 353.485 208.98 352.698 208.54C351.911 208.087 351.298 207.467 350.858 206.68C350.418 205.88 350.198 204.987 350.198 204C350.198 203.013 350.418 202.127 350.858 201.34C351.298 200.54 351.905 199.92 352.678 199.48C353.465 199.027 354.345 198.8 355.318 198.8ZM355.278 200.48C354.491 200.48 353.811 200.727 353.238 201.22C352.678 201.713 352.331 202.347 352.198 203.12H358.338C358.258 202.32 357.931 201.68 357.358 201.2C356.798 200.72 356.105 200.48 355.278 200.48ZM371.424 209.02H369.524V200.8H365.244V202.62C365.244 204.047 365.164 205.213 365.004 206.12C364.858 207.027 364.544 207.753 364.064 208.3C363.584 208.833 362.871 209.1 361.924 209.1C361.671 209.1 361.398 209.067 361.104 209V207.24C361.344 207.28 361.558 207.3 361.744 207.3C362.171 207.3 362.491 207.167 362.704 206.9C362.931 206.633 363.091 206.16 363.184 205.48C363.278 204.787 363.324 203.773 363.324 202.44V199H371.424V209.02ZM382.353 209H380.453V205.24H378.493L375.413 209H373.133L376.333 205.12C375.613 204.933 375.053 204.573 374.653 204.04C374.253 203.493 374.053 202.853 374.053 202.12C374.053 201.213 374.347 200.467 374.933 199.88C375.533 199.293 376.36 199 377.413 199H382.353V209ZM380.453 203.58V200.7H377.673C377.127 200.7 376.713 200.827 376.433 201.08C376.153 201.32 376.013 201.673 376.013 202.14C376.013 202.607 376.153 202.967 376.433 203.22C376.713 203.46 377.127 203.58 377.673 203.58H380.453Z" fill="black"/>
</g>
<defs>
<filter id="filter0_d_388_4734" x="0" y="0" width="522" height="362" filterUnits="userSpaceOnUse" color-interpolation-filters="sRGB">
<feFlood flood-opacity="0" result="BackgroundImageFix"/>
<feColorMatrix in="SourceAlpha" type="matrix" values="0 0 0 0 0 0 0 0 0 0 0 0 0 0 0 0 0 0 127 0" result="hardAlpha"/>
<feOffset dy="4"/>
<feGaussianBlur stdDeviation="20.5"/>
<feComposite in2="hardAlpha" operator="out"/>
<feColorMatrix type="matrix" values="0 0 0 0 0 0 0 0 0 0 0 0 0 0 0 0 0 0 0.05 0"/>
<feBlend mode="normal" in2="BackgroundImageFix" result="effect1_dropShadow_388_4734"/>
<feBlend mode="normal" in="SourceGraphic" in2="effect1_dropShadow_388_4734" result="shape"/>
</filter>
</defs>
</svg>
