<svg width="522" height="362" viewBox="0 0 522 362" fill="none" xmlns="http://www.w3.org/2000/svg">
<g filter="url(#filter0_d_474_3672)">
<rect x="41" y="37" width="440" height="280" rx="3" fill="white"/>
<path fill-rule="evenodd" clip-rule="evenodd" d="M226.486 81C225.666 81 225 81.6655 225 82.4865V138.779C225 139.6 225.666 140.266 226.486 140.266H260.974V138.987C261.085 151.163 270.898 161 282.987 161C295.144 161 305 151.051 305 138.779C305 126.53 295.182 116.596 283.056 116.558H285.208V82.4865C285.208 81.6655 284.542 81 283.721 81H226.486ZM282.918 116.558H282.235V83.973H265.395V97.3004C265.395 97.8337 265.11 98.3262 264.647 98.5909C264.184 98.8556 263.614 98.8519 263.155 98.5813L255.074 93.8233L246.274 98.6064C245.814 98.8567 245.255 98.846 244.805 98.578C244.354 98.3101 244.078 97.8246 244.078 97.3004V83.973H227.973V137.293H260.974V138.571C261.084 126.418 270.86 116.596 282.918 116.558ZM247.051 94.8005V83.973H262.422V94.7L255.858 90.8346C255.408 90.5697 254.852 90.5602 254.394 90.8095L247.051 94.8005ZM235.291 112.109C234.47 112.109 233.805 112.775 233.805 113.596C233.805 114.417 234.47 115.082 235.291 115.082H251.435C252.256 115.082 252.922 114.417 252.922 113.596C252.922 112.775 252.256 112.109 251.435 112.109H235.291ZM292.032 135.459C292.653 134.922 292.721 133.983 292.184 133.362C291.647 132.742 290.708 132.674 290.087 133.211L281.024 141.052L277.576 136.411C277.087 135.752 276.156 135.615 275.497 136.105C274.838 136.594 274.7 137.526 275.19 138.185L279.593 144.11C279.839 144.442 280.213 144.656 280.624 144.702C281.035 144.747 281.446 144.619 281.759 144.348L292.032 135.459ZM233.805 125.447C233.805 124.626 234.47 123.96 235.291 123.96H247.033C247.854 123.96 248.519 124.626 248.519 125.447C248.519 126.268 247.854 126.933 247.033 126.933H235.291C234.47 126.933 233.805 126.268 233.805 125.447ZM302.065 138.779C302.065 149.415 293.523 158.037 282.987 158.037C272.45 158.037 263.908 149.415 263.908 138.779C263.908 128.143 272.45 119.521 282.987 119.521C293.523 119.521 302.065 128.143 302.065 138.779Z" fill="#C5358C"/>
<path d="M148.479 243H147.573V236.672H140.067V243H139.162V230.15H140.067V235.846H147.573V230.15H148.479V243ZM155.229 233.279C156.277 233.279 157.062 233.543 157.584 234.07C158.105 234.598 158.366 235.438 158.366 236.593V243H157.681L157.522 241.33H157.47C157.265 241.688 157.016 242.007 156.723 242.288C156.43 242.563 156.069 242.78 155.642 242.938C155.22 243.097 154.704 243.176 154.095 243.176C153.479 243.176 152.952 243.073 152.513 242.868C152.079 242.663 151.742 242.364 151.502 241.972C151.268 241.579 151.15 241.102 151.15 240.539C151.15 239.59 151.543 238.869 152.328 238.377C153.113 237.879 154.241 237.598 155.712 237.533L157.487 237.445V236.751C157.487 235.772 157.294 235.075 156.907 234.659C156.521 234.243 155.949 234.035 155.193 234.035C154.701 234.035 154.227 234.1 153.77 234.229C153.318 234.352 152.858 234.53 152.39 234.765L152.108 234.026C152.565 233.81 153.055 233.631 153.576 233.49C154.104 233.35 154.654 233.279 155.229 233.279ZM157.479 238.14L155.809 238.21C154.596 238.269 153.673 238.485 153.04 238.86C152.407 239.235 152.091 239.798 152.091 240.548C152.091 241.151 152.278 241.614 152.653 241.937C153.034 242.259 153.562 242.42 154.235 242.42C155.284 242.42 156.084 242.121 156.635 241.523C157.191 240.926 157.473 240.111 157.479 239.08V238.14ZM168.307 233.262C168.963 233.262 169.522 233.358 169.985 233.552C170.448 233.745 170.8 234.026 171.04 234.396C171.286 234.759 171.409 235.201 171.409 235.723C171.409 236.273 171.263 236.73 170.97 237.094C170.677 237.451 170.264 237.706 169.73 237.858V237.911C170.176 238.011 170.548 238.169 170.847 238.386C171.151 238.603 171.38 238.875 171.532 239.203C171.685 239.525 171.761 239.897 171.761 240.319C171.761 240.905 171.611 241.412 171.312 241.84C171.02 242.268 170.601 242.599 170.056 242.833C169.511 243.062 168.857 243.176 168.096 243.176C167.674 243.176 167.275 243.149 166.9 243.097C166.525 243.044 166.186 242.971 165.881 242.877C165.582 242.777 165.321 242.669 165.099 242.552V241.682C165.526 241.91 165.989 242.089 166.487 242.218C166.991 242.347 167.527 242.411 168.096 242.411C168.635 242.411 169.112 242.332 169.528 242.174C169.944 242.016 170.272 241.778 170.513 241.462C170.753 241.146 170.873 240.747 170.873 240.267C170.873 239.81 170.765 239.44 170.548 239.159C170.331 238.872 170.012 238.664 169.59 238.535C169.168 238.4 168.646 238.333 168.025 238.333H166.742V237.568H167.929C168.726 237.568 169.361 237.425 169.836 237.138C170.311 236.845 170.548 236.391 170.548 235.775C170.548 235.207 170.352 234.776 169.959 234.483C169.572 234.185 169.01 234.035 168.271 234.035C167.75 234.035 167.284 234.097 166.874 234.22C166.464 234.337 166.042 234.495 165.608 234.694L165.283 233.947C165.729 233.742 166.194 233.578 166.681 233.455C167.173 233.326 167.715 233.262 168.307 233.262ZM177.588 233.279C178.637 233.279 179.422 233.543 179.943 234.07C180.465 234.598 180.726 235.438 180.726 236.593V243H180.04L179.882 241.33H179.829C179.624 241.688 179.375 242.007 179.082 242.288C178.789 242.563 178.429 242.78 178.001 242.938C177.579 243.097 177.063 243.176 176.454 243.176C175.839 243.176 175.312 243.073 174.872 242.868C174.438 242.663 174.102 242.364 173.861 241.972C173.627 241.579 173.51 241.102 173.51 240.539C173.51 239.59 173.902 238.869 174.688 238.377C175.473 237.879 176.601 237.598 178.071 237.533L179.847 237.445V236.751C179.847 235.772 179.653 235.075 179.267 234.659C178.88 234.243 178.309 234.035 177.553 234.035C177.061 234.035 176.586 234.1 176.129 234.229C175.678 234.352 175.218 234.53 174.749 234.765L174.468 234.026C174.925 233.81 175.414 233.631 175.936 233.49C176.463 233.35 177.014 233.279 177.588 233.279ZM179.838 238.14L178.168 238.21C176.955 238.269 176.032 238.485 175.399 238.86C174.767 239.235 174.45 239.798 174.45 240.548C174.45 241.151 174.638 241.614 175.013 241.937C175.394 242.259 175.921 242.42 176.595 242.42C177.644 242.42 178.443 242.121 178.994 241.523C179.551 240.926 179.832 240.111 179.838 239.08V238.14ZM191.422 233.446V243H190.534V234.229H184.698V243H183.802V233.446H191.422ZM197.961 233.279C199.01 233.279 199.795 233.543 200.316 234.07C200.838 234.598 201.099 235.438 201.099 236.593V243H200.413L200.255 241.33H200.202C199.997 241.688 199.748 242.007 199.455 242.288C199.162 242.563 198.802 242.78 198.374 242.938C197.952 243.097 197.437 243.176 196.827 243.176C196.212 243.176 195.685 243.073 195.245 242.868C194.812 242.663 194.475 242.364 194.234 241.972C194 241.579 193.883 241.102 193.883 240.539C193.883 239.59 194.275 238.869 195.061 238.377C195.846 237.879 196.974 237.598 198.444 237.533L200.22 237.445V236.751C200.22 235.772 200.026 235.075 199.64 234.659C199.253 234.243 198.682 234.035 197.926 234.035C197.434 234.035 196.959 234.1 196.502 234.229C196.051 234.352 195.591 234.53 195.122 234.765L194.841 234.026C195.298 233.81 195.787 233.631 196.309 233.49C196.836 233.35 197.387 233.279 197.961 233.279ZM200.211 238.14L198.541 238.21C197.328 238.269 196.405 238.485 195.772 238.86C195.14 239.235 194.823 239.798 194.823 240.548C194.823 241.151 195.011 241.614 195.386 241.937C195.767 242.259 196.294 242.42 196.968 242.42C198.017 242.42 198.816 242.121 199.367 241.523C199.924 240.926 200.205 240.111 200.211 239.08V238.14ZM207.998 243.176C207.049 243.176 206.246 242.979 205.59 242.587C204.939 242.188 204.447 241.623 204.113 240.891C203.785 240.152 203.621 239.279 203.621 238.271C203.621 237.223 203.812 236.326 204.192 235.582C204.573 234.832 205.109 234.258 205.801 233.859C206.492 233.461 207.304 233.262 208.235 233.262C208.692 233.262 209.117 233.303 209.51 233.385C209.902 233.467 210.257 233.581 210.573 233.728L210.336 234.51C210.008 234.363 209.659 234.252 209.29 234.176C208.921 234.1 208.566 234.062 208.227 234.062C207.441 234.062 206.773 234.234 206.223 234.58C205.678 234.92 205.259 235.406 204.966 236.039C204.679 236.666 204.535 237.407 204.535 238.263C204.535 239.065 204.658 239.777 204.904 240.398C205.15 241.014 205.528 241.5 206.038 241.857C206.548 242.209 207.201 242.385 207.998 242.385C208.461 242.385 208.9 242.338 209.316 242.244C209.738 242.15 210.122 242.03 210.468 241.884V242.692C210.157 242.833 209.797 242.947 209.387 243.035C208.982 243.129 208.52 243.176 207.998 243.176ZM213.632 233.446V237.63H219.652V233.446H220.54V243H219.652V238.412H213.632V243H212.735V233.446H213.632ZM223.739 243V233.446H224.636V237.472H227.905C228.655 237.472 229.268 237.577 229.742 237.788C230.223 237.999 230.577 238.304 230.806 238.702C231.04 239.101 231.157 239.581 231.157 240.144C231.157 240.741 231.034 241.254 230.788 241.682C230.542 242.104 230.164 242.429 229.654 242.657C229.145 242.886 228.497 243 227.712 243H223.739ZM224.636 242.244H227.615C228.523 242.244 229.191 242.071 229.619 241.726C230.047 241.38 230.261 240.855 230.261 240.152C230.261 239.514 230.053 239.036 229.637 238.72C229.227 238.403 228.605 238.245 227.773 238.245H224.636V242.244ZM232.678 243V233.446H233.565V243H232.678ZM240.359 233.262C241.174 233.262 241.851 233.452 242.39 233.833C242.935 234.214 243.339 234.735 243.603 235.397C243.872 236.06 244.007 236.818 244.007 237.674V238.315H237.107C237.107 239.628 237.409 240.636 238.013 241.339C238.622 242.042 239.492 242.394 240.623 242.394C241.215 242.394 241.728 242.347 242.161 242.253C242.601 242.153 243.087 241.986 243.62 241.752V242.569C243.151 242.78 242.683 242.933 242.214 243.026C241.745 243.126 241.206 243.176 240.597 243.176C239.63 243.176 238.818 242.977 238.162 242.578C237.512 242.174 237.02 241.605 236.686 240.873C236.357 240.141 236.193 239.285 236.193 238.307C236.193 237.352 236.352 236.493 236.668 235.731C236.99 234.97 237.459 234.369 238.074 233.93C238.695 233.484 239.457 233.262 240.359 233.262ZM240.351 234.026C239.437 234.026 238.695 234.331 238.127 234.94C237.564 235.544 237.233 236.417 237.134 237.56H243.084C243.084 236.862 242.984 236.247 242.785 235.714C242.586 235.181 242.284 234.768 241.88 234.475C241.481 234.176 240.972 234.026 240.351 234.026ZM252.058 233.446V236.654C252.058 237.457 252.257 238.043 252.655 238.412C253.054 238.775 253.637 238.957 254.404 238.957C255.061 238.957 255.649 238.854 256.171 238.649C256.698 238.444 257.202 238.169 257.683 237.823V233.446H258.57V243H257.683V238.597C257.161 238.948 256.637 239.224 256.109 239.423C255.588 239.622 254.973 239.722 254.264 239.722C253.25 239.722 252.479 239.464 251.952 238.948C251.431 238.427 251.17 237.697 251.17 236.76V233.446H252.058ZM265.092 233.279C266.141 233.279 266.926 233.543 267.447 234.07C267.969 234.598 268.229 235.438 268.229 236.593V243H267.544L267.386 241.33H267.333C267.128 241.688 266.879 242.007 266.586 242.288C266.293 242.563 265.933 242.78 265.505 242.938C265.083 243.097 264.567 243.176 263.958 243.176C263.343 243.176 262.815 243.073 262.376 242.868C261.942 242.663 261.605 242.364 261.365 241.972C261.131 241.579 261.014 241.102 261.014 240.539C261.014 239.59 261.406 238.869 262.191 238.377C262.977 237.879 264.104 237.598 265.575 237.533L267.351 237.445V236.751C267.351 235.772 267.157 235.075 266.771 234.659C266.384 234.243 265.812 234.035 265.057 234.035C264.564 234.035 264.09 234.1 263.633 234.229C263.182 234.352 262.722 234.53 262.253 234.765L261.972 234.026C262.429 233.81 262.918 233.631 263.439 233.49C263.967 233.35 264.518 233.279 265.092 233.279ZM267.342 238.14L265.672 238.21C264.459 238.269 263.536 238.485 262.903 238.86C262.271 239.235 261.954 239.798 261.954 240.548C261.954 241.151 262.142 241.614 262.517 241.937C262.897 242.259 263.425 242.42 264.099 242.42C265.147 242.42 265.947 242.121 266.498 241.523C267.055 240.926 267.336 240.111 267.342 239.08V238.14ZM275.129 243.176C274.18 243.176 273.377 242.979 272.721 242.587C272.07 242.188 271.578 241.623 271.244 240.891C270.916 240.152 270.752 239.279 270.752 238.271C270.752 237.223 270.942 236.326 271.323 235.582C271.704 234.832 272.24 234.258 272.932 233.859C273.623 233.461 274.435 233.262 275.366 233.262C275.823 233.262 276.248 233.303 276.641 233.385C277.033 233.467 277.388 233.581 277.704 233.728L277.467 234.51C277.139 234.363 276.79 234.252 276.421 234.176C276.052 234.1 275.697 234.062 275.357 234.062C274.572 234.062 273.904 234.234 273.354 234.58C272.809 234.92 272.39 235.406 272.097 236.039C271.81 236.666 271.666 237.407 271.666 238.263C271.666 239.065 271.789 239.777 272.035 240.398C272.281 241.014 272.659 241.5 273.169 241.857C273.679 242.209 274.332 242.385 275.129 242.385C275.592 242.385 276.031 242.338 276.447 242.244C276.869 242.15 277.253 242.03 277.599 241.884V242.692C277.288 242.833 276.928 242.947 276.518 243.035C276.113 243.129 275.65 243.176 275.129 243.176ZM285.948 234.229H282.714V243H281.844V234.229H278.627V233.446H285.948V234.229ZM288.761 233.446V240.311C288.761 240.445 288.758 240.583 288.752 240.724C288.752 240.864 288.749 241.008 288.743 241.154C288.743 241.301 288.74 241.444 288.734 241.585C288.729 241.726 288.72 241.863 288.708 241.998L294.412 233.446H295.502V243H294.658V236.074C294.658 235.898 294.658 235.717 294.658 235.529C294.664 235.336 294.67 235.146 294.676 234.958C294.682 234.765 294.688 234.583 294.693 234.413L288.963 243H287.899V233.446H288.761ZM304.247 233.446V240.311C304.247 240.445 304.244 240.583 304.238 240.724C304.238 240.864 304.235 241.008 304.229 241.154C304.229 241.301 304.227 241.444 304.221 241.585C304.215 241.726 304.206 241.863 304.194 241.998L309.898 233.446H310.988V243H310.145V236.074C310.145 235.898 310.145 235.717 310.145 235.529C310.15 235.336 310.156 235.146 310.162 234.958C310.168 234.765 310.174 234.583 310.18 234.413L304.449 243H303.386V233.446H304.247ZM323.1 233.262C324.33 233.262 325.282 233.675 325.956 234.501C326.636 235.327 326.976 236.546 326.976 238.157C326.976 239.235 326.814 240.149 326.492 240.899C326.17 241.644 325.71 242.209 325.112 242.596C324.521 242.982 323.809 243.176 322.977 243.176C322.402 243.176 321.901 243.091 321.474 242.921C321.052 242.745 320.7 242.511 320.419 242.218C320.138 241.919 319.921 241.591 319.769 241.233H319.707C319.725 241.567 319.739 241.916 319.751 242.279C319.763 242.643 319.769 242.985 319.769 243.308V247.228H318.872V233.446H319.61L319.716 235.354H319.769C319.927 234.99 320.149 234.647 320.437 234.325C320.724 234.003 321.087 233.745 321.526 233.552C321.966 233.358 322.49 233.262 323.1 233.262ZM322.985 234.044C322.265 234.044 321.664 234.202 321.184 234.519C320.709 234.829 320.354 235.286 320.12 235.89C319.892 236.487 319.774 237.22 319.769 238.087V238.236C319.769 239.168 319.883 239.944 320.111 240.565C320.346 241.181 320.694 241.641 321.157 241.945C321.626 242.25 322.206 242.402 322.897 242.402C323.577 242.402 324.151 242.235 324.62 241.901C325.089 241.567 325.446 241.084 325.692 240.451C325.938 239.818 326.062 239.051 326.062 238.148C326.062 236.807 325.804 235.787 325.288 235.09C324.778 234.393 324.011 234.044 322.985 234.044ZM333.207 233.262C334.021 233.262 334.698 233.452 335.237 233.833C335.782 234.214 336.187 234.735 336.45 235.397C336.72 236.06 336.854 236.818 336.854 237.674V238.315H329.955C329.955 239.628 330.257 240.636 330.86 241.339C331.47 242.042 332.34 242.394 333.471 242.394C334.062 242.394 334.575 242.347 335.009 242.253C335.448 242.153 335.935 241.986 336.468 241.752V242.569C335.999 242.78 335.53 242.933 335.062 243.026C334.593 243.126 334.054 243.176 333.444 243.176C332.478 243.176 331.666 242.977 331.01 242.578C330.359 242.174 329.867 241.605 329.533 240.873C329.205 240.141 329.041 239.285 329.041 238.307C329.041 237.352 329.199 236.493 329.516 235.731C329.838 234.97 330.307 234.369 330.922 233.93C331.543 233.484 332.305 233.262 333.207 233.262ZM333.198 234.026C332.284 234.026 331.543 234.331 330.975 234.94C330.412 235.544 330.081 236.417 329.981 237.56H335.932C335.932 236.862 335.832 236.247 335.633 235.714C335.434 235.181 335.132 234.768 334.728 234.475C334.329 234.176 333.819 234.026 333.198 234.026ZM348.79 233.446V243H347.964V236.127C347.964 235.869 347.967 235.623 347.973 235.389C347.984 235.154 347.996 234.902 348.008 234.633H347.964L344.501 243H343.728L340.291 234.624H340.247C340.259 234.894 340.268 235.148 340.273 235.389C340.279 235.623 340.282 235.887 340.282 236.18V243H339.447V233.446H340.669L344.123 241.884L347.595 233.446H348.79ZM359.557 238.21C359.557 238.948 359.466 239.622 359.284 240.231C359.103 240.835 358.833 241.356 358.476 241.796C358.118 242.235 357.673 242.575 357.14 242.815C356.612 243.056 355.997 243.176 355.294 243.176C354.626 243.176 354.031 243.059 353.51 242.824C352.988 242.584 352.546 242.244 352.183 241.805C351.825 241.365 351.553 240.844 351.365 240.24C351.178 239.631 351.084 238.954 351.084 238.21C351.084 237.185 351.254 236.303 351.594 235.564C351.939 234.82 352.432 234.252 353.07 233.859C353.715 233.461 354.485 233.262 355.382 233.262C356.308 233.262 357.078 233.473 357.693 233.895C358.314 234.311 358.78 234.891 359.091 235.635C359.401 236.379 359.557 237.237 359.557 238.21ZM351.998 238.21C351.998 239.048 352.118 239.78 352.358 240.407C352.599 241.034 352.962 241.523 353.448 241.875C353.94 242.227 354.562 242.402 355.312 242.402C356.079 242.402 356.709 242.227 357.201 241.875C357.693 241.523 358.057 241.031 358.291 240.398C358.525 239.766 358.643 239.036 358.643 238.21C358.643 237.407 358.531 236.692 358.309 236.065C358.086 235.438 357.734 234.946 357.254 234.589C356.773 234.226 356.146 234.044 355.373 234.044C354.266 234.044 353.425 234.413 352.851 235.151C352.282 235.89 351.998 236.909 351.998 238.21ZM363.099 233.446V237.63H369.119V233.446H370.007V243H369.119V238.412H363.099V243H362.202V233.446H363.099ZM379.288 234.229H376.054V243H375.184V234.229H371.967V233.446H379.288V234.229Z" fill="black"/>
<path d="M193.518 196.92H186.118V209H184.118V195H193.518V196.92ZM200.518 199V209H198.618V207.5C198.205 208.033 197.705 208.453 197.118 208.76C196.532 209.053 195.905 209.2 195.238 209.2C194.358 209.2 193.558 208.98 192.838 208.54C192.118 208.087 191.552 207.467 191.138 206.68C190.725 205.893 190.518 205 190.518 204C190.518 203 190.725 202.107 191.138 201.32C191.552 200.533 192.118 199.92 192.838 199.48C193.558 199.027 194.358 198.8 195.238 198.8C195.932 198.8 196.578 198.96 197.178 199.28C197.778 199.6 198.292 200.047 198.718 200.62V199H200.518ZM195.558 207.44C196.145 207.44 196.678 207.293 197.158 207C197.638 206.707 198.012 206.3 198.278 205.78C198.545 205.247 198.678 204.653 198.678 204C198.678 203.347 198.545 202.76 198.278 202.24C198.012 201.707 197.638 201.293 197.158 201C196.678 200.707 196.145 200.56 195.558 200.56C194.972 200.56 194.445 200.707 193.978 201C193.512 201.293 193.145 201.707 192.878 202.24C192.612 202.76 192.478 203.347 192.478 204C192.478 204.653 192.612 205.247 192.878 205.78C193.145 206.3 193.512 206.707 193.978 207C194.445 207.293 194.972 207.44 195.558 207.44ZM209.003 198.8C209.883 198.8 210.683 199.027 211.403 199.48C212.123 199.92 212.69 200.533 213.103 201.32C213.516 202.107 213.723 203 213.723 204C213.723 205 213.516 205.893 213.103 206.68C212.69 207.467 212.123 208.087 211.403 208.54C210.683 208.98 209.883 209.2 209.003 209.2C208.336 209.2 207.71 209.053 207.123 208.76C206.536 208.453 206.036 208.033 205.623 207.5V212.4H203.723V199H205.523V200.62C205.95 200.047 206.463 199.6 207.063 199.28C207.663 198.96 208.31 198.8 209.003 198.8ZM208.683 207.44C209.27 207.44 209.796 207.293 210.263 207C210.73 206.707 211.096 206.3 211.363 205.78C211.63 205.247 211.763 204.653 211.763 204C211.763 203.347 211.63 202.76 211.363 202.24C211.096 201.707 210.73 201.293 210.263 201C209.796 200.707 209.27 200.56 208.683 200.56C208.096 200.56 207.563 200.707 207.083 201C206.603 201.293 206.23 201.707 205.963 202.24C205.696 202.76 205.563 203.347 205.563 204C205.563 204.653 205.696 205.247 205.963 205.78C206.23 206.3 206.603 206.707 207.083 207C207.563 207.293 208.096 207.44 208.683 207.44ZM225.225 199V209H223.325V207.5C222.912 208.033 222.412 208.453 221.825 208.76C221.239 209.053 220.612 209.2 219.945 209.2C219.065 209.2 218.265 208.98 217.545 208.54C216.825 208.087 216.259 207.467 215.845 206.68C215.432 205.893 215.225 205 215.225 204C215.225 203 215.432 202.107 215.845 201.32C216.259 200.533 216.825 199.92 217.545 199.48C218.265 199.027 219.065 198.8 219.945 198.8C220.639 198.8 221.285 198.96 221.885 199.28C222.485 199.6 222.999 200.047 223.425 200.62V199H225.225ZM220.265 207.44C220.852 207.44 221.385 207.293 221.865 207C222.345 206.707 222.719 206.3 222.985 205.78C223.252 205.247 223.385 204.653 223.385 204C223.385 203.347 223.252 202.76 222.985 202.24C222.719 201.707 222.345 201.293 221.865 201C221.385 200.707 220.852 200.56 220.265 200.56C219.679 200.56 219.152 200.707 218.685 201C218.219 201.293 217.852 201.707 217.585 202.24C217.319 202.76 217.185 203.347 217.185 204C217.185 204.653 217.319 205.247 217.585 205.78C217.852 206.3 218.219 206.707 218.685 207C219.152 207.293 219.679 207.44 220.265 207.44ZM237.43 199V209H235.53V204.9H230.33V209H228.43V199H230.33V203.1H235.53V199H237.43ZM248.237 200.8H244.737V209H242.837V200.8H239.337V199H248.237V200.8ZM250.129 199H252.029V206.44L257.229 199H259.329V209H257.429V201.56L252.229 209H250.129V199ZM270.252 209H268.352V205.24H266.392L263.312 209H261.032L264.232 205.12C263.512 204.933 262.952 204.573 262.552 204.04C262.152 203.493 261.952 202.853 261.952 202.12C261.952 201.213 262.245 200.467 262.832 199.88C263.432 199.293 264.258 199 265.312 199H270.252V209ZM268.352 203.58V200.7H265.572C265.025 200.7 264.612 200.827 264.332 201.08C264.052 201.32 263.912 201.673 263.912 202.14C263.912 202.607 264.052 202.967 264.332 203.22C264.612 203.46 265.025 203.58 265.572 203.58H268.352ZM288.915 207.12V209H278.255V207.3L284.315 202.52C285.142 201.88 285.755 201.287 286.155 200.74C286.568 200.193 286.775 199.593 286.775 198.94C286.775 198.247 286.495 197.687 285.935 197.26C285.388 196.833 284.695 196.62 283.855 196.62C282.975 196.62 282.222 196.833 281.595 197.26C280.982 197.673 280.595 198.387 280.435 199.4H278.355C278.435 198.467 278.728 197.653 279.235 196.96C279.755 196.253 280.415 195.72 281.215 195.36C282.028 194.987 282.908 194.8 283.855 194.8C284.882 194.8 285.768 194.973 286.515 195.32C287.262 195.653 287.828 196.12 288.215 196.72C288.602 197.307 288.795 197.98 288.795 198.74C288.795 199.473 288.642 200.14 288.335 200.74C288.028 201.34 287.588 201.913 287.015 202.46C286.455 202.993 285.682 203.64 284.695 204.4L281.155 207.12H288.915ZM303.829 200.8H298.729V209H296.829V199H303.829V200.8ZM309.764 209.2C308.777 209.2 307.877 208.973 307.064 208.52C306.251 208.053 305.611 207.427 305.144 206.64C304.677 205.84 304.444 204.96 304.444 204C304.444 203.04 304.677 202.167 305.144 201.38C305.611 200.58 306.251 199.953 307.064 199.5C307.877 199.033 308.777 198.8 309.764 198.8C310.737 198.8 311.624 199.033 312.424 199.5C313.237 199.953 313.877 200.58 314.344 201.38C314.811 202.167 315.044 203.04 315.044 204C315.044 204.96 314.811 205.84 314.344 206.64C313.877 207.427 313.237 208.053 312.424 208.52C311.624 208.973 310.737 209.2 309.764 209.2ZM309.764 207.44C310.377 207.44 310.937 207.293 311.444 207C311.951 206.693 312.351 206.28 312.644 205.76C312.937 205.227 313.084 204.64 313.084 204C313.084 203.36 312.937 202.78 312.644 202.26C312.351 201.727 311.951 201.313 311.444 201.02C310.937 200.713 310.377 200.56 309.764 200.56C309.137 200.56 308.564 200.713 308.044 201.02C307.537 201.313 307.137 201.727 306.844 202.26C306.551 202.78 306.404 203.36 306.404 204C306.404 204.64 306.551 205.227 306.844 205.76C307.137 206.28 307.537 206.693 308.044 207C308.564 207.293 309.137 207.44 309.764 207.44ZM327.163 207.2V211.2H325.323V209H317.683V211.2H315.843V207.2H317.123C317.403 206.4 317.543 204.867 317.543 202.6V199H325.763V207.2H327.163ZM323.863 207.24V200.76H319.443V202.54C319.443 204.54 319.29 206.107 318.983 207.24H323.863ZM338.077 199V209H336.177V207.5C335.764 208.033 335.264 208.453 334.677 208.76C334.09 209.053 333.464 209.2 332.797 209.2C331.917 209.2 331.117 208.98 330.397 208.54C329.677 208.087 329.11 207.467 328.697 206.68C328.284 205.893 328.077 205 328.077 204C328.077 203 328.284 202.107 328.697 201.32C329.11 200.533 329.677 199.92 330.397 199.48C331.117 199.027 331.917 198.8 332.797 198.8C333.49 198.8 334.137 198.96 334.737 199.28C335.337 199.6 335.85 200.047 336.277 200.62V199H338.077ZM333.117 207.44C333.704 207.44 334.237 207.293 334.717 207C335.197 206.707 335.57 206.3 335.837 205.78C336.104 205.247 336.237 204.653 336.237 204C336.237 203.347 336.104 202.76 335.837 202.24C335.57 201.707 335.197 201.293 334.717 201C334.237 200.707 333.704 200.56 333.117 200.56C332.53 200.56 332.004 200.707 331.537 201C331.07 201.293 330.704 201.707 330.437 202.24C330.17 202.76 330.037 203.347 330.037 204C330.037 204.653 330.17 205.247 330.437 205.78C330.704 206.3 331.07 206.707 331.537 207C332.004 207.293 332.53 207.44 333.117 207.44Z" fill="black"/>
</g>
<defs>
<filter id="filter0_d_474_3672" x="0" y="0" width="522" height="362" filterUnits="userSpaceOnUse" color-interpolation-filters="sRGB">
<feFlood flood-opacity="0" result="BackgroundImageFix"/>
<feColorMatrix in="SourceAlpha" type="matrix" values="0 0 0 0 0 0 0 0 0 0 0 0 0 0 0 0 0 0 127 0" result="hardAlpha"/>
<feOffset dy="4"/>
<feGaussianBlur stdDeviation="20.5"/>
<feComposite in2="hardAlpha" operator="out"/>
<feColorMatrix type="matrix" values="0 0 0 0 0 0 0 0 0 0 0 0 0 0 0 0 0 0 0.05 0"/>
<feBlend mode="normal" in2="BackgroundImageFix" result="effect1_dropShadow_474_3672"/>
<feBlend mode="normal" in="SourceGraphic" in2="effect1_dropShadow_474_3672" result="shape"/>
</filter>
</defs>
</svg>
