<svg width="483" height="41" viewBox="0 0 483 41" fill="none" xmlns="http://www.w3.org/2000/svg">
<path d="M0.0700001 16.9C0.0700001 13.8333 0.790667 11.0427 2.232 8.528C3.704 5.98267 5.69733 3.98933 8.212 2.548C10.7267 1.076 13.5173 0.339998 16.584 0.339998C18.9453 0.339998 21.1533 0.799999 23.208 1.72C25.2627 2.60933 27.026 3.89733 28.498 5.584C30.0007 7.24 31.1047 9.172 31.81 11.38H26.704C25.7533 9.32533 24.404 7.71533 22.656 6.55C20.9387 5.354 18.9147 4.756 16.584 4.756C14.4067 4.756 12.4287 5.29267 10.65 6.366C8.87133 7.43933 7.46067 8.91133 6.418 10.782C5.406 12.622 4.9 14.6613 4.9 16.9C4.9 19.1387 5.406 21.1933 6.418 23.064C7.46067 24.904 8.87133 26.3607 10.65 27.434C12.4287 28.5073 14.4067 29.044 16.584 29.044C18.9147 29.044 20.9387 28.4613 22.656 27.296C24.404 26.1 25.7533 24.4747 26.704 22.42H31.81C31.1047 24.628 30.0007 26.5753 28.498 28.262C27.026 29.918 25.2627 31.206 23.208 32.126C21.1533 33.0153 18.9453 33.46 16.584 33.46C13.5173 33.46 10.7267 32.7393 8.212 31.298C5.69733 29.826 3.704 27.8327 2.232 25.318C0.790667 22.7727 0.0700001 19.9667 0.0700001 16.9ZM57.7784 33H53.4084V14.14H41.4484V33H37.0784V10H57.7784V33ZM74.8606 9.54C77.2219 9.54 79.2766 10.046 81.0246 11.058C82.8033 12.07 84.1679 13.5113 85.1186 15.382C86.0693 17.222 86.5446 19.384 86.5446 21.868C86.5446 22.512 86.5293 22.9873 86.4986 23.294H67.6386C67.9453 25.0727 68.7733 26.5447 70.1226 27.71C71.5026 28.8447 73.0973 29.412 74.9066 29.412C77.8813 29.412 79.9973 28.3233 81.2546 26.146H85.7626C85.0266 28.2927 83.6619 30.056 81.6686 31.436C79.6753 32.7853 77.4213 33.46 74.9066 33.46C72.6679 33.46 70.6439 32.954 68.8346 31.942C67.0253 30.8993 65.6146 29.4733 64.6026 27.664C63.5906 25.824 63.0846 23.7693 63.0846 21.5C63.0846 19.2307 63.5906 17.1913 64.6026 15.382C65.6146 13.542 67.0099 12.116 68.7886 11.104C70.5979 10.0613 72.6219 9.54 74.8606 9.54ZM74.7686 13.404C72.9593 13.404 71.3953 13.9713 70.0766 15.106C68.7886 16.2407 67.9913 17.6973 67.6846 19.476H81.8066C81.6226 17.636 80.8713 16.164 79.5526 15.06C78.2646 13.956 76.6699 13.404 74.7686 13.404ZM115.758 28.86V38.06H111.526V33H91.8382V10H96.2082V28.86H108.168V10H112.538V28.86H115.758ZM141.064 33H136.694V14.14H124.734V33H120.364V10H141.064V33ZM160.584 9.54C162.608 9.54 164.448 10.0613 166.104 11.104C167.76 12.116 169.063 13.5267 170.014 15.336C170.964 17.1453 171.44 19.2 171.44 21.5C171.44 23.8 170.964 25.8547 170.014 27.664C169.063 29.4733 167.76 30.8993 166.104 31.942C164.448 32.954 162.608 33.46 160.584 33.46C159.05 33.46 157.609 33.1227 156.26 32.448C154.91 31.7427 153.76 30.7767 152.81 29.55V40.82H148.44V10H152.58V13.726C153.561 12.4073 154.742 11.38 156.122 10.644C157.502 9.908 158.989 9.54 160.584 9.54ZM159.848 29.412C161.197 29.412 162.408 29.0747 163.482 28.4C164.555 27.7253 165.398 26.79 166.012 25.594C166.625 24.3673 166.932 23.0027 166.932 21.5C166.932 19.9973 166.625 18.648 166.012 17.452C165.398 16.2253 164.555 15.2747 163.482 14.6C162.408 13.9253 161.197 13.588 159.848 13.588C158.498 13.588 157.272 13.9253 156.168 14.6C155.064 15.2747 154.205 16.2253 153.592 17.452C152.978 18.648 152.672 19.9973 152.672 21.5C152.672 23.0027 152.978 24.3673 153.592 25.594C154.205 26.79 155.064 27.7253 156.168 28.4C157.272 29.0747 158.498 29.412 159.848 29.412ZM186.671 9.54C189.032 9.54 191.087 10.046 192.835 11.058C194.614 12.07 195.978 13.5113 196.929 15.382C197.88 17.222 198.355 19.384 198.355 21.868C198.355 22.512 198.34 22.9873 198.309 23.294H179.449C179.756 25.0727 180.584 26.5447 181.933 27.71C183.313 28.8447 184.908 29.412 186.717 29.412C189.692 29.412 191.808 28.3233 193.065 26.146H197.573C196.837 28.2927 195.472 30.056 193.479 31.436C191.486 32.7853 189.232 33.46 186.717 33.46C184.478 33.46 182.454 32.954 180.645 31.942C178.836 30.8993 177.425 29.4733 176.413 27.664C175.401 25.824 174.895 23.7693 174.895 21.5C174.895 19.2307 175.401 17.1913 176.413 15.382C177.425 13.542 178.82 12.116 180.599 11.104C182.408 10.0613 184.432 9.54 186.671 9.54ZM186.579 13.404C184.77 13.404 183.206 13.9713 181.887 15.106C180.599 16.2407 179.802 17.6973 179.495 19.476H193.617C193.433 17.636 192.682 16.164 191.363 15.06C190.075 13.956 188.48 13.404 186.579 13.404ZM226.251 28.86V38.06H222.019V33H204.447V38.06H200.215V28.86H203.159C203.803 27.02 204.125 23.4933 204.125 18.28V10H223.031V28.86H226.251ZM218.661 28.952V14.048H208.495V18.142C208.495 22.742 208.142 26.3453 207.437 28.952H218.661ZM251.387 33.046H247.017V14.14H237.173V18.326C237.173 21.6073 236.989 24.2907 236.621 26.376C236.284 28.4613 235.563 30.1327 234.459 31.39C233.355 32.6167 231.715 33.23 229.537 33.23C228.955 33.23 228.326 33.1533 227.651 33V28.952C228.203 29.044 228.694 29.09 229.123 29.09C230.105 29.09 230.841 28.7833 231.331 28.17C231.853 27.5567 232.221 26.468 232.435 24.904C232.65 23.3093 232.757 20.9787 232.757 17.912V10H251.387V33.046ZM268.934 33.46C266.665 33.46 264.595 32.9387 262.724 31.896C260.853 30.8227 259.381 29.3813 258.308 27.572C257.235 25.732 256.698 23.708 256.698 21.5C256.698 19.292 257.235 17.2833 258.308 15.474C259.381 13.634 260.853 12.1927 262.724 11.15C264.595 10.0767 266.665 9.54 268.934 9.54C271.173 9.54 273.212 10.0767 275.052 11.15C276.923 12.1927 278.395 13.634 279.468 15.474C280.541 17.2833 281.078 19.292 281.078 21.5C281.078 23.708 280.541 25.732 279.468 27.572C278.395 29.3813 276.923 30.8227 275.052 31.896C273.212 32.9387 271.173 33.46 268.934 33.46ZM268.934 29.412C270.345 29.412 271.633 29.0747 272.798 28.4C273.963 27.6947 274.883 26.744 275.558 25.548C276.233 24.3213 276.57 22.972 276.57 21.5C276.57 20.028 276.233 18.694 275.558 17.498C274.883 16.2713 273.963 15.3207 272.798 14.646C271.633 13.9407 270.345 13.588 268.934 13.588C267.493 13.588 266.174 13.9407 264.978 14.646C263.813 15.3207 262.893 16.2713 262.218 17.498C261.543 18.694 261.206 20.028 261.206 21.5C261.206 22.972 261.543 24.3213 262.218 25.548C262.893 26.744 263.813 27.6947 264.978 28.4C266.174 29.0747 267.493 29.412 268.934 29.412ZM304.783 22.42L301.931 25.18V33H297.607V25.18L294.755 22.42L286.935 33H281.507L291.581 19.338L281.967 10H287.441L297.607 19.936V10H301.931V19.982L312.189 10H317.571L307.957 19.338L318.031 33H312.603L304.783 22.42ZM330.241 9.54C332.603 9.54 334.657 10.046 336.405 11.058C338.184 12.07 339.549 13.5113 340.499 15.382C341.45 17.222 341.925 19.384 341.925 21.868C341.925 22.512 341.91 22.9873 341.879 23.294H323.019C323.326 25.0727 324.154 26.5447 325.503 27.71C326.883 28.8447 328.478 29.412 330.287 29.412C333.262 29.412 335.378 28.3233 336.635 26.146H341.143C340.407 28.2927 339.043 30.056 337.049 31.436C335.056 32.7853 332.802 33.46 330.287 33.46C328.049 33.46 326.025 32.954 324.215 31.942C322.406 30.8993 320.995 29.4733 319.983 27.664C318.971 25.824 318.465 23.7693 318.465 21.5C318.465 19.2307 318.971 17.1913 319.983 15.382C320.995 13.542 322.391 12.116 324.169 11.104C325.979 10.0613 328.003 9.54 330.241 9.54ZM330.149 13.404C328.34 13.404 326.776 13.9713 325.457 15.106C324.169 16.2407 323.372 17.6973 323.065 19.476H337.187C337.003 17.636 336.252 16.164 334.933 15.06C333.645 13.956 332.051 13.404 330.149 13.404ZM367.919 10V33H363.549V23.57H351.589V33H347.219V10H351.589V19.43H363.549V10H367.919ZM375.295 10H379.665V27.112L391.625 10H396.455V33H392.085V15.888L380.125 33H375.295V10ZM421.577 33H417.207V24.352H412.699L405.615 33H400.371L407.731 24.076C406.075 23.6467 404.787 22.8187 403.867 21.592C402.947 20.3347 402.487 18.8627 402.487 17.176C402.487 15.0907 403.161 13.3733 404.511 12.024C405.891 10.6747 407.792 10 410.215 10H421.577V33ZM417.207 20.534V13.91H410.813C409.555 13.91 408.605 14.2013 407.961 14.784C407.317 15.336 406.995 16.1487 406.995 17.222C406.995 18.2953 407.317 19.1233 407.961 19.706C408.605 20.258 409.555 20.534 410.813 20.534H417.207Z" fill="#111111"/>
<path d="M439.525 6.826L447.575 0.799998H451.025V33H446.425V6.826L439.525 11.932V6.826ZM483 25.18H477.48V33H472.88V25.18H455.63V20.396L470.58 0.799998H477.48V20.81H483V25.18ZM472.88 20.81V4.02L460.092 20.81H472.88Z" fill="#C5358C"/>
</svg>
