<svg viewBox="0 0 270 64" xmlns="http://www.w3.org/2000/svg" xmlns:xlink="http://www.w3.org/1999/xlink" width="270.000000" height="64.000000" fill="none" customFrame="url(#clipPath_4)">
	<defs>
		<clipPath id="clipPath_4">
			<rect width="270.000000" height="64.000000" x="0.000000" y="0.000000" rx="3.000000" fill="rgb(255,255,255)" />
		</clipPath>
		<clipPath id="clipPath_5">
			<rect width="30.000000" height="30.000000" x="269.500000" y="25.000000" fill="rgb(255,255,255)" />
		</clipPath>
	</defs>
	<rect id="написать отзыв" width="270.000000" height="64.000000" x="0.000000" y="0.000000" rx="3.000000" fill="rgb(219.938,219.938,219.938)" fill-opacity="0" />
	<rect id="написать отзыв" width="269.000000" height="63.000000" x="0.500000" y="0.500000" rx="3.000000" stroke="rgb(17,17,17)" stroke-width="1" />
	<path id="В корзину" d="M56.3281 41.3105L54.3359 41.3105L54.3359 33.2363L45.3359 33.2363L45.3359 41.3105L43.3438 41.3105L43.3438 24.1777L45.3359 24.1777L45.3359 31.4785L54.3359 31.4785L54.3359 24.1777L56.3281 24.1777L56.3281 41.3105ZM65.5508 28.2559C67.082 28.2559 68.2188 28.5996 68.9609 29.2871C69.7031 29.9746 70.0742 31.0723 70.0742 32.5801L70.0742 41.3105L68.6562 41.3105L68.2812 39.4121L68.1875 39.4121C67.8281 39.8809 67.4531 40.2754 67.0625 40.5957C66.6719 40.9082 66.2188 41.1465 65.7031 41.3105C65.1953 41.4668 64.5703 41.5449 63.8281 41.5449C63.0469 41.5449 62.3516 41.4082 61.7422 41.1348C61.1406 40.8613 60.6641 40.4473 60.3125 39.8926C59.9688 39.3379 59.7969 38.6348 59.7969 37.7832C59.7969 36.502 60.3047 35.5176 61.3203 34.8301C62.3359 34.1426 63.8828 33.7676 65.9609 33.7051L68.1758 33.6113L68.1758 32.8262C68.1758 31.7168 67.9375 30.9395 67.4609 30.4941C66.9844 30.0488 66.3125 29.8262 65.4453 29.8262C64.7734 29.8262 64.1328 29.9238 63.5234 30.1191C62.9141 30.3145 62.3359 30.5449 61.7891 30.8105L61.1914 29.334C61.7695 29.0371 62.4336 28.7832 63.1836 28.5723C63.9336 28.3613 64.7227 28.2559 65.5508 28.2559ZM68.1523 34.9824L66.1953 35.0645C64.5938 35.127 63.4648 35.3887 62.8086 35.8496C62.1523 36.3105 61.8242 36.9629 61.8242 37.8066C61.8242 38.541 62.0469 39.084 62.4922 39.4355C62.9375 39.7871 63.5273 39.9629 64.2617 39.9629C65.4023 39.9629 66.3359 39.6465 67.0625 39.0137C67.7891 38.3809 68.1523 37.4316 68.1523 36.166L68.1523 34.9824ZM84.8398 28.4668L84.8398 41.3105L82.8828 41.3105L82.8828 30.1426L76.0391 30.1426L76.0391 41.3105L74.082 41.3105L74.082 28.4668L84.8398 28.4668ZM90.8164 28.4668L90.8164 36.541C90.8164 36.6973 90.8125 36.9004 90.8047 37.1504C90.7969 37.3926 90.7852 37.6543 90.7695 37.9355C90.7539 38.209 90.7383 38.4746 90.7227 38.7324C90.7148 38.9824 90.7031 39.1895 90.6875 39.3535L97.6953 28.4668L100.086 28.4668L100.086 41.3105L98.2695 41.3105L98.2695 33.4355C98.2695 33.1855 98.2734 32.8652 98.2812 32.4746C98.2891 32.084 98.3008 31.7012 98.3164 31.3262C98.332 30.9434 98.3438 30.6465 98.3516 30.4355L91.3672 41.3105L88.9648 41.3105L88.9648 28.4668L90.8164 28.4668ZM109.367 41.5449C108.211 41.5449 107.191 41.3066 106.309 40.8301C105.426 40.3535 104.738 39.627 104.246 38.6504C103.754 37.6738 103.508 36.4434 103.508 34.959C103.508 33.4043 103.766 32.1348 104.281 31.1504C104.805 30.1582 105.523 29.4238 106.438 28.9473C107.352 28.4707 108.391 28.2324 109.555 28.2324C110.195 28.2324 110.812 28.2988 111.406 28.4316C112.008 28.5566 112.5 28.7168 112.883 28.9121L112.297 30.541C111.906 30.3848 111.453 30.2441 110.938 30.1191C110.43 29.9941 109.953 29.9316 109.508 29.9316C108.617 29.9316 107.875 30.123 107.281 30.5059C106.695 30.8887 106.254 31.4512 105.957 32.1934C105.668 32.9355 105.523 33.8496 105.523 34.9355C105.523 35.9746 105.664 36.8613 105.945 37.5957C106.234 38.3301 106.66 38.8926 107.223 39.2832C107.793 39.666 108.504 39.8574 109.355 39.8574C110.035 39.8574 110.648 39.7871 111.195 39.6465C111.742 39.498 112.238 39.3262 112.684 39.1309L112.684 40.8652C112.254 41.084 111.773 41.252 111.242 41.3691C110.719 41.4863 110.094 41.5449 109.367 41.5449ZM120.535 28.2559C122.066 28.2559 123.203 28.5996 123.945 29.2871C124.688 29.9746 125.059 31.0723 125.059 32.5801L125.059 41.3105L123.641 41.3105L123.266 39.4121L123.172 39.4121C122.812 39.8809 122.438 40.2754 122.047 40.5957C121.656 40.9082 121.203 41.1465 120.688 41.3105C120.18 41.4668 119.555 41.5449 118.812 41.5449C118.031 41.5449 117.336 41.4082 116.727 41.1348C116.125 40.8613 115.648 40.4473 115.297 39.8926C114.953 39.3379 114.781 38.6348 114.781 37.7832C114.781 36.502 115.289 35.5176 116.305 34.8301C117.32 34.1426 118.867 33.7676 120.945 33.7051L123.16 33.6113L123.16 32.8262C123.16 31.7168 122.922 30.9395 122.445 30.4941C121.969 30.0488 121.297 29.8262 120.43 29.8262C119.758 29.8262 119.117 29.9238 118.508 30.1191C117.898 30.3145 117.32 30.5449 116.773 30.8105L116.176 29.334C116.754 29.0371 117.418 28.7832 118.168 28.5723C118.918 28.3613 119.707 28.2559 120.535 28.2559ZM123.137 34.9824L121.18 35.0645C119.578 35.127 118.449 35.3887 117.793 35.8496C117.137 36.3105 116.809 36.9629 116.809 37.8066C116.809 38.541 117.031 39.084 117.477 39.4355C117.922 39.7871 118.512 39.9629 119.246 39.9629C120.387 39.9629 121.32 39.6465 122.047 39.0137C122.773 38.3809 123.137 37.4316 123.137 36.166L123.137 34.9824ZM137.82 30.1191L133.59 30.1191L133.59 41.3105L131.668 41.3105L131.668 30.1191L127.496 30.1191L127.496 28.4668L137.82 28.4668L137.82 30.1191ZM142.32 33.7637L146.258 33.7637C147.352 33.7637 148.262 33.9004 148.988 34.1738C149.715 34.4473 150.258 34.8535 150.617 35.3926C150.984 35.9316 151.168 36.5996 151.168 37.3965C151.168 38.1934 150.988 38.8848 150.629 39.4707C150.277 40.0566 149.73 40.5098 148.988 40.8301C148.254 41.1504 147.305 41.3105 146.141 41.3105L140.363 41.3105L140.363 28.4668L142.32 28.4668L142.32 33.7637ZM149.211 37.4902C149.211 36.7012 148.93 36.1543 148.367 35.8496C147.812 35.5371 147.035 35.3809 146.035 35.3809L142.32 35.3809L142.32 39.7285L146.047 39.7285C146.984 39.7285 147.746 39.5566 148.332 39.2129C148.918 38.8613 149.211 38.2871 149.211 37.4902ZM171.828 34.8652C171.828 35.9199 171.691 36.8613 171.418 37.6895C171.145 38.5176 170.75 39.2168 170.234 39.7871C169.719 40.3574 169.094 40.7949 168.359 41.0996C167.633 41.3965 166.809 41.5449 165.887 41.5449C165.027 41.5449 164.238 41.3965 163.52 41.0996C162.809 40.7949 162.191 40.3574 161.668 39.7871C161.152 39.2168 160.75 38.5176 160.461 37.6895C160.18 36.8613 160.039 35.9199 160.039 34.8652C160.039 33.459 160.277 32.2637 160.754 31.2793C161.23 30.2871 161.91 29.5332 162.793 29.0176C163.684 28.4941 164.742 28.2324 165.969 28.2324C167.141 28.2324 168.164 28.4941 169.039 29.0176C169.922 29.541 170.605 30.2988 171.09 31.291C171.582 32.2754 171.828 33.4668 171.828 34.8652ZM162.055 34.8652C162.055 35.8965 162.191 36.791 162.465 37.5488C162.738 38.3066 163.16 38.8926 163.73 39.3066C164.301 39.7207 165.035 39.9277 165.934 39.9277C166.824 39.9277 167.555 39.7207 168.125 39.3066C168.703 38.8926 169.129 38.3066 169.402 37.5488C169.676 36.791 169.812 35.8965 169.812 34.8652C169.812 33.8418 169.676 32.959 169.402 32.2168C169.129 31.4668 168.707 30.8887 168.137 30.4824C167.566 30.0762 166.828 29.873 165.922 29.873C164.586 29.873 163.605 30.3145 162.98 31.1973C162.363 32.0801 162.055 33.3027 162.055 34.8652ZM183.945 30.1191L179.715 30.1191L179.715 41.3105L177.793 41.3105L177.793 30.1191L173.621 30.1191L173.621 28.4668L183.945 28.4668L183.945 30.1191ZM189.793 28.2324C190.754 28.2324 191.586 28.3652 192.289 28.6309C192.992 28.8887 193.535 29.2676 193.918 29.7676C194.301 30.2676 194.492 30.877 194.492 31.5957C194.492 32.3691 194.281 32.9863 193.859 33.4473C193.438 33.9082 192.855 34.2402 192.113 34.4434L192.113 34.5371C192.637 34.6777 193.109 34.8809 193.531 35.1465C193.961 35.4043 194.301 35.748 194.551 36.1777C194.809 36.5996 194.938 37.127 194.938 37.7598C194.938 38.4785 194.742 39.127 194.352 39.7051C193.961 40.2754 193.367 40.7246 192.57 41.0527C191.773 41.3809 190.766 41.5449 189.547 41.5449C188.945 41.5449 188.375 41.5098 187.836 41.4395C187.297 41.377 186.809 41.2832 186.371 41.1582C185.934 41.0332 185.551 40.8848 185.223 40.7129L185.223 38.9434C185.77 39.209 186.41 39.4434 187.145 39.6465C187.879 39.8496 188.672 39.9512 189.523 39.9512C190.18 39.9512 190.77 39.877 191.293 39.7285C191.816 39.5723 192.23 39.3262 192.535 38.9902C192.848 38.6465 193.004 38.1973 193.004 37.6426C193.004 37.1348 192.867 36.7168 192.594 36.3887C192.32 36.0527 191.91 35.8066 191.363 35.6504C190.824 35.4863 190.141 35.4043 189.312 35.4043L187.59 35.4043L187.59 33.8105L189.008 33.8105C190.109 33.8105 190.988 33.6543 191.645 33.3418C192.301 33.0293 192.629 32.502 192.629 31.7598C192.629 31.1191 192.375 30.6426 191.867 30.3301C191.359 30.0098 190.633 29.8496 189.688 29.8496C188.984 29.8496 188.363 29.9238 187.824 30.0723C187.285 30.2129 186.703 30.416 186.078 30.6816L185.387 29.123C186.059 28.8262 186.762 28.6035 187.496 28.4551C188.23 28.3066 188.996 28.2324 189.793 28.2324ZM198.09 41.3105L198.09 28.4668L200.047 28.4668L200.047 33.7637L203.562 33.7637C204.656 33.7637 205.555 33.9004 206.258 34.1738C206.969 34.4473 207.496 34.8535 207.84 35.3926C208.184 35.9316 208.355 36.5996 208.355 37.3965C208.355 38.1934 208.184 38.8848 207.84 39.4707C207.504 40.0566 206.973 40.5098 206.246 40.8301C205.527 41.1504 204.59 41.3105 203.434 41.3105L198.09 41.3105ZM200.047 39.7285L203.246 39.7285C204.215 39.7285 204.988 39.5566 205.566 39.2129C206.145 38.8691 206.434 38.2949 206.434 37.4902C206.434 36.7012 206.164 36.1543 205.625 35.8496C205.086 35.5371 204.312 35.3809 203.305 35.3809L200.047 35.3809L200.047 39.7285ZM210.477 41.3105L210.477 28.4668L212.422 28.4668L212.422 41.3105L210.477 41.3105ZM226.742 31.6895C226.742 32.4941 226.508 33.123 226.039 33.5762C225.57 34.0215 224.965 34.3223 224.223 34.4785L224.223 34.5723C225.027 34.6816 225.719 34.9707 226.297 35.4395C226.883 35.9004 227.176 36.6074 227.176 37.5605C227.176 38.2949 227 38.9434 226.648 39.5059C226.297 40.0684 225.746 40.5098 224.996 40.8301C224.246 41.1504 223.27 41.3105 222.066 41.3105L216.535 41.3105L216.535 28.4668L222.02 28.4668C222.941 28.4668 223.754 28.5723 224.457 28.7832C225.168 28.9863 225.727 29.3223 226.133 29.791C226.539 30.2598 226.742 30.8926 226.742 31.6895ZM225.148 37.5605C225.148 36.8027 224.859 36.2559 224.281 35.9199C223.711 35.584 222.879 35.416 221.785 35.416L218.492 35.416L218.492 39.7285L221.832 39.7285C222.91 39.7285 223.73 39.5645 224.293 39.2363C224.863 38.9004 225.148 38.3418 225.148 37.5605ZM224.762 31.9121C224.762 31.3027 224.539 30.8496 224.094 30.5527C223.648 30.248 222.918 30.0957 221.902 30.0957L218.492 30.0957L218.492 33.7871L221.562 33.7871C222.617 33.7871 223.414 33.6348 223.953 33.3301C224.492 33.0254 224.762 32.5527 224.762 31.9121Z" fill="rgb(17,17,17)" fill-rule="nonzero" />
	<g id="Stroke 2/shopping-bag" opacity="0" clip-path="url(#clipPath_5)" customFrame="url(#clipPath_5)">
		<rect id="Stroke 2/shopping-bag" width="30.000000" height="30.000000" x="269.500000" y="25.000000" opacity="0" fill="rgb(255,255,255)" fill-opacity="0" />
		<path id="Vector 26 (Stroke)" d="M294.203 50.722L272 29.444L273.384 28L295.692 49.3786L295.692 31.4473L297.692 31.4473L297.692 52.722L275.536 52.722L275.536 50.722L294.203 50.722Z" fill="rgb(17,17,17)" fill-rule="evenodd" />
	</g>
</svg>
