<svg viewBox="0 0 161 71" xmlns="http://www.w3.org/2000/svg" xmlns:xlink="http://www.w3.org/1999/xlink" width="161.000000" height="71.000000" fill="none" customFrame="#000000">
	<g id="оценки">
		<path id="5 / 5" d="M8.4375 18.896C9.85352 18.896 11.0889 19.145 12.1436 19.6431C13.208 20.1313 14.0332 20.8491 14.6191 21.7964C15.2148 22.7437 15.5127 23.896 15.5127 25.2534C15.5127 26.7378 15.1953 28.0171 14.5605 29.0913C13.9258 30.1655 13.0029 30.9907 11.792 31.5669C10.5811 32.1431 9.11621 32.4312 7.39746 32.4312C6.28418 32.4312 5.24414 32.3335 4.27734 32.1382C3.31055 31.9429 2.49023 31.6499 1.81641 31.2593L1.81641 28.5493C2.53906 28.9692 3.4082 29.311 4.42383 29.5747C5.44922 29.8286 6.43555 29.9556 7.38281 29.9556C8.41797 29.9556 9.31641 29.7944 10.0781 29.4722C10.8496 29.1499 11.4453 28.6616 11.8652 28.0073C12.2852 27.353 12.4951 26.5229 12.4951 25.5171C12.4951 24.189 12.0801 23.1636 11.25 22.4409C10.4199 21.7183 9.11621 21.3569 7.33887 21.3569C6.74316 21.3569 6.09863 21.4106 5.40527 21.5181C4.71191 21.6157 4.14062 21.7183 3.69141 21.8257L2.31445 20.9907L3.13477 10.7222L14.0332 10.7222L14.0332 13.3442L5.68359 13.3442L5.18555 19.2476C5.54688 19.1694 5.99609 19.0913 6.5332 19.0132C7.07031 18.9351 7.70508 18.896 8.4375 18.896Z" fill="rgb(17,17,17)" fill-rule="nonzero" />
		<path id="5 / 5" d="" fill="rgb(17,17,17)" fill-rule="nonzero" />
		<path id="5 / 5" d="" fill="rgb(17,17,17)" fill-rule="nonzero" />
		<path id="5 / 5" d="M29.4824 17.8608L24.1699 32.1382L22.5684 32.1382L27.8906 17.8608L29.4824 17.8608ZM40.4004 23.4077C41.3704 23.4077 42.2135 23.5737 42.9297 23.9058C43.6458 24.2313 44.1992 24.7065 44.5898 25.3315C44.987 25.9565 45.1855 26.715 45.1855 27.6069C45.1855 28.5835 44.974 29.4266 44.5508 30.1362C44.1276 30.8394 43.5189 31.383 42.7246 31.7671C41.9303 32.1447 40.9798 32.3335 39.873 32.3335C39.1309 32.3335 38.4408 32.2684 37.8027 32.1382C37.1647 32.008 36.6276 31.8127 36.1914 31.5522L36.1914 30.0093C36.6667 30.2957 37.2428 30.5236 37.9199 30.6929C38.597 30.8621 39.2546 30.9468 39.8926 30.9468C40.6152 30.9468 41.2467 30.8328 41.7871 30.605C42.334 30.3706 42.7572 30.019 43.0566 29.5503C43.3626 29.075 43.5156 28.4793 43.5156 27.7632C43.5156 26.8127 43.2227 26.0802 42.6367 25.5659C42.0573 25.0451 41.1393 24.7847 39.8828 24.7847C39.4792 24.7847 39.0365 24.8172 38.5547 24.8823C38.0729 24.9474 37.6758 25.019 37.3633 25.0972L36.543 24.5601L37.0898 17.8608L44.1895 17.8608L44.1895 19.3452L38.4766 19.3452L38.1152 23.6519C38.3626 23.5998 38.6816 23.5477 39.0723 23.4956C39.4629 23.437 39.9056 23.4077 40.4004 23.4077Z" fill="rgb(17,17,17)" fill-rule="nonzero" />
		<path id="5 / 5" d="M29.4824 17.8608L24.1699 32.1382L22.5684 32.1382L27.8906 17.8608L29.4824 17.8608ZM40.4004 23.4077C41.3704 23.4077 42.2135 23.5737 42.9297 23.9058C43.6458 24.2313 44.1992 24.7065 44.5898 25.3315C44.987 25.9565 45.1855 26.715 45.1855 27.6069C45.1855 28.5835 44.974 29.4266 44.5508 30.1362C44.1276 30.8394 43.5189 31.383 42.7246 31.7671C41.9303 32.1447 40.9798 32.3335 39.873 32.3335C39.1309 32.3335 38.4408 32.2684 37.8027 32.1382C37.1647 32.008 36.6276 31.8127 36.1914 31.5522L36.1914 30.0093C36.6667 30.2957 37.2428 30.5236 37.9199 30.6929C38.597 30.8621 39.2546 30.9468 39.8926 30.9468C40.6152 30.9468 41.2467 30.8328 41.7871 30.605C42.334 30.3706 42.7572 30.019 43.0566 29.5503C43.3626 29.075 43.5156 28.4793 43.5156 27.7632C43.5156 26.8127 43.2227 26.0802 42.6367 25.5659C42.0573 25.0451 41.1393 24.7847 39.8828 24.7847C39.4792 24.7847 39.0365 24.8172 38.5547 24.8823C38.0729 24.9474 37.6758 25.019 37.3633 25.0972L36.543 24.5601L37.0898 17.8608L44.1895 17.8608L44.1895 19.3452L38.4766 19.3452L38.1152 23.6519C38.3626 23.5998 38.6816 23.5477 39.0723 23.4956C39.4629 23.437 39.9056 23.4077 40.4004 23.4077Z" fill="rgb(17,17,17)" fill-rule="nonzero" />
		<g id="оценки">
			<path id="Star 1" d="M18.1432 50.6738C18.2771 51.0858 18.661 51.3647 19.0943 51.3647L26.1882 51.3647C27.1569 51.3647 27.5597 52.6044 26.7759 53.1738L21.0369 57.3435C20.6864 57.5981 20.5397 58.0495 20.6736 58.4615L22.8657 65.2082C23.1651 66.1295 22.1106 66.8956 21.3269 66.3262L15.5878 62.1565C15.2373 61.9019 14.7627 61.9019 14.4122 62.1565L8.67312 66.3262C7.8894 66.8956 6.83493 66.1295 7.13428 65.2082L9.32642 58.4615C9.46029 58.0495 9.31363 57.5981 8.96315 57.3435L3.22405 53.1738C2.44034 52.6044 2.84311 51.3647 3.81184 51.3647L10.9057 51.3647C11.339 51.3647 11.7229 51.0858 11.8568 50.6738L14.0489 43.9271C14.3483 43.0057 15.6517 43.0057 15.9511 43.9271L18.1432 50.6738Z" fill="rgb(17,17,17)" fill-rule="evenodd" />
			<path id="Star 6" d="M149.143 50.6738C149.277 51.0858 149.661 51.3647 150.094 51.3647L157.188 51.3647C158.157 51.3647 158.56 52.6044 157.776 53.1738L152.037 57.3435C151.686 57.5981 151.54 58.0495 151.674 58.4615L153.866 65.2082C154.165 66.1295 153.111 66.8956 152.327 66.3262L146.588 62.1565C146.237 61.9019 145.763 61.9019 145.412 62.1565L139.673 66.3262C138.889 66.8956 137.835 66.1295 138.134 65.2082L140.326 58.4615C140.46 58.0495 140.314 57.5981 139.963 57.3435L134.224 53.1738C133.44 52.6044 133.843 51.3647 134.812 51.3647L141.906 51.3647C142.339 51.3647 142.723 51.0858 142.857 50.6738L145.049 43.9271C145.348 43.0057 146.652 43.0057 146.951 43.9271L149.143 50.6738Z" fill="rgb(17,17,17)" fill-rule="evenodd" />
			<path id="Star 7" d="M116.143 50.6738C116.277 51.0858 116.661 51.3647 117.094 51.3647L124.188 51.3647C125.157 51.3647 125.56 52.6044 124.776 53.1738L119.037 57.3435C118.686 57.5981 118.54 58.0495 118.674 58.4615L120.866 65.2082C121.165 66.1295 120.111 66.8956 119.327 66.3262L113.588 62.1565C113.237 61.9019 112.763 61.9019 112.412 62.1565L106.673 66.3262C105.889 66.8956 104.835 66.1295 105.134 65.2082L107.326 58.4615C107.46 58.0495 107.314 57.5981 106.963 57.3435L101.224 53.1738C100.44 52.6044 100.843 51.3647 101.812 51.3647L108.906 51.3647C109.339 51.3647 109.723 51.0858 109.857 50.6738L112.049 43.9271C112.348 43.0057 113.652 43.0057 113.951 43.9271L116.143 50.6738Z" fill="rgb(17,17,17)" fill-rule="evenodd" />
			<path id="Star 8" d="M83.1432 50.6738C83.2771 51.0858 83.661 51.3647 84.0943 51.3647L91.1882 51.3647C92.1569 51.3647 92.5597 52.6044 91.7759 53.1738L86.0368 57.3435C85.6864 57.5981 85.5397 58.0495 85.6736 58.4615L87.8657 65.2082C88.1651 66.1295 87.1106 66.8956 86.3269 66.3262L80.5878 62.1565C80.2373 61.9019 79.7627 61.9019 79.4122 62.1565L73.6731 66.3262C72.8894 66.8956 71.8349 66.1295 72.1343 65.2082L74.3264 58.4615C74.4603 58.0495 74.3136 57.5981 73.9632 57.3435L68.2241 53.1738C67.4403 52.6044 67.8431 51.3647 68.8118 51.3647L75.9057 51.3647C76.339 51.3647 76.7229 51.0858 76.8568 50.6738L79.0489 43.9271C79.3483 43.0057 80.6517 43.0057 80.9511 43.9271L83.1432 50.6738Z" fill="rgb(17,17,17)" fill-rule="evenodd" />
			<path id="Star 9" d="M51.1432 50.6738C51.2771 51.0858 51.661 51.3647 52.0943 51.3647L59.1882 51.3647C60.1569 51.3647 60.5597 52.6044 59.7759 53.1738L54.0369 57.3435C53.6864 57.5981 53.5397 58.0495 53.6736 58.4615L55.8657 65.2082C56.1651 66.1295 55.1106 66.8956 54.3269 66.3262L48.5878 62.1565C48.2373 61.9019 47.7627 61.9019 47.4122 62.1565L41.6731 66.3262C40.8894 66.8956 39.8349 66.1295 40.1343 65.2082L42.3264 58.4615C42.4603 58.0495 42.3136 57.5981 41.9631 57.3435L36.2241 53.1738C35.4403 52.6044 35.8431 51.3647 36.8118 51.3647L43.9057 51.3647C44.339 51.3647 44.7229 51.0858 44.8568 50.6738L47.0489 43.9271C47.3483 43.0057 48.6517 43.0057 48.9511 43.9271L51.1432 50.6738Z" fill="rgb(17,17,17)" fill-rule="evenodd" />
		</g>
	</g>
</svg>
