<svg viewBox="0 0 120 120" xmlns="http://www.w3.org/2000/svg" xmlns:xlink="http://www.w3.org/1999/xlink" width="120.000000" height="120.000000" fill="none" customFrame="#000000">
	<defs>
		<g id="pixso_custom_effect_1">
			<effect x="0.000000" y="4.000000" visibility="visible" fill="rgb(0,0,0)" fill-opacity="0.0500000007" effectType="dropShadow" stdDeviation="41" radius="0" />
		</g>
		<filter id="filter_1" width="120.000000" height="120.000000" x="0.000000" y="0.000000" filterUnits="userSpaceOnUse" customEffect="url(#pixso_custom_effect_1)" color-interpolation-filters="sRGB">
			<feFlood flood-opacity="0" result="BackgroundImageFix" />
			<feOffset dx="0.000000" dy="4.000000" in="SourceAlpha" />
			<feGaussianBlur stdDeviation="13.666667" />
			<feColorMatrix type="matrix" values="0 0 0 0 0 0 0 0 0 0 0 0 0 0 0 0 0 0 0.05 0 " />
			<feBlend result="effect_dropShadow_1" in2="BackgroundImageFix" mode="normal" />
			<feBlend result="shape" in="SourceGraphic" in2="effect_dropShadow_1" mode="normal" />
		</filter>
	</defs>
	<g filter="url(#filter_1)">
		<rect id="open content" width="36.000000" height="36.000000" x="42.000000" y="38.000000" />
	</g>
	<path id="Union" d="M61 38L61 55L78 55C78.56 55 79 55.44 79 56C79 56.56 78.56 57 78 57L61 57L61 74C61 74.56 60.56 75 60 75C59.44 75 59 74.56 59 74L59 57L42 57C41.44 57 41 56.56 41 56C41 55.44 41.44 55 42 55L59 55L59 38C59 37.44 59.44 37 60 37C60.56 37 61 37.44 61 38Z" fill="rgb(17,17,17)" fill-rule="evenodd" />
</svg>
