<svg viewBox="0 0 64 64" xmlns="http://www.w3.org/2000/svg" xmlns:xlink="http://www.w3.org/1999/xlink" width="64.000000" height="64.000000" fill="none" customFrame="url(#clipPath_2)">
	<defs>
		<clipPath id="clipPath_2">
			<rect width="64.000000" height="64.000000" x="0.000000" y="0.000000" rx="3.000000" fill="rgb(255,255,255)" transform="matrix(-1,1.22465e-16,1.22465e-16,1,64,0)" />
		</clipPath>
		<clipPath id="clipPath_3">
			<rect width="30.000000" height="30.000000" x="0.000000" y="0.000000" fill="rgb(255,255,255)" transform="matrix(0.707107,-0.707107,0.707107,0.707107,10.7869,32)" />
		</clipPath>
	</defs>
	<rect id="вправо" width="64.000000" height="64.000000" x="0.000000" y="0.000000" rx="3.000000" fill="rgb(219.938,219.938,219.938)" fill-opacity="0" transform="matrix(-1,1.22465e-16,1.22465e-16,1,64,0)" />
	<rect id="вправо" width="63.000000" height="63.000000" x="0.500000" y="0.500000" rx="3.000000" stroke="rgb(17,17,17)" stroke-width="1" transform="matrix(-1,1.22465e-16,1.22465e-16,1,64,0)" />
	<g id="Stroke 2/shopping-bag" clip-path="url(#clipPath_3)" customFrame="url(#clipPath_3)">
		<rect id="Stroke 2/shopping-bag" width="30.000000" height="30.000000" x="0.000000" y="0.000000" fill="rgb(255,255,255)" fill-opacity="0" transform="matrix(0.707107,-0.707107,0.707107,0.707107,10.7869,32)" />
		<path id="Vector 26 (Stroke)" d="M22.2031 22.722L0.721988 2.13588C0.323245 1.75375 0.309777 1.12073 0.691905 0.721988C1.07403 0.323245 1.70706 0.309777 2.1058 0.691905L23.6919 21.3786L23.6919 4.44733C23.6919 3.89504 24.1396 3.44733 24.6919 3.44733C25.2442 3.44733 25.6919 3.89504 25.6919 4.44733L25.6919 23.722C25.6919 24.2743 25.2442 24.722 24.6919 24.722L4.53635 24.722C3.98406 24.722 3.53635 24.2743 3.53635 23.722C3.53635 23.1697 3.98406 22.722 4.53635 22.722L22.2031 22.722Z" fill="rgb(17,17,17)" fill-rule="evenodd" transform="matrix(0.72955,-0.683927,0.683927,0.72955,14.6741,31.7783)" />
	</g>
</svg>
