<svg viewBox="0 0 229 50" xmlns="http://www.w3.org/2000/svg" xmlns:xlink="http://www.w3.org/1999/xlink" width="229.000000" height="50.000000" fill="none" customFrame="#000000">
	<path id="Отзывы 151" d="M17.22 43.48C14.392 43.48 11.802 42.822 9.45 41.506C7.098 40.162 5.25 38.342 3.906 36.046C2.562 33.722 1.89 31.16 1.89 28.36C1.89 25.56 2.562 23.012 3.906 20.716C5.25 18.392 7.098 16.572 9.45 15.256C11.802 13.912 14.392 13.24 17.22 13.24C20.048 13.24 22.638 13.912 24.99 15.256C27.342 16.572 29.19 18.392 30.534 20.716C31.878 23.012 32.55 25.56 32.55 28.36C32.55 31.16 31.878 33.722 30.534 36.046C29.19 38.342 27.342 40.162 24.99 41.506C22.638 42.822 20.048 43.48 17.22 43.48ZM17.22 39.448C19.236 39.448 21.07 38.958 22.722 37.978C24.402 36.998 25.718 35.668 26.67 33.988C27.65 32.28 28.14 30.404 28.14 28.36C28.14 26.316 27.65 24.454 26.67 22.774C25.718 21.066 24.402 19.722 22.722 18.742C21.07 17.762 19.236 17.272 17.22 17.272C15.204 17.272 13.356 17.762 11.676 18.742C10.024 19.722 8.708 21.066 7.728 22.774C6.776 24.454 6.3 26.316 6.3 28.36C6.3 30.404 6.776 32.28 7.728 33.988C8.708 35.668 10.024 36.998 11.676 37.978C13.356 38.958 15.204 39.448 17.22 39.448ZM53.7731 25.84L46.4231 25.84L46.4231 43.06L42.4331 43.06L42.4331 25.84L35.0831 25.84L35.0831 22.06L53.7731 22.06L53.7731 25.84ZM58.6064 36.424C58.9704 37.656 59.6424 38.566 60.6224 39.154C61.6304 39.742 62.9464 40.036 64.5704 40.036C66.0824 40.036 67.3004 39.77 68.2244 39.238C69.1484 38.678 69.6104 37.964 69.6104 37.096C69.6104 36.34 69.2744 35.696 68.6024 35.164C67.9304 34.604 66.7824 34.324 65.1584 34.324L61.5044 34.324L61.5044 30.88L64.9904 30.88C66.4464 30.88 67.4824 30.614 68.0984 30.082C68.7424 29.55 69.0644 28.906 69.0644 28.15C69.0644 27.198 68.6304 26.442 67.7624 25.882C66.9224 25.322 65.7604 25.042 64.2764 25.042C62.8484 25.042 61.6584 25.308 60.7064 25.84C59.7824 26.372 59.1804 27.212 58.9004 28.36L54.9524 28.36C55.3164 26.26 56.3664 24.622 58.1024 23.446C59.8384 22.242 61.8964 21.64 64.2764 21.64C66.9084 21.64 69.0364 22.214 70.6604 23.362C72.2844 24.482 73.0964 25.966 73.0964 27.814C73.0964 28.738 72.8444 29.606 72.3404 30.418C71.8364 31.202 71.0804 31.832 70.0724 32.308C72.3964 33.232 73.5584 34.814 73.5584 37.054C73.5584 38.986 72.7184 40.54 71.0384 41.716C69.3864 42.892 67.1324 43.48 64.2764 43.48C61.7004 43.48 59.5164 42.85 57.7244 41.59C55.9324 40.33 54.8964 38.608 54.6164 36.424L58.6064 36.424ZM88.6695 30.376C90.8815 30.376 92.6035 30.978 93.8355 32.182C95.0956 33.358 95.7255 34.87 95.7255 36.718C95.7255 38.566 95.0956 40.092 93.8355 41.296C92.6035 42.472 90.8815 43.06 88.6695 43.06L78.2955 43.06L78.2955 22.06L82.2855 22.06L82.2855 30.376L88.6695 30.376ZM88.1236 39.574C89.2715 39.574 90.1395 39.336 90.7275 38.86C91.3156 38.384 91.6095 37.67 91.6095 36.718C91.6095 35.766 91.3156 35.052 90.7275 34.576C90.1395 34.1 89.2715 33.862 88.1236 33.862L82.2855 33.862L82.2855 39.574L88.1236 39.574ZM103.496 22.06L103.496 43.06L99.5055 43.06L99.5055 22.06L103.496 22.06ZM124.738 32.35C126.81 33.386 127.846 34.982 127.846 37.138C127.846 38.874 127.216 40.302 125.956 41.422C124.696 42.514 122.96 43.06 120.748 43.06L110.206 43.06L110.206 22.06L120.748 22.06C122.848 22.06 124.5 22.606 125.704 23.698C126.936 24.762 127.552 26.12 127.552 27.772C127.552 28.752 127.314 29.648 126.838 30.46C126.39 31.244 125.69 31.874 124.738 32.35ZM120.286 30.796C121.322 30.796 122.106 30.558 122.638 30.082C123.17 29.606 123.436 28.906 123.436 27.982C123.436 26.274 122.386 25.42 120.286 25.42L114.112 25.42L114.112 30.796L120.286 30.796ZM120.328 39.7C121.448 39.7 122.288 39.462 122.848 38.986C123.436 38.482 123.73 37.768 123.73 36.844C123.73 35.976 123.436 35.318 122.848 34.87C122.288 34.394 121.448 34.156 120.328 34.156L114.112 34.156L114.112 39.7L120.328 39.7ZM143.261 30.376C145.473 30.376 147.195 30.978 148.427 32.182C149.687 33.358 150.317 34.87 150.317 36.718C150.317 38.566 149.687 40.092 148.427 41.296C147.195 42.472 145.473 43.06 143.261 43.06L132.887 43.06L132.887 22.06L136.877 22.06L136.877 30.376L143.261 30.376ZM142.715 39.574C143.863 39.574 144.731 39.336 145.319 38.86C145.907 38.384 146.201 37.67 146.201 36.718C146.201 35.766 145.907 35.052 145.319 34.576C144.731 34.1 143.863 33.862 142.715 33.862L136.877 33.862L136.877 39.574L142.715 39.574ZM158.087 22.06L158.087 43.06L154.097 43.06L154.097 22.06L158.087 22.06Z" fill="rgb(17,17,17)" fill-rule="nonzero" />
	<path id="Отзывы 151" d="M174.469 19.162L181.819 13.66L184.969 13.66L184.969 43.06L180.769 43.06L180.769 19.162L174.469 23.824L174.469 19.162ZM201.858 23.236C205.274 23.236 207.906 24.174 209.754 26.05C211.602 27.926 212.526 30.404 212.526 33.484C212.526 35.472 212.064 37.222 211.14 38.734C210.216 40.246 208.914 41.422 207.234 42.262C205.582 43.074 203.664 43.48 201.48 43.48C199.604 43.48 197.868 43.116 196.272 42.388C194.704 41.632 193.388 40.596 192.324 39.28C191.26 37.936 190.56 36.41 190.224 34.702L194.382 34.702C194.998 36.354 195.922 37.614 197.154 38.482C198.414 39.35 199.94 39.784 201.732 39.784C203.804 39.784 205.428 39.21 206.604 38.062C207.808 36.914 208.41 35.332 208.41 33.316C208.41 31.356 207.794 29.802 206.562 28.654C205.358 27.506 203.678 26.932 201.522 26.932C200.234 26.932 199.086 27.17 198.078 27.646C197.07 28.094 196.258 28.71 195.642 29.494L191.148 29.494L193.29 13.66L211.224 13.66L211.224 17.524L196.356 17.524L195.264 25.882C196.104 25.098 197.126 24.468 198.33 23.992C199.562 23.488 200.738 23.236 201.858 23.236ZM214.377 19.162L221.727 13.66L224.877 13.66L224.877 43.06L220.677 43.06L220.677 19.162L214.377 23.824L214.377 19.162Z" fill="rgb(17,17,17)" fill-rule="nonzero" />
	<path id="Отзывы 151" d="M174.469 19.162L181.819 13.66L184.969 13.66L184.969 43.06L180.769 43.06L180.769 19.162L174.469 23.824L174.469 19.162ZM201.858 23.236C205.274 23.236 207.906 24.174 209.754 26.05C211.602 27.926 212.526 30.404 212.526 33.484C212.526 35.472 212.064 37.222 211.14 38.734C210.216 40.246 208.914 41.422 207.234 42.262C205.582 43.074 203.664 43.48 201.48 43.48C199.604 43.48 197.868 43.116 196.272 42.388C194.704 41.632 193.388 40.596 192.324 39.28C191.26 37.936 190.56 36.41 190.224 34.702L194.382 34.702C194.998 36.354 195.922 37.614 197.154 38.482C198.414 39.35 199.94 39.784 201.732 39.784C203.804 39.784 205.428 39.21 206.604 38.062C207.808 36.914 208.41 35.332 208.41 33.316C208.41 31.356 207.794 29.802 206.562 28.654C205.358 27.506 203.678 26.932 201.522 26.932C200.234 26.932 199.086 27.17 198.078 27.646C197.07 28.094 196.258 28.71 195.642 29.494L191.148 29.494L193.29 13.66L211.224 13.66L211.224 17.524L196.356 17.524L195.264 25.882C196.104 25.098 197.126 24.468 198.33 23.992C199.562 23.488 200.738 23.236 201.858 23.236ZM214.377 19.162L221.727 13.66L224.877 13.66L224.877 43.06L220.677 43.06L220.677 19.162L214.377 23.824L214.377 19.162Z" fill="rgb(197,53,140)" fill-rule="nonzero" />
</svg>
