<svg width="517.372070" height="58.819336" viewBox="0 0 517.372 58.8193" fill="none" xmlns="http://www.w3.org/2000/svg" xmlns:xlink="http://www.w3.org/1999/xlink">
	<desc>
			Created with Pixso.
	</desc>
	<defs/>
	<path id="Идеальная укладка для всех типов волос вместе с Dyson" d="M2.36 0L0.34 0L0.34 18.56L2.72 18.56L13.07 2.91L13.19 2.91Q13.17 3.22 13.13 3.78Q13.1 4.35 13.06 5.06Q13.03 5.77 13.01 6.53Q12.98 7.28 12.98 7.95L12.98 18.56L15 18.56L15 0L12.63 0L2.29 15.56L2.19 15.56Q2.22 15.25 2.25 14.7Q2.28 14.14 2.31 13.45Q2.33 12.77 2.34 12.05Q2.36 11.33 2.36 10.72L2.36 0ZM43.1 5.17Q41.83 4.39 40.05 4.39Q38.39 4.39 37.12 5.09Q36.96 5.18 36.81 5.28Q36.54 5.45 36.29 5.65Q35.28 6.48 34.67 7.81Q33.92 9.45 33.92 11.7Q33.92 14 34.74 15.58Q35.28 16.61 36.09 17.32Q36.53 17.7 37.06 17.99Q38.55 18.81 40.56 18.81Q41.97 18.81 43 18.59Q44.04 18.38 45.09 17.91L45.09 16.05Q44 16.52 42.98 16.77Q41.97 17.01 40.65 17.01Q38.92 17.01 37.82 16.18Q37.55 15.98 37.32 15.72Q36.14 14.44 36.1 11.99L45.71 11.99L45.71 10.68Q45.71 8.79 45.04 7.38Q44.6 6.46 43.91 5.8Q43.54 5.45 43.1 5.17ZM319.52 18.04Q320.96 18.81 322.84 18.81Q324.02 18.81 324.87 18.62Q325.73 18.43 326.43 18.07L326.43 16.19Q325.71 16.51 324.82 16.75Q323.93 16.98 322.82 16.98Q321.44 16.98 320.52 16.35Q320.41 16.27 320.3 16.19Q319.54 15.58 319.14 14.53Q318.67 13.34 318.67 11.65Q318.67 9.88 319.15 8.68Q319.54 7.68 320.27 7.08Q320.42 6.96 320.58 6.85Q321.54 6.23 322.99 6.23Q323.71 6.23 324.54 6.43Q325.38 6.63 326.01 6.89L326.65 5.12Q326.02 4.81 325.05 4.6Q324.08 4.39 323.04 4.39Q321.15 4.39 319.66 5.16Q319.25 5.38 318.88 5.66Q317.94 6.39 317.33 7.54Q316.49 9.15 316.49 11.67Q316.49 14.09 317.29 15.67Q317.88 16.84 318.81 17.57Q319.14 17.83 319.52 18.04ZM338.12 5.17Q336.85 4.39 335.08 4.39Q333.42 4.39 332.15 5.09Q331.99 5.18 331.83 5.28Q331.56 5.45 331.32 5.65Q330.31 6.48 329.7 7.81Q328.94 9.45 328.94 11.7Q328.94 14 329.77 15.58Q330.3 16.61 331.12 17.32Q331.56 17.7 332.09 17.99Q333.58 18.81 335.58 18.81Q336.99 18.81 338.03 18.59Q339.06 18.38 340.12 17.91L340.12 16.05Q339.02 16.52 338.01 16.77Q336.99 17.01 335.67 17.01Q333.95 17.01 332.85 16.18Q332.58 15.98 332.35 15.72Q331.17 14.44 331.13 11.99L340.74 11.99L340.74 10.68Q340.74 8.79 340.06 7.38Q339.63 6.46 338.94 5.8Q338.57 5.45 338.12 5.17ZM421.12 14.63Q421.57 13.29 421.57 11.57Q421.57 9.3 420.78 7.69Q420.2 6.52 419.28 5.76Q418.94 5.47 418.55 5.24Q418.49 5.2 418.42 5.16Q417.04 4.39 415.22 4.39Q413.23 4.39 411.79 5.23Q411.34 5.49 410.96 5.83Q410.11 6.57 409.57 7.68Q408.8 9.29 408.8 11.57Q408.8 13.29 409.26 14.63Q409.72 15.98 410.57 16.91Q410.97 17.34 411.44 17.68Q411.96 18.06 412.57 18.32Q413.74 18.81 415.13 18.81Q416.63 18.81 417.82 18.32Q418.58 18.01 419.19 17.52Q419.54 17.24 419.84 16.91Q420.68 15.98 421.12 14.63ZM473.38 14.63Q473.82 13.29 473.82 11.57Q473.82 9.3 473.03 7.69Q472.45 6.52 471.54 5.76Q471.19 5.47 470.81 5.24Q470.74 5.2 470.68 5.16Q469.29 4.39 467.47 4.39Q465.48 4.39 464.04 5.23Q463.59 5.49 463.21 5.83Q462.36 6.57 461.83 7.68Q461.05 9.29 461.05 11.57Q461.05 13.29 461.51 14.63Q461.98 15.98 462.82 16.91Q463.22 17.34 463.69 17.68Q464.21 18.06 464.83 18.32Q465.99 18.81 467.39 18.81Q468.88 18.81 470.07 18.32Q470.83 18.01 471.44 17.52Q471.79 17.24 472.1 16.91Q472.93 15.98 473.38 14.63ZM503.9 14.63Q504.34 13.29 504.34 11.57Q504.34 9.3 503.55 7.69Q502.97 6.52 502.06 5.76Q501.71 5.47 501.33 5.24Q501.26 5.2 501.2 5.16Q499.81 4.39 497.99 4.39Q496 4.39 494.56 5.23Q494.11 5.49 493.73 5.83Q492.88 6.57 492.35 7.68Q491.57 9.29 491.57 11.57Q491.57 13.29 492.03 14.63Q492.5 15.98 493.34 16.91Q493.74 17.34 494.21 17.68Q494.73 18.06 495.35 18.32Q496.51 18.81 497.91 18.81Q499.4 18.81 500.59 18.32Q501.35 18.01 501.96 17.52Q502.31 17.24 502.62 16.91Q503.45 15.98 503.9 14.63ZM510.25 18.04Q511.68 18.81 513.56 18.81Q514.74 18.81 515.6 18.62Q516.45 18.43 517.15 18.07L517.15 16.19Q516.43 16.51 515.54 16.75Q514.65 16.98 513.55 16.98Q512.16 16.98 511.24 16.35Q511.13 16.27 511.02 16.19Q510.26 15.58 509.86 14.53Q509.39 13.34 509.39 11.65Q509.39 9.88 509.87 8.68Q510.26 7.68 510.99 7.08Q511.14 6.96 511.31 6.85Q512.26 6.23 513.71 6.23Q514.43 6.23 515.27 6.43Q516.1 6.63 516.73 6.89L517.37 5.12Q516.75 4.81 515.77 4.6Q514.8 4.39 513.76 4.39Q511.87 4.39 510.39 5.16Q509.97 5.38 509.6 5.66Q508.66 6.39 508.06 7.54Q507.21 9.15 507.21 11.67Q507.21 14.09 508.01 15.67Q508.6 16.84 509.53 17.57Q509.87 17.83 510.25 18.04ZM58.19 5.53Q56.98 4.41 54.5 4.41Q53.15 4.41 51.93 4.76Q50.71 5.1 49.77 5.58L50.42 7.18Q51.31 6.75 52.3 6.43L52.3 6.43Q53.29 6.11 54.38 6.11Q55.74 6.11 56.51 6.79Q56.54 6.81 56.57 6.84Q57.34 7.56 57.34 9.36L57.34 10.21L54.94 10.32Q51.56 10.42 49.91 11.54Q49.17 12.04 48.76 12.74Q48.26 13.59 48.26 14.73Q48.26 16.12 48.83 17.02Q49.09 17.43 49.43 17.75Q49.84 18.12 50.38 18.37Q51.36 18.81 52.63 18.81Q53.84 18.81 54.67 18.55Q55.45 18.3 56.06 17.83Q56.1 17.8 56.13 17.77Q56.77 17.26 57.35 16.5L57.45 16.5L57.86 18.56L59.4 18.56L59.4 9.1Q59.4 6.65 58.19 5.53ZM119.31 5.53Q118.1 4.41 115.61 4.41Q114.27 4.41 113.05 4.76Q111.83 5.1 110.89 5.58L111.54 7.18Q112.43 6.75 113.42 6.43L113.42 6.43Q114.41 6.11 115.5 6.11Q116.86 6.11 117.63 6.79Q117.65 6.81 117.68 6.84Q118.46 7.56 118.46 9.36L118.46 10.21L116.06 10.32Q112.68 10.42 111.03 11.54Q110.29 12.04 109.88 12.74Q109.38 13.59 109.38 14.73Q109.38 16.12 109.94 17.02Q110.2 17.43 110.55 17.75Q110.96 18.12 111.49 18.37Q112.48 18.81 113.75 18.81Q114.95 18.81 115.78 18.55Q116.57 18.3 117.18 17.83Q117.21 17.8 117.25 17.77Q117.88 17.26 118.47 16.5L118.57 16.5L118.98 18.56L120.51 18.56L120.51 9.1Q120.51 6.65 119.31 5.53ZM196.24 5.53Q195.03 4.41 192.55 4.41Q191.2 4.41 189.98 4.76Q188.76 5.1 187.82 5.58L188.47 7.18Q189.36 6.75 190.35 6.43L190.35 6.43Q191.34 6.11 192.43 6.11Q193.79 6.11 194.56 6.79Q194.59 6.81 194.61 6.84Q195.39 7.56 195.39 9.36L195.39 10.21L192.99 10.32Q189.61 10.42 187.96 11.54Q187.22 12.04 186.81 12.74Q186.31 13.59 186.31 14.73Q186.31 16.12 186.88 17.02Q187.13 17.43 187.48 17.75Q187.89 18.12 188.43 18.37Q189.41 18.81 190.68 18.81Q191.89 18.81 192.72 18.55Q193.5 18.3 194.11 17.83Q194.15 17.8 194.18 17.77Q194.82 17.26 195.4 16.5L195.5 16.5L195.91 18.56L197.45 18.56L197.45 9.1Q197.45 6.65 196.24 5.53ZM239.06 5.53Q237.85 4.41 235.37 4.41Q234.02 4.41 232.8 4.76Q231.58 5.1 230.64 5.58L231.29 7.18Q232.18 6.75 233.17 6.43L233.17 6.43Q234.16 6.11 235.25 6.11Q236.61 6.11 237.38 6.79Q237.41 6.81 237.44 6.84Q238.21 7.56 238.21 9.36L238.21 10.21L235.81 10.32Q232.43 10.42 230.78 11.54Q230.04 12.04 229.63 12.74Q229.13 13.59 229.13 14.73Q229.13 16.12 229.7 17.02Q229.96 17.43 230.3 17.75Q230.71 18.12 231.25 18.37Q232.23 18.81 233.5 18.81Q234.71 18.81 235.54 18.55Q236.32 18.3 236.93 17.83Q236.97 17.8 237 17.77Q237.64 17.26 238.22 16.5L238.32 16.5L238.73 18.56L240.27 18.56L240.27 9.1Q240.27 6.65 239.06 5.53ZM29.94 16.77L29.94 4.64L22.72 4.64Q22.7 5.97 22.55 7.28Q22.45 8.15 22.29 9.02Q21.88 11.18 21.09 13.15Q20.31 15.12 19.11 16.77L18.02 16.77L18.02 23.37L20.04 23.37L20.04 18.56L29.89 18.56L29.89 23.37L31.94 23.37L31.94 16.77L29.94 16.77ZM72.03 18.56L74.17 18.56L74.17 4.64L65.97 4.64Q65.79 7.19 65.56 9.21Q65.33 11.22 65.02 12.7Q64.72 14.18 64.33 15.14Q63.94 16.11 63.47 16.58Q63.1 16.95 62.68 17.03Q62.55 17.06 62.42 17.06Q62.21 17.06 62.03 17.03Q61.85 17.01 61.68 16.96L61.68 18.56Q61.9 18.64 62.2 18.68Q62.51 18.72 62.85 18.72Q63.54 18.72 64.11 18.46Q64.48 18.3 64.8 18.03Q65.62 17.34 66.19 15.86Q66.77 14.38 67.16 12.04Q67.55 9.69 67.8 6.41L72.03 6.41L72.03 18.56ZM85 10.38L80.74 10.38L80.74 4.64L78.62 4.64L78.62 18.56L84.88 18.56Q86.77 18.56 87.97 18.04Q89.06 17.56 89.64 16.73Q89.69 16.65 89.74 16.56Q89.75 16.55 89.76 16.53Q90.32 15.59 90.32 14.32Q90.32 13.02 89.73 12.14Q89.7 12.1 89.66 12.05Q89.08 11.24 87.96 10.82Q86.78 10.38 85 10.38ZM96.07 10.48L96.07 4.64L93.95 4.64L93.95 18.56L96.07 18.56L96.07 12.27L103.83 12.27L103.83 18.56L105.94 18.56L105.94 4.64L103.83 4.64L103.83 10.48L96.07 10.48ZM123.06 18.56L125.53 18.56L129.17 12.97L132.7 12.97L132.7 18.56L134.81 18.56L134.81 4.64L128.65 4.64Q126.45 4.64 125.11 5.69Q124.72 5.99 124.45 6.38Q123.77 7.32 123.77 8.74Q123.77 9.95 124.24 10.76Q124.58 11.36 125.09 11.78Q125.26 11.92 125.45 12.04Q125.71 12.2 125.98 12.32Q126.5 12.57 127.08 12.69L123.06 18.56ZM146.07 4.64L143.81 4.64L149.38 18.58L148.62 20.54Q148.31 21.32 147.89 21.89Q147.52 22.41 147.02 22.7Q146.96 22.73 146.9 22.76Q146.32 23.06 145.53 23.06Q145.1 23.06 144.7 23.01Q144.3 22.96 144.02 22.9L144.02 24.59Q144.35 24.67 144.81 24.74Q145.27 24.81 145.86 24.81Q147.16 24.81 148.07 24.3Q148.16 24.25 148.24 24.2Q149.05 23.7 149.63 22.83Q150.27 21.88 150.75 20.6L156.81 4.64L154.53 4.64L151.63 12.7Q151.25 13.78 150.92 14.82Q150.59 15.85 150.41 16.49L150.32 16.49Q150.22 15.93 150.04 15.33Q149.86 14.73 149.64 14.08Q149.41 13.43 149.14 12.72L146.07 4.64ZM169.47 4.64L167.14 4.64L161.15 11.4L161.15 4.64L159.03 4.64L159.03 18.56L161.15 18.56L161.15 11.5L167.47 18.56L169.95 18.56L163.46 11.36L169.47 4.64ZM180.75 18.56L182.9 18.56L182.9 4.64L174.7 4.64Q174.52 7.19 174.28 9.21Q174.05 11.22 173.74 12.7Q173.44 14.18 173.05 15.14Q172.66 16.11 172.19 16.58Q171.82 16.95 171.4 17.03Q171.27 17.06 171.14 17.06Q170.94 17.06 170.75 17.03Q170.57 17.01 170.4 16.96L170.4 18.56Q170.62 18.64 170.93 18.68Q171.23 18.72 171.57 18.72Q172.26 18.72 172.84 18.46Q173.2 18.3 173.52 18.03Q174.34 17.34 174.92 15.86Q175.5 14.38 175.88 12.04Q176.27 9.69 176.52 6.41L180.75 6.41L180.75 18.56ZM211.98 16.77L211.98 4.64L204.76 4.64Q204.74 5.97 204.59 7.28Q204.49 8.15 204.33 9.02Q203.92 11.18 203.13 13.15Q202.35 15.12 201.15 16.77L200.06 16.77L200.06 23.37L202.08 23.37L202.08 18.56L211.93 18.56L211.93 23.37L213.97 23.37L213.97 16.77L211.98 16.77ZM227.17 4.64L224.84 4.64L218.85 11.4L218.85 4.64L216.73 4.64L216.73 18.56L218.85 18.56L218.85 11.5L225.17 18.56L227.65 18.56L221.16 11.36L227.17 4.64ZM261.56 16.77L261.56 4.64L254.33 4.64Q254.32 5.97 254.16 7.28Q254.06 8.15 253.9 9.02Q253.5 11.18 252.71 13.15Q251.92 15.12 250.73 16.77L249.64 16.77L249.64 23.37L251.65 23.37L251.65 18.56L261.51 18.56L261.51 23.37L263.55 23.37L263.55 16.77L261.56 16.77ZM274.6 18.56L276.74 18.56L276.74 4.64L268.54 4.64Q268.36 7.19 268.13 9.21Q267.89 11.22 267.59 12.7Q267.28 14.18 266.9 15.14Q266.51 16.11 266.03 16.58Q265.67 16.95 265.24 17.03Q265.12 17.06 264.98 17.06Q264.78 17.06 264.6 17.03Q264.41 17.01 264.25 16.96L264.25 18.56Q264.46 18.64 264.77 18.68Q265.07 18.72 265.42 18.72Q266.11 18.72 266.68 18.46Q267.05 18.3 267.37 18.03Q268.18 17.34 268.76 15.86Q269.34 14.38 269.73 12.04Q270.11 9.69 270.37 6.41L274.6 6.41L274.6 18.56ZM279.39 18.56L281.86 18.56L285.5 12.97L289.03 12.97L289.03 18.56L291.14 18.56L291.14 4.64L284.98 4.64Q282.78 4.64 281.44 5.69Q281.05 5.99 280.78 6.38Q280.1 7.32 280.1 8.74Q280.1 9.95 280.57 10.76Q280.91 11.36 281.42 11.78Q281.59 11.92 281.78 12.04Q282.04 12.2 282.31 12.32Q282.83 12.57 283.41 12.69L279.39 18.56ZM312.87 9.9Q313.39 9.21 313.39 8.13Q313.39 6.89 312.79 6.14Q312.76 6.11 312.73 6.08L312.73 6.07Q312.07 5.31 310.92 4.98Q309.77 4.64 308.28 4.64L302.33 4.64L302.33 18.56L308.33 18.56Q310.28 18.56 311.5 18.04Q312.72 17.51 313.29 16.6Q313.39 16.44 313.47 16.27Q313.86 15.48 313.86 14.49Q313.86 13.24 313.25 12.51Q313.1 12.34 312.92 12.19Q312.72 12.04 312.52 11.91Q311.71 11.4 310.66 11.26L310.66 11.15Q311.84 10.91 312.6 10.2Q312.61 10.19 312.63 10.17Q312.76 10.04 312.87 9.9ZM342.82 4.64L347.63 11.43L342.59 18.56L344.98 18.56L348.9 12.88L352.8 18.56L355.21 18.56L350.13 11.43L354.94 4.64L352.56 4.64L348.9 10L345.23 4.64L342.82 4.64ZM369.58 6.43L374.16 6.43L374.16 4.64L362.98 4.64L362.98 6.43L367.5 6.43L367.5 18.56L369.58 18.56L369.58 6.43ZM378.93 13.39L378.93 4.64L376.92 4.64L376.92 18.56L379.52 18.56L387.09 6.77Q387.08 7.12 387.05 7.73Q387.02 8.35 387.01 8.98Q387 9.62 387 10.02L387 18.56L388.97 18.56L388.97 4.64L386.38 4.64L378.79 16.44Q378.81 16.17 378.83 15.76Q378.85 15.34 378.87 14.89Q378.9 14.44 378.91 14.04Q378.93 13.64 378.93 13.39ZM405.1 18.56L405.1 4.64L393.45 4.64L393.45 18.56L395.57 18.56L395.57 6.46L402.98 6.46L402.98 18.56L405.1 18.56ZM435.75 9.9Q436.27 9.21 436.27 8.13Q436.27 6.89 435.66 6.14Q435.64 6.11 435.61 6.08L435.61 6.07Q434.95 5.31 433.8 4.98Q432.65 4.64 431.15 4.64L425.21 4.64L425.21 18.56L431.2 18.56Q433.16 18.56 434.38 18.04Q435.6 17.51 436.17 16.6Q436.27 16.44 436.35 16.27Q436.74 15.48 436.74 14.49Q436.74 13.24 436.12 12.51Q435.98 12.34 435.79 12.19Q435.6 12.04 435.4 11.91Q434.58 11.4 433.54 11.26L433.54 11.15Q434.72 10.91 435.48 10.2Q435.49 10.19 435.51 10.17Q435.64 10.04 435.75 9.9ZM457.43 9.9Q457.95 9.21 457.95 8.13Q457.95 6.89 457.35 6.14Q457.32 6.11 457.29 6.08L457.29 6.07Q456.63 5.31 455.48 4.98Q454.34 4.64 452.84 4.64L446.9 4.64L446.9 18.56L452.89 18.56Q454.84 18.56 456.06 18.04Q457.28 17.51 457.85 16.6Q457.95 16.44 458.04 16.27Q458.42 15.48 458.42 14.49Q458.42 13.24 457.81 12.51Q457.66 12.34 457.48 12.19Q457.29 12.04 457.08 11.91Q456.27 11.4 455.22 11.26L455.22 11.15Q456.4 10.91 457.16 10.2Q457.18 10.19 457.19 10.17Q457.32 10.04 457.43 9.9ZM485.76 18.56L487.9 18.56L487.9 4.64L479.7 4.64Q479.52 7.19 479.29 9.21Q479.05 11.22 478.75 12.7Q478.44 14.18 478.06 15.14Q477.67 16.11 477.19 16.58Q476.83 16.95 476.4 17.03Q476.28 17.06 476.15 17.06Q475.94 17.06 475.76 17.03Q475.57 17.01 475.41 16.96L475.41 18.56Q475.63 18.64 475.93 18.68Q476.23 18.72 476.58 18.72Q477.27 18.72 477.84 18.46Q478.21 18.3 478.53 18.03Q479.35 17.34 479.92 15.86Q480.5 14.38 480.89 12.04Q481.27 9.69 481.53 6.41L485.76 6.41L485.76 18.56ZM38.03 6.63Q38.87 6.11 40.02 6.11Q41.22 6.11 41.98 6.64Q42.15 6.76 42.31 6.9Q42.83 7.38 43.11 8.11Q43.49 9.06 43.5 10.3L36.14 10.3Q36.33 8.32 37.33 7.22Q37.65 6.87 38.03 6.63ZM333.06 6.63Q333.89 6.11 335.05 6.11Q336.24 6.11 337.01 6.64Q337.18 6.76 337.33 6.9Q337.85 7.38 338.14 8.11Q338.52 9.06 338.53 10.3L331.17 10.3Q331.36 8.32 332.36 7.22Q332.67 6.87 333.06 6.63ZM411.43 14.48Q410.98 13.25 410.98 11.57Q410.98 9.03 411.99 7.6Q412.25 7.23 412.59 6.95Q413.56 6.16 415.17 6.16Q416.64 6.16 417.57 6.83Q417.71 6.93 417.84 7.04Q418.56 7.67 418.94 8.7Q419.39 9.91 419.39 11.57Q419.39 13.25 418.94 14.48Q418.56 15.53 417.82 16.18Q417.7 16.29 417.56 16.38Q416.63 17.06 415.18 17.06Q413.72 17.06 412.8 16.38Q412.68 16.3 412.56 16.2Q411.81 15.55 411.43 14.48ZM463.68 14.48Q463.23 13.25 463.23 11.57Q463.23 9.03 464.24 7.6Q464.51 7.23 464.85 6.95Q465.82 6.16 467.42 6.16Q468.9 6.16 469.82 6.83Q469.97 6.93 470.1 7.04Q470.82 7.67 471.19 8.7Q471.64 9.91 471.64 11.57Q471.64 13.25 471.19 14.48Q470.82 15.53 470.08 16.18Q469.95 16.29 469.82 16.38Q468.88 17.06 467.44 17.06Q465.98 17.06 465.05 16.38Q464.93 16.3 464.82 16.2Q464.07 15.55 463.68 14.48ZM494.2 14.48Q493.75 13.25 493.75 11.57Q493.75 9.03 494.76 7.6Q495.03 7.23 495.37 6.95Q496.34 6.16 497.94 6.16Q499.42 6.16 500.34 6.83Q500.49 6.93 500.62 7.04Q501.34 7.67 501.71 8.7Q502.16 9.91 502.16 11.57Q502.16 13.25 501.71 14.48Q501.33 15.53 500.6 16.18Q500.47 16.29 500.34 16.38Q499.4 17.06 497.96 17.06Q496.5 17.06 495.57 16.38Q495.45 16.3 495.34 16.2Q494.58 15.55 494.2 14.48ZM24.6 6.32L27.9 6.32L27.9 16.77L21.31 16.77Q22.24 15.47 22.94 13.74Q23.63 12 24.06 10.09Q24.48 8.17 24.6 6.32ZM206.64 6.32L209.94 6.32L209.94 16.77L203.35 16.77Q204.28 15.47 204.97 13.74Q205.67 12 206.1 10.09Q206.52 8.17 206.64 6.32ZM256.21 6.32L259.51 6.32L259.51 16.77L252.92 16.77Q253.85 15.47 254.55 13.74Q255.25 12 255.67 10.09Q256.1 8.17 256.21 6.32ZM126.21 10.12Q125.82 9.58 125.82 8.75Q125.82 8.12 126.08 7.63Q126.25 7.32 126.54 7.06Q127.25 6.41 128.88 6.41L132.7 6.41L132.7 11.21L129.25 11.21Q127.6 11.21 126.71 10.6Q126.41 10.4 126.21 10.12ZM282.54 10.12Q282.15 9.58 282.15 8.75Q282.15 8.12 282.41 7.63Q282.58 7.32 282.87 7.06Q283.58 6.41 285.21 6.41L289.03 6.41L289.03 11.21L285.58 11.21Q283.93 11.21 283.04 10.6Q282.74 10.4 282.54 10.12ZM310.95 7.31Q311.25 7.74 311.25 8.37Q311.25 8.93 311 9.33Q310.78 9.68 310.37 9.91Q309.49 10.41 307.78 10.41L304.45 10.41L304.45 6.41L308.15 6.41Q309.8 6.41 310.52 6.89Q310.78 7.07 310.95 7.31ZM433.83 7.31Q434.12 7.74 434.12 8.37Q434.12 8.93 433.88 9.33Q433.66 9.68 433.25 9.91Q432.37 10.41 430.66 10.41L427.33 10.41L427.33 6.41L431.03 6.41Q432.68 6.41 433.4 6.89Q433.66 7.07 433.83 7.31ZM455.51 7.31Q455.81 7.74 455.81 8.37Q455.81 8.93 455.56 9.33Q455.34 9.68 454.93 9.91Q454.06 10.41 452.34 10.41L449.02 10.41L449.02 6.41L452.71 6.41Q454.36 6.41 455.08 6.89Q455.34 7.07 455.51 7.31ZM55.19 11.79L57.31 11.7L57.31 12.98Q57.31 14.76 56.44 15.77Q56.3 15.93 56.13 16.07Q55.93 16.25 55.7 16.39Q54.63 17.1 53.1 17.1Q51.91 17.1 51.18 16.52Q51.05 16.42 50.94 16.29Q50.46 15.73 50.46 14.76Q50.46 13.99 50.79 13.42Q51.06 12.97 51.53 12.64Q52.59 11.89 55.19 11.79ZM116.31 11.79L118.43 11.7L118.43 12.98Q118.43 14.76 117.55 15.77Q117.41 15.93 117.25 16.07Q117.04 16.25 116.82 16.39Q115.75 17.1 114.22 17.1Q113.02 17.1 112.3 16.52Q112.16 16.42 112.06 16.29Q111.57 15.73 111.57 14.76Q111.57 13.99 111.91 13.42Q112.17 12.97 112.64 12.64Q113.71 11.89 116.31 11.79ZM193.24 11.79L195.36 11.7L195.36 12.98Q195.36 14.76 194.48 15.77Q194.35 15.93 194.18 16.07Q193.98 16.25 193.75 16.39Q192.68 17.1 191.15 17.1Q189.96 17.1 189.23 16.52Q189.1 16.42 188.99 16.29Q188.51 15.73 188.51 14.76Q188.51 13.99 188.84 13.42Q189.1 12.97 189.57 12.64Q190.64 11.89 193.24 11.79ZM236.06 11.79L238.18 11.7L238.18 12.98Q238.18 14.76 237.31 15.77Q237.17 15.93 237 16.07Q236.8 16.25 236.57 16.39Q235.5 17.1 233.97 17.1Q232.78 17.1 232.05 16.52Q231.92 16.42 231.81 16.29Q231.33 15.73 231.33 14.76Q231.33 13.99 231.66 13.42Q231.93 12.97 232.4 12.64Q233.46 11.89 236.06 11.79ZM87.76 13.01Q88.2 13.52 88.2 14.42Q88.2 15.27 87.79 15.8Q87.58 16.08 87.25 16.28Q86.3 16.84 84.77 16.84L80.74 16.84L80.74 12.13L84.76 12.13Q86.39 12.13 87.29 12.63Q87.57 12.78 87.76 13.01ZM311.29 13.21Q311.67 13.72 311.67 14.49Q311.67 15.35 311.25 15.87Q311.05 16.12 310.75 16.3Q309.82 16.84 308.07 16.84L304.45 16.84L304.45 12.17L308.02 12.17Q309.8 12.17 310.73 12.72Q311.08 12.92 311.29 13.21ZM434.17 13.21Q434.54 13.72 434.54 14.49Q434.54 15.35 434.13 15.87Q433.93 16.12 433.62 16.3Q432.7 16.84 430.95 16.84L427.33 16.84L427.33 12.17L430.9 12.17Q432.68 12.17 433.61 12.72Q433.96 12.92 434.17 13.21ZM455.86 13.21Q456.23 13.72 456.23 14.49Q456.23 15.35 455.81 15.87Q455.61 16.12 455.31 16.3Q454.39 16.84 452.63 16.84L449.02 16.84L449.02 12.17L452.58 12.17Q454.36 12.17 455.29 12.72Q455.64 12.92 455.86 13.21ZM127.76 48.33Q128.9 46.23 128.9 43.1Q128.9 40.11 127.79 38.09Q127.21 37.03 126.38 36.24Q125.61 35.52 124.64 35.03Q122.59 34 119.76 34L114.16 34L114.16 52.56L119.2 52.56Q122.29 52.56 124.45 51.5Q125.58 50.94 126.43 50.11Q127.21 49.34 127.76 48.33ZM125.8 39.05Q126.63 40.67 126.63 43.17Q126.63 46.82 124.81 48.71Q124.76 48.76 124.71 48.81Q122.78 50.7 118.95 50.7L116.32 50.7L116.32 35.84L119.43 35.84Q121.76 35.84 123.36 36.63Q124.09 36.99 124.66 37.52Q125.34 38.16 125.8 39.05ZM42.4 39.17Q41.13 38.39 39.35 38.39Q37.7 38.39 36.43 39.09Q36.26 39.18 36.11 39.28Q35.84 39.45 35.6 39.65Q34.58 40.48 33.97 41.81Q33.22 43.45 33.22 45.7Q33.22 48 34.04 49.58Q34.58 50.61 35.39 51.32Q35.83 51.7 36.36 51.99Q37.85 52.81 39.86 52.81Q41.27 52.81 42.3 52.59Q43.34 52.38 44.39 51.91L44.39 50.05Q43.3 50.52 42.28 50.77Q41.27 51.01 39.95 51.01Q38.22 51.01 37.12 50.18Q36.85 49.98 36.62 49.72Q35.44 48.44 35.4 45.99L45.01 45.99L45.01 44.68Q45.01 42.79 44.34 41.38Q43.9 40.46 43.21 39.8Q42.84 39.45 42.4 39.17ZM50.85 52.04Q52.29 52.81 54.17 52.81Q55.35 52.81 56.2 52.62Q57.06 52.43 57.76 52.07L57.76 50.19Q57.04 50.51 56.15 50.75Q55.26 50.98 54.15 50.98Q52.77 50.98 51.85 50.35Q51.73 50.27 51.63 50.19Q50.87 49.58 50.47 48.53Q50 47.34 50 45.65Q50 43.88 50.48 42.68Q50.87 41.68 51.6 41.08Q51.75 40.96 51.91 40.85Q52.87 40.23 54.32 40.23Q55.04 40.23 55.87 40.43Q56.71 40.63 57.34 40.89L57.97 39.12Q57.35 38.81 56.38 38.6Q55.41 38.39 54.37 38.39Q52.48 38.39 50.99 39.16Q50.58 39.38 50.21 39.66Q49.27 40.39 48.66 41.54Q47.82 43.15 47.82 45.67Q47.82 48.09 48.62 49.67Q49.21 50.84 50.14 51.57Q50.47 51.83 50.85 52.04ZM81.69 39.17Q80.42 38.39 78.64 38.39Q76.99 38.39 75.72 39.09Q75.55 39.18 75.4 39.28Q75.13 39.45 74.89 39.65Q73.87 40.48 73.27 41.81Q72.51 43.45 72.51 45.7Q72.51 48 73.34 49.58Q73.87 50.61 74.68 51.32Q75.13 51.7 75.65 51.99Q77.14 52.81 79.15 52.81Q80.56 52.81 81.59 52.59Q82.63 52.38 83.68 51.91L83.68 50.05Q82.59 50.52 81.58 50.77Q80.56 51.01 79.24 51.01Q77.51 51.01 76.41 50.18Q76.14 49.98 75.91 49.72Q74.73 48.44 74.69 45.99L84.3 45.99L84.3 44.68Q84.3 42.79 83.63 41.38Q83.19 40.46 82.51 39.8Q82.13 39.45 81.69 39.17ZM96.9 52.04Q98.33 52.81 100.21 52.81Q101.39 52.81 102.25 52.62Q103.11 52.43 103.81 52.07L103.81 50.19Q103.08 50.51 102.19 50.75Q101.3 50.98 100.2 50.98Q98.82 50.98 97.89 50.35Q97.78 50.27 97.67 50.19Q96.92 49.58 96.51 48.53Q96.05 47.34 96.05 45.65Q96.05 43.88 96.52 42.68Q96.92 41.68 97.64 41.08Q97.79 40.96 97.96 40.85Q98.92 40.23 100.36 40.23Q101.09 40.23 101.92 40.43Q102.75 40.63 103.39 40.89L104.02 39.12Q103.4 38.81 102.43 38.6Q101.46 38.39 100.42 38.39Q98.52 38.39 97.04 39.16Q96.62 39.38 96.26 39.66Q95.32 40.39 94.71 41.54Q93.86 43.15 93.86 45.67Q93.86 48.09 94.66 49.67Q95.25 50.84 96.18 51.57Q96.52 51.83 96.9 52.04ZM154.19 50.82Q154.74 49.96 154.74 48.75Q154.74 47.6 154.22 46.87Q153.71 46.14 152.76 45.63Q151.81 45.12 150.5 44.63Q149.19 44.14 148.39 43.77Q147.59 43.4 147.23 42.98Q147.16 42.9 147.1 42.81Q146.87 42.44 146.87 41.92Q146.87 41.58 147 41.3Q147.18 40.88 147.65 40.6Q148.43 40.11 149.89 40.11Q150.49 40.11 151.07 40.2Q151.48 40.26 151.88 40.37Q152.86 40.62 153.72 40.99L154.43 39.3Q153.48 38.88 152.38 38.64Q151.28 38.39 150.03 38.39Q147.71 38.39 146.28 39.33Q145.61 39.77 145.25 40.4Q144.85 41.1 144.85 42.04Q144.85 43.2 145.38 43.92Q145.9 44.65 146.87 45.15Q147.85 45.65 149.18 46.16Q150.52 46.65 151.28 47.06Q152.05 47.48 152.37 47.92Q152.49 48.08 152.57 48.27Q152.69 48.57 152.69 48.92Q152.69 49.43 152.49 49.83Q152.29 50.22 151.88 50.51Q151.07 51.1 149.27 51.1Q148.63 51.1 148 51Q147.42 50.92 146.85 50.75Q145.67 50.41 144.82 49.99L144.82 51.93Q145.62 52.35 146.69 52.58Q147.76 52.81 149.22 52.81Q150.93 52.81 152.17 52.35Q153.34 51.92 154 51.08Q154.04 51.04 154.07 50.99Q154.13 50.9 154.19 50.82ZM169.68 48.63Q170.13 47.29 170.13 45.57Q170.13 43.3 169.33 41.69Q168.75 40.52 167.84 39.76Q167.5 39.47 167.11 39.24Q167.04 39.2 166.98 39.16Q165.59 38.39 163.78 38.39Q161.78 38.39 160.34 39.23Q159.9 39.49 159.51 39.83Q158.66 40.57 158.13 41.68Q157.35 43.29 157.35 45.57Q157.35 47.29 157.82 48.63Q158.28 49.98 159.12 50.91Q159.52 51.34 159.99 51.68Q160.52 52.06 161.13 52.32Q162.29 52.81 163.69 52.81Q165.19 52.81 166.37 52.32Q167.13 52.01 167.75 51.52Q168.1 51.24 168.4 50.91Q169.24 49.98 169.68 48.63ZM184.1 39.6Q182.83 38.39 180.36 38.39Q179.42 38.39 178.57 38.65Q177.8 38.88 177.16 39.32Q177.09 39.36 177.03 39.41Q176.74 39.62 176.5 39.87Q176.16 40.22 175.9 40.65L175.79 40.65L175.47 38.64L173.77 38.64L173.77 52.56L175.88 52.56L175.88 45.27Q175.88 42.78 176.82 41.47Q176.93 41.32 177.06 41.18Q178.03 40.16 180.07 40.16Q181.62 40.16 182.41 40.94Q182.46 40.98 182.5 41.03Q183.29 41.89 183.29 43.63L183.29 52.56L185.37 52.56L185.37 43.49Q185.37 40.81 184.1 39.6ZM10.53 43.9Q11.05 43.21 11.05 42.13Q11.05 40.89 10.45 40.14Q10.42 40.11 10.39 40.08L10.39 40.07Q9.73 39.31 8.58 38.98Q7.43 38.64 5.94 38.64L0 38.64L0 52.56L5.99 52.56Q7.94 52.56 9.16 52.04Q10.38 51.51 10.95 50.6Q11.05 50.44 11.13 50.27Q11.52 49.48 11.52 48.49Q11.52 47.24 10.91 46.51Q10.76 46.34 10.58 46.19Q10.38 46.04 10.18 45.91Q9.37 45.4 8.32 45.26L8.32 45.15Q9.5 44.91 10.26 44.2Q10.27 44.19 10.29 44.17Q10.42 44.04 10.53 43.9ZM29.61 52.56L29.61 38.64L26.79 38.64L22.24 50.02L17.74 38.64L14.91 38.64L14.91 52.56L16.83 52.56L16.83 43.57Q16.83 42.93 16.81 42.35Q16.79 41.78 16.75 41.19L16.83 41.19L21.34 52.56L23.13 52.56L27.75 41.19L27.82 41.19Q27.77 41.78 27.74 42.35Q27.71 42.93 27.71 43.49L27.71 52.56L29.61 52.56ZM65.95 40.43L70.53 40.43L70.53 38.64L59.35 38.64L59.35 40.43L63.87 40.43L63.87 52.56L65.95 52.56L65.95 40.43ZM132.78 38.64L130.52 38.64L136.09 52.58L135.33 54.54Q135.02 55.32 134.6 55.89Q134.23 56.41 133.72 56.7Q133.67 56.73 133.61 56.76Q133.03 57.06 132.24 57.06Q131.81 57.06 131.41 57.01Q131.01 56.96 130.73 56.9L130.73 58.59Q131.06 58.67 131.52 58.74Q131.98 58.81 132.57 58.81Q133.87 58.81 134.78 58.3Q134.87 58.25 134.95 58.2Q135.75 57.7 136.34 56.83Q136.98 55.88 137.46 54.6L143.52 38.64L141.24 38.64L138.34 46.7Q137.96 47.78 137.63 48.82Q137.3 49.85 137.12 50.49L137.03 50.49Q136.93 49.93 136.75 49.33Q136.57 48.73 136.34 48.08Q136.11 47.43 135.85 46.72L132.78 38.64ZM37.33 40.63Q38.17 40.11 39.33 40.11Q40.52 40.11 41.28 40.64Q41.45 40.76 41.61 40.9Q42.13 41.38 42.42 42.11Q42.79 43.06 42.8 44.3L35.44 44.3Q35.63 42.32 36.63 41.22Q36.95 40.87 37.33 40.63ZM76.63 40.63Q77.46 40.11 78.62 40.11Q79.81 40.11 80.57 40.64Q80.75 40.76 80.9 40.9Q81.42 41.38 81.71 42.11Q82.08 43.06 82.1 44.3L74.73 44.3Q74.92 42.32 75.93 41.22Q76.24 40.87 76.63 40.63ZM159.98 48.48Q159.54 47.25 159.54 45.57Q159.54 43.03 160.55 41.6Q160.81 41.23 161.15 40.95Q162.12 40.16 163.73 40.16Q165.2 40.16 166.13 40.83Q166.27 40.93 166.4 41.04Q167.12 41.67 167.5 42.7Q167.94 43.91 167.94 45.57Q167.94 47.25 167.5 48.48Q167.12 49.53 166.38 50.18Q166.26 50.29 166.12 50.38Q165.19 51.06 163.74 51.06Q162.28 51.06 161.35 50.38Q161.23 50.3 161.12 50.2Q160.37 49.55 159.98 48.48ZM8.61 41.31Q8.91 41.74 8.91 42.37Q8.91 42.93 8.66 43.33Q8.44 43.68 8.03 43.91Q7.16 44.41 5.44 44.41L2.12 44.41L2.12 40.41L5.81 40.41Q7.46 40.41 8.18 40.89Q8.44 41.07 8.61 41.31ZM8.96 47.21Q9.33 47.72 9.33 48.49Q9.33 49.35 8.91 49.87Q8.71 50.12 8.41 50.3Q7.49 50.84 5.73 50.84L2.12 50.84L2.12 46.17L5.68 46.17Q7.46 46.17 8.39 46.72Q8.74 46.92 8.96 47.21Z" fill="#111111" fill-opacity="1.000000" fill-rule="evenodd"/>
</svg>
