<svg width="551.268799" height="87.020020" viewBox="0 0 551.269 87.02" fill="none" xmlns="http://www.w3.org/2000/svg" xmlns:xlink="http://www.w3.org/1999/xlink">
	<desc>
			Created with Pixso.
	</desc>
	<defs/>
	<path id="Уникальные технологии  для ухода за волосами" d="M16 32.19L32.79 -8.02e-5L27.55 -8.02e-5L16.97 20.65L5.61 -8.02e-5L3.91e-5 -8.02e-5L14.35 25.34L10.71 32.19L16 32.19ZM132.26 32.19L136.63 32.19L136.63 9.19L132.49 9.19L132.49 12.92C131.51 11.6 130.33 10.57 128.95 9.84C127.57 9.1 126.08 8.73 124.49 8.73C122.46 8.73 120.62 9.26 118.97 10.3C117.31 11.31 116.01 12.72 115.06 14.53Q115.04 14.57 115.02 14.61Q113.63 17.29 113.63 20.69Q113.63 24.1 115.02 26.78Q115.04 26.82 115.06 26.86C116.01 28.67 117.31 30.09 118.97 31.14C120.62 32.15 122.46 32.65 124.49 32.65C126.02 32.65 127.46 32.32 128.81 31.64C130.16 30.94 131.31 29.97 132.26 28.74L132.26 32.19ZM274.96 10.25C273.21 9.24 271.16 8.73 268.8 8.73C266.56 8.73 264.53 9.26 262.72 10.3C260.95 11.31 259.55 12.74 258.54 14.58C257.53 16.39 257.02 18.43 257.02 20.69C257.02 22.96 257.53 25.02 258.54 26.86C259.55 28.67 260.96 30.09 262.77 31.14C264.58 32.15 266.6 32.65 268.84 32.65C271.36 32.65 273.61 31.98 275.6 30.63C277.6 29.25 278.96 27.49 279.7 25.34L275.19 25.34Q274.56 26.44 273.63 27.17Q271.81 28.61 268.84 28.61Q267.41 28.61 266.16 28.13Q265.04 27.71 264.06 26.9Q263.1 26.08 262.49 25.05Q261.82 23.9 261.57 22.49L280.43 22.49C280.47 22.18 280.48 21.71 280.48 21.06C280.48 18.58 280.01 16.42 279.05 14.58C278.1 12.71 276.74 11.26 274.96 10.25ZM335.47 10.25C333.72 9.24 331.67 8.73 329.31 8.73C327.07 8.73 325.04 9.26 323.23 10.3C321.46 11.31 320.06 12.74 319.05 14.58C318.04 16.39 317.53 18.43 317.53 20.69C317.53 22.96 318.04 25.02 319.05 26.86C320.06 28.67 321.47 30.09 323.28 31.14C325.09 32.15 327.11 32.65 329.35 32.65C331.87 32.65 334.12 31.98 336.11 30.63C338.11 29.25 339.47 27.49 340.21 25.34L335.7 25.34Q335.07 26.44 334.14 27.17Q332.32 28.61 329.35 28.61Q327.92 28.61 326.67 28.13Q325.54 27.71 324.57 26.9Q323.61 26.08 323 25.05Q322.33 23.9 322.08 22.49L340.94 22.49C340.97 22.18 340.99 21.71 340.99 21.06C340.99 18.58 340.51 16.42 339.56 14.58C338.61 12.71 337.25 11.26 335.47 10.25ZM402.44 31.09C404.31 32.13 406.38 32.65 408.65 32.65C410.89 32.65 412.93 32.13 414.77 31.09C416.64 30.02 418.11 28.58 419.18 26.77C420.26 24.93 420.79 22.9 420.79 20.69C420.79 18.49 420.26 16.48 419.18 14.67C418.11 12.83 416.64 11.39 414.77 10.34C412.93 9.27 410.89 8.73 408.65 8.73C406.38 8.73 404.31 9.27 402.44 10.34C400.57 11.39 399.1 12.83 398.02 14.67C396.95 16.48 396.41 18.49 396.41 20.69C396.41 22.9 396.95 24.93 398.02 26.77C399.1 28.58 400.57 30.02 402.44 31.09ZM457.47 31.09C459.34 32.13 461.41 32.65 463.68 32.65C465.92 32.65 467.96 32.13 469.8 31.09C471.67 30.02 473.14 28.58 474.21 26.77C475.29 24.93 475.82 22.9 475.82 20.69C475.82 18.49 475.29 16.48 474.21 14.67C473.14 12.83 471.67 11.39 469.8 10.34C467.96 9.27 465.92 8.73 463.68 8.73C461.41 8.73 459.34 9.27 457.47 10.34C455.6 11.39 454.13 12.83 453.05 14.67C451.98 16.48 451.44 18.49 451.44 20.69C451.44 22.9 451.98 24.93 453.05 26.77C454.13 28.58 455.6 30.02 457.47 31.09ZM55.45 32.19L55.45 9.19L51.08 9.19L51.08 18.62L39.12 18.62L39.12 9.19L34.75 9.19L34.75 32.19L39.12 32.19L39.12 22.76L51.08 22.76L51.08 32.19L55.45 32.19ZM67.2 9.19L62.83 9.19L62.83 32.19L67.66 32.19L79.62 15.08L79.62 32.19L83.99 32.19L83.99 9.19L79.16 9.19L67.2 26.31L67.2 9.19ZM95.63 24.56L98.9 21.52L107.36 32.19L113.2 32.19L102.16 18.49L112.24 9.19L106.44 9.19L95.63 19.5L95.63 9.19L91.35 9.19L91.35 32.19L95.63 32.19L95.63 24.56ZM160.15 32.24L164.52 32.24L164.52 9.19L145.89 9.19L145.89 17.11Q145.89 21.71 145.56 24.1C145.35 25.66 144.98 26.75 144.46 27.36C143.97 27.98 143.23 28.28 142.25 28.28C141.82 28.28 141.33 28.24 140.78 28.15L140.78 32.19C141.46 32.35 142.08 32.42 142.67 32.42C144.84 32.42 146.48 31.81 147.59 30.58C148.69 29.33 149.41 27.66 149.75 25.57C150.12 23.49 150.3 20.8 150.3 17.52L150.3 13.33L160.15 13.33L160.15 32.24ZM188.92 20.28C187.57 18.96 185.68 18.3 183.26 18.3L176.27 18.3L176.27 9.19L171.9 9.19L171.9 32.19L183.26 32.19C185.68 32.19 187.57 31.55 188.92 30.26Q189.76 29.46 190.26 28.48Q190.99 27.05 190.99 25.25C190.99 23.22 190.3 21.57 188.92 20.28ZM216.77 32.19L216.77 9.19L212.4 9.19L212.4 18.62L200.44 18.62L200.44 9.19L196.07 9.19L196.07 32.19L200.44 32.19L200.44 22.76L212.4 22.76L212.4 32.19L216.77 32.19ZM241.16 20.28C239.81 18.96 237.93 18.3 235.5 18.3L228.51 18.3L228.51 9.19L224.14 9.19L224.14 32.19L235.5 32.19C237.93 32.19 239.81 31.55 241.16 30.26Q242 29.46 242.5 28.48Q243.23 27.05 243.23 25.25C243.23 23.22 242.54 21.57 241.16 20.28ZM251.74 32.19L251.74 9.19L247.37 9.19L247.37 32.19L251.74 32.19ZM308.1 13.33L316.15 13.33L316.15 9.19L295.68 9.19L295.68 13.33L303.73 13.33L303.73 32.19L308.1 32.19L308.1 13.33ZM354.17 23.5L360.84 32.19L366.27 32.19L357.07 20.37L365.86 9.19L360.43 9.19L354.26 17.43L347.96 9.19L342.53 9.19L351.37 20.51L342.17 32.19L347.46 32.19L354.17 23.5ZM391.11 32.19L391.11 9.19L386.74 9.19L386.74 18.62L374.78 18.62L374.78 9.19L370.41 9.19L370.41 32.19L374.78 32.19L374.78 22.76L386.74 22.76L386.74 32.19L391.11 32.19ZM441.76 32.24L446.13 32.24L446.13 9.19L427.5 9.19L427.5 17.11C427.5 20.17 427.39 22.5 427.18 24.1C426.97 25.66 426.6 26.75 426.08 27.36C425.59 27.98 424.85 28.28 423.87 28.28C423.44 28.28 422.95 28.24 422.4 28.15L422.4 32.19C423.07 32.35 423.7 32.42 424.28 32.42C426.46 32.42 428.1 31.81 429.2 30.58C430.31 29.33 431.03 27.66 431.37 25.57C431.73 23.49 431.92 20.8 431.92 17.52L431.92 13.33L441.76 13.33L441.76 32.24ZM485.46 13.33L497.19 13.33L497.19 9.19L481.09 9.19L481.09 32.19L485.46 32.19L485.46 13.33ZM505.95 9.19L501.58 9.19L501.58 32.19L506.41 32.19L518.37 15.08L518.37 32.19L522.74 32.19L522.74 9.19L517.91 9.19L505.95 26.31L505.95 9.19ZM534.47 9.19L530.1 9.19L530.1 32.19L534.93 32.19L546.89 15.08L546.89 32.19L551.26 32.19L551.26 9.19L546.43 9.19L534.47 26.31L534.47 9.19ZM264.01 14.3C265.33 13.17 266.9 12.6 268.7 12.6C270.6 12.6 272.2 13.15 273.49 14.25C274.81 15.36 275.56 16.83 275.74 18.67L261.62 18.67Q261.9 17.04 262.74 15.76Q263.26 14.96 264.01 14.3ZM324.52 14.3C325.84 13.17 327.4 12.6 329.21 12.6C331.12 12.6 332.71 13.15 334 14.25C335.32 15.36 336.07 16.83 336.25 18.67L322.13 18.67Q322.41 17.04 323.25 15.76Q323.77 14.96 324.52 14.3ZM128.9 27.59C127.8 28.27 126.57 28.61 125.22 28.61C123.87 28.61 122.66 28.27 121.59 27.59C120.51 26.92 119.67 25.98 119.06 24.79C118.44 23.56 118.14 22.2 118.14 20.69C118.14 19.19 118.44 17.84 119.06 16.65C119.67 15.42 120.51 14.47 121.59 13.79C122.66 13.12 123.87 12.78 125.22 12.78Q126.52 12.78 127.67 13.2Q128.31 13.43 128.9 13.79C130 14.47 130.86 15.42 131.48 16.65C132.09 17.84 132.4 19.19 132.4 20.69C132.4 22.2 132.09 23.56 131.48 24.79C130.86 25.98 130 26.92 128.9 27.59ZM412.51 27.59C411.35 28.27 410.06 28.61 408.65 28.61C407.21 28.61 405.89 28.27 404.69 27.59C403.53 26.89 402.61 25.94 401.93 24.74C401.26 23.52 400.92 22.17 400.92 20.69C400.92 19.22 401.26 17.89 401.93 16.69C402.61 15.47 403.53 14.52 404.69 13.84Q405.35 13.45 406.06 13.21Q407.28 12.78 408.65 12.78C410.06 12.78 411.35 13.14 412.51 13.84C413.68 14.52 414.6 15.47 415.27 16.69C415.95 17.89 416.29 19.22 416.29 20.69C416.29 22.17 415.95 23.52 415.27 24.74C414.6 25.94 413.68 26.89 412.51 27.59ZM467.54 27.59C466.38 28.27 465.09 28.61 463.68 28.61C462.24 28.61 460.92 28.27 459.72 27.59C458.56 26.89 457.64 25.94 456.96 24.74C456.29 23.52 455.95 22.17 455.95 20.69C455.95 19.22 456.29 17.89 456.96 16.69C457.64 15.47 458.56 14.52 459.72 13.84Q460.38 13.45 461.08 13.21Q462.31 12.78 463.68 12.78C465.09 12.78 466.38 13.14 467.54 13.84C468.71 14.52 469.63 15.47 470.3 16.69C470.98 17.89 471.31 19.22 471.31 20.69C471.31 22.17 470.98 23.52 470.3 24.74C469.63 25.94 468.71 26.89 467.54 27.59ZM185.51 27.59Q184.55 28.38 182.66 28.38L176.27 28.38L176.27 22.12L182.66 22.12C183.92 22.12 184.87 22.38 185.51 22.9C186.16 23.42 186.48 24.21 186.48 25.25C186.48 26.29 186.16 27.07 185.51 27.59ZM237.76 27.59Q236.79 28.38 234.91 28.38L228.51 28.38L228.51 22.12L234.91 22.12C236.16 22.12 237.11 22.38 237.76 22.9C238.4 23.42 238.72 24.21 238.72 25.25C238.72 26.29 238.4 27.07 237.76 27.59ZM151.82 78.09C153.69 79.13 155.76 79.65 158.03 79.65C160.27 79.65 162.31 79.13 164.15 78.09C166.02 77.02 167.49 75.58 168.56 73.77C169.64 71.93 170.17 69.9 170.17 67.69Q170.17 65.47 169.45 63.52Q169.09 62.56 168.56 61.67C167.49 59.83 166.02 58.39 164.15 57.34C162.31 56.27 160.27 55.73 158.03 55.73C155.76 55.73 153.69 56.27 151.82 57.34C149.95 58.39 148.48 59.83 147.4 61.67Q146.88 62.56 146.52 63.52Q145.79 65.47 145.79 67.69C145.79 69.9 146.33 71.93 147.4 73.77C148.48 75.58 149.95 77.02 151.82 78.09ZM218.78 79.19L223.15 79.19L223.15 56.19L219.01 56.19L219.01 59.92C218.03 58.6 216.85 57.57 215.47 56.84C214.09 56.1 212.6 55.73 211.01 55.73C208.98 55.73 207.14 56.26 205.49 57.3C203.83 58.31 202.53 59.72 201.58 61.53C200.62 63.34 200.15 65.39 200.15 67.69C200.15 69.99 200.62 72.05 201.58 73.86C202.53 75.67 203.83 77.09 205.49 78.14C207.14 79.15 208.98 79.65 211.01 79.65C212.54 79.65 213.98 79.32 215.33 78.64C216.68 77.94 217.83 76.97 218.78 75.74L218.78 79.19ZM247.46 74.92C246.39 74.27 245.65 73.28 245.25 71.93L240.88 71.93C241.19 74.32 242.32 76.2 244.29 77.58C246.25 78.96 248.64 79.65 251.46 79.65C254.59 79.65 257.06 79.01 258.87 77.72C260.71 76.43 261.63 74.73 261.63 72.62C261.63 70.16 260.36 68.43 257.81 67.42C258.91 66.9 259.74 66.21 260.29 65.35C260.85 64.46 261.12 63.51 261.12 62.5Q261.12 61.21 260.64 60.13Q259.99 58.68 258.45 57.62C256.68 56.36 254.35 55.73 251.46 55.73C248.86 55.73 246.6 56.39 244.7 57.71C242.8 59 241.65 60.79 241.25 63.09L245.57 63.09C245.88 61.84 246.54 60.92 247.55 60.33C248.6 59.75 249.9 59.46 251.46 59.46C253.09 59.46 254.36 59.77 255.28 60.38C256.23 60.99 256.71 61.82 256.71 62.86C256.71 63.69 256.35 64.4 255.65 64.98C254.97 65.56 253.84 65.85 252.24 65.85L248.43 65.85L248.43 69.63L252.43 69.63C254.21 69.63 255.46 69.93 256.2 70.55C256.94 71.13 257.3 71.83 257.3 72.66C257.3 73.61 256.8 74.4 255.79 75.01C254.77 75.59 253.44 75.88 251.78 75.88C250.01 75.88 248.56 75.56 247.46 74.92ZM283.38 79.19L287.75 79.19L287.75 56.19L283.61 56.19L283.61 59.92C282.63 58.6 281.45 57.57 280.07 56.84C278.69 56.1 277.2 55.73 275.6 55.73C273.58 55.73 271.74 56.26 270.08 57.3C268.43 58.31 267.12 59.72 266.17 61.53C265.22 63.34 264.75 65.39 264.75 67.69C264.75 69.99 265.22 72.05 266.17 73.86C267.12 75.67 268.43 77.09 270.08 78.14C271.74 79.15 273.58 79.65 275.6 79.65C277.14 79.65 278.58 79.32 279.93 78.64C281.28 77.94 282.43 76.97 283.38 75.74L283.38 79.19ZM338.39 78.83Q340.55 79.65 343.02 79.65C345.26 79.65 347.3 79.13 349.14 78.09C351.01 77.02 352.48 75.58 353.55 73.77C354.63 71.93 355.16 69.9 355.16 67.69C355.16 65.49 354.63 63.48 353.55 61.67C352.48 59.83 351.01 58.39 349.14 57.34C347.3 56.27 345.26 55.73 343.02 55.73C340.75 55.73 338.68 56.27 336.81 57.34C334.94 58.39 333.47 59.83 332.39 61.67C331.32 63.48 330.78 65.49 330.78 67.69C330.78 69.9 331.32 71.93 332.39 73.77C333.47 75.58 334.94 77.02 336.81 78.09Q337.58 78.52 338.39 78.83ZM393.42 78.83Q395.58 79.65 398.05 79.65C400.29 79.65 402.33 79.13 404.17 78.09C406.04 77.02 407.51 75.58 408.58 73.77C409.65 71.93 410.19 69.9 410.19 67.69C410.19 65.49 409.65 63.48 408.58 61.67C407.51 59.83 406.04 58.39 404.17 57.34C402.33 56.27 400.29 55.73 398.05 55.73C395.78 55.73 393.71 56.27 391.84 57.34C389.97 58.39 388.49 59.83 387.42 61.67C386.35 63.48 385.81 65.49 385.81 67.69C385.81 69.9 386.35 71.93 387.42 73.77C388.49 75.58 389.97 77.02 391.84 78.09Q392.61 78.52 393.42 78.83ZM415.23 61.67C414.15 63.48 413.62 65.49 413.62 67.69C413.62 69.9 414.15 71.93 415.23 73.77C416.3 75.58 417.77 77.02 419.64 78.09Q420.41 78.52 421.23 78.83Q423.38 79.65 425.85 79.65Q427.93 79.65 429.78 79Q431.32 78.45 432.71 77.45C434.76 75.94 436.11 74 436.76 71.6L431.97 71.6C431.45 72.83 430.61 73.81 429.44 74.55C428.31 75.25 427.03 75.61 425.62 75.61C424.18 75.61 422.89 75.27 421.76 74.59C420.63 73.89 419.74 72.94 419.09 71.74C418.45 70.52 418.13 69.17 418.13 67.69C418.13 66.22 418.45 64.89 419.09 63.69C419.74 62.47 420.63 61.52 421.76 60.84C422.89 60.14 424.18 59.78 425.62 59.78C427.03 59.78 428.31 60.15 429.44 60.89C430.61 61.59 431.45 62.56 431.97 63.78L436.76 63.78Q436.32 62.15 435.44 60.8Q434.39 59.19 432.71 57.99C430.68 56.49 428.4 55.73 425.85 55.73C423.58 55.73 421.51 56.27 419.64 57.34C417.77 58.39 416.3 59.83 415.23 61.67ZM458.39 79.19L462.76 79.19L462.76 56.19L458.62 56.19L458.62 59.92C457.64 58.6 456.46 57.57 455.08 56.84C453.7 56.1 452.21 55.73 450.62 55.73C448.59 55.73 446.75 56.26 445.1 57.3C443.44 58.31 442.14 59.72 441.19 61.53C440.24 63.34 439.76 65.39 439.76 67.69C439.76 69.99 440.24 72.05 441.19 73.86C442.14 75.67 443.44 77.09 445.1 78.14C446.75 79.15 448.59 79.65 450.62 79.65C452.15 79.65 453.59 79.32 454.94 78.64C456.29 77.94 457.44 76.97 458.39 75.74L458.39 79.19ZM26.49 84.25L26.49 75.05L23.27 75.05L23.27 56.19L4.37 56.19L4.37 64.47Q4.37 72.29 3.4 75.05L0.46 75.05L0.46 84.25L4.69 84.25L4.69 79.19L22.26 79.19L22.26 84.25L26.49 84.25ZM47.26 79.24L51.63 79.24L51.63 56.19L33 56.19L33 64.11Q33 68.71 32.68 71.1C32.46 72.66 32.09 73.75 31.57 74.36C31.08 74.98 30.34 75.28 29.36 75.28C28.93 75.28 28.44 75.24 27.89 75.15L27.89 79.19C28.57 79.35 29.19 79.42 29.78 79.42Q32.65 79.42 34.28 78Q34.5 77.81 34.7 77.58C35.8 76.33 36.52 74.66 36.86 72.57C37.23 70.49 37.41 67.8 37.41 64.52L37.41 60.33L47.26 60.33L47.26 79.24ZM72.39 79.19L76.76 79.19L76.76 56.19L65.4 56.19Q62.25 56.19 60.27 57.72Q59.97 57.95 59.7 58.22C58.35 59.57 57.67 61.29 57.67 63.37C57.67 65.06 58.13 66.53 59.05 67.79C59.97 69.01 61.26 69.84 62.92 70.27L55.56 79.19L60.8 79.19L67.89 70.55L72.39 70.55L72.39 79.19ZM106.12 87.01L119.6 56.19L114.77 56.19L107.32 74.13L98.99 56.19L93.79 56.19L105.02 78.78L101.38 87.01L106.12 87.01ZM132.53 70.5L139.2 79.19L144.62 79.19L135.42 67.37L144.21 56.19L138.78 56.19L132.62 64.43L126.32 56.19L120.89 56.19L129.72 67.51L120.52 79.19L125.81 79.19L132.53 70.5ZM198.05 84.25L198.05 75.05L194.83 75.05L194.83 56.19L175.92 56.19L175.92 64.47C175.92 69.69 175.6 73.21 174.96 75.05L172.01 75.05L172.01 84.25L176.24 84.25L176.24 79.19L193.82 79.19L193.82 84.25L198.05 84.25ZM327.33 72.71C327.33 70.35 326.2 68.6 323.93 67.46C324.97 66.94 325.74 66.25 326.23 65.39C326.75 64.51 327.01 63.52 327.01 62.45C327.01 60.64 326.33 59.15 324.98 57.99Q324.87 57.89 324.75 57.79Q322.81 56.19 319.56 56.19L308.01 56.19L308.01 79.19L319.56 79.19C321.98 79.19 323.88 78.6 325.26 77.4C326.64 76.17 327.33 74.61 327.33 72.71ZM376.13 79.24L380.5 79.24L380.5 56.19L361.87 56.19L361.87 64.11C361.87 67.17 361.76 69.5 361.55 71.1C361.33 72.66 360.97 73.75 360.45 74.36C359.95 74.98 359.22 75.28 358.24 75.28C357.81 75.28 357.32 75.24 356.77 75.15L356.77 79.19C357.44 79.35 358.07 79.42 358.65 79.42C360.83 79.42 362.47 78.81 363.57 77.58C364.68 76.33 365.4 74.66 365.74 72.57C366.1 70.49 366.29 67.8 366.29 64.52L366.29 60.33L376.13 60.33L376.13 79.24ZM494.28 79.19L498.65 79.19L498.65 56.19L492.77 56.19L484.49 71.24L476.11 56.19L470.13 56.19L470.13 79.19L474.5 79.19L474.5 61.58L484.39 79.19L494.28 61.48L494.28 79.19ZM510.4 56.19L506.03 56.19L506.03 79.19L510.86 79.19L522.82 62.08L522.82 79.19L527.19 79.19L527.19 56.19L522.36 56.19L510.4 73.31L510.4 56.19ZM161.89 74.59C160.73 75.27 159.44 75.61 158.03 75.61C156.59 75.61 155.27 75.27 154.07 74.59C152.91 73.89 151.99 72.94 151.31 71.74C150.64 70.52 150.3 69.17 150.3 67.69C150.3 66.22 150.64 64.89 151.31 63.69Q151.96 62.53 152.89 61.69Q153.44 61.21 154.07 60.84C155.27 60.14 156.59 59.78 158.03 59.78C159.44 59.78 160.73 60.14 161.89 60.84Q162.53 61.21 163.07 61.69Q164.01 62.53 164.65 63.69C165.33 64.89 165.67 66.22 165.67 67.69C165.67 69.17 165.33 70.52 164.65 71.74C163.98 72.94 163.06 73.89 161.89 74.59ZM214.19 75.19Q213.04 75.61 211.74 75.61Q210.32 75.61 209.11 75.11Q208.59 74.9 208.11 74.59C207.03 73.92 206.19 72.98 205.58 71.79C204.96 70.56 204.66 69.2 204.66 67.69C204.66 66.19 204.96 64.84 205.58 63.65C206.19 62.42 207.03 61.47 208.11 60.79Q208.59 60.49 209.11 60.28Q210.32 59.78 211.74 59.78Q213.04 59.78 214.19 60.2Q214.83 60.43 215.42 60.79C216.53 61.47 217.38 62.42 218 63.65C218.61 64.84 218.92 66.19 218.92 67.69C218.92 69.2 218.61 70.56 218 71.79C217.38 72.98 216.53 73.92 215.42 74.59Q214.83 74.96 214.19 75.19ZM280.02 74.59C278.92 75.27 277.69 75.61 276.34 75.61Q274.92 75.61 273.71 75.11Q273.19 74.9 272.71 74.59C271.63 73.92 270.79 72.98 270.18 71.79C269.56 70.56 269.26 69.2 269.26 67.69C269.26 66.19 269.56 64.84 270.18 63.65C270.79 62.42 271.63 61.47 272.71 60.79Q273.19 60.49 273.71 60.28Q274.92 59.78 276.34 59.78C277.69 59.78 278.92 60.12 280.02 60.79C281.12 61.47 281.98 62.42 282.6 63.65C283.21 64.84 283.51 66.19 283.51 67.69C283.51 69.2 283.21 70.56 282.6 71.79Q282.02 72.92 281.15 73.74Q280.63 74.22 280.02 74.59ZM346.88 74.59C345.72 75.27 344.43 75.61 343.02 75.61Q341.53 75.61 340.22 75.13Q339.63 74.91 339.06 74.59C337.9 73.89 336.98 72.94 336.3 71.74C335.63 70.52 335.29 69.17 335.29 67.69C335.29 66.22 335.63 64.89 336.3 63.69C336.98 62.47 337.9 61.52 339.06 60.84C340.26 60.14 341.58 59.78 343.02 59.78C344.43 59.78 345.72 60.14 346.88 60.84C348.05 61.52 348.97 62.47 349.64 63.69C350.32 64.89 350.65 66.22 350.65 67.69C350.65 69.17 350.32 70.52 349.64 71.74C348.97 72.94 348.05 73.89 346.88 74.59ZM401.91 74.59C400.75 75.27 399.46 75.61 398.05 75.61Q396.56 75.61 395.25 75.13Q394.65 74.91 394.09 74.59C392.93 73.89 392.01 72.94 391.33 71.74C390.66 70.52 390.32 69.17 390.32 67.69C390.32 66.22 390.66 64.89 391.33 63.69C392.01 62.47 392.93 61.52 394.09 60.84C395.29 60.14 396.61 59.78 398.05 59.78C399.46 59.78 400.75 60.14 401.91 60.84C403.08 61.52 404 62.47 404.67 63.69C405.35 64.89 405.68 66.22 405.68 67.69C405.68 69.17 405.35 70.52 404.67 71.74C404 72.94 403.08 73.89 401.91 74.59ZM455.03 74.59C453.93 75.27 452.7 75.61 451.35 75.61Q449.94 75.61 448.72 75.11Q448.2 74.9 447.72 74.59C446.65 73.92 445.8 72.98 445.19 71.79C444.58 70.56 444.27 69.2 444.27 67.69C444.27 66.19 444.58 64.84 445.19 63.65C445.8 62.42 446.65 61.47 447.72 60.79Q448.2 60.49 448.72 60.28Q449.94 59.78 451.35 59.78C452.7 59.78 453.93 60.12 455.03 60.79C456.14 61.47 457 62.42 457.61 63.65C458.22 64.84 458.53 66.19 458.53 67.69C458.53 69.2 458.22 70.56 457.61 71.79Q457.03 72.92 456.16 73.74Q455.65 74.22 455.03 74.59ZM321.63 64.98C321.04 65.5 320.19 65.76 319.05 65.76L312.29 65.76L312.29 59.87L319.05 59.87C321.35 59.87 322.5 60.81 322.5 62.68C322.5 63.69 322.21 64.46 321.63 64.98ZM66 60.1L72.39 60.1L72.39 66.73L66 66.73C64.74 66.73 63.79 66.45 63.15 65.9C62.5 65.32 62.18 64.49 62.18 63.42C62.18 62.34 62.5 61.53 63.15 60.98C63.79 60.4 64.74 60.1 66 60.1ZM18.9 60.24L18.9 75.15L7.68 75.15C8.38 72.54 8.74 68.94 8.74 64.34L8.74 60.24L18.9 60.24ZM190.46 60.24L190.46 75.15L179.23 75.15C179.94 72.54 180.29 68.94 180.29 64.34L180.29 60.24L190.46 60.24ZM321.86 74.73C321.24 75.25 320.32 75.51 319.1 75.51L312.29 75.51L312.29 69.44L319.1 69.44C320.32 69.44 321.24 69.7 321.86 70.22C322.5 70.72 322.82 71.44 322.82 72.39C322.82 73.4 322.5 74.18 321.86 74.73Z" fill="#111111" fill-opacity="1.000000" fill-rule="evenodd"/>
</svg>
