<svg width="265.500000" height="64.000000" viewBox="0 0 265.5 64" fill="none" xmlns="http://www.w3.org/2000/svg" xmlns:xlink="http://www.w3.org/1999/xlink">
	<desc>
			Created with Pixso.
	</desc>
	<defs>
		<clipPath id="clip11_3843">
			<rect id="Stroke 2/shopping-bag" rx="0.000000" width="29.000000" height="29.000000" transform="translate(236.000000 15.500000)" fill="white" fill-opacity="0"/>
		</clipPath>
	</defs>
	<rect id="подробнее" rx="2.500000" width="234.000000" height="63.000000" transform="translate(0.500000 0.500000)" fill="#C5358C" fill-opacity="1.000000"/>
	<path id="подробнее" d="M128.23 29.1Q127.7 31.04 127.7 33.78Q127.7 35.68 128.1 37.16Q128.49 38.64 129.23 39.66Q129.78 40.41 130.5 40.89Q130.77 41.06 131.05 41.2Q132.12 41.73 133.48 41.73Q135.24 41.73 136.54 41.01Q136.92 40.8 137.24 40.53Q138.05 39.87 138.56 38.86Q139.28 37.43 139.28 35.33Q139.28 33.58 138.72 32.28Q138.33 31.38 137.67 30.76Q137.38 30.48 137.04 30.26Q135.93 29.54 134.27 29.54Q133.21 29.54 132.37 29.88Q131.52 30.21 130.91 30.71Q130.3 31.22 129.95 31.73L129.81 31.73Q129.89 29.95 130.31 28.78Q130.73 27.61 131.45 26.94Q131.65 26.75 131.89 26.59Q132.45 26.19 133.16 26Q133.71 25.84 134.43 25.68Q135.14 25.52 135.95 25.38Q136.76 25.23 137.57 25.09Q138.38 24.96 139.12 24.85L138.78 23.14Q137.31 23.37 135.77 23.66Q134.22 23.96 132.72 24.37Q131.28 24.73 130.27 25.59Q130.06 25.78 129.86 25.99Q128.76 27.16 128.23 29.1ZM53.84 24.36L53.84 41.5L55.83 41.5L55.83 26.12L64.63 26.12L64.63 41.5L66.6 41.5L66.6 24.36L53.84 24.36ZM81.68 37.87Q82.09 36.63 82.09 35.05Q82.09 32.95 81.36 31.47Q80.83 30.39 79.98 29.68Q79.67 29.42 79.31 29.2Q79.25 29.17 79.19 29.13Q77.91 28.42 76.23 28.42Q74.39 28.42 73.06 29.2Q72.65 29.44 72.3 29.75Q71.51 30.43 71.02 31.46Q70.3 32.94 70.3 35.05Q70.3 36.63 70.73 37.87Q71.16 39.12 71.94 39.97Q72.31 40.38 72.74 40.69Q73.22 41.04 73.79 41.28Q74.86 41.73 76.15 41.73Q77.53 41.73 78.63 41.28Q79.33 40.99 79.9 40.54Q80.22 40.28 80.5 39.97Q81.27 39.12 81.68 37.87ZM107.95 29.08Q106.81 28.42 105.28 28.42Q104.22 28.42 103.44 28.7Q102.66 28.99 102.12 29.48Q101.58 29.96 101.21 30.55L101.11 30.55L100.85 28.65L99.25 28.65L99.25 47.24L101.21 47.24L101.21 41.96Q101.21 41.48 101.15 40.84Q101.1 40.19 101.07 39.74L101.21 39.74Q101.57 40.28 102.12 40.73Q102.67 41.19 103.44 41.46Q104.22 41.73 105.24 41.73Q106.7 41.73 107.82 41.1Q107.93 41.04 108.04 40.97Q108.16 40.89 108.28 40.81Q109.3 40.06 109.89 38.72Q110.55 37.23 110.55 35.04Q110.55 31.72 109.12 30.07Q108.6 29.47 107.95 29.08ZM124.6 37.87Q125.01 36.63 125.01 35.05Q125.01 32.95 124.27 31.47Q123.74 30.39 122.9 29.68Q122.58 29.42 122.22 29.2Q122.16 29.17 122.1 29.13Q120.83 28.42 119.15 28.42Q117.31 28.42 115.98 29.2Q115.57 29.44 115.21 29.75Q114.43 30.43 113.93 31.46Q113.22 32.94 113.22 35.05Q113.22 36.63 113.65 37.87Q114.07 39.12 114.85 39.97Q115.22 40.38 115.65 40.69Q116.14 41.04 116.7 41.28Q117.78 41.73 119.07 41.73Q120.45 41.73 121.54 41.28Q122.24 40.99 122.81 40.54Q123.13 40.28 123.41 39.97Q124.19 39.12 124.6 37.87ZM165.59 29.14Q164.42 28.42 162.78 28.42Q161.25 28.42 160.08 29.06Q159.93 29.14 159.78 29.24Q159.54 29.4 159.31 29.58Q158.38 30.35 157.81 31.58Q157.12 33.09 157.12 35.17Q157.12 37.29 157.88 38.75Q158.37 39.7 159.12 40.35Q159.53 40.71 160.02 40.97Q161.39 41.73 163.25 41.73Q164.55 41.73 165.5 41.53Q166.46 41.33 167.43 40.9L167.43 39.19Q166.42 39.62 165.48 39.84Q164.55 40.07 163.33 40.07Q161.74 40.07 160.72 39.3Q160.47 39.11 160.26 38.88Q159.17 37.7 159.13 35.44L168 35.44L168 34.23Q168 32.48 167.38 31.18Q166.98 30.33 166.34 29.72Q166 29.4 165.59 29.14ZM179.07 29.14Q177.89 28.42 176.25 28.42Q174.73 28.42 173.55 29.06Q173.4 29.14 173.26 29.24Q173.01 29.4 172.79 29.58Q171.85 30.35 171.29 31.58Q170.59 33.09 170.59 35.17Q170.59 37.29 171.35 38.75Q171.85 39.7 172.6 40.35Q173.01 40.71 173.49 40.97Q174.87 41.73 176.72 41.73Q178.02 41.73 178.98 41.53Q179.93 41.33 180.91 40.9L180.91 39.19Q179.9 39.62 178.96 39.84Q178.02 40.07 176.8 40.07Q175.21 40.07 174.2 39.3Q173.95 39.11 173.73 38.88Q172.64 37.7 172.61 35.44L181.48 35.44L181.48 34.23Q181.48 32.48 180.86 31.18Q180.46 30.33 179.82 29.72Q179.48 29.4 179.07 29.14ZM94.87 39.84L94.87 28.65L88.2 28.65Q88.18 29.88 88.04 31.09Q87.95 31.89 87.8 32.69Q87.42 34.69 86.7 36.5Q85.97 38.32 84.87 39.84L83.86 39.84L83.86 45.94L85.73 45.94L85.73 41.5L94.82 41.5L94.82 45.94L96.71 45.94L96.71 39.84L94.87 39.84ZM144.6 34.04L144.6 28.65L142.64 28.65L142.64 41.5L144.6 41.5L144.6 35.69L151.76 35.69L151.76 41.5L153.71 41.5L153.71 28.65L151.76 28.65L151.76 34.04L144.6 34.04ZM160.92 30.49Q161.69 30.01 162.75 30.01Q163.85 30.01 164.56 30.5Q164.72 30.61 164.86 30.74Q165.34 31.18 165.61 31.86Q165.95 32.73 165.96 33.88L159.17 33.88Q159.34 32.05 160.27 31.03Q160.56 30.71 160.92 30.49ZM174.39 30.49Q175.16 30.01 176.23 30.01Q177.33 30.01 178.03 30.5Q178.19 30.61 178.34 30.74Q178.82 31.18 179.08 31.86Q179.43 32.73 179.44 33.88L172.64 33.88Q172.82 32.05 173.75 31.03Q174.04 30.71 174.39 30.49ZM72.73 37.73Q72.32 36.6 72.32 35.05Q72.32 32.71 73.25 31.38Q73.49 31.04 73.81 30.78Q74.7 30.06 76.19 30.06Q77.55 30.06 78.4 30.67Q78.53 30.76 78.65 30.87Q79.32 31.45 79.67 32.4Q80.08 33.51 80.08 35.05Q80.08 36.6 79.67 37.73Q79.32 38.7 78.64 39.3Q78.52 39.4 78.4 39.49Q77.53 40.11 76.2 40.11Q74.85 40.11 74 39.49Q73.88 39.41 73.78 39.32Q73.09 38.72 72.73 37.73ZM102.79 30.57Q103.61 30.06 104.94 30.06Q106.12 30.06 106.9 30.61Q107.34 30.92 107.66 31.4Q108.54 32.74 108.54 35.01Q108.54 36.51 108.15 37.67Q107.76 38.82 106.96 39.47Q106.82 39.58 106.68 39.67Q105.96 40.11 104.97 40.11Q103.57 40.11 102.75 39.53Q102.63 39.44 102.53 39.35Q101.87 38.78 101.56 37.82Q101.21 36.69 101.21 35.06L101.21 34.69Q101.23 33.14 101.6 32.11Q101.9 31.3 102.47 30.81Q102.62 30.68 102.79 30.57ZM115.64 37.73Q115.23 36.6 115.23 35.05Q115.23 32.71 116.17 31.38Q116.41 31.04 116.72 30.78Q117.62 30.06 119.1 30.06Q120.46 30.06 121.32 30.67Q121.45 30.76 121.57 30.87Q122.23 31.45 122.58 32.4Q122.99 33.51 122.99 35.05Q122.99 36.6 122.58 37.73Q122.23 38.7 121.55 39.3Q121.44 39.4 121.31 39.49Q120.45 40.11 119.11 40.11Q117.77 40.11 116.91 39.49Q116.8 39.41 116.69 39.32Q116 38.72 115.64 37.73ZM89.93 30.2L92.98 30.2L92.98 39.84L86.9 39.84Q87.75 38.65 88.4 37.05Q89.04 35.45 89.43 33.68Q89.83 31.91 89.93 30.2ZM135.55 39.64Q134.75 40.11 133.63 40.11Q132.45 40.11 131.68 39.58Q131.5 39.46 131.34 39.32Q130.81 38.85 130.48 38.16Q130.05 37.25 129.87 36.13Q129.69 35 129.69 33.81Q129.96 33.32 130.56 32.69Q131.16 32.07 132.03 31.62Q132.14 31.56 132.25 31.51Q133.03 31.17 133.96 31.17Q135.2 31.17 135.95 31.78Q136.24 32.01 136.45 32.33Q137.23 33.48 137.23 35.52Q137.23 37.15 136.79 38.16Q136.39 39.09 135.68 39.56Q135.62 39.6 135.55 39.64Z" fill="#FFFFFF" fill-opacity="1.000000" fill-rule="evenodd"/>
</svg>
