<svg width="482.929932" height="40.480003" viewBox="0 0 482.93 40.48" fill="none" xmlns="http://www.w3.org/2000/svg" xmlns:xlink="http://www.w3.org/1999/xlink">
	<desc>
			Created with Pixso.
	</desc>
	<defs/>
	<path id="Спецпредложения 14" d="M1.09 10.44Q-6.82e-5 13.29 -6.82e-5 16.56Q-6.82e-5 19.69 1 22.45Q1.47 23.75 2.16 24.97C3.63 27.49 5.62 29.48 8.14 30.95Q9.23 31.58 10.39 32.02Q13.24 33.12 16.51 33.12C18.87 33.12 21.08 32.67 23.13 31.78C25.19 30.86 26.95 29.57 28.42 27.92Q29.21 27.03 29.86 26.04Q31.05 24.22 31.73 22.08L26.63 22.08C25.68 24.13 24.33 25.76 22.58 26.95C20.86 28.12 18.84 28.7 16.51 28.7Q14.35 28.7 12.45 27.99Q11.48 27.63 10.57 27.09C8.8 26.02 7.39 24.56 6.34 22.72Q5.9 21.91 5.59 21.05Q4.82 18.94 4.82 16.56Q4.82 14.02 5.69 11.83Q5.97 11.11 6.34 10.44Q7.3 8.71 8.68 7.44Q9.55 6.64 10.57 6.02Q11.48 5.48 12.45 5.12Q14.35 4.41 16.51 4.41C18.84 4.41 20.86 5.01 22.58 6.21C24.33 7.37 25.68 8.98 26.63 11.04L31.73 11.04Q31 8.72 29.68 6.81Q29.1 5.99 28.42 5.24Q27.32 3.98 26 3.01Q24.68 2.04 23.13 1.38C21.08 0.46 18.87 0 16.51 0Q13.36 0 10.6 1.03Q9.33 1.51 8.14 2.2Q6.45 3.17 5.08 4.47Q3.38 6.07 2.16 8.18Q1.53 9.27 1.09 10.44ZM80.95 10.71C79.2 9.7 77.15 9.2 74.79 9.2C72.55 9.2 70.52 9.72 68.71 10.76C66.93 11.77 65.54 13.2 64.53 15.04C63.52 16.85 63.01 18.89 63.01 21.16C63.01 23.42 63.52 25.48 64.53 27.32Q65.25 28.61 66.24 29.63Q67.33 30.77 68.76 31.6C70.57 32.61 72.59 33.12 74.83 33.12C77.35 33.12 79.6 32.44 81.59 31.09C83.59 29.71 84.95 27.95 85.69 25.8L81.18 25.8C79.92 27.98 77.81 29.07 74.83 29.07Q73.4 29.07 72.15 28.59Q71.03 28.17 70.05 27.37C68.7 26.2 67.87 24.73 67.56 22.95L86.42 22.95C86.45 22.64 86.47 22.17 86.47 21.52Q86.47 17.8 85.04 15.04C84.09 13.17 82.73 11.73 80.95 10.71ZM166.03 10.76C164.37 9.72 162.53 9.2 160.51 9.2C158.91 9.2 157.43 9.56 156.05 10.3C154.67 11.04 153.49 12.06 152.5 13.38L152.5 9.66L148.37 9.66L148.37 40.48L152.74 40.48L152.74 29.21C153.69 30.43 154.84 31.4 156.19 32.1C157.53 32.78 158.98 33.12 160.51 33.12C162.53 33.12 164.37 32.61 166.03 31.6C167.69 30.55 168.99 29.13 169.94 27.32C170.89 25.51 171.37 23.46 171.37 21.16C171.37 18.86 170.89 16.8 169.94 14.99C168.99 13.18 167.69 11.77 166.03 10.76ZM192.76 10.71C191.01 9.7 188.96 9.2 186.6 9.2Q184.06 9.2 181.89 10.09Q181.19 10.38 180.52 10.76C178.75 11.77 177.35 13.2 176.34 15.04C175.33 16.85 174.82 18.89 174.82 21.16C174.82 23.42 175.33 25.48 176.34 27.32C177.35 29.13 178.76 30.55 180.57 31.6C182.38 32.61 184.4 33.12 186.64 33.12C189.16 33.12 191.41 32.44 193.4 31.09C195.4 29.71 196.76 27.95 197.5 25.8L192.99 25.8C191.73 27.98 189.62 29.07 186.64 29.07C184.83 29.07 183.24 28.5 181.86 27.37C180.51 26.2 179.68 24.73 179.37 22.95L198.23 22.95C198.27 22.64 198.28 22.17 198.28 21.52C198.28 19.04 197.81 16.88 196.85 15.04C195.9 13.17 194.54 11.73 192.76 10.71ZM262.65 31.55C264.52 32.59 266.59 33.12 268.86 33.12C271.1 33.12 273.14 32.59 274.98 31.55C276.85 30.48 278.32 29.04 279.39 27.23C280.47 25.39 281 23.36 281 21.16C281 18.95 280.47 16.94 279.39 15.13C278.32 13.29 276.85 11.85 274.98 10.81C273.14 9.73 271.1 9.2 268.86 9.2C266.59 9.2 264.52 9.73 262.65 10.81C260.78 11.85 259.31 13.29 258.23 15.13C257.16 16.94 256.62 18.95 256.62 21.16C256.62 23.36 257.16 25.39 258.23 27.23C259.31 29.04 260.78 30.48 262.65 31.55ZM336.33 10.71C334.58 9.7 332.53 9.2 330.17 9.2C327.93 9.2 325.9 9.72 324.09 10.76C322.32 11.77 320.92 13.2 319.91 15.04C318.9 16.85 318.39 18.89 318.39 21.16C318.39 23.42 318.9 25.48 319.91 27.32C320.92 29.13 322.33 30.55 324.14 31.6C325.95 32.61 327.97 33.12 330.21 33.12C332.73 33.12 334.98 32.44 336.97 31.09C338.97 29.71 340.33 27.95 341.07 25.8L336.56 25.8Q335.93 26.9 335 27.63Q333.18 29.07 330.21 29.07Q328.78 29.07 327.53 28.59Q326.41 28.17 325.43 27.37Q324.47 26.54 323.86 25.51Q323.19 24.36 322.94 22.95L341.8 22.95C341.84 22.64 341.85 22.17 341.85 21.52C341.85 19.04 341.38 16.88 340.42 15.04C339.47 13.17 338.11 11.73 336.33 10.71ZM53.33 32.66L57.7 32.66L57.7 9.66L37 9.66L37 32.66L41.37 32.66L41.37 13.8L53.33 13.8L53.33 32.66ZM115.68 37.72L115.68 28.52L112.46 28.52L112.46 9.66L108.09 9.66L108.09 28.52L96.13 28.52L96.13 9.66L91.76 9.66L91.76 32.66L111.45 32.66L111.45 37.72L115.68 37.72ZM136.62 32.66L140.99 32.66L140.99 9.66L120.29 9.66L120.29 32.66L124.66 32.66L124.66 13.8L136.62 13.8L136.62 32.66ZM226.18 37.72L226.18 28.52L222.96 28.52L222.96 9.66L204.05 9.66L204.05 17.94C204.05 23.15 203.73 26.68 203.08 28.52L200.14 28.52L200.14 37.72L204.37 37.72L204.37 32.66L221.94 32.66L221.94 37.72L226.18 37.72ZM246.94 32.7L251.31 32.7L251.31 9.66L232.68 9.66L232.68 17.57Q232.68 22.17 232.36 24.56C232.15 26.12 231.78 27.21 231.26 27.83C230.77 28.44 230.03 28.75 229.05 28.75C228.62 28.75 228.13 28.7 227.58 28.61L227.58 32.66C228.25 32.81 228.88 32.89 229.46 32.89C231.64 32.89 233.28 32.27 234.38 31.05C235.49 29.79 236.21 28.12 236.55 26.03C236.91 23.95 237.1 21.26 237.1 17.98L237.1 13.8L246.94 13.8L246.94 32.7ZM301.86 24.84L304.71 22.08L312.53 32.66L317.96 32.66L307.88 18.99L317.5 9.66L312.11 9.66L301.86 19.64L301.86 9.66L297.53 9.66L297.53 19.59L287.37 9.66L281.89 9.66L291.51 18.99L281.43 32.66L286.86 32.66L294.68 22.08L297.53 24.84L297.53 32.66L301.86 32.66L301.86 24.84ZM367.84 32.66L367.84 9.66L363.47 9.66L363.47 19.09L351.51 19.09L351.51 9.66L347.14 9.66L347.14 32.66L351.51 32.66L351.51 23.23L363.47 23.23L363.47 32.66L367.84 32.66ZM379.59 9.66L375.22 9.66L375.22 32.66L380.05 32.66L392.01 15.54L392.01 32.66L396.38 32.66L396.38 9.66L391.55 9.66L379.59 26.77L379.59 9.66ZM417.13 32.66L421.5 32.66L421.5 9.66L410.14 9.66Q406.98 9.66 405.01 11.18Q404.71 11.41 404.44 11.68C403.09 13.03 402.41 14.75 402.41 16.83C402.41 18.52 402.87 19.99 403.79 21.25C404.71 22.47 406 23.3 407.66 23.73L400.3 32.66L405.54 32.66L412.62 24.01L417.13 24.01L417.13 32.66ZM70 14.76C71.32 13.63 72.88 13.06 74.69 13.06C76.59 13.06 78.19 13.61 79.48 14.72C80.8 15.82 81.55 17.29 81.73 19.13L67.61 19.13Q67.89 17.5 68.73 16.22Q69.25 15.42 70 14.76ZM181.81 14.76C183.13 13.63 184.7 13.06 186.5 13.06C188.41 13.06 190 13.61 191.29 14.72C192.61 15.82 193.36 17.29 193.54 19.13L179.42 19.13Q179.7 17.5 180.54 16.22Q181.06 15.42 181.81 14.76ZM325.38 14.76C326.7 13.63 328.27 13.06 330.07 13.06C331.98 13.06 333.57 13.61 334.86 14.72C336.18 15.82 336.93 17.29 337.11 19.13L322.99 19.13Q323.27 17.5 324.11 16.22Q324.64 15.42 325.38 14.76ZM163.41 28.06C162.33 28.73 161.12 29.07 159.77 29.07C158.42 29.07 157.2 28.73 156.09 28.06C154.99 27.38 154.13 26.45 153.52 25.25C152.9 24.02 152.6 22.66 152.6 21.16C152.6 19.65 152.9 18.3 153.52 17.11C154.13 15.88 154.99 14.93 156.09 14.26C157.2 13.58 158.42 13.24 159.77 13.24Q161.19 13.24 162.41 13.74Q162.92 13.95 163.41 14.26C164.48 14.93 165.32 15.88 165.94 17.11C166.55 18.3 166.86 19.65 166.86 21.16C166.86 22.66 166.55 24.02 165.94 25.25C165.32 26.45 164.48 27.38 163.41 28.06ZM272.72 28.06C271.56 28.73 270.27 29.07 268.86 29.07C267.42 29.07 266.1 28.73 264.9 28.06C263.74 27.35 262.82 26.4 262.14 25.2C261.47 23.98 261.13 22.63 261.13 21.16C261.13 19.68 261.47 18.35 262.14 17.15C262.82 15.93 263.74 14.98 264.9 14.3Q265.56 13.91 266.26 13.67Q267.49 13.24 268.86 13.24C270.27 13.24 271.56 13.6 272.72 14.3C273.89 14.98 274.81 15.93 275.48 17.15C276.16 18.35 276.5 19.68 276.5 21.16C276.5 22.63 276.16 23.98 275.48 25.2C274.81 26.4 273.89 27.35 272.72 28.06ZM417.13 13.57L417.13 20.19L410.74 20.19C409.48 20.19 408.53 19.91 407.89 19.36C407.24 18.78 406.92 17.95 406.92 16.88C406.92 15.8 407.24 14.99 407.89 14.44C408.53 13.86 409.48 13.57 410.74 13.57L417.13 13.57ZM218.59 13.7L218.59 28.61L207.36 28.61C208.07 26 208.42 22.4 208.42 17.8L208.42 13.7L218.59 13.7Z" fill="#111111" fill-opacity="1.000000" fill-rule="evenodd"/>
	<path id="Спецпредложения 14" d="M447.5 0.46L439.45 6.48L439.45 11.59L446.35 6.48L446.35 32.66L450.95 32.66L450.95 0.46L447.5 0.46ZM477.41 24.84L482.93 24.84L482.93 20.46L477.41 20.46L477.41 0.46L470.51 0.46L455.56 20.05L455.56 24.84L472.81 24.84L472.81 32.66L477.41 32.66L477.41 24.84ZM472.81 3.68L472.81 20.46L460.02 20.46L472.81 3.68Z" fill="#C5358C" fill-opacity="1.000000" fill-rule="evenodd"/>
</svg>
