<svg width="614" height="30" viewBox="0 0 614 30" fill="none" xmlns="http://www.w3.org/2000/svg">
<path d="M21.92 25H19.32V10.05L12.404 25H9.804L2.94 10.18V25H0.34V6.8H4.136L11.182 21.932L18.202 6.8H21.92V25ZM38.8919 12L32.5739 26.456C32.2446 27.34 31.7852 28.0593 31.1959 28.614C30.6066 29.186 29.7399 29.472 28.5959 29.472C27.7812 29.472 27.1486 29.4547 26.6979 29.42V27.08C27.1832 27.1147 27.7639 27.132 28.4399 27.132C28.9252 27.132 29.3066 27.002 29.5839 26.742C29.8786 26.482 30.1212 26.1267 30.3119 25.676L30.7019 24.766L24.3839 12H27.2699L31.9239 21.984L36.2919 12H38.8919ZM51.8893 25H49.4193V14.34H44.8693C44.8519 16.8707 44.6526 18.9247 44.2713 20.502C43.8899 22.062 43.3006 23.2147 42.5033 23.96C41.7233 24.7053 40.7006 25.078 39.4353 25.078C39.1406 25.078 38.8979 25.052 38.7073 25V22.738C38.9499 22.7727 39.1319 22.79 39.2533 22.79C40.0159 22.79 40.6226 22.504 41.0733 21.932C41.5413 21.3427 41.8793 20.4153 42.0873 19.15C42.2953 17.8673 42.3993 16.1687 42.3993 14.054V12H51.8893V25ZM62.4629 17.148C63.8323 17.148 64.8983 17.5207 65.6609 18.266C66.4409 18.994 66.8309 19.93 66.8309 21.074C66.8309 22.218 66.4409 23.1627 65.6609 23.908C64.8983 24.636 63.8323 25 62.4629 25H56.0409V12H58.5109V17.148H62.4629ZM62.1249 22.842C62.8356 22.842 63.3729 22.6947 63.7369 22.4C64.1009 22.1053 64.2829 21.6633 64.2829 21.074C64.2829 20.4847 64.1009 20.0427 63.7369 19.748C63.3729 19.4533 62.8356 19.306 62.1249 19.306H58.5109V22.842H62.1249ZM77.753 14.34H73.203V25H70.733V14.34H66.183V12H77.753V14.34ZM91.9128 12V25H89.4428V16.992L82.6828 22.712V25H80.2128V12H82.6828V19.852L89.4428 14.132V12H91.9128ZM94.912 18.5C94.912 17.252 95.2153 16.1167 95.822 15.094C96.4286 14.054 97.2606 13.2393 98.318 12.65C99.3753 12.0433 100.545 11.74 101.828 11.74C103.267 11.74 104.558 12.1647 105.702 13.014C106.863 13.846 107.626 14.938 107.99 16.29H105.286C104.991 15.5967 104.515 15.0507 103.856 14.652C103.215 14.236 102.495 14.028 101.698 14.028C100.883 14.028 100.155 14.2273 99.514 14.626C98.8726 15.0073 98.37 15.5447 98.006 16.238C97.642 16.914 97.46 17.668 97.46 18.5C97.46 19.332 97.642 20.0947 98.006 20.788C98.37 21.464 98.8726 22.0013 99.514 22.4C100.155 22.7813 100.883 22.972 101.698 22.972C102.495 22.972 103.215 22.7727 103.856 22.374C104.515 21.958 104.991 21.4033 105.286 20.71H107.99C107.626 22.062 106.863 23.1627 105.702 24.012C104.558 24.844 103.267 25.26 101.828 25.26C100.545 25.26 99.3753 24.9653 98.318 24.376C97.2606 23.7693 96.4286 22.9547 95.822 21.932C95.2153 20.892 94.912 19.748 94.912 18.5ZM120.105 14.34H115.555V25H113.085V14.34H108.535V12H120.105V14.34ZM133.757 22.66V25H132.509C131.867 25 131.365 24.844 131.001 24.532C130.637 24.2027 130.42 23.7347 130.351 23.128C129.796 23.7693 129.077 24.2893 128.193 24.688C127.326 25.0693 126.407 25.26 125.437 25.26C124.033 25.26 122.941 24.9133 122.161 24.22C121.398 23.5267 121.017 22.5993 121.017 21.438C121.017 20.3807 121.433 19.4793 122.265 18.734C123.097 17.9713 124.267 17.512 125.775 17.356L127.231 17.2C128.045 17.1133 128.652 17.0093 129.051 16.888C129.449 16.7493 129.701 16.602 129.805 16.446C129.926 16.29 129.987 16.082 129.987 15.822C129.987 15.2327 129.701 14.7733 129.129 14.444C128.574 14.0973 127.803 13.924 126.815 13.924C126.173 13.924 125.558 14.0973 124.969 14.444C124.379 14.7733 123.972 15.25 123.747 15.874H121.121C121.363 14.6607 122.022 13.6727 123.097 12.91C124.171 12.13 125.454 11.74 126.945 11.74C128.591 11.74 129.943 12.1907 131.001 13.092C132.058 13.9933 132.587 15.2847 132.587 16.966V21.958C132.587 22.1833 132.647 22.3567 132.769 22.478C132.89 22.5993 133.055 22.66 133.263 22.66H133.757ZM125.697 23.128C126.511 23.128 127.274 22.9633 127.985 22.634C128.695 22.2873 129.259 21.8367 129.675 21.282C130.108 20.71 130.325 20.1033 130.325 19.462V18.292C129.735 18.7427 128.799 19.0373 127.517 19.176L126.061 19.332C125.09 19.436 124.414 19.67 124.033 20.034C123.651 20.398 123.461 20.8573 123.461 21.412C123.461 21.932 123.651 22.348 124.033 22.66C124.431 22.972 124.986 23.128 125.697 23.128ZM148.432 12V25H145.962V16.992L139.202 22.712V25H136.732V12H139.202V19.852L145.962 14.132V12H148.432ZM142.712 10.726C141.36 10.726 140.251 10.3707 139.384 9.66C138.518 8.94933 138.032 7.996 137.928 6.8H140.06C140.147 7.45867 140.424 7.97867 140.892 8.36C141.36 8.724 141.967 8.906 142.712 8.906C143.458 8.906 144.064 8.724 144.532 8.36C145 7.97867 145.278 7.45867 145.364 6.8H147.496C147.392 7.996 146.907 8.94933 146.04 9.66C145.174 10.3707 144.064 10.726 142.712 10.726ZM163.963 25H161.493V14.34H156.943C156.926 16.8707 156.727 18.9247 156.345 20.502C155.964 22.062 155.375 23.2147 154.577 23.96C153.797 24.7053 152.775 25.078 151.509 25.078C151.215 25.078 150.972 25.052 150.781 25V22.738C151.024 22.7727 151.206 22.79 151.327 22.79C152.09 22.79 152.697 22.504 153.147 21.932C153.615 21.3427 153.953 20.4153 154.161 19.15C154.369 17.8673 154.473 16.1687 154.473 14.054V12H163.963V25ZM173.601 11.74C174.936 11.74 176.097 12.026 177.085 12.598C178.09 13.17 178.862 13.9847 179.399 15.042C179.936 16.082 180.205 17.304 180.205 18.708C180.205 19.072 180.196 19.3407 180.179 19.514H169.519C169.692 20.5193 170.16 21.3513 170.923 22.01C171.703 22.6513 172.604 22.972 173.627 22.972C175.308 22.972 176.504 22.3567 177.215 21.126H179.763C179.347 22.3393 178.576 23.336 177.449 24.116C176.322 24.8787 175.048 25.26 173.627 25.26C172.362 25.26 171.218 24.974 170.195 24.402C169.172 23.8127 168.375 23.0067 167.803 21.984C167.231 20.944 166.945 19.7827 166.945 18.5C166.945 17.2173 167.231 16.0647 167.803 15.042C168.375 14.002 169.164 13.196 170.169 12.624C171.192 12.0347 172.336 11.74 173.601 11.74ZM173.549 13.924C172.526 13.924 171.642 14.2447 170.897 14.886C170.169 15.5273 169.718 16.3507 169.545 17.356H177.527C177.423 16.316 176.998 15.484 176.253 14.86C175.525 14.236 174.624 13.924 173.549 13.924ZM190.061 11.74C191.205 11.74 192.245 12.0347 193.181 12.624C194.117 13.196 194.854 13.9933 195.391 15.016C195.929 16.0387 196.197 17.2 196.197 18.5C196.197 19.8 195.929 20.9613 195.391 21.984C194.854 23.0067 194.117 23.8127 193.181 24.402C192.245 24.974 191.205 25.26 190.061 25.26C189.195 25.26 188.38 25.0693 187.617 24.688C186.855 24.2893 186.205 23.7433 185.667 23.05V29.42H183.197V12H185.537V14.106C186.092 13.3607 186.759 12.78 187.539 12.364C188.319 11.948 189.16 11.74 190.061 11.74ZM189.645 22.972C190.408 22.972 191.093 22.7813 191.699 22.4C192.306 22.0187 192.783 21.49 193.129 20.814C193.476 20.1207 193.649 19.3493 193.649 18.5C193.649 17.6507 193.476 16.888 193.129 16.212C192.783 15.5187 192.306 14.9813 191.699 14.6C191.093 14.2187 190.408 14.028 189.645 14.028C188.883 14.028 188.189 14.2187 187.565 14.6C186.941 14.9813 186.456 15.5187 186.109 16.212C185.763 16.888 185.589 17.6507 185.589 18.5C185.589 19.3493 185.763 20.1207 186.109 20.814C186.456 21.49 186.941 22.0187 187.565 22.4C188.189 22.7813 188.883 22.972 189.645 22.972ZM212.98 6.8C214.922 6.8 216.603 7.19867 218.024 7.996C219.463 8.79333 220.564 9.88533 221.326 11.272C222.089 12.6413 222.47 14.184 222.47 15.9C222.47 17.616 222.089 19.1673 221.326 20.554C220.564 21.9233 219.463 23.0067 218.024 23.804C216.603 24.6013 214.922 25 212.98 25H206.74V6.8H212.98ZM212.98 22.504C214.35 22.504 215.546 22.2353 216.568 21.698C217.591 21.1607 218.371 20.398 218.908 19.41C219.463 18.4047 219.74 17.2347 219.74 15.9C219.74 14.5653 219.463 13.404 218.908 12.416C218.371 11.4107 217.591 10.6393 216.568 10.102C215.546 9.56467 214.35 9.296 212.98 9.296H209.34V22.504H212.98ZM238.284 12L231.966 26.456C231.637 27.34 231.178 28.0593 230.588 28.614C229.999 29.186 229.132 29.472 227.988 29.472C227.174 29.472 226.541 29.4547 226.09 29.42V27.08C226.576 27.1147 227.156 27.132 227.832 27.132C228.318 27.132 228.699 27.002 228.976 26.742C229.271 26.482 229.514 26.1267 229.704 25.676L230.094 24.766L223.776 12H226.662L231.316 21.984L235.684 12H238.284ZM244.775 25.26C243.146 25.26 241.768 24.8787 240.641 24.116C239.532 23.336 238.89 22.2613 238.717 20.892H241.187C241.412 21.6373 241.828 22.192 242.435 22.556C243.059 22.9027 243.874 23.076 244.879 23.076C245.815 23.076 246.569 22.9287 247.141 22.634C247.713 22.322 247.999 21.9233 247.999 21.438C247.999 20.9527 247.8 20.5713 247.401 20.294C247.02 19.9993 246.3 19.7653 245.243 19.592L243.761 19.332C240.641 18.7773 239.081 17.5207 239.081 15.562C239.081 14.418 239.584 13.4993 240.589 12.806C241.594 12.0953 242.912 11.74 244.541 11.74C246.014 11.74 247.271 12.0867 248.311 12.78C249.351 13.456 250.01 14.4007 250.287 15.614H247.661C247.453 15.094 247.054 14.6953 246.465 14.418C245.876 14.1233 245.226 13.976 244.515 13.976C243.614 13.976 242.894 14.1147 242.357 14.392C241.837 14.652 241.577 15.016 241.577 15.484C241.577 15.9 241.776 16.2467 242.175 16.524C242.574 16.784 243.215 16.9833 244.099 17.122L245.607 17.382C247.375 17.6767 248.623 18.162 249.351 18.838C250.079 19.4967 250.443 20.3633 250.443 21.438C250.443 22.582 249.932 23.5093 248.909 24.22C247.904 24.9133 246.526 25.26 244.775 25.26ZM259.301 25.26C258.018 25.26 256.848 24.9653 255.791 24.376C254.733 23.7693 253.901 22.9547 253.295 21.932C252.688 20.892 252.385 19.748 252.385 18.5C252.385 17.252 252.688 16.1167 253.295 15.094C253.901 14.054 254.733 13.2393 255.791 12.65C256.848 12.0433 258.018 11.74 259.301 11.74C260.566 11.74 261.719 12.0433 262.759 12.65C263.816 13.2393 264.648 14.054 265.255 15.094C265.861 16.1167 266.165 17.252 266.165 18.5C266.165 19.748 265.861 20.892 265.255 21.932C264.648 22.9547 263.816 23.7693 262.759 24.376C261.719 24.9653 260.566 25.26 259.301 25.26ZM259.301 22.972C260.098 22.972 260.826 22.7813 261.485 22.4C262.143 22.0013 262.663 21.464 263.045 20.788C263.426 20.0947 263.617 19.332 263.617 18.5C263.617 17.668 263.426 16.914 263.045 16.238C262.663 15.5447 262.143 15.0073 261.485 14.626C260.826 14.2273 260.098 14.028 259.301 14.028C258.486 14.028 257.741 14.2273 257.065 14.626C256.406 15.0073 255.886 15.5447 255.505 16.238C255.123 16.914 254.933 17.668 254.933 18.5C254.933 19.332 255.123 20.0947 255.505 20.788C255.886 21.464 256.406 22.0013 257.065 22.4C257.741 22.7813 258.486 22.972 259.301 22.972ZM275.774 11.74C276.832 11.74 277.776 11.9653 278.608 12.416C279.458 12.8667 280.125 13.5513 280.61 14.47C281.113 15.3713 281.364 16.4807 281.364 17.798V25H278.894V17.85C278.894 16.706 278.556 15.796 277.88 15.12C277.204 14.444 276.355 14.106 275.332 14.106C274.587 14.106 273.928 14.288 273.356 14.652C272.802 14.9987 272.368 15.4753 272.056 16.082C271.762 16.6887 271.614 17.3473 271.614 18.058V25H269.144V12H271.484V14.08C271.97 13.3693 272.585 12.806 273.33 12.39C274.093 11.9567 274.908 11.74 275.774 11.74ZM305.191 20.84H295.363L293.569 25H290.735L298.899 6.8H301.811L309.975 25H306.985L305.191 20.84ZM304.177 18.448L300.303 9.478L296.403 18.448H304.177ZM314.779 12V25H312.309V12H314.779ZM314.935 6.8V9.66H312.179V6.8H314.935ZM325.565 11.74C325.981 11.74 326.371 11.766 326.735 11.818V14.236C326.423 14.1667 325.929 14.132 325.253 14.132C324.491 14.132 323.815 14.3053 323.225 14.652C322.653 14.9987 322.203 15.4667 321.873 16.056C321.561 16.628 321.405 17.2607 321.405 17.954V25H318.935V12H321.275V14.002C321.761 13.3087 322.376 12.7627 323.121 12.364C323.884 11.948 324.699 11.74 325.565 11.74ZM348.3 12L344.348 25H341.332L338.108 14.99L334.78 25H331.842L327.916 12H330.594L333.376 22.244L336.782 12H339.512L342.866 22.218L345.648 12H348.3ZM357.659 11.74C358.075 11.74 358.465 11.766 358.829 11.818V14.236C358.517 14.1667 358.023 14.132 357.347 14.132C356.585 14.132 355.909 14.3053 355.319 14.652C354.747 14.9987 354.297 15.4667 353.967 16.056C353.655 16.628 353.499 17.2607 353.499 17.954V25H351.029V12H353.369V14.002C353.855 13.3087 354.47 12.7627 355.215 12.364C355.978 11.948 356.793 11.74 357.659 11.74ZM372.352 22.66V25H371.104C370.463 25 369.96 24.844 369.596 24.532C369.232 24.2027 369.016 23.7347 368.946 23.128C368.392 23.7693 367.672 24.2893 366.788 24.688C365.922 25.0693 365.003 25.26 364.032 25.26C362.628 25.26 361.536 24.9133 360.756 24.22C359.994 23.5267 359.612 22.5993 359.612 21.438C359.612 20.3807 360.028 19.4793 360.86 18.734C361.692 17.9713 362.862 17.512 364.37 17.356L365.826 17.2C366.641 17.1133 367.248 17.0093 367.646 16.888C368.045 16.7493 368.296 16.602 368.4 16.446C368.522 16.29 368.582 16.082 368.582 15.822C368.582 15.2327 368.296 14.7733 367.724 14.444C367.17 14.0973 366.398 13.924 365.41 13.924C364.769 13.924 364.154 14.0973 363.564 14.444C362.975 14.7733 362.568 15.25 362.342 15.874H359.716C359.959 14.6607 360.618 13.6727 361.692 12.91C362.767 12.13 364.05 11.74 365.54 11.74C367.187 11.74 368.539 12.1907 369.596 13.092C370.654 13.9933 371.182 15.2847 371.182 16.966V21.958C371.182 22.1833 371.243 22.3567 371.364 22.478C371.486 22.5993 371.65 22.66 371.858 22.66H372.352ZM364.292 23.128C365.107 23.128 365.87 22.9633 366.58 22.634C367.291 22.2873 367.854 21.8367 368.27 21.282C368.704 20.71 368.92 20.1033 368.92 19.462V18.292C368.331 18.7427 367.395 19.0373 366.112 19.176L364.656 19.332C363.686 19.436 363.01 19.67 362.628 20.034C362.247 20.398 362.056 20.8573 362.056 21.412C362.056 21.932 362.247 22.348 362.628 22.66C363.027 22.972 363.582 23.128 364.292 23.128ZM382.192 11.74C383.336 11.74 384.376 12.0347 385.312 12.624C386.248 13.196 386.985 13.9933 387.522 15.016C388.059 16.0387 388.328 17.2 388.328 18.5C388.328 19.8 388.059 20.9613 387.522 21.984C386.985 23.0067 386.248 23.8127 385.312 24.402C384.376 24.974 383.336 25.26 382.192 25.26C381.325 25.26 380.511 25.0693 379.748 24.688C378.985 24.2893 378.335 23.7433 377.798 23.05V29.42H375.328V12H377.668V14.106C378.223 13.3607 378.89 12.78 379.67 12.364C380.45 11.948 381.291 11.74 382.192 11.74ZM381.776 22.972C382.539 22.972 383.223 22.7813 383.83 22.4C384.437 22.0187 384.913 21.49 385.26 20.814C385.607 20.1207 385.78 19.3493 385.78 18.5C385.78 17.6507 385.607 16.888 385.26 16.212C384.913 15.5187 384.437 14.9813 383.83 14.6C383.223 14.2187 382.539 14.028 381.776 14.028C381.013 14.028 380.32 14.2187 379.696 14.6C379.072 14.9813 378.587 15.5187 378.24 16.212C377.893 16.888 377.72 17.6507 377.72 18.5C377.72 19.3493 377.893 20.1207 378.24 20.814C378.587 21.49 379.072 22.0187 379.696 22.4C380.32 22.7813 381.013 22.972 381.776 22.972ZM389.244 26.82H415.244V0.82H389.244V26.82ZM423.701 15.9C423.701 14.1667 424.109 12.5893 424.923 11.168C425.755 9.72933 426.882 8.60267 428.303 7.788C429.725 6.956 431.302 6.54 433.035 6.54C434.37 6.54 435.618 6.8 436.779 7.32C437.941 7.82267 438.937 8.55067 439.769 9.504C440.619 10.44 441.243 11.532 441.641 12.78H438.755C438.218 11.6187 437.455 10.7087 436.467 10.05C435.497 9.374 434.353 9.036 433.035 9.036C431.805 9.036 430.687 9.33933 429.681 9.946C428.676 10.5527 427.879 11.3847 427.289 12.442C426.717 13.482 426.431 14.6347 426.431 15.9C426.431 17.1653 426.717 18.3267 427.289 19.384C427.879 20.424 428.676 21.2473 429.681 21.854C430.687 22.4607 431.805 22.764 433.035 22.764C434.353 22.764 435.497 22.4347 436.467 21.776C437.455 21.1 438.218 20.1813 438.755 19.02H441.641C441.243 20.268 440.619 21.3687 439.769 22.322C438.937 23.258 437.941 23.986 436.779 24.506C435.618 25.0087 434.37 25.26 433.035 25.26C431.302 25.26 429.725 24.8527 428.303 24.038C426.882 23.206 425.755 22.0793 424.923 20.658C424.109 19.2193 423.701 17.6333 423.701 15.9ZM450.111 25.26C448.828 25.26 447.658 24.9653 446.601 24.376C445.544 23.7693 444.712 22.9547 444.105 21.932C443.498 20.892 443.195 19.748 443.195 18.5C443.195 17.252 443.498 16.1167 444.105 15.094C444.712 14.054 445.544 13.2393 446.601 12.65C447.658 12.0433 448.828 11.74 450.111 11.74C451.376 11.74 452.529 12.0433 453.569 12.65C454.626 13.2393 455.458 14.054 456.065 15.094C456.672 16.1167 456.975 17.252 456.975 18.5C456.975 19.748 456.672 20.892 456.065 21.932C455.458 22.9547 454.626 23.7693 453.569 24.376C452.529 24.9653 451.376 25.26 450.111 25.26ZM450.111 22.972C450.908 22.972 451.636 22.7813 452.295 22.4C452.954 22.0013 453.474 21.464 453.855 20.788C454.236 20.0947 454.427 19.332 454.427 18.5C454.427 17.668 454.236 16.914 453.855 16.238C453.474 15.5447 452.954 15.0073 452.295 14.626C451.636 14.2273 450.908 14.028 450.111 14.028C449.296 14.028 448.551 14.2273 447.875 14.626C447.216 15.0073 446.696 15.5447 446.315 16.238C445.934 16.914 445.743 17.668 445.743 18.5C445.743 19.332 445.934 20.0947 446.315 20.788C446.696 21.464 447.216 22.0013 447.875 22.4C448.551 22.7813 449.296 22.972 450.111 22.972ZM475.945 11.74C476.985 11.74 477.912 11.9653 478.727 12.416C479.559 12.8667 480.209 13.5513 480.677 14.47C481.162 15.3713 481.405 16.4807 481.405 17.798V25H478.935V17.85C478.935 16.706 478.606 15.796 477.947 15.12C477.306 14.444 476.491 14.106 475.503 14.106C474.428 14.106 473.562 14.4873 472.903 15.25C472.244 16.0127 471.915 16.9487 471.915 18.058V25H469.445V17.85C469.445 16.706 469.116 15.796 468.457 15.12C467.816 14.444 467.001 14.106 466.013 14.106C464.938 14.106 464.072 14.4873 463.413 15.25C462.754 16.0127 462.425 16.9487 462.425 18.058V25H459.955V12H462.295V14.054C462.763 13.3433 463.361 12.78 464.089 12.364C464.834 11.948 465.623 11.74 466.455 11.74C467.478 11.74 468.396 11.9653 469.211 12.416C470.043 12.8493 470.684 13.4993 471.135 14.366C471.638 13.5687 472.314 12.936 473.163 12.468C474.03 11.9827 474.957 11.74 475.945 11.74ZM492.159 11.74C493.303 11.74 494.343 12.0347 495.279 12.624C496.215 13.196 496.952 13.9933 497.489 15.016C498.026 16.0387 498.295 17.2 498.295 18.5C498.295 19.8 498.026 20.9613 497.489 21.984C496.952 23.0067 496.215 23.8127 495.279 24.402C494.343 24.974 493.303 25.26 492.159 25.26C491.292 25.26 490.478 25.0693 489.715 24.688C488.952 24.2893 488.302 23.7433 487.765 23.05V29.42H485.295V12H487.635V14.106C488.19 13.3607 488.857 12.78 489.637 12.364C490.417 11.948 491.258 11.74 492.159 11.74ZM491.743 22.972C492.506 22.972 493.19 22.7813 493.797 22.4C494.404 22.0187 494.88 21.49 495.227 20.814C495.574 20.1207 495.747 19.3493 495.747 18.5C495.747 17.6507 495.574 16.888 495.227 16.212C494.88 15.5187 494.404 14.9813 493.797 14.6C493.19 14.2187 492.506 14.028 491.743 14.028C490.98 14.028 490.287 14.2187 489.663 14.6C489.039 14.9813 488.554 15.5187 488.207 16.212C487.86 16.888 487.687 17.6507 487.687 18.5C487.687 19.3493 487.86 20.1207 488.207 20.814C488.554 21.49 489.039 22.0187 489.663 22.4C490.287 22.7813 490.98 22.972 491.743 22.972ZM503.761 6.67V25H501.291V6.67H503.761ZM513.404 11.74C514.739 11.74 515.9 12.026 516.888 12.598C517.893 13.17 518.665 13.9847 519.202 15.042C519.739 16.082 520.008 17.304 520.008 18.708C520.008 19.072 519.999 19.3407 519.982 19.514H509.322C509.495 20.5193 509.963 21.3513 510.726 22.01C511.506 22.6513 512.407 22.972 513.43 22.972C515.111 22.972 516.307 22.3567 517.018 21.126H519.566C519.15 22.3393 518.379 23.336 517.252 24.116C516.125 24.8787 514.851 25.26 513.43 25.26C512.165 25.26 511.021 24.974 509.998 24.402C508.975 23.8127 508.178 23.0067 507.606 21.984C507.034 20.944 506.748 19.7827 506.748 18.5C506.748 17.2173 507.034 16.0647 507.606 15.042C508.178 14.002 508.967 13.196 509.972 12.624C510.995 12.0347 512.139 11.74 513.404 11.74ZM513.352 13.924C512.329 13.924 511.445 14.2447 510.7 14.886C509.972 15.5273 509.521 16.3507 509.348 17.356H517.33C517.226 16.316 516.801 15.484 516.056 14.86C515.328 14.236 514.427 13.924 513.352 13.924ZM526.123 14.34V21.204C526.123 21.7587 526.253 22.1833 526.513 22.478C526.79 22.7727 527.258 22.92 527.917 22.92C528.541 22.92 529.07 22.868 529.503 22.764V25.026C529.035 25.182 528.463 25.26 527.787 25.26C525.031 25.26 523.653 23.908 523.653 21.204V14.34H521.053V12H523.653V8.62H526.123V12H529.763V14.34H526.123ZM537.855 11.74C539.19 11.74 540.351 12.026 541.339 12.598C542.344 13.17 543.116 13.9847 543.653 15.042C544.19 16.082 544.459 17.304 544.459 18.708C544.459 19.072 544.45 19.3407 544.433 19.514H533.773C533.946 20.5193 534.414 21.3513 535.177 22.01C535.957 22.6513 536.858 22.972 537.881 22.972C539.562 22.972 540.758 22.3567 541.469 21.126H544.017C543.601 22.3393 542.83 23.336 541.703 24.116C540.576 24.8787 539.302 25.26 537.881 25.26C536.616 25.26 535.472 24.974 534.449 24.402C533.426 23.8127 532.629 23.0067 532.057 21.984C531.485 20.944 531.199 19.7827 531.199 18.5C531.199 17.2173 531.485 16.0647 532.057 15.042C532.629 14.002 533.418 13.196 534.423 12.624C535.446 12.0347 536.59 11.74 537.855 11.74ZM537.803 13.924C536.78 13.924 535.896 14.2447 535.151 14.886C534.423 15.5273 533.972 16.3507 533.799 17.356H541.781C541.677 16.316 541.252 15.484 540.507 14.86C539.779 14.236 538.878 13.924 537.803 13.924ZM567.218 22.504V25H554.998V6.8H557.598V22.504H567.218ZM575.185 25.26C573.903 25.26 572.733 24.9653 571.675 24.376C570.618 23.7693 569.786 22.9547 569.179 21.932C568.573 20.892 568.269 19.748 568.269 18.5C568.269 17.252 568.573 16.1167 569.179 15.094C569.786 14.054 570.618 13.2393 571.675 12.65C572.733 12.0433 573.903 11.74 575.185 11.74C576.451 11.74 577.603 12.0433 578.643 12.65C579.701 13.2393 580.533 14.054 581.139 15.094C581.746 16.1167 582.049 17.252 582.049 18.5C582.049 19.748 581.746 20.892 581.139 21.932C580.533 22.9547 579.701 23.7693 578.643 24.376C577.603 24.9653 576.451 25.26 575.185 25.26ZM575.185 22.972C575.983 22.972 576.711 22.7813 577.369 22.4C578.028 22.0013 578.548 21.464 578.929 20.788C579.311 20.0947 579.501 19.332 579.501 18.5C579.501 17.668 579.311 16.914 578.929 16.238C578.548 15.5447 578.028 15.0073 577.369 14.626C576.711 14.2273 575.983 14.028 575.185 14.028C574.371 14.028 573.625 14.2273 572.949 14.626C572.291 15.0073 571.771 15.5447 571.389 16.238C571.008 16.914 570.817 17.668 570.817 18.5C570.817 19.332 571.008 20.0947 571.389 20.788C571.771 21.464 572.291 22.0013 572.949 22.4C573.625 22.7813 574.371 22.972 575.185 22.972ZM591.659 11.74C592.717 11.74 593.661 11.9653 594.493 12.416C595.343 12.8667 596.01 13.5513 596.495 14.47C596.998 15.3713 597.249 16.4807 597.249 17.798V25H594.779V17.85C594.779 16.706 594.441 15.796 593.765 15.12C593.089 14.444 592.24 14.106 591.217 14.106C590.472 14.106 589.813 14.288 589.241 14.652C588.687 14.9987 588.253 15.4753 587.941 16.082C587.647 16.6887 587.499 17.3473 587.499 18.058V25H585.029V12H587.369V14.08C587.855 13.3693 588.47 12.806 589.215 12.39C589.978 11.9567 590.793 11.74 591.659 11.74ZM609.446 22.348C610.608 22.348 611.57 22.6773 612.332 23.336C613.112 23.9773 613.502 24.792 613.502 25.78C613.502 26.8373 613.121 27.704 612.358 28.38C611.596 29.0733 610.625 29.42 609.446 29.42H604.558C603.38 29.42 602.409 29.082 601.646 28.406C600.884 27.73 600.502 26.872 600.502 25.832C600.502 25.2947 600.641 24.792 600.918 24.324C601.196 23.8387 601.612 23.4313 602.166 23.102C601.577 22.6687 601.282 22.1053 601.282 21.412C601.282 20.9613 601.36 20.606 601.516 20.346C601.69 20.0687 601.932 19.8347 602.244 19.644C601.672 19.28 601.239 18.8207 600.944 18.266C600.65 17.7113 600.502 17.0787 600.502 16.368C600.502 15.4493 600.771 14.6433 601.308 13.95C601.846 13.2393 602.608 12.6933 603.596 12.312C604.584 11.9307 605.728 11.74 607.028 11.74C607.583 11.74 608.164 11.7833 608.77 11.87V11.116C608.77 9.452 609.55 8.62 611.11 8.62H612.228V10.986H611.396C611.206 10.986 611.05 11.0467 610.928 11.168C610.824 11.272 610.772 11.4193 610.772 11.61V12.442C611.639 12.8407 612.306 13.378 612.774 14.054C613.26 14.73 613.502 15.5013 613.502 16.368C613.502 17.2867 613.234 18.1013 612.696 18.812C612.176 19.5053 611.422 20.0427 610.434 20.424C609.464 20.8053 608.328 20.996 607.028 20.996C605.919 20.996 604.896 20.8487 603.96 20.554C603.562 20.7447 603.362 21.0307 603.362 21.412C603.362 21.672 603.466 21.8973 603.674 22.088C603.882 22.2613 604.151 22.348 604.48 22.348H609.446ZM607.028 13.768C605.711 13.768 604.706 13.9847 604.012 14.418C603.319 14.8513 602.972 15.484 602.972 16.316C602.972 17.148 603.319 17.7893 604.012 18.24C604.706 18.6733 605.711 18.89 607.028 18.89C608.328 18.89 609.316 18.6733 609.992 18.24C610.686 17.7893 611.032 17.148 611.032 16.316C611.032 15.484 610.686 14.8513 609.992 14.418C609.316 13.9847 608.328 13.768 607.028 13.768ZM609.316 27.444C609.871 27.444 610.322 27.2967 610.668 27.002C611.032 26.7247 611.214 26.378 611.214 25.962C611.214 25.5113 611.041 25.1387 610.694 24.844C610.348 24.532 609.888 24.376 609.316 24.376H604.662C604.108 24.376 603.657 24.5233 603.31 24.818C602.981 25.1127 602.816 25.4767 602.816 25.91C602.816 26.3433 602.981 26.7073 603.31 27.002C603.657 27.2967 604.108 27.444 604.662 27.444H609.316Z" fill="black"/>
</svg>
