<svg width="113" height="48" viewBox="0 0 113 48" fill="none" xmlns="http://www.w3.org/2000/svg">
<rect width="113" height="48" rx="3" fill="#C5358C"/>
<path d="M29.4609 27.9219V26.1875H35.2734V27.9219H29.4609ZM44.6602 33.5H42.7617V21.3594C42.7617 20.8984 42.7617 20.5039 42.7617 20.1758C42.7695 19.8398 42.7773 19.5352 42.7852 19.2617C42.8008 18.9805 42.8203 18.6953 42.8438 18.4062C42.6016 18.6562 42.375 18.8711 42.1641 19.0508C41.9531 19.2227 41.6914 19.4375 41.3789 19.6953L39.4219 21.2656L38.4023 19.9414L43.043 16.3672H44.6602V33.5ZM56.5664 23.0234C57.7305 23.0234 58.7422 23.2227 59.6016 23.6211C60.4609 24.0117 61.125 24.582 61.5938 25.332C62.0703 26.082 62.3086 26.9922 62.3086 28.0625C62.3086 29.2344 62.0547 30.2461 61.5469 31.0977C61.0391 31.9414 60.3086 32.5938 59.3555 33.0547C58.4023 33.5078 57.2617 33.7344 55.9336 33.7344C55.043 33.7344 54.2148 33.6562 53.4492 33.5C52.6836 33.3438 52.0391 33.1094 51.5156 32.7969V30.9453C52.0859 31.2891 52.7773 31.5625 53.5898 31.7656C54.4023 31.9688 55.1914 32.0703 55.957 32.0703C56.8242 32.0703 57.582 31.9336 58.2305 31.6602C58.8867 31.3789 59.3945 30.957 59.7539 30.3945C60.1211 29.8242 60.3047 29.1094 60.3047 28.25C60.3047 27.1094 59.9531 26.2305 59.25 25.6133C58.5547 24.9883 57.4531 24.6758 55.9453 24.6758C55.4609 24.6758 54.9297 24.7148 54.3516 24.793C53.7734 24.8711 53.2969 24.957 52.9219 25.0508L51.9375 24.4062L52.5938 16.3672H61.1133V18.1484H54.2578L53.8242 23.3164C54.1211 23.2539 54.5039 23.1914 54.9727 23.1289C55.4414 23.0586 55.9727 23.0234 56.5664 23.0234ZM68.3789 16.1211C69.5508 16.1211 70.4375 16.5898 71.0391 17.5273C71.6484 18.457 71.9531 19.7734 71.9531 21.4766C71.9531 23.1797 71.6602 24.5078 71.0742 25.4609C70.4883 26.4062 69.5898 26.8789 68.3789 26.8789C67.2539 26.8789 66.3906 26.4062 65.7891 25.4609C65.1953 24.5078 64.8984 23.1797 64.8984 21.4766C64.8984 19.7734 65.1836 18.457 65.7539 17.5273C66.3242 16.5898 67.1992 16.1211 68.3789 16.1211ZM68.3789 17.5156C67.7461 17.5156 67.2812 17.8477 66.9844 18.5117C66.6875 19.168 66.5391 20.1562 66.5391 21.4766C66.5391 22.7969 66.6875 23.793 66.9844 24.4648C67.2812 25.1367 67.7461 25.4727 68.3789 25.4727C69.0352 25.4727 69.5234 25.1367 69.8438 24.4648C70.1641 23.793 70.3242 22.7969 70.3242 21.4766C70.3242 20.1641 70.1641 19.1758 69.8438 18.5117C69.5312 17.8477 69.043 17.5156 68.3789 17.5156ZM79.2305 16.3672L69.7266 33.5H68.0156L77.5195 16.3672H79.2305ZM78.7734 22.9883C79.9375 22.9883 80.8242 23.457 81.4336 24.3945C82.043 25.3242 82.3477 26.6406 82.3477 28.3438C82.3477 30.0391 82.0547 31.3633 81.4688 32.3164C80.8828 33.2617 79.9844 33.7344 78.7734 33.7344C77.6406 33.7344 76.7773 33.2617 76.1836 32.3164C75.5898 31.3633 75.293 30.0391 75.293 28.3438C75.293 26.6406 75.5742 25.3242 76.1367 24.3945C76.707 23.457 77.5859 22.9883 78.7734 22.9883ZM78.7734 24.3945C78.1406 24.3945 77.6758 24.7227 77.3789 25.3789C77.082 26.0352 76.9336 27.0234 76.9336 28.3438C76.9336 29.6641 77.082 30.6602 77.3789 31.332C77.6758 31.9961 78.1406 32.3281 78.7734 32.3281C79.4297 32.3281 79.918 32 80.2383 31.3438C80.5586 30.6797 80.7188 29.6797 80.7188 28.3438C80.7188 27.0312 80.5586 26.0469 80.2383 25.3906C79.9258 24.7266 79.4375 24.3945 78.7734 24.3945Z" fill="#F8F8F8"/>
</svg>
