<svg width="109" height="19" viewBox="0 0 109 19" fill="none" xmlns="http://www.w3.org/2000/svg">
<path d="M8.424 6.888C9.608 6.888 10.68 7.12 11.64 7.584C12.6 8.048 13.352 8.696 13.896 9.528C14.456 10.36 14.736 11.312 14.736 12.384C14.736 13.536 14.456 14.56 13.896 15.456C13.336 16.336 12.56 17.024 11.568 17.52C10.592 18 9.496 18.24 8.28 18.24C6.808 18.24 5.552 17.88 4.512 17.16C3.472 16.424 2.68 15.408 2.136 14.112C1.608 12.8 1.344 11.296 1.344 9.6C1.344 7.856 1.616 6.336 2.16 5.04C2.72 3.728 3.512 2.72 4.536 2.016C5.56 1.312 6.76 0.959999 8.136 0.959999C9.688 0.959999 11.024 1.376 12.144 2.208C13.28 3.04 14.04 4.112 14.424 5.424H11.856C11.472 4.64 10.984 4.072 10.392 3.72C9.816 3.368 9.056 3.192 8.112 3.192C7.184 3.192 6.368 3.44 5.664 3.936C4.96 4.416 4.416 5.12 4.032 6.048C3.664 6.976 3.488 8.08 3.504 9.36C3.936 8.56 4.584 7.952 5.448 7.536C6.328 7.104 7.32 6.888 8.424 6.888ZM8.208 16.032C9.472 16.032 10.48 15.704 11.232 15.048C11.984 14.376 12.36 13.48 12.36 12.36C12.36 11.352 11.992 10.544 11.256 9.936C10.52 9.312 9.544 9 8.328 9C7.096 9 6.104 9.32 5.352 9.96C4.616 10.6 4.248 11.448 4.248 12.504C4.248 13.144 4.408 13.736 4.728 14.28C5.064 14.808 5.528 15.232 6.12 15.552C6.728 15.872 7.424 16.032 8.208 16.032ZM23.1666 0.959999C24.6386 0.959999 25.8946 1.328 26.9346 2.064C27.9746 2.784 28.7586 3.8 29.2866 5.112C29.8306 6.408 30.1026 7.904 30.1026 9.6C30.1026 11.344 29.8226 12.872 29.2626 14.184C28.7186 15.48 27.9346 16.48 26.9106 17.184C25.8866 17.888 24.6866 18.24 23.3106 18.24C21.7586 18.24 20.4146 17.824 19.2786 16.992C18.1586 16.16 17.4066 15.088 17.0226 13.776H19.5906C19.9746 14.56 20.4546 15.128 21.0306 15.48C21.6226 15.832 22.3906 16.008 23.3346 16.008C24.2626 16.008 25.0786 15.768 25.7826 15.288C26.4866 14.792 27.0226 14.08 27.3906 13.152C27.7746 12.224 27.9586 11.12 27.9426 9.84C27.5106 10.64 26.8546 11.256 25.9746 11.688C25.1106 12.104 24.1266 12.312 23.0226 12.312C21.8386 12.312 20.7666 12.08 19.8066 11.616C18.8466 11.152 18.0866 10.504 17.5266 9.672C16.9826 8.84 16.7106 7.888 16.7106 6.816C16.7106 5.664 16.9906 4.648 17.5506 3.768C18.1106 2.872 18.8786 2.184 19.8546 1.704C20.8466 1.208 21.9506 0.959999 23.1666 0.959999ZM23.1186 10.2C24.3506 10.2 25.3346 9.88 26.0706 9.24C26.8226 8.6 27.1986 7.752 27.1986 6.696C27.1986 6.056 27.0306 5.472 26.6946 4.944C26.3746 4.4 25.9106 3.968 25.3026 3.648C24.7106 3.328 24.0226 3.168 23.2386 3.168C21.9746 3.168 20.9666 3.504 20.2146 4.176C19.4626 4.832 19.0866 5.72 19.0866 6.84C19.0866 7.848 19.4546 8.664 20.1906 9.288C20.9266 9.896 21.9026 10.2 23.1186 10.2ZM45.6197 0.959999C47.0917 0.959999 48.3477 1.328 49.3877 2.064C50.4277 2.784 51.2117 3.8 51.7397 5.112C52.2837 6.408 52.5557 7.904 52.5557 9.6C52.5557 11.344 52.2757 12.872 51.7157 14.184C51.1717 15.48 50.3877 16.48 49.3637 17.184C48.3397 17.888 47.1397 18.24 45.7637 18.24C44.2117 18.24 42.8677 17.824 41.7317 16.992C40.6117 16.16 39.8597 15.088 39.4757 13.776H42.0437C42.4277 14.56 42.9077 15.128 43.4837 15.48C44.0757 15.832 44.8437 16.008 45.7877 16.008C46.7157 16.008 47.5317 15.768 48.2357 15.288C48.9397 14.792 49.4757 14.08 49.8437 13.152C50.2277 12.224 50.4117 11.12 50.3957 9.84C49.9637 10.64 49.3077 11.256 48.4277 11.688C47.5637 12.104 46.5797 12.312 45.4757 12.312C44.2917 12.312 43.2197 12.08 42.2597 11.616C41.2997 11.152 40.5397 10.504 39.9797 9.672C39.4357 8.84 39.1637 7.888 39.1637 6.816C39.1637 5.664 39.4437 4.648 40.0037 3.768C40.5637 2.872 41.3317 2.184 42.3077 1.704C43.2997 1.208 44.4037 0.959999 45.6197 0.959999ZM45.5717 10.2C46.8037 10.2 47.7877 9.88 48.5237 9.24C49.2757 8.6 49.6517 7.752 49.6517 6.696C49.6517 6.056 49.4837 5.472 49.1477 4.944C48.8277 4.4 48.3637 3.968 47.7557 3.648C47.1637 3.328 46.4757 3.168 45.6917 3.168C44.4277 3.168 43.4197 3.504 42.6677 4.176C41.9157 4.832 41.5397 5.72 41.5397 6.84C41.5397 7.848 41.9077 8.664 42.6437 9.288C43.3797 9.896 44.3557 10.2 45.5717 10.2ZM61.3463 0.959999C62.8183 0.959999 64.0743 1.328 65.1143 2.064C66.1543 2.784 66.9383 3.8 67.4662 5.112C68.0103 6.408 68.2823 7.904 68.2823 9.6C68.2823 11.344 68.0023 12.872 67.4423 14.184C66.8983 15.48 66.1143 16.48 65.0903 17.184C64.0663 17.888 62.8663 18.24 61.4903 18.24C59.9383 18.24 58.5943 17.824 57.4583 16.992C56.3383 16.16 55.5863 15.088 55.2023 13.776H57.7703C58.1543 14.56 58.6343 15.128 59.2103 15.48C59.8023 15.832 60.5703 16.008 61.5143 16.008C62.4423 16.008 63.2583 15.768 63.9623 15.288C64.6663 14.792 65.2023 14.08 65.5703 13.152C65.9543 12.224 66.1383 11.12 66.1223 9.84C65.6903 10.64 65.0343 11.256 64.1543 11.688C63.2903 12.104 62.3063 12.312 61.2023 12.312C60.0183 12.312 58.9463 12.08 57.9863 11.616C57.0263 11.152 56.2663 10.504 55.7063 9.672C55.1623 8.84 54.8903 7.888 54.8903 6.816C54.8903 5.664 55.1703 4.648 55.7303 3.768C56.2903 2.872 57.0583 2.184 58.0343 1.704C59.0263 1.208 60.1303 0.959999 61.3463 0.959999ZM61.2983 10.2C62.5303 10.2 63.5143 9.88 64.2503 9.24C65.0023 8.6 65.3783 7.752 65.3783 6.696C65.3783 6.056 65.2103 5.472 64.8743 4.944C64.5543 4.4 64.0903 3.968 63.4823 3.648C62.8903 3.328 62.2023 3.168 61.4183 3.168C60.1543 3.168 59.1463 3.504 58.3943 4.176C57.6423 4.832 57.2663 5.72 57.2663 6.84C57.2663 7.848 57.6343 8.664 58.3703 9.288C59.1063 9.896 60.0823 10.2 61.2983 10.2ZM78.0328 18.24C76.5928 18.24 75.3288 17.888 74.2408 17.184C73.1528 16.464 72.3128 15.456 71.7208 14.16C71.1288 12.848 70.8328 11.328 70.8328 9.6C70.8328 7.872 71.1288 6.36 71.7208 5.064C72.3128 3.752 73.1528 2.744 74.2408 2.04C75.3288 1.32 76.5928 0.959999 78.0328 0.959999C79.4728 0.959999 80.7368 1.32 81.8248 2.04C82.9128 2.744 83.7528 3.752 84.3448 5.064C84.9368 6.36 85.2328 7.872 85.2328 9.6C85.2328 11.328 84.9368 12.848 84.3448 14.16C83.7528 15.456 82.9128 16.464 81.8248 17.184C80.7368 17.888 79.4728 18.24 78.0328 18.24ZM78.0328 16.008C79.5208 16.008 80.6888 15.44 81.5368 14.304C82.4008 13.168 82.8328 11.6 82.8328 9.6C82.8328 7.6 82.4008 6.032 81.5368 4.896C80.6888 3.76 79.5208 3.192 78.0328 3.192C76.5448 3.192 75.3688 3.76 74.5048 4.896C73.6568 6.032 73.2328 7.6 73.2328 9.6C73.2328 11.6 73.6568 13.168 74.5048 14.304C75.3688 15.44 76.5448 16.008 78.0328 16.008ZM102.668 1.2C103.788 1.2 104.748 1.416 105.548 1.848C106.364 2.264 106.98 2.848 107.396 3.6C107.828 4.336 108.044 5.176 108.044 6.12C108.044 7.064 107.828 7.912 107.396 8.664C106.98 9.4 106.364 9.984 105.548 10.416C104.748 10.832 103.788 11.04 102.668 11.04H97.7241V18H95.3241V1.2H102.668ZM102.596 8.808C103.556 8.808 104.284 8.584 104.78 8.136C105.276 7.672 105.524 7 105.524 6.12C105.524 5.24 105.276 4.576 104.78 4.128C104.284 3.68 103.556 3.456 102.596 3.456H97.7241V8.808H102.596Z" fill="#ABABAB"/>
<path d="M0 10.8H108.764V12H0V10.8Z" fill="#ABABAB"/>
</svg>
