<svg width="101" height="19" viewBox="0 0 101 19" fill="none" xmlns="http://www.w3.org/2000/svg">
<path d="M7.488 6.672C9.44 6.672 10.944 7.208 12 8.28C13.056 9.352 13.584 10.768 13.584 12.528C13.584 13.664 13.32 14.664 12.792 15.528C12.264 16.392 11.52 17.064 10.56 17.544C9.616 18.008 8.52 18.24 7.272 18.24C6.2 18.24 5.208 18.032 4.296 17.616C3.4 17.184 2.648 16.592 2.04 15.84C1.432 15.072 1.032 14.2 0.84 13.224H3.216C3.568 14.168 4.096 14.888 4.8 15.384C5.52 15.88 6.392 16.128 7.416 16.128C8.6 16.128 9.528 15.8 10.2 15.144C10.888 14.488 11.232 13.584 11.232 12.432C11.232 11.312 10.88 10.424 10.176 9.768C9.488 9.112 8.528 8.784 7.296 8.784C6.56 8.784 5.904 8.92 5.328 9.192C4.752 9.448 4.288 9.8 3.936 10.248H1.368L2.592 1.2H12.84V3.408H4.344L3.72 8.184C4.2 7.736 4.784 7.376 5.472 7.104C6.176 6.816 6.848 6.672 7.488 6.672ZM14.6419 4.344L18.8419 1.2H20.6419V18H18.2419V4.344L14.6419 7.008V4.344ZM36.9713 0.959999C38.4433 0.959999 39.6993 1.328 40.7393 2.064C41.7793 2.784 42.5633 3.8 43.0912 5.112C43.6353 6.408 43.9073 7.904 43.9073 9.6C43.9073 11.344 43.6273 12.872 43.0673 14.184C42.5233 15.48 41.7393 16.48 40.7153 17.184C39.6913 17.888 38.4913 18.24 37.1153 18.24C35.5633 18.24 34.2193 17.824 33.0833 16.992C31.9633 16.16 31.2113 15.088 30.8273 13.776H33.3953C33.7793 14.56 34.2593 15.128 34.8353 15.48C35.4273 15.832 36.1953 16.008 37.1393 16.008C38.0673 16.008 38.8833 15.768 39.5873 15.288C40.2913 14.792 40.8273 14.08 41.1953 13.152C41.5793 12.224 41.7633 11.12 41.7473 9.84C41.3153 10.64 40.6593 11.256 39.7793 11.688C38.9153 12.104 37.9313 12.312 36.8273 12.312C35.6433 12.312 34.5713 12.08 33.6113 11.616C32.6513 11.152 31.8913 10.504 31.3313 9.672C30.7873 8.84 30.5153 7.888 30.5153 6.816C30.5153 5.664 30.7953 4.648 31.3553 3.768C31.9153 2.872 32.6833 2.184 33.6593 1.704C34.6513 1.208 35.7553 0.959999 36.9713 0.959999ZM36.9233 10.2C38.1553 10.2 39.1393 9.88 39.8753 9.24C40.6273 8.6 41.0033 7.752 41.0033 6.696C41.0033 6.056 40.8353 5.472 40.4993 4.944C40.1793 4.4 39.7153 3.968 39.1073 3.648C38.5153 3.328 37.8273 3.168 37.0433 3.168C35.7793 3.168 34.7713 3.504 34.0193 4.176C33.2673 4.832 32.8913 5.72 32.8913 6.84C32.8913 7.848 33.2593 8.664 33.9953 9.288C34.7313 9.896 35.7073 10.2 36.9233 10.2ZM52.6978 0.959999C54.1698 0.959999 55.4258 1.328 56.4658 2.064C57.5058 2.784 58.2898 3.8 58.8178 5.112C59.3618 6.408 59.6338 7.904 59.6338 9.6C59.6338 11.344 59.3538 12.872 58.7938 14.184C58.2498 15.48 57.4658 16.48 56.4418 17.184C55.4178 17.888 54.2178 18.24 52.8418 18.24C51.2898 18.24 49.9458 17.824 48.8098 16.992C47.6898 16.16 46.9378 15.088 46.5538 13.776H49.1218C49.5058 14.56 49.9858 15.128 50.5618 15.48C51.1538 15.832 51.9218 16.008 52.8658 16.008C53.7938 16.008 54.6098 15.768 55.3138 15.288C56.0178 14.792 56.5538 14.08 56.9218 13.152C57.3058 12.224 57.4898 11.12 57.4738 9.84C57.0418 10.64 56.3858 11.256 55.5058 11.688C54.6418 12.104 53.6578 12.312 52.5538 12.312C51.3698 12.312 50.2978 12.08 49.3378 11.616C48.3778 11.152 47.6178 10.504 47.0578 9.672C46.5138 8.84 46.2418 7.888 46.2418 6.816C46.2418 5.664 46.5218 4.648 47.0818 3.768C47.6418 2.872 48.4098 2.184 49.3858 1.704C50.3778 1.208 51.4818 0.959999 52.6978 0.959999ZM52.6498 10.2C53.8818 10.2 54.8658 9.88 55.6018 9.24C56.3538 8.6 56.7298 7.752 56.7298 6.696C56.7298 6.056 56.5618 5.472 56.2258 4.944C55.9058 4.4 55.4418 3.968 54.8338 3.648C54.2418 3.328 53.5538 3.168 52.7698 3.168C51.5058 3.168 50.4978 3.504 49.7458 4.176C48.9938 4.832 48.6178 5.72 48.6178 6.84C48.6178 7.848 48.9858 8.664 49.7218 9.288C50.4578 9.896 51.4338 10.2 52.6498 10.2ZM69.3844 18.24C67.9444 18.24 66.6804 17.888 65.5924 17.184C64.5044 16.464 63.6644 15.456 63.0724 14.16C62.4804 12.848 62.1844 11.328 62.1844 9.6C62.1844 7.872 62.4804 6.36 63.0724 5.064C63.6644 3.752 64.5044 2.744 65.5924 2.04C66.6804 1.32 67.9444 0.959999 69.3844 0.959999C70.8244 0.959999 72.0884 1.32 73.1764 2.04C74.2644 2.744 75.1044 3.752 75.6964 5.064C76.2884 6.36 76.5844 7.872 76.5844 9.6C76.5844 11.328 76.2884 12.848 75.6964 14.16C75.1044 15.456 74.2644 16.464 73.1764 17.184C72.0884 17.888 70.8244 18.24 69.3844 18.24ZM69.3844 16.008C70.8724 16.008 72.0404 15.44 72.8884 14.304C73.7524 13.168 74.1844 11.6 74.1844 9.6C74.1844 7.6 73.7524 6.032 72.8884 4.896C72.0404 3.76 70.8724 3.192 69.3844 3.192C67.8964 3.192 66.7204 3.76 65.8564 4.896C65.0084 6.032 64.5844 7.6 64.5844 9.6C64.5844 11.6 65.0084 13.168 65.8564 14.304C66.7204 15.44 67.8964 16.008 69.3844 16.008ZM94.0196 1.2C95.1396 1.2 96.0996 1.416 96.8996 1.848C97.7156 2.264 98.3316 2.848 98.7476 3.6C99.1796 4.336 99.3956 5.176 99.3956 6.12C99.3956 7.064 99.1796 7.912 98.7476 8.664C98.3316 9.4 97.7156 9.984 96.8996 10.416C96.0996 10.832 95.1396 11.04 94.0196 11.04H89.0756V18H86.6756V1.2H94.0196ZM93.9476 8.808C94.9076 8.808 95.6356 8.584 96.1316 8.136C96.6276 7.672 96.8756 7 96.8756 6.12C96.8756 5.24 96.6276 4.576 96.1316 4.128C95.6356 3.68 94.9076 3.456 93.9476 3.456H89.0756V8.808H93.9476Z" fill="#ABABAB"/>
<path d="M0 10.8H100.116V12H0V10.8Z" fill="#ABABAB"/>
</svg>
