<svg width="172" height="31" viewBox="0 0 172 31" fill="none" xmlns="http://www.w3.org/2000/svg">
<path d="M25.41 22.86H20.37V30H16.17V22.86H0.42V18.492L14.07 0.599998H20.37V18.87H25.41V22.86ZM16.17 18.87V3.54L4.494 18.87H16.17ZM47.8931 0.599998V4.632L32.9411 30H28.4891L43.6931 4.464H25.6331V0.599998H47.8931ZM73.9282 0.179998C76.5042 0.179998 78.7022 0.823998 80.5222 2.112C82.3422 3.372 83.7142 5.15 84.6382 7.446C85.5902 9.714 86.0662 12.332 86.0662 15.3C86.0662 18.352 85.5762 21.026 84.5962 23.322C83.6442 25.59 82.2722 27.34 80.4802 28.572C78.6882 29.804 76.5882 30.42 74.1802 30.42C71.4642 30.42 69.1122 29.692 67.1242 28.236C65.1642 26.78 63.8482 24.904 63.1762 22.608H67.6702C68.3422 23.98 69.1822 24.974 70.1902 25.59C71.2262 26.206 72.5702 26.514 74.2222 26.514C75.8462 26.514 77.2742 26.094 78.5062 25.254C79.7382 24.386 80.6762 23.14 81.3202 21.516C81.9922 19.892 82.3142 17.96 82.2862 15.72C81.5302 17.12 80.3822 18.198 78.8422 18.954C77.3302 19.682 75.6082 20.046 73.6762 20.046C71.6042 20.046 69.7282 19.64 68.0482 18.828C66.3682 18.016 65.0382 16.882 64.0582 15.426C63.1062 13.97 62.6302 12.304 62.6302 10.428C62.6302 8.412 63.1202 6.634 64.1002 5.094C65.0802 3.526 66.4242 2.322 68.1322 1.482C69.8682 0.613999 71.8002 0.179998 73.9282 0.179998ZM73.8442 16.35C76.0002 16.35 77.7222 15.79 79.0102 14.67C80.3262 13.55 80.9842 12.066 80.9842 10.218C80.9842 9.098 80.6902 8.076 80.1022 7.152C79.5422 6.2 78.7302 5.444 77.6662 4.884C76.6302 4.324 75.4262 4.044 74.0542 4.044C71.8422 4.044 70.0782 4.632 68.7622 5.808C67.4462 6.956 66.7882 8.51 66.7882 10.47C66.7882 12.234 67.4322 13.662 68.7202 14.754C70.0082 15.818 71.7162 16.35 73.8442 16.35ZM101.45 0.179998C104.026 0.179998 106.224 0.823998 108.044 2.112C109.864 3.372 111.236 5.15 112.16 7.446C113.112 9.714 113.588 12.332 113.588 15.3C113.588 18.352 113.098 21.026 112.118 23.322C111.166 25.59 109.794 27.34 108.002 28.572C106.21 29.804 104.11 30.42 101.702 30.42C98.9857 30.42 96.6337 29.692 94.6457 28.236C92.6857 26.78 91.3697 24.904 90.6977 22.608H95.1917C95.8637 23.98 96.7037 24.974 97.7117 25.59C98.7477 26.206 100.092 26.514 101.744 26.514C103.368 26.514 104.796 26.094 106.028 25.254C107.26 24.386 108.198 23.14 108.842 21.516C109.514 19.892 109.836 17.96 109.808 15.72C109.052 17.12 107.904 18.198 106.364 18.954C104.852 19.682 103.13 20.046 101.198 20.046C99.1257 20.046 97.2497 19.64 95.5697 18.828C93.8897 18.016 92.5597 16.882 91.5797 15.426C90.6277 13.97 90.1517 12.304 90.1517 10.428C90.1517 8.412 90.6417 6.634 91.6217 5.094C92.6017 3.526 93.9457 2.322 95.6537 1.482C97.3897 0.613999 99.3217 0.179998 101.45 0.179998ZM101.366 16.35C103.522 16.35 105.244 15.79 106.532 14.67C107.848 13.55 108.506 12.066 108.506 10.218C108.506 9.098 108.212 8.076 107.624 7.152C107.064 6.2 106.252 5.444 105.188 4.884C104.152 4.324 102.948 4.044 101.576 4.044C99.3637 4.044 97.5997 4.632 96.2837 5.808C94.9677 6.956 94.3097 8.51 94.3097 10.47C94.3097 12.234 94.9537 13.662 96.2417 14.754C97.5297 15.818 99.2377 16.35 101.366 16.35ZM130.651 30.42C128.131 30.42 125.919 29.804 124.015 28.572C122.111 27.312 120.641 25.548 119.605 23.28C118.569 20.984 118.051 18.324 118.051 15.3C118.051 12.276 118.569 9.63 119.605 7.362C120.641 5.066 122.111 3.302 124.015 2.07C125.919 0.809999 128.131 0.179998 130.651 0.179998C133.171 0.179998 135.383 0.809999 137.287 2.07C139.191 3.302 140.661 5.066 141.697 7.362C142.733 9.63 143.251 12.276 143.251 15.3C143.251 18.324 142.733 20.984 141.697 23.28C140.661 25.548 139.191 27.312 137.287 28.572C135.383 29.804 133.171 30.42 130.651 30.42ZM130.651 26.514C133.255 26.514 135.299 25.52 136.783 23.532C138.295 21.544 139.051 18.8 139.051 15.3C139.051 11.8 138.295 9.056 136.783 7.068C135.299 5.08 133.255 4.086 130.651 4.086C128.047 4.086 125.989 5.08 124.477 7.068C122.993 9.056 122.251 11.8 122.251 15.3C122.251 18.8 122.993 21.544 124.477 23.532C125.989 25.52 128.047 26.514 130.651 26.514ZM161.991 0.599998C163.951 0.599998 165.631 0.977998 167.031 1.734C168.459 2.462 169.537 3.484 170.265 4.8C171.021 6.088 171.399 7.558 171.399 9.21C171.399 10.862 171.021 12.346 170.265 13.662C169.537 14.95 168.459 15.972 167.031 16.728C165.631 17.456 163.951 17.82 161.991 17.82H153.339V30H149.139V0.599998H161.991ZM161.865 13.914C163.545 13.914 164.819 13.522 165.687 12.738C166.555 11.926 166.989 10.75 166.989 9.21C166.989 7.67 166.555 6.508 165.687 5.724C164.819 4.94 163.545 4.548 161.865 4.548H153.339V13.914H161.865Z" fill="#111111"/>
</svg>
