<svg width="174" height="31" viewBox="0 0 174 31" fill="none" xmlns="http://www.w3.org/2000/svg">
<path d="M12.104 10.176C15.52 10.176 18.152 11.114 20 12.99C21.848 14.866 22.772 17.344 22.772 20.424C22.772 22.412 22.31 24.162 21.386 25.674C20.462 27.186 19.16 28.362 17.48 29.202C15.828 30.014 13.91 30.42 11.726 30.42C9.85 30.42 8.114 30.056 6.518 29.328C4.95 28.572 3.634 27.536 2.57 26.22C1.506 24.876 0.806 23.35 0.47 21.642H4.628C5.244 23.294 6.168 24.554 7.4 25.422C8.66 26.29 10.186 26.724 11.978 26.724C14.05 26.724 15.674 26.15 16.85 25.002C18.054 23.854 18.656 22.272 18.656 20.256C18.656 18.296 18.04 16.742 16.808 15.594C15.604 14.446 13.924 13.872 11.768 13.872C10.48 13.872 9.332 14.11 8.324 14.586C7.316 15.034 6.504 15.65 5.888 16.434H1.394L3.536 0.599998H21.47V4.464H6.602L5.51 12.822C6.35 12.038 7.372 11.408 8.576 10.932C9.808 10.428 10.984 10.176 12.104 10.176ZM37.2036 0.179998C39.7796 0.179998 41.9776 0.823998 43.7976 2.112C45.6176 3.372 46.9896 5.15 47.9136 7.446C48.8656 9.714 49.3416 12.332 49.3416 15.3C49.3416 18.352 48.8516 21.026 47.8716 23.322C46.9196 25.59 45.5476 27.34 43.7556 28.572C41.9636 29.804 39.8636 30.42 37.4556 30.42C34.7396 30.42 32.3876 29.692 30.3996 28.236C28.4396 26.78 27.1236 24.904 26.4516 22.608H30.9456C31.6176 23.98 32.4576 24.974 33.4656 25.59C34.5016 26.206 35.8456 26.514 37.4976 26.514C39.1216 26.514 40.5496 26.094 41.7816 25.254C43.0136 24.386 43.9516 23.14 44.5956 21.516C45.2676 19.892 45.5896 17.96 45.5616 15.72C44.8056 17.12 43.6576 18.198 42.1176 18.954C40.6056 19.682 38.8836 20.046 36.9516 20.046C34.8796 20.046 33.0036 19.64 31.3236 18.828C29.6436 18.016 28.3136 16.882 27.3336 15.426C26.3816 13.97 25.9056 12.304 25.9056 10.428C25.9056 8.412 26.3956 6.634 27.3756 5.094C28.3556 3.526 29.6996 2.322 31.4076 1.482C33.1436 0.613999 35.0756 0.179998 37.2036 0.179998ZM37.1196 16.35C39.2756 16.35 40.9976 15.79 42.2856 14.67C43.6016 13.55 44.2596 12.066 44.2596 10.218C44.2596 9.098 43.9656 8.076 43.3776 7.152C42.8176 6.2 42.0056 5.444 40.9416 4.884C39.9056 4.324 38.7016 4.044 37.3296 4.044C35.1176 4.044 33.3536 4.632 32.0376 5.808C30.7216 6.956 30.0636 8.51 30.0636 10.47C30.0636 12.234 30.7076 13.662 31.9956 14.754C33.2836 15.818 34.9916 16.35 37.1196 16.35ZM76.4966 0.179998C79.0726 0.179998 81.2706 0.823998 83.0906 2.112C84.9106 3.372 86.2826 5.15 87.2066 7.446C88.1586 9.714 88.6346 12.332 88.6346 15.3C88.6346 18.352 88.1446 21.026 87.1646 23.322C86.2126 25.59 84.8406 27.34 83.0486 28.572C81.2566 29.804 79.1566 30.42 76.7486 30.42C74.0326 30.42 71.6806 29.692 69.6926 28.236C67.7326 26.78 66.4166 24.904 65.7446 22.608H70.2386C70.9106 23.98 71.7506 24.974 72.7586 25.59C73.7946 26.206 75.1386 26.514 76.7906 26.514C78.4146 26.514 79.8426 26.094 81.0746 25.254C82.3066 24.386 83.2446 23.14 83.8886 21.516C84.5606 19.892 84.8826 17.96 84.8546 15.72C84.0986 17.12 82.9506 18.198 81.4106 18.954C79.8986 19.682 78.1766 20.046 76.2446 20.046C74.1726 20.046 72.2966 19.64 70.6166 18.828C68.9366 18.016 67.6066 16.882 66.6266 15.426C65.6746 13.97 65.1986 12.304 65.1986 10.428C65.1986 8.412 65.6886 6.634 66.6686 5.094C67.6486 3.526 68.9926 2.322 70.7006 1.482C72.4366 0.613999 74.3686 0.179998 76.4966 0.179998ZM76.4126 16.35C78.5686 16.35 80.2906 15.79 81.5786 14.67C82.8946 13.55 83.5526 12.066 83.5526 10.218C83.5526 9.098 83.2586 8.076 82.6706 7.152C82.1106 6.2 81.2986 5.444 80.2346 4.884C79.1986 4.324 77.9946 4.044 76.6226 4.044C74.4106 4.044 72.6466 4.632 71.3306 5.808C70.0146 6.956 69.3566 8.51 69.3566 10.47C69.3566 12.234 70.0006 13.662 71.2886 14.754C72.5766 15.818 74.2846 16.35 76.4126 16.35ZM104.018 0.179998C106.594 0.179998 108.792 0.823998 110.612 2.112C112.432 3.372 113.804 5.15 114.728 7.446C115.68 9.714 116.156 12.332 116.156 15.3C116.156 18.352 115.666 21.026 114.686 23.322C113.734 25.59 112.362 27.34 110.57 28.572C108.778 29.804 106.678 30.42 104.27 30.42C101.554 30.42 99.202 29.692 97.214 28.236C95.254 26.78 93.938 24.904 93.266 22.608H97.76C98.432 23.98 99.272 24.974 100.28 25.59C101.316 26.206 102.66 26.514 104.312 26.514C105.936 26.514 107.364 26.094 108.596 25.254C109.828 24.386 110.766 23.14 111.41 21.516C112.082 19.892 112.404 17.96 112.376 15.72C111.62 17.12 110.472 18.198 108.932 18.954C107.42 19.682 105.698 20.046 103.766 20.046C101.694 20.046 99.818 19.64 98.138 18.828C96.458 18.016 95.128 16.882 94.148 15.426C93.196 13.97 92.72 12.304 92.72 10.428C92.72 8.412 93.21 6.634 94.19 5.094C95.17 3.526 96.514 2.322 98.222 1.482C99.958 0.613999 101.89 0.179998 104.018 0.179998ZM103.934 16.35C106.09 16.35 107.812 15.79 109.1 14.67C110.416 13.55 111.074 12.066 111.074 10.218C111.074 9.098 110.78 8.076 110.192 7.152C109.632 6.2 108.82 5.444 107.756 4.884C106.72 4.324 105.516 4.044 104.144 4.044C101.932 4.044 100.168 4.632 98.852 5.808C97.536 6.956 96.878 8.51 96.878 10.47C96.878 12.234 97.522 13.662 98.81 14.754C100.098 15.818 101.806 16.35 103.934 16.35ZM133.22 30.42C130.7 30.42 128.488 29.804 126.584 28.572C124.68 27.312 123.21 25.548 122.174 23.28C121.138 20.984 120.62 18.324 120.62 15.3C120.62 12.276 121.138 9.63 122.174 7.362C123.21 5.066 124.68 3.302 126.584 2.07C128.488 0.809999 130.7 0.179998 133.22 0.179998C135.74 0.179998 137.952 0.809999 139.856 2.07C141.76 3.302 143.23 5.066 144.266 7.362C145.302 9.63 145.82 12.276 145.82 15.3C145.82 18.324 145.302 20.984 144.266 23.28C143.23 25.548 141.76 27.312 139.856 28.572C137.952 29.804 135.74 30.42 133.22 30.42ZM133.22 26.514C135.824 26.514 137.868 25.52 139.352 23.532C140.864 21.544 141.62 18.8 141.62 15.3C141.62 11.8 140.864 9.056 139.352 7.068C137.868 5.08 135.824 4.086 133.22 4.086C130.616 4.086 128.558 5.08 127.046 7.068C125.562 9.056 124.82 11.8 124.82 15.3C124.82 18.8 125.562 21.544 127.046 23.532C128.558 25.52 130.616 26.514 133.22 26.514ZM164.56 0.599998C166.52 0.599998 168.2 0.977998 169.6 1.734C171.028 2.462 172.106 3.484 172.834 4.8C173.59 6.088 173.968 7.558 173.968 9.21C173.968 10.862 173.59 12.346 172.834 13.662C172.106 14.95 171.028 15.972 169.6 16.728C168.2 17.456 166.52 17.82 164.56 17.82H155.908V30H151.708V0.599998H164.56ZM164.434 13.914C166.114 13.914 167.388 13.522 168.256 12.738C169.124 11.926 169.558 10.75 169.558 9.21C169.558 7.67 169.124 6.508 168.256 5.724C167.388 4.94 166.114 4.548 164.434 4.548H155.908V13.914H164.434Z" fill="#111111"/>
</svg>
