<svg width="176" height="31" viewBox="0 0 176 31" fill="none" xmlns="http://www.w3.org/2000/svg">
<path d="M25.41 22.86H20.37V30H16.17V22.86H0.42V18.492L14.07 0.599998H20.37V18.87H25.41V22.86ZM16.17 18.87V3.54L4.494 18.87H16.17ZM40.7869 10.554C42.8589 10.554 44.7349 10.96 46.4149 11.772C48.0949 12.584 49.4109 13.718 50.3629 15.174C51.3429 16.63 51.8329 18.296 51.8329 20.172C51.8329 22.188 51.3429 23.98 50.3629 25.548C49.3829 27.088 48.0249 28.292 46.2889 29.16C44.5809 30 42.6629 30.42 40.5349 30.42C37.9589 30.42 35.7609 29.79 33.9409 28.53C32.1209 27.242 30.7349 25.464 29.7829 23.196C28.8589 20.9 28.3969 18.268 28.3969 15.3C28.3969 12.248 28.8729 9.588 29.8249 7.32C30.8049 5.024 32.1909 3.26 33.9829 2.028C35.7749 0.795999 37.8749 0.179998 40.2829 0.179998C42.9989 0.179998 45.3369 0.907998 47.2969 2.364C49.2849 3.82 50.6149 5.696 51.2869 7.992H46.7929C46.1209 6.62 45.2669 5.626 44.2309 5.01C43.2229 4.394 41.8929 4.086 40.2409 4.086C38.6169 4.086 37.1889 4.52 35.9569 5.388C34.7249 6.228 33.7729 7.46 33.1009 9.084C32.4569 10.708 32.1489 12.64 32.1769 14.88C32.9329 13.48 34.0669 12.416 35.5789 11.688C37.1189 10.932 38.8549 10.554 40.7869 10.554ZM40.4089 26.556C42.6209 26.556 44.3849 25.982 45.7009 24.834C47.0169 23.658 47.6749 22.09 47.6749 20.13C47.6749 18.366 47.0309 16.952 45.7429 15.888C44.4549 14.796 42.7469 14.25 40.6189 14.25C38.4629 14.25 36.7269 14.81 35.4109 15.93C34.1229 17.05 33.4789 18.534 33.4789 20.382C33.4789 21.502 33.7589 22.538 34.3189 23.49C34.9069 24.414 35.7189 25.156 36.7549 25.716C37.8189 26.276 39.0369 26.556 40.4089 26.556ZM78.3579 0.179998C80.9339 0.179998 83.1319 0.823998 84.9519 2.112C86.7719 3.372 88.1439 5.15 89.0679 7.446C90.0199 9.714 90.4959 12.332 90.4959 15.3C90.4959 18.352 90.0059 21.026 89.0259 23.322C88.0739 25.59 86.7019 27.34 84.9099 28.572C83.1179 29.804 81.0179 30.42 78.6099 30.42C75.8939 30.42 73.5419 29.692 71.5539 28.236C69.5939 26.78 68.2779 24.904 67.6059 22.608H72.0999C72.7719 23.98 73.6119 24.974 74.6199 25.59C75.6559 26.206 76.9999 26.514 78.6519 26.514C80.2759 26.514 81.7039 26.094 82.9359 25.254C84.1679 24.386 85.1059 23.14 85.7499 21.516C86.4219 19.892 86.7439 17.96 86.7159 15.72C85.9599 17.12 84.8119 18.198 83.2719 18.954C81.7599 19.682 80.0379 20.046 78.1059 20.046C76.0339 20.046 74.1579 19.64 72.4779 18.828C70.7979 18.016 69.4679 16.882 68.4879 15.426C67.5359 13.97 67.0599 12.304 67.0599 10.428C67.0599 8.412 67.5499 6.634 68.5299 5.094C69.5099 3.526 70.8539 2.322 72.5619 1.482C74.2979 0.613999 76.2299 0.179998 78.3579 0.179998ZM78.2739 16.35C80.4299 16.35 82.1519 15.79 83.4399 14.67C84.7559 13.55 85.4139 12.066 85.4139 10.218C85.4139 9.098 85.1199 8.076 84.5319 7.152C83.9719 6.2 83.1599 5.444 82.0959 4.884C81.0599 4.324 79.8559 4.044 78.4839 4.044C76.2719 4.044 74.5079 4.632 73.1919 5.808C71.8759 6.956 71.2179 8.51 71.2179 10.47C71.2179 12.234 71.8619 13.662 73.1499 14.754C74.4379 15.818 76.1459 16.35 78.2739 16.35ZM105.879 0.179998C108.455 0.179998 110.653 0.823998 112.473 2.112C114.293 3.372 115.665 5.15 116.589 7.446C117.541 9.714 118.017 12.332 118.017 15.3C118.017 18.352 117.527 21.026 116.547 23.322C115.595 25.59 114.223 27.34 112.431 28.572C110.639 29.804 108.539 30.42 106.131 30.42C103.415 30.42 101.063 29.692 99.0754 28.236C97.1154 26.78 95.7994 24.904 95.1274 22.608H99.6214C100.293 23.98 101.133 24.974 102.141 25.59C103.177 26.206 104.521 26.514 106.173 26.514C107.797 26.514 109.225 26.094 110.457 25.254C111.689 24.386 112.627 23.14 113.271 21.516C113.943 19.892 114.265 17.96 114.237 15.72C113.481 17.12 112.333 18.198 110.793 18.954C109.281 19.682 107.559 20.046 105.627 20.046C103.555 20.046 101.679 19.64 99.9994 18.828C98.3194 18.016 96.9894 16.882 96.0094 15.426C95.0574 13.97 94.5814 12.304 94.5814 10.428C94.5814 8.412 95.0714 6.634 96.0514 5.094C97.0314 3.526 98.3754 2.322 100.083 1.482C101.819 0.613999 103.751 0.179998 105.879 0.179998ZM105.795 16.35C107.951 16.35 109.673 15.79 110.961 14.67C112.277 13.55 112.935 12.066 112.935 10.218C112.935 9.098 112.641 8.076 112.053 7.152C111.493 6.2 110.681 5.444 109.617 4.884C108.581 4.324 107.377 4.044 106.005 4.044C103.793 4.044 102.029 4.632 100.713 5.808C99.3974 6.956 98.7394 8.51 98.7394 10.47C98.7394 12.234 99.3834 13.662 100.671 14.754C101.959 15.818 103.667 16.35 105.795 16.35ZM135.081 30.42C132.561 30.42 130.349 29.804 128.445 28.572C126.541 27.312 125.071 25.548 124.035 23.28C122.999 20.984 122.481 18.324 122.481 15.3C122.481 12.276 122.999 9.63 124.035 7.362C125.071 5.066 126.541 3.302 128.445 2.07C130.349 0.809999 132.561 0.179998 135.081 0.179998C137.601 0.179998 139.813 0.809999 141.717 2.07C143.621 3.302 145.091 5.066 146.127 7.362C147.163 9.63 147.681 12.276 147.681 15.3C147.681 18.324 147.163 20.984 146.127 23.28C145.091 25.548 143.621 27.312 141.717 28.572C139.813 29.804 137.601 30.42 135.081 30.42ZM135.081 26.514C137.685 26.514 139.729 25.52 141.213 23.532C142.725 21.544 143.481 18.8 143.481 15.3C143.481 11.8 142.725 9.056 141.213 7.068C139.729 5.08 137.685 4.086 135.081 4.086C132.477 4.086 130.419 5.08 128.907 7.068C127.423 9.056 126.681 11.8 126.681 15.3C126.681 18.8 127.423 21.544 128.907 23.532C130.419 25.52 132.477 26.514 135.081 26.514ZM166.421 0.599998C168.381 0.599998 170.061 0.977998 171.461 1.734C172.889 2.462 173.967 3.484 174.695 4.8C175.451 6.088 175.829 7.558 175.829 9.21C175.829 10.862 175.451 12.346 174.695 13.662C173.967 14.95 172.889 15.972 171.461 16.728C170.061 17.456 168.381 17.82 166.421 17.82H157.769V30H153.569V0.599998H166.421ZM166.295 13.914C167.975 13.914 169.249 13.522 170.117 12.738C170.985 11.926 171.419 10.75 171.419 9.21C171.419 7.67 170.985 6.508 170.117 5.724C169.249 4.94 167.975 4.548 166.295 4.548H157.769V13.914H166.295Z" fill="#111111"/>
</svg>
